<svg width="512" height="381" viewBox="0 0 512 381" fill="none" xmlns="http://www.w3.org/2000/svg">
<g clip-path="url(#clip0_100_1218720)">
<path d="M486.057 128.088C485.723 128.088 485.39 128.07 485.058 128.035C481.248 127.641 479.172 124.532 478.235 121.133C477.359 117.919 479.312 106.638 473.856 107.286C467.611 108.03 461.41 110.395 455.2 110.789C447.404 111.306 439.372 111.665 433.206 117.104C428.634 121.125 423.213 116.815 418.317 115.221C417.773 115.046 417.292 113.828 417.248 113.066C416.924 107.242 424.509 96.8716 430.675 94.8483C441.974 91.1434 453.448 88.1566 465.044 85.4327C470.922 84.0488 476.807 82.735 482.702 81.4299C486.705 80.5541 495.043 81.1321 496.304 75.9995C496.542 74.6369 496.575 73.2464 496.401 71.8742C496.068 67.0919 496.698 62.5637 496.935 57.8602C497.233 51.7291 492.757 52.8853 488.649 53.91C482.325 55.4866 476.194 58.2369 469.564 58.0354C459.053 57.7201 449.795 63.2118 439.6 64.3154C437.945 64.4906 436.097 66.0671 434.669 64.5081C433.241 62.949 435.09 61.3024 435.545 59.7609C438.488 50.2576 444.672 46.3337 454.814 44.328C471.456 41.0522 486.932 33.7212 501.305 24.4632C505.44 21.8356 510.441 17.5438 511.728 12.5689C512.438 9.82737 510.432 8.70624 508.032 8.11941C495.91 5.14144 482.08 3.65248 469.993 7.51508C454.035 12.6214 437.472 15.8709 421.233 20.1364C416.433 21.3889 413.035 23.9552 411.415 29.4819C407.806 41.8055 403.225 53.8575 399.047 66.0234C398.171 68.5809 397.296 71.2786 393.915 71.0421C389.579 70.7443 385.795 72.5749 381.793 73.6697C371.519 76.4375 368.558 84.4955 376.537 91.3448C383.544 97.3708 386.89 103.362 384.972 112.488C384.289 115.747 386.724 119.618 384.263 122.675C378.136 130.152 374.714 139.479 374.549 149.144C374.368 151.131 373.519 152.999 372.141 154.443C368.637 158.095 369.084 162.326 369.425 166.705C369.828 171.96 372.097 172.188 376.336 170.208C383.01 167.047 389.027 162.623 396.175 160.329C398.723 159.505 401.745 158.332 402.849 155.389C403.952 152.446 406.089 151.57 408.927 151.316C421.189 150.203 432.024 143.477 444.759 142.89C451.582 142.575 458.773 139.386 465.964 139.912C473.523 140.464 480.092 137.442 486.985 135.533C490.287 134.595 493.668 129.314 488.378 128.298C487.611 128.163 486.835 128.093 486.057 128.088Z" fill="white"/>
<path d="M470.957 260.712C470.44 254.914 468.452 250.99 462.058 250.719C459.964 250.631 457.845 250.079 456.96 248.231C452.931 239.805 444.768 238.351 437.279 238.281C425.017 238.167 413.044 235.654 400.948 234.401C395.588 233.832 390.578 235.601 385.419 234.821C382.896 234.436 379.183 236.004 378.631 231.616C378.219 228.305 379.743 226.255 382.599 224.11C394.318 215.351 407.92 210.472 421.251 205.191C426.953 202.931 432.716 199.165 439.46 201.013C446.204 202.861 449.095 200.855 450.085 193.804C451.214 185.79 449.804 178.284 447.834 170.515C446.292 164.463 443.025 163.166 438.435 165.014C429.002 168.816 419.017 170.927 410.197 176.76C400.186 183.39 389.019 188.278 378.298 193.831C375.6 195.223 373.043 196.546 370.862 198.893C368.331 201.565 366.08 205.296 361.332 205.366C361.113 199.533 362.935 193.979 362.681 188.278C362.156 176.155 355.464 169.516 343.412 168.886C331.36 168.255 319.764 173.388 307.703 170.261C305.189 169.613 302.71 171.592 300.398 172.836C296.967 174.795 292.935 175.419 289.073 174.588C288.784 174.518 288.512 174.465 288.197 174.413C290.707 172.671 292.821 170.418 294.4 167.802C295.979 165.186 296.987 162.266 297.359 159.234C298.042 154.311 300.293 149.599 301.335 144.72C304.226 131.153 311.197 118.812 312.949 104.868C313.431 100.988 316.076 98.2554 320.832 101.111C323.46 102.687 326.157 102.451 328.873 100.725C336.992 95.549 345.304 90.7492 354.798 88.4632C355.605 88.1675 356.355 87.7349 357.014 87.1844C368.961 79.0825 377.343 67.6787 385.55 56.1434C392.557 46.3599 397.313 35.7794 396.779 23.3683C396.218 10.3441 389.404 2.724 376.354 2.70648C361.873 2.70359 347.621 6.31631 334.89 13.2169C330.589 15.5117 326.438 17.8766 321.279 16.9044C318.415 16.3613 316.348 17.3335 314.683 19.9524C310.532 26.4952 308.421 33.4496 310.234 41.096C311.723 47.3935 310.532 53.2794 307.808 58.7974C306.433 61.6002 305.18 64.3329 304.777 67.3897C304.033 73.5208 300.915 78.0665 295.686 81.4912C294.959 78.4344 294.389 75.8681 295.195 72.8814C297.753 63.3694 293.724 54.2691 291.902 45.3001C289.791 34.9035 281.391 27.3097 274.779 19.2517C272.151 16.0372 268.937 12.3586 265.372 10.5718C254.92 5.26339 243.626 1.81074 231.992 0.36789C221.149 -0.902125 210.095 1.41018 199.585 4.74725C196.537 5.72823 193.209 5.21148 190.318 7.49751C182.619 13.6286 173.869 18.2795 166.827 25.3478C164.302 27.9123 161.96 30.6518 159.82 33.5459C155.888 38.8012 153.514 44.871 149.608 51.5539C148.872 43.2156 149.906 36.4451 149.161 29.6133C146.919 9.12663 134.017 -2.65387 112.453 0.560583C93.438 3.38965 76.2622 11.0098 59.9535 20.9159C51.0371 26.3375 41.166 30.2877 40.1413 43.3119C39.4844 51.7291 39.677 52.9465 48.2255 51.5539C50.1612 51.2298 52.0794 50.8269 54.0063 50.4328C55.4515 50.1262 57.1419 48.9088 58.2981 50.3102C59.5593 51.8517 58.482 53.9363 57.5886 55.1362C50.0648 65.2701 46.8154 78.9775 33.3532 84.2064C31.8818 84.7757 29.3154 86.2384 31.0234 87.9114C34.4831 91.3185 32.1971 96.3548 35.4028 99.9196C37.2071 101.925 36.2786 105.315 34.2816 107.802C27.9053 115.606 30.3052 126.555 24.7521 134.7C24.3755 135.252 24.7521 136.452 24.9623 137.258C27.5374 148.171 23.9989 154.67 13.9701 159.969C9.25794 162.457 3.68739 164.182 -0.0438232 168.886C2.49621 170.445 4.47569 170.077 6.42889 169.867C7.91787 168.527 9.48568 165.978 11.5177 167.896C12.9366 169.236 11.1674 170.874 9.49444 171.645C8.99519 173.467 6.1661 174.614 7.39232 176.769C8.61855 178.923 11.1323 178.24 12.814 177.688C21.634 174.798 30.8394 172.88 37.969 165.978C40.9119 163.14 44.8622 160.372 49.4955 164.428C51.764 166.416 54.6807 166.135 57.5886 164.962C62.292 163.061 66.9079 161.047 70.7267 157.605C77.7336 151.193 87.2194 148.574 94.4978 142.548C96.67 140.744 98.4043 138.362 100.69 136.75C116.456 125.591 128.35 111.139 137.214 94.0337C138.747 91.0732 138.624 87.1668 141.795 85.1523C144.125 95.584 144.37 106.331 147.996 116.482C149.362 120.319 152.139 123.148 154.346 126.231C159.242 133.089 164.042 140.245 170.848 144.983C168.785 147.572 166.34 149.832 163.595 151.684C161.006 153.366 158.937 155.738 157.622 158.533C154.828 165.417 151.99 171.864 143.818 173.773C143.403 173.927 143.025 174.169 142.711 174.482C142.396 174.795 142.153 175.171 141.996 175.586C139.833 182.304 134.464 187.253 132.66 194.409C130.715 202.134 126.634 209.299 123.489 216.752C120.748 205.979 117.358 195.731 115.904 185.221C115.028 178.564 112.147 177.11 106.585 177.653C100.664 178.24 98.2554 182.707 96.3022 187.402C91.6863 198.464 87.9814 209.99 82.4021 220.527C79.4329 226.15 79.4504 233.289 73.1528 238.57C73.3193 227.42 69.8683 217.549 72.0843 207.1C73.44 201.216 72.7028 195.043 69.9997 189.644C68.0553 185.921 62.3096 176.979 57.2208 178.17C56.111 178.492 55.0813 179.044 54.199 179.79C49.877 182.985 46.6222 187.412 44.8621 192.49C43.1104 198.035 44.0476 204.148 43.9862 209.877C43.8635 213.925 43.9512 217.977 44.2491 222.016C44.7395 227.394 46.0008 232.711 46.1059 238.124C46.211 243.536 45.5103 249.186 45.6943 254.765C45.8519 259.144 41.7967 261.22 37.9428 260.896C35.1084 260.74 32.2672 261.036 29.5256 261.772C28.2715 262.996 27.1473 264.346 26.171 265.801C24.4193 268.508 24.104 270.636 25.2514 272.712C25.6218 272.69 25.9933 272.69 26.3638 272.712C29.6483 272.913 32.9503 272.966 36.2436 272.957C42.9265 272.957 45.2475 274.858 45.4139 281.812C45.5979 289.695 45.8781 297.578 44.5381 305.461C42.436 317.837 47.2533 327.909 54.8822 337.561C56.9755 334.934 57.063 330.992 60.6278 331.185C64.4028 331.386 65.5327 328.881 66.7589 326.359C68.5107 322.855 70.6653 319.352 71.5762 315.586C76.6738 294.661 89.0938 276.741 95.6453 256.438C96.0745 255.107 96.2234 253.031 98.3955 253.46C100.217 253.819 100.454 255.615 100.576 257.139C101.338 266.992 102.074 276.925 99.7006 286.594C97.327 296.264 98.9035 305.355 101.452 314.43C102.827 319.352 107.907 320.858 112.199 322.067C116.219 323.197 117.025 318.861 118.33 316.391C128.736 296.378 133.168 274.227 140.691 253.171C141.471 250.99 140.691 248.135 142.443 246.278C150.422 237.694 150.834 225.888 155.511 215.894C161.809 202.458 163.788 186.99 175.183 175.945C176.734 174.439 177.531 171.916 178.275 169.543C180.027 163.867 183.022 158.962 188.365 155.529C189.372 154.872 190.318 154.189 191.22 153.479C201.223 157.578 211.917 157.202 222.34 156.466C237.029 155.432 250.175 149.459 261.246 139.588C263.725 137.372 267.255 136.96 269.217 134.035C273.912 127.098 280.314 121.37 283.678 113.496C285.71 111.341 285.14 107.575 288.88 105.665C289.809 110.325 287.199 113.303 285.079 116.43C284.203 120.914 282.767 125.294 281.724 129.682C280.682 134.07 275.935 138.44 279 143.258C280.936 146.262 279.964 148.636 279.535 151.316C278.764 156.116 274.77 159.023 272.528 162.947C270.776 166.013 270.864 170.182 271.748 173.458C272.694 177.005 276.671 178.906 276.276 182.891C275.611 189.53 273.255 194.54 275.768 201.424C277.397 205.874 278.843 210.936 277.52 215.395C275.068 223.409 272.107 231.309 269.121 239.139C266.607 245.752 260.66 250.079 254.485 253.723C252.304 255.01 249.23 255.991 251.314 260.178C254.818 267.185 256.622 274.288 252.19 281.943C250.062 285.631 249.308 290.115 247.933 294.249C248.065 296.071 248.704 299.014 246.015 298.41C244.141 297.989 244.114 295.782 244.938 293.925C244.938 293.873 244.938 293.811 244.999 293.75C245.114 293.469 245.261 293.201 245.437 292.953C246.637 285.429 248.468 277.687 246.4 270.294C243.519 259.959 246.856 252.418 254.546 245.998C255.795 245.127 256.967 244.151 258.049 243.081C260.16 240.558 266.081 238.413 259.171 234.55C258.128 233.972 258.671 232.798 259.171 231.686C264.207 221.175 259.985 214.317 248.538 214.273C245.227 214.273 240.839 214.405 240.821 210.139C240.821 203.886 237.432 198.604 237.318 192.35C237.072 180.386 232.395 171.137 219.721 167.195C210.262 164.252 200.96 167.02 196.546 175.831C192.131 184.643 189.635 194.225 183.977 202.405C181.95 205.525 180.538 209.003 179.817 212.653C177.066 224.092 172.503 234.55 163.473 242.59C158.463 247.04 156.597 252.619 155.529 259.232C153.777 270.329 155.975 281.435 150.466 292.804C143.941 306.284 140.831 321.603 134.341 335.389C129.962 344.656 125.118 353.695 120.135 362.638C116.631 368.874 120.958 372.806 123.463 377.527C125.355 381.101 128.166 380.251 130.82 379.954C139.886 378.902 148.811 364.827 145.938 356.174C144.896 353.02 144.431 350.2 147.768 348.133C147.418 347.257 147.076 346.381 146.726 345.505C145.745 343.99 144.896 342.326 146.796 341.03C147.585 340.466 148.521 340.147 149.49 340.111C150.458 340.075 151.416 340.325 152.244 340.828C153.786 341.809 154.784 343.727 157.07 343.062C157.823 341.984 158.603 340.925 159.33 339.83C164.033 332.823 165.163 324.353 168.868 316.97C171.592 311.53 175.297 306.529 173.983 299.829C173.58 297.762 175.192 295.861 176.97 295.064C182.751 292.498 184.038 287.094 185.326 281.926C187.078 275.024 191.212 271.415 198.131 270.794C200.96 270.522 203.737 270.356 206.312 268.735C214.195 263.787 219.354 266.204 220.107 275.418C220.504 281.325 220.586 287.248 220.352 293.163C220.028 307.501 224.679 319.282 237.256 327.165C238.113 326.51 238.808 325.667 239.288 324.701C239.768 323.735 240.019 322.672 240.024 321.594C240.094 319.842 241.084 318.581 242.941 319.142C244.798 319.702 243.922 321.112 243.44 322.286C242.249 325.229 242.564 328.741 240.138 331.211C240.226 335.95 237.58 339.97 236.713 344.489C236.31 346.6 236.521 348.58 238.85 347.844C247.215 345.216 256.797 344.577 261.623 335.442C264.084 330.8 266.353 326.052 268.928 321.48C274.551 311.478 275.725 300.013 279.727 289.493C281.681 284.352 285.604 279.771 283.476 273.588C283.091 272.484 284.229 271.048 285.622 270.645C287.426 270.119 288.469 271.477 289.423 272.659C298.927 284.378 308.509 296.045 317.872 307.878C327.506 320.07 337.018 332.402 348.124 343.342C354.203 349.324 361.7 353.616 368.12 358.906C374.541 364.197 382.52 367.735 388.476 373.796C389.535 374.865 391.278 375.206 392.076 374.383C394.519 371.887 397.935 372.579 402.227 371.501C395.991 368.138 392.741 365.029 400.177 361.236C400.712 360.965 401.053 358.906 400.572 358.276C398.321 355.07 397.69 351.146 395.316 347.905C392.803 344.489 391.813 346.066 390.227 348.238C389.352 350.296 388.3 350.445 387.775 348.177C387.407 346.609 387.705 344.875 387.714 343.219C384.35 341.24 386.978 339.716 388.082 338.034C390.814 333.944 395.29 331.798 398.758 328.505C404.951 322.636 409.015 314.613 417.047 310.628C421.54 308.403 427.189 307.055 430.185 303.507C437.91 294.319 448.42 289.642 458.081 283.432C465.92 278.186 471.894 271.389 470.957 260.712ZM344.34 39.3968C350.174 31.8117 358.705 31.33 366.106 36.6991C367.735 37.8815 368.48 39.5544 367.166 41.2186C359.887 50.4503 355.368 62.1694 343.614 67.4247C336.992 70.3851 336.852 70.3413 337.079 63.0453C337.079 61.9505 337.079 60.8557 337.079 58.5171C335.704 51.6327 339.935 45.125 344.34 39.3968ZM121.536 38.5822C119.32 56.7215 116.552 74.5631 108.398 91.5199C102.836 103.055 94.4716 110.85 84.4867 117.446C74.1076 124.304 65.3225 133.422 53.98 138.861C52.1494 139.737 50.4765 141.83 47.7788 140.14C48.8005 136.641 50.2726 133.291 52.1582 130.172C53.0341 128.666 54.2515 126.905 54.0763 125.407C52.5961 113.005 60.1111 103.607 65.6816 94.2089C72.1368 83.313 74.9222 71.0771 80.8693 60.2338C84.8195 53.0341 82.4196 44.2929 88.1828 37.61C93.0352 31.9781 106.786 25.8558 114.03 27.7127C119.548 29.1841 122.175 33.4496 121.536 38.5822ZM276.434 80.4927C273.526 97.7386 266.694 114.021 250.929 124.619C242.643 130.181 234.839 135.909 224.039 136.128C219.826 136.216 215.657 139.562 210.744 138.554C200.513 136.855 191.474 133.194 182.173 127.527C170.567 120.45 168.649 108.608 162.22 99.07C161.909 98.6139 161.699 98.0967 161.604 97.553C161.509 97.0092 161.531 96.4514 161.669 95.9168C164.944 88.7785 160.88 81.6576 161.73 74.3266C162.492 67.6699 165.417 62.3096 167.861 56.7566C171.242 49.0489 176.935 42.5587 183.145 36.7166C191.142 29.1841 199.576 22.0107 211.033 21.2574C215.57 20.9596 219.082 18.043 223.654 18.3057C240.935 19.3042 254.888 25.3127 265.941 39.7822C275.541 52.4385 278.825 66.3036 276.434 80.5278V80.4927ZM249.808 220.098C251.156 220.01 252.435 220.282 252.54 221.92C252.602 223.391 251.664 224.171 250.158 224.276C248.538 224.442 247.793 223.566 247.811 222.077C247.807 221.817 247.856 221.558 247.956 221.317C248.056 221.076 248.203 220.857 248.39 220.675C248.577 220.493 248.799 220.351 249.043 220.258C249.287 220.165 249.547 220.122 249.808 220.133V220.098ZM206.268 264.207C204.884 264.076 203.64 263.48 203.64 261.982C203.64 260.485 204.875 259.775 206.364 260.09C207.016 260.161 207.616 260.482 208.037 260.984C208.458 261.487 208.669 262.134 208.624 262.788C208.396 264.154 207.407 264.347 206.268 264.242V264.207ZM202.169 233.648C200.417 233.569 199.13 233.315 199.927 230.968C201.056 227.683 201.678 224.18 203.045 221.018C206.198 213.871 209.658 206.864 213.091 199.839C213.835 198.298 214.843 196.441 216.927 196.922C219.012 197.404 218.784 199.55 218.968 201.223C219.485 205.996 220.054 210.761 220.422 214.011C220.965 226.264 213.003 234.13 202.169 233.683V233.648ZM311.495 232.404C309.227 233.595 306.809 235.986 304.357 234.629C302.088 233.376 303.621 230.249 303.271 227.955C303.205 227.08 303.205 226.202 303.271 225.327C303.026 214.817 307.913 205.664 313.676 197.825C319.439 189.986 327.515 189.942 335.757 195.197C337.439 196.283 337.815 197.387 336.79 198.919C329.477 209.868 324.423 222.445 313.632 230.871C312.966 231.454 312.251 231.979 311.495 232.439V232.404ZM433.89 269.839C422.206 278.598 414.568 292.41 399.774 297.297C399.573 297.368 399.284 297.455 399.214 297.613C396.218 304.462 388.073 305.653 384.14 310.821C380.383 315.77 373.279 317.092 371.431 325.08C351.934 303.639 331.956 284.562 317.127 261.036C315.787 258.908 314.981 257.533 318.327 255.606C327.708 250.351 336.134 243.685 342.16 234.515C344.218 231.388 345.523 231.309 347.599 234.751C349.955 238.658 351.707 242.853 354.606 246.523C367.113 262.219 383.185 265.512 402.367 263.279C412.264 262.131 422.801 263.594 432.874 265.635C435.729 266.239 436 268.289 433.89 269.874V269.839Z" fill="white"/>
<path d="M248.643 76.3235C247.539 75.2636 245.043 77.1993 243.983 79.0474C242.923 80.8955 243.107 82.7348 244.614 83.8384C247.084 85.704 245.568 87.2719 245.034 89.2951C242.179 99.9895 234.121 104.71 224.363 106.909C217.532 108.442 210.349 106.357 205.05 102.687C199.252 98.702 195.74 91.949 192.56 85.3712C190.266 80.6327 188.391 76.6124 194.382 73.2666C196.362 72.163 197.544 70.1661 196.528 67.6698C195.512 65.1736 193.121 64.9634 190.993 65.3487C188.273 65.8951 185.447 65.4542 183.022 64.105C181.271 63.2291 179.274 62.6073 177.601 64.4992C175.928 66.3911 177.163 68.1953 177.601 70.0609C178.301 72.8287 181.279 74.3878 181.279 77.5847C181.279 86.6237 184.669 93.9898 190.283 101.382C197.071 110.325 205.234 114.765 215.824 117.008C220.072 117.884 223.382 115.519 228.384 116.666C236.337 116.946 242.082 110.535 247.732 105.28C253.381 100.025 253.39 90.3462 260.975 85.8792C263.392 84.4603 263.305 81.6925 262.21 79.3627C259.136 72.7411 252.759 80.2824 248.643 76.3235Z" fill="white"/>
<path d="M208.177 72.9514C209.154 72.9762 210.112 72.6889 210.914 72.1313C211.716 71.5736 212.319 70.7748 212.636 69.8509C214.221 65.997 216.227 62.3709 215.263 57.8426C215.473 55.215 215.701 52.3947 214.133 49.7408C211.786 45.7381 208.878 46.0797 206.189 48.8649C201.442 53.9012 200.662 63.3869 203.754 69.8158C204.761 71.8653 205.961 73.1091 208.177 72.9514Z" fill="white"/>
<path d="M229.102 74.3089C231.038 77.7423 233.858 78.0226 235.732 75.1848C238.299 71.4375 240.141 67.2428 241.163 62.8175C241.732 60.041 241.531 56.0557 238.29 54.0062C236.056 52.5873 232.877 52.7362 231.686 54.6982C229.741 57.9214 226.685 60.9782 227.543 65.7517C228.375 68.2742 227.499 71.4623 229.102 74.3089Z" fill="white"/>
</g>
<defs>
<clipPath id="clip0_100_1218720">
<rect width="512" height="380.216" fill="white"/>
</clipPath>
</defs>
</svg>
