<svg width="800" height="222" viewBox="0 0 800 222" fill="none" xmlns="http://www.w3.org/2000/svg">
<path d="M799.916 119.105C799.473 114.146 797.769 110.79 792.291 110.558C790.498 110.483 788.682 110.011 787.924 108.423C784.472 101.225 777.478 99.9814 771.062 99.9215C760.556 99.8241 750.298 97.6742 739.935 96.6031C735.343 96.1162 731.05 97.6293 726.63 96.9626C724.469 96.633 721.287 97.9739 720.815 94.221C720.462 91.3895 721.76 89.6367 724.214 87.8015C734.255 80.3108 745.908 76.1384 757.33 71.6215C762.215 69.6889 767.153 66.4679 772.931 68.0485C778.709 69.629 781.185 67.9136 782.033 61.8836C783.001 55.0296 781.793 48.61 780.105 41.9658C778.784 36.7897 775.985 35.6811 772.053 37.2616C763.971 40.5126 755.416 42.3178 747.86 47.3067C739.282 52.9771 729.715 57.1569 720.53 61.9061C718.218 63.0971 716.027 64.2282 714.159 66.2357C711.982 68.4829 710.061 71.7114 705.994 71.7714C705.806 66.7825 707.367 62.0334 707.15 57.157C706.699 46.7898 700.966 41.1118 690.641 40.5725C680.315 40.0332 670.38 44.4227 660.039 41.7486C657.893 41.1942 655.769 42.8871 653.788 43.9508C650.849 45.626 647.394 46.1595 644.085 45.449C638.78 44.1231 636.086 46.4602 633.677 50.625C630.323 56.4378 630.323 62.1982 632.581 68.3631C633.977 72.1683 635.215 76.498 634.082 80.3482C631.981 87.2022 629.437 93.9589 626.886 100.656C624.732 106.311 619.637 110.011 614.346 113.128C612.478 114.229 609.844 115.068 611.63 118.648C614.632 124.603 616.177 130.716 612.38 137.263C610.557 140.416 609.911 144.252 608.733 147.75C608.846 149.308 609.394 151.825 607.09 151.308C605.484 150.948 605.461 149.061 606.167 147.473C606.181 147.424 606.199 147.376 606.219 147.33C606.315 147.088 606.441 146.859 606.595 146.649C607.623 140.214 609.191 133.592 607.42 127.27C604.951 118.431 607.803 111.982 614.399 106.491C615.47 105.748 616.475 104.914 617.4 103.996C619.216 101.839 624.282 100.004 618.369 96.7005C617.476 96.2061 617.941 95.2023 618.369 94.251C622.683 85.2621 619.066 79.3969 609.259 79.3594C606.422 79.3594 602.662 79.4718 602.647 75.8238C602.647 70.4755 599.743 65.9586 599.646 60.6102C599.428 50.3779 595.428 42.4676 584.562 39.0968C576.466 36.5799 568.496 38.947 564.714 46.4827C560.932 54.0184 558.793 62.2506 553.946 69.2095C552.047 71.9212 551.132 74.865 550.381 77.9737C548.025 87.7565 544.115 96.7004 536.379 103.577C532.086 107.382 530.488 112.146 529.572 117.809C528.072 127.3 529.955 136.798 525.235 146.521C519.644 158.049 516.98 171.151 511.42 182.941C507.668 190.866 503.518 198.597 499.248 206.245C496.247 211.578 499.954 214.941 502.1 218.979C503.713 222.035 506.13 221.309 508.403 221.054C516.17 220.155 523.817 208.117 521.355 200.717C520.462 198.02 520.065 195.608 522.916 193.84C522.624 193.091 522.323 192.342 522.031 191.593C521.19 190.297 520.462 188.874 522.083 187.765C522.761 187.284 523.564 187.011 524.395 186.98C525.226 186.949 526.048 187.162 526.758 187.593C528.079 188.432 528.935 190.072 530.893 189.503C531.539 188.582 532.206 187.675 532.829 186.739C536.859 180.746 537.827 173.503 541.001 167.181C543.335 162.536 546.502 158.259 545.384 152.529C545.038 150.761 546.419 149.128 547.935 148.454C552.895 146.259 553.998 141.637 555.101 137.218C556.602 131.315 560.137 128.266 566.072 127.697C568.489 127.465 570.875 127.315 573.081 125.937C579.835 121.704 584.255 123.772 584.9 131.652C585.24 136.704 585.311 141.769 585.11 146.828C584.825 159.091 588.817 169.166 599.593 175.907C600.326 175.346 600.92 174.625 601.331 173.799C601.742 172.974 601.959 172.065 601.965 171.143C602.025 169.645 602.873 168.566 604.463 169.046C606.054 169.525 605.304 170.724 604.891 171.735C603.871 174.252 604.141 177.256 602.062 179.368C602.137 183.421 599.871 186.859 599.128 190.724C598.783 192.529 598.955 194.222 600.959 193.593C608.125 191.346 616.335 190.799 620.47 182.986C622.578 179.016 624.522 174.956 626.728 171.046C631.546 162.491 632.551 152.686 635.981 143.69C637.654 139.293 641.016 135.368 639.192 130.087C638.862 129.143 639.838 127.914 641.031 127.57C642.577 127.12 643.47 128.319 644.288 129.293C652.43 139.315 660.639 149.293 668.661 159.413C676.916 169.84 685.065 180.387 694.58 189.743C699.788 194.859 706.212 198.529 711.705 203.054C717.325 207.668 724.049 210.604 729.152 215.788C730.06 216.702 731.546 216.994 732.236 216.29C734.33 214.155 737.256 214.747 740.933 213.825C735.59 210.949 732.806 208.29 739.177 205.046C739.635 204.814 739.928 203.054 739.515 202.514C737.579 199.773 737.046 196.417 735.012 193.645C732.859 190.724 732.011 192.072 730.653 193.93C729.902 195.69 729.002 195.818 728.551 193.878C728.236 192.537 728.491 191.054 728.499 189.638C725.61 187.945 727.869 186.642 728.814 185.203C731.155 181.705 734.99 179.87 737.962 177.053C743.259 172.035 746.749 165.173 753.63 161.765C757.48 159.862 762.32 158.709 764.886 155.675C771.505 147.817 780.51 143.817 788.787 138.506C795.601 134.049 800.726 128.236 799.916 119.105ZM610.444 84.4382C611.6 84.3632 612.695 84.5955 612.786 85.9962C612.838 87.2547 612.035 87.9213 610.744 88.0112C609.356 88.1536 608.718 87.4045 608.733 86.1311C608.725 85.9052 608.763 85.68 608.846 85.4697C608.93 85.2595 609.055 85.0687 609.216 84.9096C609.377 84.7505 609.569 84.6264 609.781 84.5452C609.992 84.4641 610.218 84.4276 610.444 84.4382ZM573.141 122.161C571.956 122.049 570.89 121.54 570.89 120.259C570.89 118.978 571.948 118.371 573.224 118.641C573.782 118.701 574.296 118.975 574.657 119.405C575.018 119.836 575.198 120.388 575.16 120.948C574.965 122.049 574.102 122.214 573.141 122.124V122.161ZM569.599 95.9888C568.099 95.9214 566.995 95.7042 567.678 93.6967C568.646 90.8876 569.179 87.8914 570.35 85.1872C573.051 79.0748 576.015 73.0822 578.949 67.0747C579.595 65.7563 580.45 64.1683 582.244 64.5802C584.037 64.9922 583.835 66.8275 583.992 68.2582C584.435 72.3407 584.923 76.4156 585.238 79.1946C585.733 89.6817 578.912 96.3709 569.599 95.9888ZM663.296 94.9252C661.345 95.9439 659.281 97.9888 657.18 96.8278C655.236 95.7566 656.549 93.0824 656.249 91.1199C656.193 90.3719 656.193 89.6206 656.249 88.8726C656.039 79.8838 660.226 72.056 665.164 65.3518C670.102 58.6476 677.021 58.6102 684.075 63.1046C685.523 64.0334 685.846 64.9773 684.96 66.2882C678.702 75.6516 674.364 86.4082 665.127 93.6143C664.555 94.1025 663.942 94.541 663.296 94.9252ZM768.158 126.94C758.14 134.431 751.604 146.244 738.93 150.424C738.757 150.484 738.502 150.559 738.449 150.694C735.883 156.551 728.904 157.57 725.535 161.99C722.316 166.222 716.23 167.353 714.646 174.184C697.942 155.847 680.825 139.532 668.121 119.412C666.965 117.592 666.282 116.416 669.149 114.768C677.186 110.274 684.405 104.573 689.568 96.7304C691.331 94.0562 692.449 93.9888 694.228 96.9327C696.246 100.274 697.747 103.862 700.231 107C710.947 120.424 724.717 123.24 741.151 121.33C749.623 120.349 758.658 121.6 767.288 123.345C769.726 123.832 769.959 125.585 768.158 126.94Z" fill="white"/>
<path d="M339.974 52.7973C339.493 41.6661 333.655 35.1416 322.474 35.1267C310.067 35.121 297.856 38.2109 286.95 44.1155C283.265 46.0781 279.708 48.1006 275.288 47.2616C272.834 46.7972 271.063 47.6287 269.638 49.8684C266.081 55.464 264.272 61.4116 265.826 67.951C267.101 73.3443 266.081 78.3706 263.754 83.0972C262.569 85.4943 261.503 87.8239 261.151 90.4381C260.513 95.7191 257.841 99.5768 253.369 102.498C252.738 99.8839 252.251 97.6892 252.941 95.1348C255.132 86.9999 251.68 79.217 250.12 71.5465C248.319 62.655 241.115 56.1606 235.449 49.2691C233.198 46.5275 230.451 43.3815 227.397 41.8534C218.441 37.311 208.761 34.3581 198.791 33.1267C189.501 32.0405 180.031 34.018 171.026 36.872C168.415 37.711 165.563 37.2765 163.087 39.2316C156.491 44.4751 148.994 48.4527 142.961 54.4902C140.797 56.6862 138.791 59.0316 136.958 61.509C133.588 66.0034 131.555 71.187 128.215 76.9024C127.577 69.7712 128.463 63.9809 127.825 58.1756C125.904 40.6473 114.85 30.5723 96.3753 33.3214C80.0914 35.7484 65.3758 42.2578 51.4107 50.7298C43.764 55.3666 35.3069 58.7524 34.4364 69.8836C33.8661 77.0822 34.0311 78.1234 41.3551 76.9324C43.0135 76.6552 44.6569 76.3181 46.3078 75.9736C47.546 75.7114 49.0018 74.6702 49.9849 75.8762C50.9679 77.0822 50.1425 78.9698 49.377 79.9961C42.931 88.6628 40.147 100.393 28.6132 104.858C27.3525 105.352 25.1538 106.603 26.6171 108.026C29.6187 110.948 27.6226 115.247 30.3691 118.296C31.915 120.011 31.1571 122.918 29.4086 125.038C23.9456 131.712 26.0017 141.083 21.2441 148.049C20.9215 148.521 21.2441 149.547 21.4242 150.229C23.6304 159.57 20.5988 165.121 12.0066 169.652C7.96937 171.78 3.19675 173.263 0 177.278C2.17619 178.619 3.87213 178.297 5.54555 178.117C6.82125 176.978 8.16448 174.799 9.90543 176.432C11.1286 177.578 9.60527 178.986 8.17199 179.638C7.74425 181.196 5.32041 182.177 6.37098 184.02C7.42156 185.862 9.57524 185.286 11.016 184.814C18.5727 182.334 26.4595 180.694 32.5678 174.799C35.0892 172.364 38.4736 169.997 42.4432 173.473C44.3868 175.166 46.8857 174.971 49.377 173.922C53.4067 172.297 57.3614 170.581 60.6332 167.637C66.6365 162.147 74.7635 159.915 80.9994 154.753C82.8604 153.255 84.3462 151.18 86.3122 149.795C99.8196 140.251 110.01 127.899 117.597 113.27C118.91 110.73 118.805 107.397 121.522 105.667C123.518 114.588 123.773 123.779 126.834 132.469C128.005 135.749 130.384 138.161 132.275 140.798C138.458 149.45 144.462 158.604 156.07 161.023C157.737 161.328 159.353 161.863 160.873 162.611C170.268 167.548 180.519 167.218 190.484 166.514C203.061 165.63 214.325 160.521 223.81 152.087C225.934 150.192 228.958 149.802 230.639 147.33C234.661 141.397 240.147 136.499 243.028 129.764C244.769 127.922 244.281 124.708 247.486 123.075C248.281 127.06 246.045 129.6 244.229 132.274C243.478 136.109 242.255 139.862 241.355 143.615C240.454 147.368 236.394 151.105 239.021 155.218C240.679 157.795 239.854 159.825 239.479 162.117C238.826 166.214 235.404 168.709 233.475 172.064C231.817 174.911 233.085 184.417 235.554 186.334C236.837 187.338 237.873 186.859 239.164 186.297C246.998 182.844 253.549 178.462 254.922 168.963C255.507 164.746 257.436 160.724 258.329 156.544C260.805 144.941 266.779 134.386 268.279 122.461C268.692 119.15 270.958 116.813 275.033 119.247C277.284 120.596 279.596 120.401 281.922 118.918C288.878 114.498 296 110.393 304.134 108.431C304.824 108.179 305.466 107.812 306.033 107.345C316.268 100.408 323.45 90.6554 330.481 80.7976C336.342 72.4529 340.446 63.4116 339.974 52.7973ZM104.15 65.8686C102.243 81.3744 99.8722 96.6405 92.8934 111.135C88.1283 121 80.9543 127.667 72.3996 133.308C63.5073 139.18 55.9806 146.971 46.2703 151.63C44.6945 152.379 43.2687 154.169 40.9499 152.716C41.8262 149.725 43.0874 146.859 44.702 144.192C45.4524 142.911 46.4955 141.405 46.3454 140.124C45.0772 129.517 51.5157 121.48 56.2883 113.435C61.8264 104.116 64.2051 93.6516 69.3004 84.3781C72.6848 78.2208 70.6287 70.7451 75.5664 65.0296C79.7237 60.2131 91.5051 54.9771 97.711 56.5726C102.439 57.7936 104.69 61.4491 104.15 65.8686ZM236.852 101.704C234.361 116.461 228.515 130.379 215 139.442C207.901 144.199 201.215 149.105 191.963 149.293C188.353 149.36 184.781 152.229 180.571 151.36C171.807 149.914 164.062 146.776 156.093 141.929C146.15 135.884 144.507 125.757 138.999 117.592C138.732 117.202 138.551 116.76 138.47 116.295C138.388 115.83 138.407 115.352 138.526 114.895C141.332 108.79 137.858 102.7 138.578 96.4307C139.231 90.7378 141.738 86.1535 143.831 81.4493C146.728 74.85 151.606 69.2993 156.926 64.303C163.777 57.861 171.004 51.7336 180.819 51.0819C184.706 50.8272 187.715 48.3403 191.632 48.565C206.438 49.419 218.392 54.5576 227.862 66.9248C236.087 77.6964 238.901 89.5392 236.852 101.704ZM314.595 68.0858C308.351 75.9885 304.479 86.0036 294.409 90.4981C288.743 93.0374 288.616 92.9925 288.811 86.7527C288.811 85.8164 288.811 84.8875 288.811 82.88C287.655 77.0148 291.25 71.4417 295.024 66.5502C300.029 60.0558 307.331 59.6438 313.672 64.2356C315.075 65.2319 315.713 66.6626 314.595 68.0858Z" fill="white"/>
<path d="M518.294 116.199C518.962 114.326 518.294 111.884 519.757 110.296C526.593 102.955 526.946 92.8652 530.953 84.3183C536.349 72.8275 538.037 59.5614 547.808 50.1456C549.136 48.8646 549.819 46.6998 550.457 44.6773C551.957 39.8159 554.524 35.6211 559.101 32.6922C567.356 27.3663 571.431 19.7632 569.892 9.59084C576.143 14.3999 577.396 14.2351 582.867 8.0927C583.617 7.27621 584.368 6.52714 585.118 5.7481L582.717 4.55706C580.616 4.55706 578.454 4.66943 577.464 2.2724C576.046 -1.09843 573.712 0.0251753 571.386 0.954024C569.288 1.8715 567.61 3.53872 566.68 5.62823C564.587 10.1227 560.677 12.0328 556.557 12.7968C551.74 13.6882 548.738 16.6246 546.569 20.2351C544.42 23.934 541.459 27.0993 537.91 29.4937C535.689 30.9335 533.916 32.9652 532.792 35.3589C530.398 41.2391 527.967 46.7598 520.958 48.3928C520.602 48.5239 520.279 48.7305 520.011 48.9981C519.743 49.2658 519.536 49.5883 519.405 49.9433C517.551 55.6812 512.951 59.9135 511.405 66.0409C509.732 72.6477 506.242 78.7751 503.548 85.1422C501.2 75.9286 498.295 67.1645 497.05 58.1756C496.299 52.4827 493.823 51.2392 489.065 51.7111C483.993 52.2055 481.929 56.0258 480.256 60.0483C476.301 69.5091 473.127 79.3594 468.347 88.3707C465.803 93.1798 465.81 99.2922 460.422 103.809C460.565 94.2734 457.601 85.8314 459.507 76.8949C461.675 66.745 457.526 58.0183 448.528 52.5051C445.594 50.6999 442.765 48.7598 439.291 47.831C443.043 41.7335 442.608 40.3852 436.214 39.2616C426.121 37.4938 416.231 35.9207 405.807 39.2616C392.127 43.6287 377.945 46.4152 364.025 50.0557C359.92 51.1268 357.008 53.3217 355.62 58.0483C352.521 68.5952 348.596 78.895 345.024 89.3071C344.274 91.4943 343.523 93.8015 340.627 93.5992C336.875 93.337 333.663 94.9101 330.241 95.8464C321.439 98.221 318.902 105.112 325.739 110.963C331.742 116.116 334.608 121.24 332.965 129.045C332.372 131.839 334.466 135.143 332.357 137.757C327.107 144.154 324.174 152.133 324.035 160.401C323.867 162.087 323.141 163.668 321.971 164.896C318.97 168.02 319.353 171.638 319.638 175.383C319.983 179.877 321.934 180.072 325.566 178.379C331.284 175.675 336.439 171.892 342.563 169.93C344.739 169.233 347.335 168.229 348.281 165.705C349.226 163.181 351.057 162.446 353.481 162.222C363.987 161.27 373.27 155.48 384.181 155.016C390.034 154.746 396.187 152.019 402.348 152.469C408.824 152.948 414.46 150.356 420.358 148.723C422.166 148.214 424.17 147.3 423.862 144.978C423.555 142.656 421.348 142.431 419.487 142.341C416.988 142.221 414.129 142.506 414.37 138.873C414.602 135.39 416.096 132.723 420.373 132.978C423.187 133.15 426.016 133.195 428.838 133.188C434.563 133.188 436.552 134.821 436.687 140.768C436.852 147.51 437.092 154.252 435.936 160.993C434.143 171.57 438.27 180.184 444.806 188.439C446.6 186.192 446.675 182.829 449.729 182.986C452.963 183.158 453.931 181.016 454.982 178.859C456.483 175.862 458.329 172.866 459.109 169.645C463.476 151.75 474.117 136.431 479.73 119.06C480.098 117.929 480.226 116.154 482.087 116.521C483.647 116.828 483.85 118.364 483.955 119.667C484.608 128.087 485.238 136.581 483.205 144.851C481.171 153.12 482.522 160.896 484.706 168.664C485.884 172.866 490.236 174.154 493.913 175.188C497.358 176.162 498.048 172.447 499.166 170.334C508.066 153.15 511.818 134.199 518.294 116.199ZM376.294 83.9212C378.815 75.8013 384.113 72.438 392.803 70.7226C407.061 67.9285 420.32 61.6513 432.635 53.7336C433.385 53.2393 434.255 52.9022 435.959 52.0482V78.9249C430.143 77.5317 424.613 77.5241 419.105 80.026C414.782 81.8739 410.09 82.7018 405.395 82.4456C396.39 82.1759 388.458 86.8726 379.723 87.8164C378.305 87.9737 376.721 89.3145 375.491 87.9887C374.26 86.6628 375.881 85.2471 376.294 83.9212ZM436.912 117.629C437.047 121.375 433.573 123.15 430.271 122.873C422.114 122.124 414.512 128.116 406.205 124.581C396.345 130.221 383.693 124.738 374.238 133.023C370.32 136.469 365.675 132.776 361.481 131.42C361.008 131.263 360.603 130.229 360.565 129.577C360.287 124.588 366.786 115.719 372.069 113.989C385.936 109.495 400.104 106.049 414.332 102.873C418.504 101.944 422.489 100.154 426.961 100.438C428.935 100.566 430.203 98.9401 431.291 97.2847C432.462 95.4794 433.017 93.0974 435.794 92.0412C438.225 100.738 436.627 109.225 436.912 117.614V117.629Z" fill="white"/>
<path d="M213.079 98.1161C212.134 97.2023 209.987 98.8652 209.079 100.438C208.171 102.011 208.329 103.592 209.627 104.543C211.743 106.131 210.445 107.48 209.988 109.202C207.541 118.349 200.637 122.386 192.278 124.266C186.425 125.577 180.309 123.802 175.769 120.656C170.794 117.255 167.784 111.472 165.06 105.847C163.102 101.794 161.496 98.3558 166.629 95.5019C168.325 94.5506 169.338 92.8426 168.467 90.7078C167.597 88.5729 165.548 88.3932 163.725 88.7302C161.393 89.1912 158.973 88.8117 156.896 87.6591C155.395 86.91 153.684 86.3782 152.251 87.9962C150.818 89.6142 151.868 91.1572 152.251 92.7527C152.851 95.1198 155.395 96.4532 155.403 99.1873C155.403 106.925 158.307 113.225 163.109 119.54C168.933 127.188 175.926 130.985 184.999 132.903C188.638 133.652 191.475 131.63 195.76 132.611C202.573 132.851 207.496 127.367 212.336 122.873C217.176 118.379 217.184 110.139 223.683 106.281C225.754 105.067 225.679 102.7 224.741 100.708C222.069 95.0524 216.606 101.494 213.079 98.1161Z" fill="white"/>
<path d="M178.41 95.2248C179.247 95.2459 180.068 95.0002 180.755 94.5233C181.442 94.0464 181.959 93.3632 182.23 92.573C183.581 89.2846 185.299 86.1759 184.481 82.3107C184.669 80.0186 184.864 77.6515 183.521 75.3744C181.502 71.9586 179.018 72.2432 176.707 74.6253C172.64 78.9399 171.972 87.0449 174.621 92.5431C175.476 94.3109 176.512 95.3671 178.41 95.2248Z" fill="white"/>
<path d="M196.338 96.4232C197.996 99.3596 200.405 99.5993 202.018 97.1723C204.217 93.9675 205.795 90.38 206.671 86.5954C207.158 84.2208 206.986 80.82 204.209 79.0597C202.288 77.8462 199.572 77.9736 198.551 79.659C196.885 82.4081 194.266 85.0298 195.002 89.1048C195.715 91.2246 194.957 93.9588 196.338 96.4232Z" fill="white"/>
</svg>
