<svg width="16" height="16" viewBox="0 0 16 16" fill="none" xmlns="http://www.w3.org/2000/svg">
<path d="M3.41732 11.0001H1.75065C1.64014 11.0001 1.53416 11.044 1.45602 11.1221C1.37788 11.2003 1.33398 11.3062 1.33398 11.4167V13.0834C1.33398 13.1939 1.37788 13.2999 1.45602 13.378C1.53416 13.4562 1.64014 13.5001 1.75065 13.5001H3.41732C3.52782 13.5001 3.63381 13.4562 3.71195 13.378C3.79009 13.2999 3.83398 13.1939 3.83398 13.0834V11.4167C3.83398 11.3062 3.79009 11.2003 3.71195 11.1221C3.63381 11.044 3.52782 11.0001 3.41732 11.0001ZM3.41732 2.66675H1.75065C1.64014 2.66675 1.53416 2.71065 1.45602 2.78879C1.37788 2.86693 1.33398 2.97291 1.33398 3.08341V4.75008C1.33398 4.86059 1.37788 4.96657 1.45602 5.04471C1.53416 5.12285 1.64014 5.16675 1.75065 5.16675H3.41732C3.52782 5.16675 3.63381 5.12285 3.71195 5.04471C3.79009 4.96657 3.83398 4.86059 3.83398 4.75008V3.08341C3.83398 2.97291 3.79009 2.86693 3.71195 2.78879C3.63381 2.71065 3.52782 2.66675 3.41732 2.66675ZM3.41732 6.83341H1.75065C1.64014 6.83341 1.53416 6.87731 1.45602 6.95545C1.37788 7.03359 1.33398 7.13957 1.33398 7.25008V8.91675C1.33398 9.02725 1.37788 9.13324 1.45602 9.21138C1.53416 9.28952 1.64014 9.33341 1.75065 9.33341H3.41732C3.52782 9.33341 3.63381 9.28952 3.71195 9.21138C3.79009 9.13324 3.83398 9.02725 3.83398 8.91675V7.25008C3.83398 7.13957 3.79009 7.03359 3.71195 6.95545C3.63381 6.87731 3.52782 6.83341 3.41732 6.83341ZM14.2507 11.4167H5.91732C5.80681 11.4167 5.70083 11.4606 5.62269 11.5388C5.54455 11.6169 5.50065 11.7229 5.50065 11.8334V12.6667C5.50065 12.7773 5.54455 12.8832 5.62269 12.9614C5.70083 13.0395 5.80681 13.0834 5.91732 13.0834H14.2507C14.3612 13.0834 14.4671 13.0395 14.5453 12.9614C14.6234 12.8832 14.6673 12.7773 14.6673 12.6667V11.8334C14.6673 11.7229 14.6234 11.6169 14.5453 11.5388C14.4671 11.4606 14.3612 11.4167 14.2507 11.4167ZM14.2507 3.08341H5.91732C5.80681 3.08341 5.70083 3.12731 5.62269 3.20545C5.54455 3.28359 5.50065 3.38957 5.50065 3.50008V4.33341C5.50065 4.44392 5.54455 4.5499 5.62269 4.62804C5.70083 4.70618 5.80681 4.75008 5.91732 4.75008H14.2507C14.3612 4.75008 14.4671 4.70618 14.5453 4.62804C14.6234 4.5499 14.6673 4.44392 14.6673 4.33341V3.50008C14.6673 3.38957 14.6234 3.28359 14.5453 3.20545C14.4671 3.12731 14.3612 3.08341 14.2507 3.08341ZM14.2507 7.25008H5.91732C5.80681 7.25008 5.70083 7.29398 5.62269 7.37212C5.54455 7.45026 5.50065 7.55624 5.50065 7.66675V8.50008C5.50065 8.61059 5.54455 8.71657 5.62269 8.79471C5.70083 8.87285 5.80681 8.91675 5.91732 8.91675H14.2507C14.3612 8.91675 14.4671 8.87285 14.5453 8.79471C14.6234 8.71657 14.6673 8.61059 14.6673 8.50008V7.66675C14.6673 7.55624 14.6234 7.45026 14.5453 7.37212C14.4671 7.29398 14.3612 7.25008 14.2507 7.25008Z" fill="black"/>
</svg>
