<svg width="314" height="189" viewBox="0 0 314 189" fill="none" xmlns="http://www.w3.org/2000/svg">
<path d="M20.0522 2.98C20.8122 3.06 21.5122 3.24667 22.1522 3.54C22.7922 3.82 23.3455 4.16667 23.8122 4.58L22.6122 5.84C21.8522 5.18667 20.9989 4.80667 20.0522 4.7V8.84C21.3189 9.25333 22.2989 9.79333 22.9922 10.46C23.6855 11.1133 24.0322 12 24.0322 13.12C24.0322 14.1733 23.6855 15.08 22.9922 15.84C22.2989 16.5867 21.3189 17.04 20.0522 17.2V20.14H18.5922V17.26C17.6989 17.2067 16.8855 17.0067 16.1522 16.66C15.4322 16.3133 14.8122 15.8867 14.2922 15.38L15.4922 14.02C16.4522 14.94 17.4855 15.4333 18.5922 15.5V10.5C17.2989 10.0733 16.3389 9.54667 15.7122 8.92C15.0989 8.29333 14.7922 7.51333 14.7922 6.58C14.7922 5.64667 15.1255 4.84667 15.7922 4.18C16.4722 3.51333 17.4055 3.12 18.5922 3V0H20.0522V2.98ZM18.5922 4.72C18.0855 4.81333 17.6855 5.00667 17.3922 5.3C17.1122 5.59333 16.9722 5.97333 16.9722 6.44C16.9722 6.86667 17.0855 7.22667 17.3122 7.52C17.5389 7.8 17.9655 8.07333 18.5922 8.34V4.72ZM20.0522 15.44C21.1989 15.2 21.7722 14.48 21.7722 13.28C21.7722 12.7733 21.6455 12.3467 21.3922 12C21.1389 11.64 20.6922 11.3133 20.0522 11.02V15.44Z" fill="white"/>
<path d="M34.0444 2.98C34.8044 3.06 35.5044 3.24667 36.1444 3.54C36.7844 3.82 37.3377 4.16667 37.8044 4.58L36.6044 5.84C35.8444 5.18667 34.991 4.80667 34.0444 4.7V8.84C35.311 9.25333 36.291 9.79333 36.9844 10.46C37.6777 11.1133 38.0244 12 38.0244 13.12C38.0244 14.1733 37.6777 15.08 36.9844 15.84C36.291 16.5867 35.311 17.04 34.0444 17.2V20.14H32.5844V17.26C31.691 17.2067 30.8777 17.0067 30.1444 16.66C29.4244 16.3133 28.8044 15.8867 28.2844 15.38L29.4844 14.02C30.4444 14.94 31.4777 15.4333 32.5844 15.5V10.5C31.291 10.0733 30.331 9.54667 29.7044 8.92C29.091 8.29333 28.7844 7.51333 28.7844 6.58C28.7844 5.64667 29.1177 4.84667 29.7844 4.18C30.4644 3.51333 31.3977 3.12 32.5844 3V0H34.0444V2.98ZM32.5844 4.72C32.0777 4.81333 31.6777 5.00667 31.3844 5.3C31.1044 5.59333 30.9644 5.97333 30.9644 6.44C30.9644 6.86667 31.0777 7.22667 31.3044 7.52C31.531 7.8 31.9577 8.07333 32.5844 8.34V4.72ZM34.0444 15.44C35.191 15.2 35.7644 14.48 35.7644 13.28C35.7644 12.7733 35.6377 12.3467 35.3844 12C35.131 11.64 34.6844 11.3133 34.0444 11.02V15.44Z" fill="white"/>
<path d="M48.0366 2.98C48.7966 3.06 49.4966 3.24667 50.1366 3.54C50.7766 3.82 51.3299 4.16667 51.7966 4.58L50.5966 5.84C49.8366 5.18667 48.9832 4.80667 48.0366 4.7V8.84C49.3032 9.25333 50.2832 9.79333 50.9766 10.46C51.6699 11.1133 52.0166 12 52.0166 13.12C52.0166 14.1733 51.6699 15.08 50.9766 15.84C50.2832 16.5867 49.3032 17.04 48.0366 17.2V20.14H46.5766V17.26C45.6832 17.2067 44.8699 17.0067 44.1366 16.66C43.4166 16.3133 42.7966 15.8867 42.2766 15.38L43.4766 14.02C44.4366 14.94 45.4699 15.4333 46.5766 15.5V10.5C45.2832 10.0733 44.3232 9.54667 43.6966 8.92C43.0832 8.29333 42.7766 7.51333 42.7766 6.58C42.7766 5.64667 43.1099 4.84667 43.7766 4.18C44.4566 3.51333 45.3899 3.12 46.5766 3V0H48.0366V2.98ZM46.5766 4.72C46.0699 4.81333 45.6699 5.00667 45.3766 5.3C45.0966 5.59333 44.9566 5.97333 44.9566 6.44C44.9566 6.86667 45.0699 7.22667 45.2966 7.52C45.5232 7.8 45.9499 8.07333 46.5766 8.34V4.72ZM48.0366 15.44C49.1832 15.2 49.7566 14.48 49.7566 13.28C49.7566 12.7733 49.6299 12.3467 49.3766 12C49.1232 11.64 48.6766 11.3133 48.0366 11.02V15.44Z" fill="white"/>
<path d="M62.0287 2.98C62.7887 3.06 63.4888 3.24667 64.1288 3.54C64.7688 3.82 65.3221 4.16667 65.7887 4.58L64.5888 5.84C63.8288 5.18667 62.9754 4.80667 62.0287 4.7V8.84C63.2954 9.25333 64.2754 9.79333 64.9688 10.46C65.6621 11.1133 66.0088 12 66.0088 13.12C66.0088 14.1733 65.6621 15.08 64.9688 15.84C64.2754 16.5867 63.2954 17.04 62.0287 17.2V20.14H60.5687V17.26C59.6754 17.2067 58.8621 17.0067 58.1287 16.66C57.4087 16.3133 56.7887 15.8867 56.2687 15.38L57.4688 14.02C58.4288 14.94 59.4621 15.4333 60.5687 15.5V10.5C59.2754 10.0733 58.3154 9.54667 57.6887 8.92C57.0754 8.29333 56.7687 7.51333 56.7687 6.58C56.7687 5.64667 57.1021 4.84667 57.7687 4.18C58.4487 3.51333 59.3821 3.12 60.5687 3V0H62.0287V2.98ZM60.5687 4.72C60.0621 4.81333 59.6621 5.00667 59.3687 5.3C59.0887 5.59333 58.9487 5.97333 58.9487 6.44C58.9487 6.86667 59.0621 7.22667 59.2887 7.52C59.5154 7.8 59.9421 8.07333 60.5687 8.34V4.72ZM62.0287 15.44C63.1754 15.2 63.7488 14.48 63.7488 13.28C63.7488 12.7733 63.6221 12.3467 63.3687 12C63.1154 11.64 62.6687 11.3133 62.0287 11.02V15.44Z" fill="white"/>
<path d="M76.0209 2.98C76.7809 3.06 77.4809 3.24667 78.1209 3.54C78.7609 3.82 79.3143 4.16667 79.7809 4.58L78.5809 5.84C77.8209 5.18667 76.9676 4.80667 76.0209 4.7V8.84C77.2876 9.25333 78.2676 9.79333 78.9609 10.46C79.6543 11.1133 80.0009 12 80.0009 13.12C80.0009 14.1733 79.6543 15.08 78.9609 15.84C78.2676 16.5867 77.2876 17.04 76.0209 17.2V20.14H74.5609V17.26C73.6676 17.2067 72.8543 17.0067 72.1209 16.66C71.4009 16.3133 70.7809 15.8867 70.2609 15.38L71.4609 14.02C72.4209 14.94 73.4543 15.4333 74.5609 15.5V10.5C73.2676 10.0733 72.3076 9.54667 71.6809 8.92C71.0676 8.29333 70.7609 7.51333 70.7609 6.58C70.7609 5.64667 71.0943 4.84667 71.7609 4.18C72.4409 3.51333 73.3743 3.12 74.5609 3V0H76.0209V2.98ZM74.5609 4.72C74.0543 4.81333 73.6543 5.00667 73.3609 5.3C73.0809 5.59333 72.9409 5.97333 72.9409 6.44C72.9409 6.86667 73.0543 7.22667 73.2809 7.52C73.5076 7.8 73.9343 8.07333 74.5609 8.34V4.72ZM76.0209 15.44C77.1676 15.2 77.7409 14.48 77.7409 13.28C77.7409 12.7733 77.6143 12.3467 77.3609 12C77.1076 11.64 76.6609 11.3133 76.0209 11.02V15.44Z" fill="white"/>
<path d="M90.0131 2.98C90.7731 3.06 91.4731 3.24667 92.1131 3.54C92.7531 3.82 93.3065 4.16667 93.7731 4.58L92.5731 5.84C91.8131 5.18667 90.9598 4.80667 90.0131 4.7V8.84C91.2798 9.25333 92.2598 9.79333 92.9531 10.46C93.6465 11.1133 93.9931 12 93.9931 13.12C93.9931 14.1733 93.6465 15.08 92.9531 15.84C92.2598 16.5867 91.2798 17.04 90.0131 17.2V20.14H88.5531V17.26C87.6598 17.2067 86.8465 17.0067 86.1131 16.66C85.3931 16.3133 84.7731 15.8867 84.2531 15.38L85.4531 14.02C86.4131 14.94 87.4465 15.4333 88.5531 15.5V10.5C87.2598 10.0733 86.2998 9.54667 85.6731 8.92C85.0598 8.29333 84.7531 7.51333 84.7531 6.58C84.7531 5.64667 85.0865 4.84667 85.7531 4.18C86.4331 3.51333 87.3665 3.12 88.5531 3V0H90.0131V2.98ZM88.5531 4.72C88.0465 4.81333 87.6465 5.00667 87.3531 5.3C87.0731 5.59333 86.9331 5.97333 86.9331 6.44C86.9331 6.86667 87.0465 7.22667 87.2731 7.52C87.4998 7.8 87.9265 8.07333 88.5531 8.34V4.72ZM90.0131 15.44C91.1598 15.2 91.7331 14.48 91.7331 13.28C91.7331 12.7733 91.6065 12.3467 91.3531 12C91.0998 11.64 90.6531 11.3133 90.0131 11.02V15.44Z" fill="white"/>
<path d="M99.7053 0.779999L108.185 18.34L106.405 19.14L97.9453 1.6L99.7053 0.779999Z" fill="white"/>
<path d="M145.982 2.98C146.742 3.06 147.442 3.24667 148.082 3.54C148.722 3.82 149.275 4.16667 149.742 4.58L148.542 5.84C147.782 5.18667 146.929 4.80667 145.982 4.7V8.84C147.249 9.25333 148.229 9.79333 148.922 10.46C149.615 11.1133 149.962 12 149.962 13.12C149.962 14.1733 149.615 15.08 148.922 15.84C148.229 16.5867 147.249 17.04 145.982 17.2V20.14H144.522V17.26C143.629 17.2067 142.815 17.0067 142.082 16.66C141.362 16.3133 140.742 15.8867 140.222 15.38L141.422 14.02C142.382 14.94 143.415 15.4333 144.522 15.5V10.5C143.229 10.0733 142.269 9.54667 141.642 8.92C141.029 8.29333 140.722 7.51333 140.722 6.58C140.722 5.64667 141.055 4.84667 141.722 4.18C142.402 3.51333 143.335 3.12 144.522 3V0H145.982V2.98ZM144.522 4.72C144.015 4.81333 143.615 5.00667 143.322 5.3C143.042 5.59333 142.902 5.97333 142.902 6.44C142.902 6.86667 143.015 7.22667 143.242 7.52C143.469 7.8 143.895 8.07333 144.522 8.34V4.72ZM145.982 15.44C147.129 15.2 147.702 14.48 147.702 13.28C147.702 12.7733 147.575 12.3467 147.322 12C147.069 11.64 146.622 11.3133 145.982 11.02V15.44Z" fill="white"/>
<path d="M159.974 2.98C160.734 3.06 161.434 3.24667 162.074 3.54C162.714 3.82 163.267 4.16667 163.734 4.58L162.534 5.84C161.774 5.18667 160.921 4.80667 159.974 4.7V8.84C161.241 9.25333 162.221 9.79333 162.914 10.46C163.607 11.1133 163.954 12 163.954 13.12C163.954 14.1733 163.607 15.08 162.914 15.84C162.221 16.5867 161.241 17.04 159.974 17.2V20.14H158.514V17.26C157.621 17.2067 156.807 17.0067 156.074 16.66C155.354 16.3133 154.734 15.8867 154.214 15.38L155.414 14.02C156.374 14.94 157.407 15.4333 158.514 15.5V10.5C157.221 10.0733 156.261 9.54667 155.634 8.92C155.021 8.29333 154.714 7.51333 154.714 6.58C154.714 5.64667 155.047 4.84667 155.714 4.18C156.394 3.51333 157.327 3.12 158.514 3V0H159.974V2.98ZM158.514 4.72C158.007 4.81333 157.607 5.00667 157.314 5.3C157.034 5.59333 156.894 5.97333 156.894 6.44C156.894 6.86667 157.007 7.22667 157.234 7.52C157.461 7.8 157.887 8.07333 158.514 8.34V4.72ZM159.974 15.44C161.121 15.2 161.694 14.48 161.694 13.28C161.694 12.7733 161.567 12.3467 161.314 12C161.061 11.64 160.614 11.3133 159.974 11.02V15.44Z" fill="white"/>
<path d="M169.666 0.779999L178.146 18.34L176.366 19.14L167.906 1.6L169.666 0.779999Z" fill="white"/>
<path d="M271.912 2.98C272.672 3.06 273.372 3.24667 274.012 3.54C274.652 3.82 275.205 4.16667 275.672 4.58L274.472 5.84C273.712 5.18667 272.858 4.80667 271.912 4.7V8.84C273.178 9.25333 274.158 9.79333 274.852 10.46C275.545 11.1133 275.892 12 275.892 13.12C275.892 14.1733 275.545 15.08 274.852 15.84C274.158 16.5867 273.178 17.04 271.912 17.2V20.14H270.452V17.26C269.558 17.2067 268.745 17.0067 268.012 16.66C267.292 16.3133 266.672 15.8867 266.152 15.38L267.352 14.02C268.312 14.94 269.345 15.4333 270.452 15.5V10.5C269.158 10.0733 268.198 9.54667 267.572 8.92C266.958 8.29333 266.652 7.51333 266.652 6.58C266.652 5.64667 266.985 4.84667 267.652 4.18C268.332 3.51333 269.265 3.12 270.452 3V0H271.912V2.98ZM270.452 4.72C269.945 4.81333 269.545 5.00667 269.252 5.3C268.972 5.59333 268.832 5.97333 268.832 6.44C268.832 6.86667 268.945 7.22667 269.172 7.52C269.398 7.8 269.825 8.07333 270.452 8.34V4.72ZM271.912 15.44C273.058 15.2 273.632 14.48 273.632 13.28C273.632 12.7733 273.505 12.3467 273.252 12C272.998 11.64 272.552 11.3133 271.912 11.02V15.44Z" fill="white"/>
<path d="M285.904 2.98C286.664 3.06 287.364 3.24667 288.004 3.54C288.644 3.82 289.197 4.16667 289.664 4.58L288.464 5.84C287.704 5.18667 286.85 4.80667 285.904 4.7V8.84C287.17 9.25333 288.15 9.79333 288.844 10.46C289.537 11.1133 289.884 12 289.884 13.12C289.884 14.1733 289.537 15.08 288.844 15.84C288.15 16.5867 287.17 17.04 285.904 17.2V20.14H284.444V17.26C283.55 17.2067 282.737 17.0067 282.004 16.66C281.284 16.3133 280.664 15.8867 280.144 15.38L281.344 14.02C282.304 14.94 283.337 15.4333 284.444 15.5V10.5C283.15 10.0733 282.19 9.54667 281.564 8.92C280.95 8.29333 280.644 7.51333 280.644 6.58C280.644 5.64667 280.977 4.84667 281.644 4.18C282.324 3.51333 283.257 3.12 284.444 3V0H285.904V2.98ZM284.444 4.72C283.937 4.81333 283.537 5.00667 283.244 5.3C282.964 5.59333 282.824 5.97333 282.824 6.44C282.824 6.86667 282.937 7.22667 283.164 7.52C283.39 7.8 283.817 8.07333 284.444 8.34V4.72ZM285.904 15.44C287.05 15.2 287.624 14.48 287.624 13.28C287.624 12.7733 287.497 12.3467 287.244 12C286.99 11.64 286.544 11.3133 285.904 11.02V15.44Z" fill="white"/>
<path d="M295.596 0.779999L304.076 18.34L302.296 19.14L293.836 1.6L295.596 0.779999Z" fill="white"/>
<path d="M6.06 26.98C6.82 27.06 7.52 27.2467 8.16 27.54C8.8 27.82 9.35333 28.1667 9.82 28.58L8.62 29.84C7.86 29.1867 7.00667 28.8067 6.06 28.7V32.84C7.32667 33.2533 8.30667 33.7933 9 34.46C9.69333 35.1133 10.04 36 10.04 37.12C10.04 38.1733 9.69333 39.08 9 39.84C8.30667 40.5867 7.32667 41.04 6.06 41.2V44.14H4.6V41.26C3.70667 41.2067 2.89333 41.0067 2.16 40.66C1.44 40.3133 0.82 39.8867 0.3 39.38L1.5 38.02C2.46 38.94 3.49333 39.4333 4.6 39.5V34.5C3.30667 34.0733 2.34667 33.5467 1.72 32.92C1.10667 32.2933 0.8 31.5133 0.8 30.58C0.8 29.6467 1.13333 28.8467 1.8 28.18C2.48 27.5133 3.41333 27.12 4.6 27V24H6.06V26.98ZM4.6 28.72C4.09333 28.8133 3.69333 29.0067 3.4 29.3C3.12 29.5933 2.98 29.9733 2.98 30.44C2.98 30.8667 3.09333 31.2267 3.32 31.52C3.54667 31.8 3.97333 32.0733 4.6 32.34V28.72ZM6.06 39.44C7.20667 39.2 7.78 38.48 7.78 37.28C7.78 36.7733 7.65333 36.3467 7.4 36C7.14667 35.64 6.7 35.3133 6.06 35.02V39.44Z" fill="white"/>
<path d="M20.0522 26.98C20.8122 27.06 21.5122 27.2467 22.1522 27.54C22.7922 27.82 23.3455 28.1667 23.8122 28.58L22.6122 29.84C21.8522 29.1867 20.9989 28.8067 20.0522 28.7V32.84C21.3189 33.2533 22.2989 33.7933 22.9922 34.46C23.6855 35.1133 24.0322 36 24.0322 37.12C24.0322 38.1733 23.6855 39.08 22.9922 39.84C22.2989 40.5867 21.3189 41.04 20.0522 41.2V44.14H18.5922V41.26C17.6989 41.2067 16.8855 41.0067 16.1522 40.66C15.4322 40.3133 14.8122 39.8867 14.2922 39.38L15.4922 38.02C16.4522 38.94 17.4855 39.4333 18.5922 39.5V34.5C17.2989 34.0733 16.3389 33.5467 15.7122 32.92C15.0989 32.2933 14.7922 31.5133 14.7922 30.58C14.7922 29.6467 15.1255 28.8467 15.7922 28.18C16.4722 27.5133 17.4055 27.12 18.5922 27V24H20.0522V26.98ZM18.5922 28.72C18.0855 28.8133 17.6855 29.0067 17.3922 29.3C17.1122 29.5933 16.9722 29.9733 16.9722 30.44C16.9722 30.8667 17.0855 31.2267 17.3122 31.52C17.5389 31.8 17.9655 32.0733 18.5922 32.34V28.72ZM20.0522 39.44C21.1989 39.2 21.7722 38.48 21.7722 37.28C21.7722 36.7733 21.6455 36.3467 21.3922 36C21.1389 35.64 20.6922 35.3133 20.0522 35.02V39.44Z" fill="white"/>
<path d="M58.0809 42.84H80.0809V44.68H58.0809V42.84Z" fill="white"/>
<path d="M90.0131 26.98C90.7731 27.06 91.4731 27.2467 92.1131 27.54C92.7531 27.82 93.3065 28.1667 93.7731 28.58L92.5731 29.84C91.8131 29.1867 90.9598 28.8067 90.0131 28.7V32.84C91.2798 33.2533 92.2598 33.7933 92.9531 34.46C93.6465 35.1133 93.9931 36 93.9931 37.12C93.9931 38.1733 93.6465 39.08 92.9531 39.84C92.2598 40.5867 91.2798 41.04 90.0131 41.2V44.14H88.5531V41.26C87.6598 41.2067 86.8465 41.0067 86.1131 40.66C85.3931 40.3133 84.7731 39.8867 84.2531 39.38L85.4531 38.02C86.4131 38.94 87.4465 39.4333 88.5531 39.5V34.5C87.2598 34.0733 86.2998 33.5467 85.6731 32.92C85.0598 32.2933 84.7531 31.5133 84.7531 30.58C84.7531 29.6467 85.0865 28.8467 85.7531 28.18C86.4331 27.5133 87.3665 27.12 88.5531 27V24H90.0131V26.98ZM88.5531 28.72C88.0465 28.8133 87.6465 29.0067 87.3531 29.3C87.0731 29.5933 86.9331 29.9733 86.9331 30.44C86.9331 30.8667 87.0465 31.2267 87.2731 31.52C87.4998 31.8 87.9265 32.0733 88.5531 32.34V28.72ZM90.0131 39.44C91.1598 39.2 91.7331 38.48 91.7331 37.28C91.7331 36.7733 91.6065 36.3467 91.3531 36C91.0998 35.64 90.6531 35.3133 90.0131 35.02V39.44Z" fill="white"/>
<path d="M104.005 26.98C104.765 27.06 105.465 27.2467 106.105 27.54C106.745 27.82 107.299 28.1667 107.765 28.58L106.565 29.84C105.805 29.1867 104.952 28.8067 104.005 28.7V32.84C105.272 33.2533 106.252 33.7933 106.945 34.46C107.639 35.1133 107.985 36 107.985 37.12C107.985 38.1733 107.639 39.08 106.945 39.84C106.252 40.5867 105.272 41.04 104.005 41.2V44.14H102.545V41.26C101.652 41.2067 100.839 41.0067 100.105 40.66C99.3853 40.3133 98.7653 39.8867 98.2453 39.38L99.4453 38.02C100.405 38.94 101.439 39.4333 102.545 39.5V34.5C101.252 34.0733 100.292 33.5467 99.6653 32.92C99.052 32.2933 98.7453 31.5133 98.7453 30.58C98.7453 29.6467 99.0786 28.8467 99.7453 28.18C100.425 27.5133 101.359 27.12 102.545 27V24H104.005V26.98ZM102.545 28.72C102.039 28.8133 101.639 29.0067 101.345 29.3C101.065 29.5933 100.925 29.9733 100.925 30.44C100.925 30.8667 101.039 31.2267 101.265 31.52C101.492 31.8 101.919 32.0733 102.545 32.34V28.72ZM104.005 39.44C105.152 39.2 105.725 38.48 105.725 37.28C105.725 36.7733 105.599 36.3467 105.345 36C105.092 35.64 104.645 35.3133 104.005 35.02V39.44Z" fill="white"/>
<path d="M113.698 24.78L122.178 42.34L120.397 43.14L111.938 25.6L113.698 24.78Z" fill="white"/>
<path d="M145.982 26.98C146.742 27.06 147.442 27.2467 148.082 27.54C148.722 27.82 149.275 28.1667 149.742 28.58L148.542 29.84C147.782 29.1867 146.929 28.8067 145.982 28.7V32.84C147.249 33.2533 148.229 33.7933 148.922 34.46C149.615 35.1133 149.962 36 149.962 37.12C149.962 38.1733 149.615 39.08 148.922 39.84C148.229 40.5867 147.249 41.04 145.982 41.2V44.14H144.522V41.26C143.629 41.2067 142.815 41.0067 142.082 40.66C141.362 40.3133 140.742 39.8867 140.222 39.38L141.422 38.02C142.382 38.94 143.415 39.4333 144.522 39.5V34.5C143.229 34.0733 142.269 33.5467 141.642 32.92C141.029 32.2933 140.722 31.5133 140.722 30.58C140.722 29.6467 141.055 28.8467 141.722 28.18C142.402 27.5133 143.335 27.12 144.522 27V24H145.982V26.98ZM144.522 28.72C144.015 28.8133 143.615 29.0067 143.322 29.3C143.042 29.5933 142.902 29.9733 142.902 30.44C142.902 30.8667 143.015 31.2267 143.242 31.52C143.469 31.8 143.895 32.0733 144.522 32.34V28.72ZM145.982 39.44C147.129 39.2 147.702 38.48 147.702 37.28C147.702 36.7733 147.575 36.3467 147.322 36C147.069 35.64 146.622 35.3133 145.982 35.02V39.44Z" fill="white"/>
<path d="M159.974 26.98C160.734 27.06 161.434 27.2467 162.074 27.54C162.714 27.82 163.267 28.1667 163.734 28.58L162.534 29.84C161.774 29.1867 160.921 28.8067 159.974 28.7V32.84C161.241 33.2533 162.221 33.7933 162.914 34.46C163.607 35.1133 163.954 36 163.954 37.12C163.954 38.1733 163.607 39.08 162.914 39.84C162.221 40.5867 161.241 41.04 159.974 41.2V44.14H158.514V41.26C157.621 41.2067 156.807 41.0067 156.074 40.66C155.354 40.3133 154.734 39.8867 154.214 39.38L155.414 38.02C156.374 38.94 157.407 39.4333 158.514 39.5V34.5C157.221 34.0733 156.261 33.5467 155.634 32.92C155.021 32.2933 154.714 31.5133 154.714 30.58C154.714 29.6467 155.047 28.8467 155.714 28.18C156.394 27.5133 157.327 27.12 158.514 27V24H159.974V26.98ZM158.514 28.72C158.007 28.8133 157.607 29.0067 157.314 29.3C157.034 29.5933 156.894 29.9733 156.894 30.44C156.894 30.8667 157.007 31.2267 157.234 31.52C157.461 31.8 157.887 32.0733 158.514 32.34V28.72ZM159.974 39.44C161.121 39.2 161.694 38.48 161.694 37.28C161.694 36.7733 161.567 36.3467 161.314 36C161.061 35.64 160.614 35.3133 159.974 35.02V39.44Z" fill="white"/>
<path d="M173.966 26.98C174.726 27.06 175.426 27.2467 176.066 27.54C176.706 27.82 177.26 28.1667 177.726 28.58L176.526 29.84C175.766 29.1867 174.913 28.8067 173.966 28.7V32.84C175.233 33.2533 176.213 33.7933 176.906 34.46C177.6 35.1133 177.946 36 177.946 37.12C177.946 38.1733 177.6 39.08 176.906 39.84C176.213 40.5867 175.233 41.04 173.966 41.2V44.14H172.506V41.26C171.613 41.2067 170.8 41.0067 170.066 40.66C169.346 40.3133 168.726 39.8867 168.206 39.38L169.406 38.02C170.366 38.94 171.4 39.4333 172.506 39.5V34.5C171.213 34.0733 170.253 33.5467 169.626 32.92C169.013 32.2933 168.706 31.5133 168.706 30.58C168.706 29.6467 169.04 28.8467 169.706 28.18C170.386 27.5133 171.32 27.12 172.506 27V24H173.966V26.98ZM172.506 28.72C172 28.8133 171.6 29.0067 171.306 29.3C171.026 29.5933 170.886 29.9733 170.886 30.44C170.886 30.8667 171 31.2267 171.226 31.52C171.453 31.8 171.88 32.0733 172.506 32.34V28.72ZM173.966 39.44C175.113 39.2 175.686 38.48 175.686 37.28C175.686 36.7733 175.56 36.3467 175.306 36C175.053 35.64 174.606 35.3133 173.966 35.02V39.44Z" fill="white"/>
<path d="M183.658 24.78L192.138 42.34L190.358 43.14L181.898 25.6L183.658 24.78Z" fill="white"/>
<path d="M257.919 26.98C258.679 27.06 259.379 27.2467 260.019 27.54C260.659 27.82 261.213 28.1667 261.679 28.58L260.479 29.84C259.719 29.1867 258.866 28.8067 257.919 28.7V32.84C259.186 33.2533 260.166 33.7933 260.859 34.46C261.553 35.1133 261.899 36 261.899 37.12C261.899 38.1733 261.553 39.08 260.859 39.84C260.166 40.5867 259.186 41.04 257.919 41.2V44.14H256.459V41.26C255.566 41.2067 254.753 41.0067 254.019 40.66C253.299 40.3133 252.679 39.8867 252.159 39.38L253.359 38.02C254.319 38.94 255.353 39.4333 256.459 39.5V34.5C255.166 34.0733 254.206 33.5467 253.579 32.92C252.966 32.2933 252.659 31.5133 252.659 30.58C252.659 29.6467 252.993 28.8467 253.659 28.18C254.339 27.5133 255.273 27.12 256.459 27V24H257.919V26.98ZM256.459 28.72C255.953 28.8133 255.553 29.0067 255.259 29.3C254.979 29.5933 254.839 29.9733 254.839 30.44C254.839 30.8667 254.953 31.2267 255.179 31.52C255.406 31.8 255.833 32.0733 256.459 32.34V28.72ZM257.919 39.44C259.066 39.2 259.639 38.48 259.639 37.28C259.639 36.7733 259.513 36.3467 259.259 36C259.006 35.64 258.559 35.3133 257.919 35.02V39.44Z" fill="white"/>
<path d="M271.912 26.98C272.672 27.06 273.372 27.2467 274.012 27.54C274.652 27.82 275.205 28.1667 275.672 28.58L274.472 29.84C273.712 29.1867 272.858 28.8067 271.912 28.7V32.84C273.178 33.2533 274.158 33.7933 274.852 34.46C275.545 35.1133 275.892 36 275.892 37.12C275.892 38.1733 275.545 39.08 274.852 39.84C274.158 40.5867 273.178 41.04 271.912 41.2V44.14H270.452V41.26C269.558 41.2067 268.745 41.0067 268.012 40.66C267.292 40.3133 266.672 39.8867 266.152 39.38L267.352 38.02C268.312 38.94 269.345 39.4333 270.452 39.5V34.5C269.158 34.0733 268.198 33.5467 267.572 32.92C266.958 32.2933 266.652 31.5133 266.652 30.58C266.652 29.6467 266.985 28.8467 267.652 28.18C268.332 27.5133 269.265 27.12 270.452 27V24H271.912V26.98ZM270.452 28.72C269.945 28.8133 269.545 29.0067 269.252 29.3C268.972 29.5933 268.832 29.9733 268.832 30.44C268.832 30.8667 268.945 31.2267 269.172 31.52C269.398 31.8 269.825 32.0733 270.452 32.34V28.72ZM271.912 39.44C273.058 39.2 273.632 38.48 273.632 37.28C273.632 36.7733 273.505 36.3467 273.252 36C272.998 35.64 272.552 35.3133 271.912 35.02V39.44Z" fill="white"/>
<path d="M285.904 26.98C286.664 27.06 287.364 27.2467 288.004 27.54C288.644 27.82 289.197 28.1667 289.664 28.58L288.464 29.84C287.704 29.1867 286.85 28.8067 285.904 28.7V32.84C287.17 33.2533 288.15 33.7933 288.844 34.46C289.537 35.1133 289.884 36 289.884 37.12C289.884 38.1733 289.537 39.08 288.844 39.84C288.15 40.5867 287.17 41.04 285.904 41.2V44.14H284.444V41.26C283.55 41.2067 282.737 41.0067 282.004 40.66C281.284 40.3133 280.664 39.8867 280.144 39.38L281.344 38.02C282.304 38.94 283.337 39.4333 284.444 39.5V34.5C283.15 34.0733 282.19 33.5467 281.564 32.92C280.95 32.2933 280.644 31.5133 280.644 30.58C280.644 29.6467 280.977 28.8467 281.644 28.18C282.324 27.5133 283.257 27.12 284.444 27V24H285.904V26.98ZM284.444 28.72C283.937 28.8133 283.537 29.0067 283.244 29.3C282.964 29.5933 282.824 29.9733 282.824 30.44C282.824 30.8667 282.937 31.2267 283.164 31.52C283.39 31.8 283.817 32.0733 284.444 32.34V28.72ZM285.904 39.44C287.05 39.2 287.624 38.48 287.624 37.28C287.624 36.7733 287.497 36.3467 287.244 36C286.99 35.64 286.544 35.3133 285.904 35.02V39.44Z" fill="white"/>
<path d="M313.968 43.08H311.908V24.86H313.968V43.08Z" fill="white"/>
<path d="M6.06 50.98C6.82 51.06 7.52 51.2467 8.16 51.54C8.8 51.82 9.35333 52.1667 9.82 52.58L8.62 53.84C7.86 53.1867 7.00667 52.8067 6.06 52.7V56.84C7.32667 57.2533 8.30667 57.7933 9 58.46C9.69333 59.1133 10.04 60 10.04 61.12C10.04 62.1733 9.69333 63.08 9 63.84C8.30667 64.5867 7.32667 65.04 6.06 65.2V68.14H4.6V65.26C3.70667 65.2067 2.89333 65.0067 2.16 64.66C1.44 64.3133 0.82 63.8867 0.3 63.38L1.5 62.02C2.46 62.94 3.49333 63.4333 4.6 63.5V58.5C3.30667 58.0733 2.34667 57.5467 1.72 56.92C1.10667 56.2933 0.8 55.5133 0.8 54.58C0.8 53.6467 1.13333 52.8467 1.8 52.18C2.48 51.5133 3.41333 51.12 4.6 51V48H6.06V50.98ZM4.6 52.72C4.09333 52.8133 3.69333 53.0067 3.4 53.3C3.12 53.5933 2.98 53.9733 2.98 54.44C2.98 54.8667 3.09333 55.2267 3.32 55.52C3.54667 55.8 3.97333 56.0733 4.6 56.34V52.72ZM6.06 63.44C7.20667 63.2 7.78 62.48 7.78 61.28C7.78 60.7733 7.65333 60.3467 7.4 60C7.14667 59.64 6.7 59.3133 6.06 59.02V63.44Z" fill="white"/>
<path d="M20.0522 50.98C20.8122 51.06 21.5122 51.2467 22.1522 51.54C22.7922 51.82 23.3455 52.1667 23.8122 52.58L22.6122 53.84C21.8522 53.1867 20.9989 52.8067 20.0522 52.7V56.84C21.3189 57.2533 22.2989 57.7933 22.9922 58.46C23.6855 59.1133 24.0322 60 24.0322 61.12C24.0322 62.1733 23.6855 63.08 22.9922 63.84C22.2989 64.5867 21.3189 65.04 20.0522 65.2V68.14H18.5922V65.26C17.6989 65.2067 16.8855 65.0067 16.1522 64.66C15.4322 64.3133 14.8122 63.8867 14.2922 63.38L15.4922 62.02C16.4522 62.94 17.4855 63.4333 18.5922 63.5V58.5C17.2989 58.0733 16.3389 57.5467 15.7122 56.92C15.0989 56.2933 14.7922 55.5133 14.7922 54.58C14.7922 53.6467 15.1255 52.8467 15.7922 52.18C16.4722 51.5133 17.4055 51.12 18.5922 51V48H20.0522V50.98ZM18.5922 52.72C18.0855 52.8133 17.6855 53.0067 17.3922 53.3C17.1122 53.5933 16.9722 53.9733 16.9722 54.44C16.9722 54.8667 17.0855 55.2267 17.3122 55.52C17.5389 55.8 17.9655 56.0733 18.5922 56.34V52.72ZM20.0522 63.44C21.1989 63.2 21.7722 62.48 21.7722 61.28C21.7722 60.7733 21.6455 60.3467 21.3922 60C21.1389 59.64 20.6922 59.3133 20.0522 59.02V63.44Z" fill="white"/>
<path d="M41.9766 66.34L50.4566 48.78L52.2166 49.6L43.7566 67.14L41.9766 66.34Z" fill="white"/>
<path d="M85.7131 48.78L94.1931 66.34L92.4131 67.14L83.9531 49.6L85.7131 48.78Z" fill="white"/>
<path d="M100.058 66.84H122.058V68.68H100.058V66.84Z" fill="white"/>
<path d="M132.07 67.08H130.01V48.86H132.07V67.08Z" fill="white"/>
<path d="M145.982 50.98C146.742 51.06 147.442 51.2467 148.082 51.54C148.722 51.82 149.275 52.1667 149.742 52.58L148.542 53.84C147.782 53.1867 146.929 52.8067 145.982 52.7V56.84C147.249 57.2533 148.229 57.7933 148.922 58.46C149.615 59.1133 149.962 60 149.962 61.12C149.962 62.1733 149.615 63.08 148.922 63.84C148.229 64.5867 147.249 65.04 145.982 65.2V68.14H144.522V65.26C143.629 65.2067 142.815 65.0067 142.082 64.66C141.362 64.3133 140.742 63.8867 140.222 63.38L141.422 62.02C142.382 62.94 143.415 63.4333 144.522 63.5V58.5C143.229 58.0733 142.269 57.5467 141.642 56.92C141.029 56.2933 140.722 55.5133 140.722 54.58C140.722 53.6467 141.055 52.8467 141.722 52.18C142.402 51.5133 143.335 51.12 144.522 51V48H145.982V50.98ZM144.522 52.72C144.015 52.8133 143.615 53.0067 143.322 53.3C143.042 53.5933 142.902 53.9733 142.902 54.44C142.902 54.8667 143.015 55.2267 143.242 55.52C143.469 55.8 143.895 56.0733 144.522 56.34V52.72ZM145.982 63.44C147.129 63.2 147.702 62.48 147.702 61.28C147.702 60.7733 147.575 60.3467 147.322 60C147.069 59.64 146.622 59.3133 145.982 59.02V63.44Z" fill="white"/>
<path d="M159.974 50.98C160.734 51.06 161.434 51.2467 162.074 51.54C162.714 51.82 163.267 52.1667 163.734 52.58L162.534 53.84C161.774 53.1867 160.921 52.8067 159.974 52.7V56.84C161.241 57.2533 162.221 57.7933 162.914 58.46C163.607 59.1133 163.954 60 163.954 61.12C163.954 62.1733 163.607 63.08 162.914 63.84C162.221 64.5867 161.241 65.04 159.974 65.2V68.14H158.514V65.26C157.621 65.2067 156.807 65.0067 156.074 64.66C155.354 64.3133 154.734 63.8867 154.214 63.38L155.414 62.02C156.374 62.94 157.407 63.4333 158.514 63.5V58.5C157.221 58.0733 156.261 57.5467 155.634 56.92C155.021 56.2933 154.714 55.5133 154.714 54.58C154.714 53.6467 155.047 52.8467 155.714 52.18C156.394 51.5133 157.327 51.12 158.514 51V48H159.974V50.98ZM158.514 52.72C158.007 52.8133 157.607 53.0067 157.314 53.3C157.034 53.5933 156.894 53.9733 156.894 54.44C156.894 54.8667 157.007 55.2267 157.234 55.52C157.461 55.8 157.887 56.0733 158.514 56.34V52.72ZM159.974 63.44C161.121 63.2 161.694 62.48 161.694 61.28C161.694 60.7733 161.567 60.3467 161.314 60C161.061 59.64 160.614 59.3133 159.974 59.02V63.44Z" fill="white"/>
<path d="M173.966 50.98C174.726 51.06 175.426 51.2467 176.066 51.54C176.706 51.82 177.26 52.1667 177.726 52.58L176.526 53.84C175.766 53.1867 174.913 52.8067 173.966 52.7V56.84C175.233 57.2533 176.213 57.7933 176.906 58.46C177.6 59.1133 177.946 60 177.946 61.12C177.946 62.1733 177.6 63.08 176.906 63.84C176.213 64.5867 175.233 65.04 173.966 65.2V68.14H172.506V65.26C171.613 65.2067 170.8 65.0067 170.066 64.66C169.346 64.3133 168.726 63.8867 168.206 63.38L169.406 62.02C170.366 62.94 171.4 63.4333 172.506 63.5V58.5C171.213 58.0733 170.253 57.5467 169.626 56.92C169.013 56.2933 168.706 55.5133 168.706 54.58C168.706 53.6467 169.04 52.8467 169.706 52.18C170.386 51.5133 171.32 51.12 172.506 51V48H173.966V50.98ZM172.506 52.72C172 52.8133 171.6 53.0067 171.306 53.3C171.026 53.5933 170.886 53.9733 170.886 54.44C170.886 54.8667 171 55.2267 171.226 55.52C171.453 55.8 171.88 56.0733 172.506 56.34V52.72ZM173.966 63.44C175.113 63.2 175.686 62.48 175.686 61.28C175.686 60.7733 175.56 60.3467 175.306 60C175.053 59.64 174.606 59.3133 173.966 59.02V63.44Z" fill="white"/>
<path d="M187.958 50.98C188.718 51.06 189.418 51.2467 190.058 51.54C190.698 51.82 191.252 52.1667 191.718 52.58L190.518 53.84C189.758 53.1867 188.905 52.8067 187.958 52.7V56.84C189.225 57.2533 190.205 57.7933 190.898 58.46C191.592 59.1133 191.938 60 191.938 61.12C191.938 62.1733 191.592 63.08 190.898 63.84C190.205 64.5867 189.225 65.04 187.958 65.2V68.14H186.498V65.26C185.605 65.2067 184.792 65.0067 184.058 64.66C183.338 64.3133 182.718 63.8867 182.198 63.38L183.398 62.02C184.358 62.94 185.392 63.4333 186.498 63.5V58.5C185.205 58.0733 184.245 57.5467 183.618 56.92C183.005 56.2933 182.698 55.5133 182.698 54.58C182.698 53.6467 183.032 52.8467 183.698 52.18C184.378 51.5133 185.312 51.12 186.498 51V48H187.958V50.98ZM186.498 52.72C185.992 52.8133 185.592 53.0067 185.298 53.3C185.018 53.5933 184.878 53.9733 184.878 54.44C184.878 54.8667 184.992 55.2267 185.218 55.52C185.445 55.8 185.872 56.0733 186.498 56.34V52.72ZM187.958 63.44C189.105 63.2 189.678 62.48 189.678 61.28C189.678 60.7733 189.552 60.3467 189.298 60C189.045 59.64 188.598 59.3133 187.958 59.02V63.44Z" fill="white"/>
<path d="M197.651 48.78L206.131 66.34L204.351 67.14L195.891 49.6L197.651 48.78Z" fill="white"/>
<path d="M243.927 50.98C244.687 51.06 245.387 51.2467 246.027 51.54C246.667 51.82 247.221 52.1667 247.687 52.58L246.487 53.84C245.727 53.1867 244.874 52.8067 243.927 52.7V56.84C245.194 57.2533 246.174 57.7933 246.867 58.46C247.561 59.1133 247.907 60 247.907 61.12C247.907 62.1733 247.561 63.08 246.867 63.84C246.174 64.5867 245.194 65.04 243.927 65.2V68.14H242.467V65.26C241.574 65.2067 240.761 65.0067 240.027 64.66C239.307 64.3133 238.687 63.8867 238.167 63.38L239.367 62.02C240.327 62.94 241.361 63.4333 242.467 63.5V58.5C241.174 58.0733 240.214 57.5467 239.587 56.92C238.974 56.2933 238.667 55.5133 238.667 54.58C238.667 53.6467 239.001 52.8467 239.667 52.18C240.347 51.5133 241.281 51.12 242.467 51V48H243.927V50.98ZM242.467 52.72C241.961 52.8133 241.561 53.0067 241.267 53.3C240.987 53.5933 240.847 53.9733 240.847 54.44C240.847 54.8667 240.961 55.2267 241.187 55.52C241.414 55.8 241.841 56.0733 242.467 56.34V52.72ZM243.927 63.44C245.074 63.2 245.647 62.48 245.647 61.28C245.647 60.7733 245.521 60.3467 245.267 60C245.014 59.64 244.567 59.3133 243.927 59.02V63.44Z" fill="white"/>
<path d="M257.919 50.98C258.679 51.06 259.379 51.2467 260.019 51.54C260.659 51.82 261.213 52.1667 261.679 52.58L260.479 53.84C259.719 53.1867 258.866 52.8067 257.919 52.7V56.84C259.186 57.2533 260.166 57.7933 260.859 58.46C261.553 59.1133 261.899 60 261.899 61.12C261.899 62.1733 261.553 63.08 260.859 63.84C260.166 64.5867 259.186 65.04 257.919 65.2V68.14H256.459V65.26C255.566 65.2067 254.753 65.0067 254.019 64.66C253.299 64.3133 252.679 63.8867 252.159 63.38L253.359 62.02C254.319 62.94 255.353 63.4333 256.459 63.5V58.5C255.166 58.0733 254.206 57.5467 253.579 56.92C252.966 56.2933 252.659 55.5133 252.659 54.58C252.659 53.6467 252.993 52.8467 253.659 52.18C254.339 51.5133 255.273 51.12 256.459 51V48H257.919V50.98ZM256.459 52.72C255.953 52.8133 255.553 53.0067 255.259 53.3C254.979 53.5933 254.839 53.9733 254.839 54.44C254.839 54.8667 254.953 55.2267 255.179 55.52C255.406 55.8 255.833 56.0733 256.459 56.34V52.72ZM257.919 63.44C259.066 63.2 259.639 62.48 259.639 61.28C259.639 60.7733 259.513 60.3467 259.259 60C259.006 59.64 258.559 59.3133 257.919 59.02V63.44Z" fill="white"/>
<path d="M271.912 50.98C272.672 51.06 273.372 51.2467 274.012 51.54C274.652 51.82 275.205 52.1667 275.672 52.58L274.472 53.84C273.712 53.1867 272.858 52.8067 271.912 52.7V56.84C273.178 57.2533 274.158 57.7933 274.852 58.46C275.545 59.1133 275.892 60 275.892 61.12C275.892 62.1733 275.545 63.08 274.852 63.84C274.158 64.5867 273.178 65.04 271.912 65.2V68.14H270.452V65.26C269.558 65.2067 268.745 65.0067 268.012 64.66C267.292 64.3133 266.672 63.8867 266.152 63.38L267.352 62.02C268.312 62.94 269.345 63.4333 270.452 63.5V58.5C269.158 58.0733 268.198 57.5467 267.572 56.92C266.958 56.2933 266.652 55.5133 266.652 54.58C266.652 53.6467 266.985 52.8467 267.652 52.18C268.332 51.5133 269.265 51.12 270.452 51V48H271.912V50.98ZM270.452 52.72C269.945 52.8133 269.545 53.0067 269.252 53.3C268.972 53.5933 268.832 53.9733 268.832 54.44C268.832 54.8667 268.945 55.2267 269.172 55.52C269.398 55.8 269.825 56.0733 270.452 56.34V52.72ZM271.912 63.44C273.058 63.2 273.632 62.48 273.632 61.28C273.632 60.7733 273.505 60.3467 273.252 60C272.998 59.64 272.552 59.3133 271.912 59.02V63.44Z" fill="white"/>
<path d="M285.904 50.98C286.664 51.06 287.364 51.2467 288.004 51.54C288.644 51.82 289.197 52.1667 289.664 52.58L288.464 53.84C287.704 53.1867 286.85 52.8067 285.904 52.7V56.84C287.17 57.2533 288.15 57.7933 288.844 58.46C289.537 59.1133 289.884 60 289.884 61.12C289.884 62.1733 289.537 63.08 288.844 63.84C288.15 64.5867 287.17 65.04 285.904 65.2V68.14H284.444V65.26C283.55 65.2067 282.737 65.0067 282.004 64.66C281.284 64.3133 280.664 63.8867 280.144 63.38L281.344 62.02C282.304 62.94 283.337 63.4333 284.444 63.5V58.5C283.15 58.0733 282.19 57.5467 281.564 56.92C280.95 56.2933 280.644 55.5133 280.644 54.58C280.644 53.6467 280.977 52.8467 281.644 52.18C282.324 51.5133 283.257 51.12 284.444 51V48H285.904V50.98ZM284.444 52.72C283.937 52.8133 283.537 53.0067 283.244 53.3C282.964 53.5933 282.824 53.9733 282.824 54.44C282.824 54.8667 282.937 55.2267 283.164 55.52C283.39 55.8 283.817 56.0733 284.444 56.34V52.72ZM285.904 63.44C287.05 63.2 287.624 62.48 287.624 61.28C287.624 60.7733 287.497 60.3467 287.244 60C286.99 59.64 286.544 59.3133 285.904 59.02V63.44Z" fill="white"/>
<path d="M313.968 67.08H311.908V48.86H313.968V67.08Z" fill="white"/>
<path d="M6.06 74.98C6.82 75.06 7.52 75.2467 8.16 75.54C8.8 75.82 9.35333 76.1667 9.82 76.58L8.62 77.84C7.86 77.1867 7.00667 76.8067 6.06 76.7V80.84C7.32667 81.2533 8.30667 81.7933 9 82.46C9.69333 83.1133 10.04 84 10.04 85.12C10.04 86.1733 9.69333 87.08 9 87.84C8.30667 88.5867 7.32667 89.04 6.06 89.2V92.14H4.6V89.26C3.70667 89.2067 2.89333 89.0067 2.16 88.66C1.44 88.3133 0.82 87.8867 0.3 87.38L1.5 86.02C2.46 86.94 3.49333 87.4333 4.6 87.5V82.5C3.30667 82.0733 2.34667 81.5467 1.72 80.92C1.10667 80.2933 0.8 79.5133 0.8 78.58C0.8 77.6467 1.13333 76.8467 1.8 76.18C2.48 75.5133 3.41333 75.12 4.6 75V72H6.06V74.98ZM4.6 76.72C4.09333 76.8133 3.69333 77.0067 3.4 77.3C3.12 77.5933 2.98 77.9733 2.98 78.44C2.98 78.8667 3.09333 79.2267 3.32 79.52C3.54667 79.8 3.97333 80.0733 4.6 80.34V76.72ZM6.06 87.44C7.20667 87.2 7.78 86.48 7.78 85.28C7.78 84.7733 7.65333 84.3467 7.4 84C7.14667 83.64 6.7 83.3133 6.06 83.02V87.44Z" fill="white"/>
<path d="M20.0522 74.98C20.8122 75.06 21.5122 75.2467 22.1522 75.54C22.7922 75.82 23.3455 76.1667 23.8122 76.58L22.6122 77.84C21.8522 77.1867 20.9989 76.8067 20.0522 76.7V80.84C21.3189 81.2533 22.2989 81.7933 22.9922 82.46C23.6855 83.1133 24.0322 84 24.0322 85.12C24.0322 86.1733 23.6855 87.08 22.9922 87.84C22.2989 88.5867 21.3189 89.04 20.0522 89.2V92.14H18.5922V89.26C17.6989 89.2067 16.8855 89.0067 16.1522 88.66C15.4322 88.3133 14.8122 87.8867 14.2922 87.38L15.4922 86.02C16.4522 86.94 17.4855 87.4333 18.5922 87.5V82.5C17.2989 82.0733 16.3389 81.5467 15.7122 80.92C15.0989 80.2933 14.7922 79.5133 14.7922 78.58C14.7922 77.6467 15.1255 76.8467 15.7922 76.18C16.4722 75.5133 17.4055 75.12 18.5922 75V72H20.0522V74.98ZM18.5922 76.72C18.0855 76.8133 17.6855 77.0067 17.3922 77.3C17.1122 77.5933 16.9722 77.9733 16.9722 78.44C16.9722 78.8667 17.0855 79.2267 17.3122 79.52C17.5389 79.8 17.9655 80.0733 18.5922 80.34V76.72ZM20.0522 87.44C21.1989 87.2 21.7722 86.48 21.7722 85.28C21.7722 84.7733 21.6455 84.3467 21.3922 84C21.1389 83.64 20.6922 83.3133 20.0522 83.02V87.44Z" fill="white"/>
<path d="M48.1166 91.08H46.0566V72.86H48.1166V91.08Z" fill="white"/>
<path d="M62.0287 74.98C62.7887 75.06 63.4888 75.2467 64.1288 75.54C64.7688 75.82 65.3221 76.1667 65.7887 76.58L64.5888 77.84C63.8288 77.1867 62.9754 76.8067 62.0287 76.7V80.84C63.2954 81.2533 64.2754 81.7933 64.9688 82.46C65.6621 83.1133 66.0088 84 66.0088 85.12C66.0088 86.1733 65.6621 87.08 64.9688 87.84C64.2754 88.5867 63.2954 89.04 62.0287 89.2V92.14H60.5687V89.26C59.6754 89.2067 58.8621 89.0067 58.1287 88.66C57.4087 88.3133 56.7887 87.8867 56.2687 87.38L57.4688 86.02C58.4288 86.94 59.4621 87.4333 60.5687 87.5V82.5C59.2754 82.0733 58.3154 81.5467 57.6887 80.92C57.0754 80.2933 56.7687 79.5133 56.7687 78.58C56.7687 77.6467 57.1021 76.8467 57.7687 76.18C58.4487 75.5133 59.3821 75.12 60.5687 75V72H62.0287V74.98ZM60.5687 76.72C60.0621 76.8133 59.6621 77.0067 59.3687 77.3C59.0887 77.5933 58.9487 77.9733 58.9487 78.44C58.9487 78.8667 59.0621 79.2267 59.2887 79.52C59.5154 79.8 59.9421 80.0733 60.5687 80.34V76.72ZM62.0287 87.44C63.1754 87.2 63.7488 86.48 63.7488 85.28C63.7488 84.7733 63.6221 84.3467 63.3687 84C63.1154 83.64 62.6687 83.3133 62.0287 83.02V87.44Z" fill="white"/>
<path d="M76.0209 74.98C76.7809 75.06 77.4809 75.2467 78.1209 75.54C78.7609 75.82 79.3143 76.1667 79.7809 76.58L78.5809 77.84C77.8209 77.1867 76.9676 76.8067 76.0209 76.7V80.84C77.2876 81.2533 78.2676 81.7933 78.9609 82.46C79.6543 83.1133 80.0009 84 80.0009 85.12C80.0009 86.1733 79.6543 87.08 78.9609 87.84C78.2676 88.5867 77.2876 89.04 76.0209 89.2V92.14H74.5609V89.26C73.6676 89.2067 72.8543 89.0067 72.1209 88.66C71.4009 88.3133 70.7809 87.8867 70.2609 87.38L71.4609 86.02C72.4209 86.94 73.4543 87.4333 74.5609 87.5V82.5C73.2676 82.0733 72.3076 81.5467 71.6809 80.92C71.0676 80.2933 70.7609 79.5133 70.7609 78.58C70.7609 77.6467 71.0943 76.8467 71.7609 76.18C72.4409 75.5133 73.3743 75.12 74.5609 75V72H76.0209V74.98ZM74.5609 76.72C74.0543 76.8133 73.6543 77.0067 73.3609 77.3C73.0809 77.5933 72.9409 77.9733 72.9409 78.44C72.9409 78.8667 73.0543 79.2267 73.2809 79.52C73.5076 79.8 73.9343 80.0733 74.5609 80.34V76.72ZM76.0209 87.44C77.1676 87.2 77.7409 86.48 77.7409 85.28C77.7409 84.7733 77.6143 84.3467 77.3609 84C77.1076 83.64 76.6609 83.3133 76.0209 83.02V87.44Z" fill="white"/>
<path d="M90.0131 74.98C90.7731 75.06 91.4731 75.2467 92.1131 75.54C92.7531 75.82 93.3065 76.1667 93.7731 76.58L92.5731 77.84C91.8131 77.1867 90.9598 76.8067 90.0131 76.7V80.84C91.2798 81.2533 92.2598 81.7933 92.9531 82.46C93.6465 83.1133 93.9931 84 93.9931 85.12C93.9931 86.1733 93.6465 87.08 92.9531 87.84C92.2598 88.5867 91.2798 89.04 90.0131 89.2V92.14H88.5531V89.26C87.6598 89.2067 86.8465 89.0067 86.1131 88.66C85.3931 88.3133 84.7731 87.8867 84.2531 87.38L85.4531 86.02C86.4131 86.94 87.4465 87.4333 88.5531 87.5V82.5C87.2598 82.0733 86.2998 81.5467 85.6731 80.92C85.0598 80.2933 84.7531 79.5133 84.7531 78.58C84.7531 77.6467 85.0865 76.8467 85.7531 76.18C86.4331 75.5133 87.3665 75.12 88.5531 75V72H90.0131V74.98ZM88.5531 76.72C88.0465 76.8133 87.6465 77.0067 87.3531 77.3C87.0731 77.5933 86.9331 77.9733 86.9331 78.44C86.9331 78.8667 87.0465 79.2267 87.2731 79.52C87.4998 79.8 87.9265 80.0733 88.5531 80.34V76.72ZM90.0131 87.44C91.1598 87.2 91.7331 86.48 91.7331 85.28C91.7331 84.7733 91.6065 84.3467 91.3531 84C91.0998 83.64 90.6531 83.3133 90.0131 83.02V87.44Z" fill="white"/>
<path d="M104.005 74.98C104.765 75.06 105.465 75.2467 106.105 75.54C106.745 75.82 107.299 76.1667 107.765 76.58L106.565 77.84C105.805 77.1867 104.952 76.8067 104.005 76.7V80.84C105.272 81.2533 106.252 81.7933 106.945 82.46C107.639 83.1133 107.985 84 107.985 85.12C107.985 86.1733 107.639 87.08 106.945 87.84C106.252 88.5867 105.272 89.04 104.005 89.2V92.14H102.545V89.26C101.652 89.2067 100.839 89.0067 100.105 88.66C99.3853 88.3133 98.7653 87.8867 98.2453 87.38L99.4453 86.02C100.405 86.94 101.439 87.4333 102.545 87.5V82.5C101.252 82.0733 100.292 81.5467 99.6653 80.92C99.052 80.2933 98.7453 79.5133 98.7453 78.58C98.7453 77.6467 99.0786 76.8467 99.7453 76.18C100.425 75.5133 101.359 75.12 102.545 75V72H104.005V74.98ZM102.545 76.72C102.039 76.8133 101.639 77.0067 101.345 77.3C101.065 77.5933 100.925 77.9733 100.925 78.44C100.925 78.8667 101.039 79.2267 101.265 79.52C101.492 79.8 101.919 80.0733 102.545 80.34V76.72ZM104.005 87.44C105.152 87.2 105.725 86.48 105.725 85.28C105.725 84.7733 105.599 84.3467 105.345 84C105.092 83.64 104.645 83.3133 104.005 83.02V87.44Z" fill="white"/>
<path d="M113.698 72.78L122.178 90.34L120.397 91.14L111.938 73.6L113.698 72.78Z" fill="white"/>
<path d="M145.982 74.98C146.742 75.06 147.442 75.2467 148.082 75.54C148.722 75.82 149.275 76.1667 149.742 76.58L148.542 77.84C147.782 77.1867 146.929 76.8067 145.982 76.7V80.84C147.249 81.2533 148.229 81.7933 148.922 82.46C149.615 83.1133 149.962 84 149.962 85.12C149.962 86.1733 149.615 87.08 148.922 87.84C148.229 88.5867 147.249 89.04 145.982 89.2V92.14H144.522V89.26C143.629 89.2067 142.815 89.0067 142.082 88.66C141.362 88.3133 140.742 87.8867 140.222 87.38L141.422 86.02C142.382 86.94 143.415 87.4333 144.522 87.5V82.5C143.229 82.0733 142.269 81.5467 141.642 80.92C141.029 80.2933 140.722 79.5133 140.722 78.58C140.722 77.6467 141.055 76.8467 141.722 76.18C142.402 75.5133 143.335 75.12 144.522 75V72H145.982V74.98ZM144.522 76.72C144.015 76.8133 143.615 77.0067 143.322 77.3C143.042 77.5933 142.902 77.9733 142.902 78.44C142.902 78.8667 143.015 79.2267 143.242 79.52C143.469 79.8 143.895 80.0733 144.522 80.34V76.72ZM145.982 87.44C147.129 87.2 147.702 86.48 147.702 85.28C147.702 84.7733 147.575 84.3467 147.322 84C147.069 83.64 146.622 83.3133 145.982 83.02V87.44Z" fill="white"/>
<path d="M159.974 74.98C160.734 75.06 161.434 75.2467 162.074 75.54C162.714 75.82 163.267 76.1667 163.734 76.58L162.534 77.84C161.774 77.1867 160.921 76.8067 159.974 76.7V80.84C161.241 81.2533 162.221 81.7933 162.914 82.46C163.607 83.1133 163.954 84 163.954 85.12C163.954 86.1733 163.607 87.08 162.914 87.84C162.221 88.5867 161.241 89.04 159.974 89.2V92.14H158.514V89.26C157.621 89.2067 156.807 89.0067 156.074 88.66C155.354 88.3133 154.734 87.8867 154.214 87.38L155.414 86.02C156.374 86.94 157.407 87.4333 158.514 87.5V82.5C157.221 82.0733 156.261 81.5467 155.634 80.92C155.021 80.2933 154.714 79.5133 154.714 78.58C154.714 77.6467 155.047 76.8467 155.714 76.18C156.394 75.5133 157.327 75.12 158.514 75V72H159.974V74.98ZM158.514 76.72C158.007 76.8133 157.607 77.0067 157.314 77.3C157.034 77.5933 156.894 77.9733 156.894 78.44C156.894 78.8667 157.007 79.2267 157.234 79.52C157.461 79.8 157.887 80.0733 158.514 80.34V76.72ZM159.974 87.44C161.121 87.2 161.694 86.48 161.694 85.28C161.694 84.7733 161.567 84.3467 161.314 84C161.061 83.64 160.614 83.3133 159.974 83.02V87.44Z" fill="white"/>
<path d="M169.666 72.78L178.146 90.34L176.366 91.14L167.906 73.6L169.666 72.78Z" fill="white"/>
<path d="M187.958 74.98C188.718 75.06 189.418 75.2467 190.058 75.54C190.698 75.82 191.252 76.1667 191.718 76.58L190.518 77.84C189.758 77.1867 188.905 76.8067 187.958 76.7V80.84C189.225 81.2533 190.205 81.7933 190.898 82.46C191.592 83.1133 191.938 84 191.938 85.12C191.938 86.1733 191.592 87.08 190.898 87.84C190.205 88.5867 189.225 89.04 187.958 89.2V92.14H186.498V89.26C185.605 89.2067 184.792 89.0067 184.058 88.66C183.338 88.3133 182.718 87.8867 182.198 87.38L183.398 86.02C184.358 86.94 185.392 87.4333 186.498 87.5V82.5C185.205 82.0733 184.245 81.5467 183.618 80.92C183.005 80.2933 182.698 79.5133 182.698 78.58C182.698 77.6467 183.032 76.8467 183.698 76.18C184.378 75.5133 185.312 75.12 186.498 75V72H187.958V74.98ZM186.498 76.72C185.992 76.8133 185.592 77.0067 185.298 77.3C185.018 77.5933 184.878 77.9733 184.878 78.44C184.878 78.8667 184.992 79.2267 185.218 79.52C185.445 79.8 185.872 80.0733 186.498 80.34V76.72ZM187.958 87.44C189.105 87.2 189.678 86.48 189.678 85.28C189.678 84.7733 189.552 84.3467 189.298 84C189.045 83.64 188.598 83.3133 187.958 83.02V87.44Z" fill="white"/>
<path d="M201.951 74.98C202.711 75.06 203.411 75.2467 204.051 75.54C204.691 75.82 205.244 76.1667 205.711 76.58L204.511 77.84C203.751 77.1867 202.897 76.8067 201.951 76.7V80.84C203.217 81.2533 204.197 81.7933 204.891 82.46C205.584 83.1133 205.931 84 205.931 85.12C205.931 86.1733 205.584 87.08 204.891 87.84C204.197 88.5867 203.217 89.04 201.951 89.2V92.14H200.491V89.26C199.597 89.2067 198.784 89.0067 198.051 88.66C197.331 88.3133 196.711 87.8867 196.191 87.38L197.391 86.02C198.351 86.94 199.384 87.4333 200.491 87.5V82.5C199.197 82.0733 198.237 81.5467 197.611 80.92C196.997 80.2933 196.691 79.5133 196.691 78.58C196.691 77.6467 197.024 76.8467 197.691 76.18C198.371 75.5133 199.304 75.12 200.491 75V72H201.951V74.98ZM200.491 76.72C199.984 76.8133 199.584 77.0067 199.291 77.3C199.011 77.5933 198.871 77.9733 198.871 78.44C198.871 78.8667 198.984 79.2267 199.211 79.52C199.437 79.8 199.864 80.0733 200.491 80.34V76.72ZM201.951 87.44C203.097 87.2 203.671 86.48 203.671 85.28C203.671 84.7733 203.544 84.3467 203.291 84C203.037 83.64 202.591 83.3133 201.951 83.02V87.44Z" fill="white"/>
<path d="M211.643 72.78L220.123 90.34L218.343 91.14L209.883 73.6L211.643 72.78Z" fill="white"/>
<path d="M229.935 74.98C230.695 75.06 231.395 75.2467 232.035 75.54C232.675 75.82 233.228 76.1667 233.695 76.58L232.495 77.84C231.735 77.1867 230.882 76.8067 229.935 76.7V80.84C231.202 81.2533 232.182 81.7933 232.875 82.46C233.568 83.1133 233.915 84 233.915 85.12C233.915 86.1733 233.568 87.08 232.875 87.84C232.182 88.5867 231.202 89.04 229.935 89.2V92.14H228.475V89.26C227.582 89.2067 226.768 89.0067 226.035 88.66C225.315 88.3133 224.695 87.8867 224.175 87.38L225.375 86.02C226.335 86.94 227.368 87.4333 228.475 87.5V82.5C227.182 82.0733 226.222 81.5467 225.595 80.92C224.982 80.2933 224.675 79.5133 224.675 78.58C224.675 77.6467 225.008 76.8467 225.675 76.18C226.355 75.5133 227.288 75.12 228.475 75V72H229.935V74.98ZM228.475 76.72C227.968 76.8133 227.568 77.0067 227.275 77.3C226.995 77.5933 226.855 77.9733 226.855 78.44C226.855 78.8667 226.968 79.2267 227.195 79.52C227.422 79.8 227.848 80.0733 228.475 80.34V76.72ZM229.935 87.44C231.082 87.2 231.655 86.48 231.655 85.28C231.655 84.7733 231.528 84.3467 231.275 84C231.022 83.64 230.575 83.3133 229.935 83.02V87.44Z" fill="white"/>
<path d="M243.927 74.98C244.687 75.06 245.387 75.2467 246.027 75.54C246.667 75.82 247.221 76.1667 247.687 76.58L246.487 77.84C245.727 77.1867 244.874 76.8067 243.927 76.7V80.84C245.194 81.2533 246.174 81.7933 246.867 82.46C247.561 83.1133 247.907 84 247.907 85.12C247.907 86.1733 247.561 87.08 246.867 87.84C246.174 88.5867 245.194 89.04 243.927 89.2V92.14H242.467V89.26C241.574 89.2067 240.761 89.0067 240.027 88.66C239.307 88.3133 238.687 87.8867 238.167 87.38L239.367 86.02C240.327 86.94 241.361 87.4333 242.467 87.5V82.5C241.174 82.0733 240.214 81.5467 239.587 80.92C238.974 80.2933 238.667 79.5133 238.667 78.58C238.667 77.6467 239.001 76.8467 239.667 76.18C240.347 75.5133 241.281 75.12 242.467 75V72H243.927V74.98ZM242.467 76.72C241.961 76.8133 241.561 77.0067 241.267 77.3C240.987 77.5933 240.847 77.9733 240.847 78.44C240.847 78.8667 240.961 79.2267 241.187 79.52C241.414 79.8 241.841 80.0733 242.467 80.34V76.72ZM243.927 87.44C245.074 87.2 245.647 86.48 245.647 85.28C245.647 84.7733 245.521 84.3467 245.267 84C245.014 83.64 244.567 83.3133 243.927 83.02V87.44Z" fill="white"/>
<path d="M271.912 74.98C272.672 75.06 273.372 75.2467 274.012 75.54C274.652 75.82 275.205 76.1667 275.672 76.58L274.472 77.84C273.712 77.1867 272.858 76.8067 271.912 76.7V80.84C273.178 81.2533 274.158 81.7933 274.852 82.46C275.545 83.1133 275.892 84 275.892 85.12C275.892 86.1733 275.545 87.08 274.852 87.84C274.158 88.5867 273.178 89.04 271.912 89.2V92.14H270.452V89.26C269.558 89.2067 268.745 89.0067 268.012 88.66C267.292 88.3133 266.672 87.8867 266.152 87.38L267.352 86.02C268.312 86.94 269.345 87.4333 270.452 87.5V82.5C269.158 82.0733 268.198 81.5467 267.572 80.92C266.958 80.2933 266.652 79.5133 266.652 78.58C266.652 77.6467 266.985 76.8467 267.652 76.18C268.332 75.5133 269.265 75.12 270.452 75V72H271.912V74.98ZM270.452 76.72C269.945 76.8133 269.545 77.0067 269.252 77.3C268.972 77.5933 268.832 77.9733 268.832 78.44C268.832 78.8667 268.945 79.2267 269.172 79.52C269.398 79.8 269.825 80.0733 270.452 80.34V76.72ZM271.912 87.44C273.058 87.2 273.632 86.48 273.632 85.28C273.632 84.7733 273.505 84.3467 273.252 84C272.998 83.64 272.552 83.3133 271.912 83.02V87.44Z" fill="white"/>
<path d="M285.904 74.98C286.664 75.06 287.364 75.2467 288.004 75.54C288.644 75.82 289.197 76.1667 289.664 76.58L288.464 77.84C287.704 77.1867 286.85 76.8067 285.904 76.7V80.84C287.17 81.2533 288.15 81.7933 288.844 82.46C289.537 83.1133 289.884 84 289.884 85.12C289.884 86.1733 289.537 87.08 288.844 87.84C288.15 88.5867 287.17 89.04 285.904 89.2V92.14H284.444V89.26C283.55 89.2067 282.737 89.0067 282.004 88.66C281.284 88.3133 280.664 87.8867 280.144 87.38L281.344 86.02C282.304 86.94 283.337 87.4333 284.444 87.5V82.5C283.15 82.0733 282.19 81.5467 281.564 80.92C280.95 80.2933 280.644 79.5133 280.644 78.58C280.644 77.6467 280.977 76.8467 281.644 76.18C282.324 75.5133 283.257 75.12 284.444 75V72H285.904V74.98ZM284.444 76.72C283.937 76.8133 283.537 77.0067 283.244 77.3C282.964 77.5933 282.824 77.9733 282.824 78.44C282.824 78.8667 282.937 79.2267 283.164 79.52C283.39 79.8 283.817 80.0733 284.444 80.34V76.72ZM285.904 87.44C287.05 87.2 287.624 86.48 287.624 85.28C287.624 84.7733 287.497 84.3467 287.244 84C286.99 83.64 286.544 83.3133 285.904 83.02V87.44Z" fill="white"/>
<path d="M313.968 91.08H311.908V72.86H313.968V91.08Z" fill="white"/>
<path d="M6.06 98.98C6.82 99.06 7.52 99.2467 8.16 99.54C8.8 99.82 9.35333 100.167 9.82 100.58L8.62 101.84C7.86 101.187 7.00667 100.807 6.06 100.7V104.84C7.32667 105.253 8.30667 105.793 9 106.46C9.69333 107.113 10.04 108 10.04 109.12C10.04 110.173 9.69333 111.08 9 111.84C8.30667 112.587 7.32667 113.04 6.06 113.2V116.14H4.6V113.26C3.70667 113.207 2.89333 113.007 2.16 112.66C1.44 112.313 0.82 111.887 0.3 111.38L1.5 110.02C2.46 110.94 3.49333 111.433 4.6 111.5V106.5C3.30667 106.073 2.34667 105.547 1.72 104.92C1.10667 104.293 0.8 103.513 0.8 102.58C0.8 101.647 1.13333 100.847 1.8 100.18C2.48 99.5133 3.41333 99.12 4.6 99V96H6.06V98.98ZM4.6 100.72C4.09333 100.813 3.69333 101.007 3.4 101.3C3.12 101.593 2.98 101.973 2.98 102.44C2.98 102.867 3.09333 103.227 3.32 103.52C3.54667 103.8 3.97333 104.073 4.6 104.34V100.72ZM6.06 111.44C7.20667 111.2 7.78 110.48 7.78 109.28C7.78 108.773 7.65333 108.347 7.4 108C7.14667 107.64 6.7 107.313 6.06 107.02V111.44Z" fill="white"/>
<path d="M20.0522 98.98C20.8122 99.06 21.5122 99.2467 22.1522 99.54C22.7922 99.82 23.3455 100.167 23.8122 100.58L22.6122 101.84C21.8522 101.187 20.9989 100.807 20.0522 100.7V104.84C21.3189 105.253 22.2989 105.793 22.9922 106.46C23.6855 107.113 24.0322 108 24.0322 109.12C24.0322 110.173 23.6855 111.08 22.9922 111.84C22.2989 112.587 21.3189 113.04 20.0522 113.2V116.14H18.5922V113.26C17.6989 113.207 16.8855 113.007 16.1522 112.66C15.4322 112.313 14.8122 111.887 14.2922 111.38L15.4922 110.02C16.4522 110.94 17.4855 111.433 18.5922 111.5V106.5C17.2989 106.073 16.3389 105.547 15.7122 104.92C15.0989 104.293 14.7922 103.513 14.7922 102.58C14.7922 101.647 15.1255 100.847 15.7922 100.18C16.4722 99.5133 17.4055 99.12 18.5922 99V96H20.0522V98.98ZM18.5922 100.72C18.0855 100.813 17.6855 101.007 17.3922 101.3C17.1122 101.593 16.9722 101.973 16.9722 102.44C16.9722 102.867 17.0855 103.227 17.3122 103.52C17.5389 103.8 17.9655 104.073 18.5922 104.34V100.72ZM20.0522 111.44C21.1989 111.2 21.7722 110.48 21.7722 109.28C21.7722 108.773 21.6455 108.347 21.3922 108C21.1389 107.64 20.6922 107.313 20.0522 107.02V111.44Z" fill="white"/>
<path d="M48.1166 115.08H46.0566V96.86H48.1166V115.08Z" fill="white"/>
<path d="M57.7287 96.78L66.2088 114.34L64.4287 115.14L55.9688 97.6L57.7287 96.78Z" fill="white"/>
<path d="M70.0809 114.84H80.0809V116.68H70.0809V114.84Z" fill="white"/>
<path d="M90.0131 98.98C90.7731 99.06 91.4731 99.2467 92.1131 99.54C92.7531 99.82 93.3065 100.167 93.7731 100.58L92.5731 101.84C91.8131 101.187 90.9598 100.807 90.0131 100.7V104.84C91.2798 105.253 92.2598 105.793 92.9531 106.46C93.6465 107.113 93.9931 108 93.9931 109.12C93.9931 110.173 93.6465 111.08 92.9531 111.84C92.2598 112.587 91.2798 113.04 90.0131 113.2V116.14H88.5531V113.26C87.6598 113.207 86.8465 113.007 86.1131 112.66C85.3931 112.313 84.7731 111.887 84.2531 111.38L85.4531 110.02C86.4131 110.94 87.4465 111.433 88.5531 111.5V106.5C87.2598 106.073 86.2998 105.547 85.6731 104.92C85.0598 104.293 84.7531 103.513 84.7531 102.58C84.7531 101.647 85.0865 100.847 85.7531 100.18C86.4331 99.5133 87.3665 99.12 88.5531 99V96H90.0131V98.98ZM88.5531 100.72C88.0465 100.813 87.6465 101.007 87.3531 101.3C87.0731 101.593 86.9331 101.973 86.9331 102.44C86.9331 102.867 87.0465 103.227 87.2731 103.52C87.4998 103.8 87.9265 104.073 88.5531 104.34V100.72ZM90.0131 111.44C91.1598 111.2 91.7331 110.48 91.7331 109.28C91.7331 108.773 91.6065 108.347 91.3531 108C91.0998 107.64 90.6531 107.313 90.0131 107.02V111.44Z" fill="white"/>
<path d="M104.005 98.98C104.765 99.06 105.465 99.2467 106.105 99.54C106.745 99.82 107.299 100.167 107.765 100.58L106.565 101.84C105.805 101.187 104.952 100.807 104.005 100.7V104.84C105.272 105.253 106.252 105.793 106.945 106.46C107.639 107.113 107.985 108 107.985 109.12C107.985 110.173 107.639 111.08 106.945 111.84C106.252 112.587 105.272 113.04 104.005 113.2V116.14H102.545V113.26C101.652 113.207 100.839 113.007 100.105 112.66C99.3853 112.313 98.7653 111.887 98.2453 111.38L99.4453 110.02C100.405 110.94 101.439 111.433 102.545 111.5V106.5C101.252 106.073 100.292 105.547 99.6653 104.92C99.052 104.293 98.7453 103.513 98.7453 102.58C98.7453 101.647 99.0786 100.847 99.7453 100.18C100.425 99.5133 101.359 99.12 102.545 99V96H104.005V98.98ZM102.545 100.72C102.039 100.813 101.639 101.007 101.345 101.3C101.065 101.593 100.925 101.973 100.925 102.44C100.925 102.867 101.039 103.227 101.265 103.52C101.492 103.8 101.919 104.073 102.545 104.34V100.72ZM104.005 111.44C105.152 111.2 105.725 110.48 105.725 109.28C105.725 108.773 105.599 108.347 105.345 108C105.092 107.64 104.645 107.313 104.005 107.02V111.44Z" fill="white"/>
<path d="M132.07 115.08H130.01V96.86H132.07V115.08Z" fill="white"/>
<path d="M145.982 98.98C146.742 99.06 147.442 99.2467 148.082 99.54C148.722 99.82 149.275 100.167 149.742 100.58L148.542 101.84C147.782 101.187 146.929 100.807 145.982 100.7V104.84C147.249 105.253 148.229 105.793 148.922 106.46C149.615 107.113 149.962 108 149.962 109.12C149.962 110.173 149.615 111.08 148.922 111.84C148.229 112.587 147.249 113.04 145.982 113.2V116.14H144.522V113.26C143.629 113.207 142.815 113.007 142.082 112.66C141.362 112.313 140.742 111.887 140.222 111.38L141.422 110.02C142.382 110.94 143.415 111.433 144.522 111.5V106.5C143.229 106.073 142.269 105.547 141.642 104.92C141.029 104.293 140.722 103.513 140.722 102.58C140.722 101.647 141.055 100.847 141.722 100.18C142.402 99.5133 143.335 99.12 144.522 99V96H145.982V98.98ZM144.522 100.72C144.015 100.813 143.615 101.007 143.322 101.3C143.042 101.593 142.902 101.973 142.902 102.44C142.902 102.867 143.015 103.227 143.242 103.52C143.469 103.8 143.895 104.073 144.522 104.34V100.72ZM145.982 111.44C147.129 111.2 147.702 110.48 147.702 109.28C147.702 108.773 147.575 108.347 147.322 108C147.069 107.64 146.622 107.313 145.982 107.02V111.44Z" fill="white"/>
<path d="M159.974 98.98C160.734 99.06 161.434 99.2467 162.074 99.54C162.714 99.82 163.267 100.167 163.734 100.58L162.534 101.84C161.774 101.187 160.921 100.807 159.974 100.7V104.84C161.241 105.253 162.221 105.793 162.914 106.46C163.607 107.113 163.954 108 163.954 109.12C163.954 110.173 163.607 111.08 162.914 111.84C162.221 112.587 161.241 113.04 159.974 113.2V116.14H158.514V113.26C157.621 113.207 156.807 113.007 156.074 112.66C155.354 112.313 154.734 111.887 154.214 111.38L155.414 110.02C156.374 110.94 157.407 111.433 158.514 111.5V106.5C157.221 106.073 156.261 105.547 155.634 104.92C155.021 104.293 154.714 103.513 154.714 102.58C154.714 101.647 155.047 100.847 155.714 100.18C156.394 99.5133 157.327 99.12 158.514 99V96H159.974V98.98ZM158.514 100.72C158.007 100.813 157.607 101.007 157.314 101.3C157.034 101.593 156.894 101.973 156.894 102.44C156.894 102.867 157.007 103.227 157.234 103.52C157.461 103.8 157.887 104.073 158.514 104.34V100.72ZM159.974 111.44C161.121 111.2 161.694 110.48 161.694 109.28C161.694 108.773 161.567 108.347 161.314 108C161.061 107.64 160.614 107.313 159.974 107.02V111.44Z" fill="white"/>
<path d="M183.658 96.78L192.138 114.34L190.358 115.14L181.898 97.6L183.658 96.78Z" fill="white"/>
<path d="M201.951 98.98C202.711 99.06 203.411 99.2467 204.051 99.54C204.691 99.82 205.244 100.167 205.711 100.58L204.511 101.84C203.751 101.187 202.897 100.807 201.951 100.7V104.84C203.217 105.253 204.197 105.793 204.891 106.46C205.584 107.113 205.931 108 205.931 109.12C205.931 110.173 205.584 111.08 204.891 111.84C204.197 112.587 203.217 113.04 201.951 113.2V116.14H200.491V113.26C199.597 113.207 198.784 113.007 198.051 112.66C197.331 112.313 196.711 111.887 196.191 111.38L197.391 110.02C198.351 110.94 199.384 111.433 200.491 111.5V106.5C199.197 106.073 198.237 105.547 197.611 104.92C196.997 104.293 196.691 103.513 196.691 102.58C196.691 101.647 197.024 100.847 197.691 100.18C198.371 99.5133 199.304 99.12 200.491 99V96H201.951V98.98ZM200.491 100.72C199.984 100.813 199.584 101.007 199.291 101.3C199.011 101.593 198.871 101.973 198.871 102.44C198.871 102.867 198.984 103.227 199.211 103.52C199.437 103.8 199.864 104.073 200.491 104.34V100.72ZM201.951 111.44C203.097 111.2 203.671 110.48 203.671 109.28C203.671 108.773 203.544 108.347 203.291 108C203.037 107.64 202.591 107.313 201.951 107.02V111.44Z" fill="white"/>
<path d="M215.943 98.98C216.703 99.06 217.403 99.2467 218.043 99.54C218.683 99.82 219.236 100.167 219.703 100.58L218.503 101.84C217.743 101.187 216.889 100.807 215.943 100.7V104.84C217.209 105.253 218.189 105.793 218.883 106.46C219.576 107.113 219.923 108 219.923 109.12C219.923 110.173 219.576 111.08 218.883 111.84C218.189 112.587 217.209 113.04 215.943 113.2V116.14H214.483V113.26C213.589 113.207 212.776 113.007 212.043 112.66C211.323 112.313 210.703 111.887 210.183 111.38L211.383 110.02C212.343 110.94 213.376 111.433 214.483 111.5V106.5C213.189 106.073 212.229 105.547 211.603 104.92C210.989 104.293 210.683 103.513 210.683 102.58C210.683 101.647 211.016 100.847 211.683 100.18C212.363 99.5133 213.296 99.12 214.483 99V96H215.943V98.98ZM214.483 100.72C213.976 100.813 213.576 101.007 213.283 101.3C213.003 101.593 212.863 101.973 212.863 102.44C212.863 102.867 212.976 103.227 213.203 103.52C213.429 103.8 213.856 104.073 214.483 104.34V100.72ZM215.943 111.44C217.089 111.2 217.663 110.48 217.663 109.28C217.663 108.773 217.536 108.347 217.283 108C217.029 107.64 216.583 107.313 215.943 107.02V111.44Z" fill="white"/>
<path d="M229.935 98.98C230.695 99.06 231.395 99.2467 232.035 99.54C232.675 99.82 233.228 100.167 233.695 100.58L232.495 101.84C231.735 101.187 230.882 100.807 229.935 100.7V104.84C231.202 105.253 232.182 105.793 232.875 106.46C233.568 107.113 233.915 108 233.915 109.12C233.915 110.173 233.568 111.08 232.875 111.84C232.182 112.587 231.202 113.04 229.935 113.2V116.14H228.475V113.26C227.582 113.207 226.768 113.007 226.035 112.66C225.315 112.313 224.695 111.887 224.175 111.38L225.375 110.02C226.335 110.94 227.368 111.433 228.475 111.5V106.5C227.182 106.073 226.222 105.547 225.595 104.92C224.982 104.293 224.675 103.513 224.675 102.58C224.675 101.647 225.008 100.847 225.675 100.18C226.355 99.5133 227.288 99.12 228.475 99V96H229.935V98.98ZM228.475 100.72C227.968 100.813 227.568 101.007 227.275 101.3C226.995 101.593 226.855 101.973 226.855 102.44C226.855 102.867 226.968 103.227 227.195 103.52C227.422 103.8 227.848 104.073 228.475 104.34V100.72ZM229.935 111.44C231.082 111.2 231.655 110.48 231.655 109.28C231.655 108.773 231.528 108.347 231.275 108C231.022 107.64 230.575 107.313 229.935 107.02V111.44Z" fill="white"/>
<path d="M271.912 98.98C272.672 99.06 273.372 99.2467 274.012 99.54C274.652 99.82 275.205 100.167 275.672 100.58L274.472 101.84C273.712 101.187 272.858 100.807 271.912 100.7V104.84C273.178 105.253 274.158 105.793 274.852 106.46C275.545 107.113 275.892 108 275.892 109.12C275.892 110.173 275.545 111.08 274.852 111.84C274.158 112.587 273.178 113.04 271.912 113.2V116.14H270.452V113.26C269.558 113.207 268.745 113.007 268.012 112.66C267.292 112.313 266.672 111.887 266.152 111.38L267.352 110.02C268.312 110.94 269.345 111.433 270.452 111.5V106.5C269.158 106.073 268.198 105.547 267.572 104.92C266.958 104.293 266.652 103.513 266.652 102.58C266.652 101.647 266.985 100.847 267.652 100.18C268.332 99.5133 269.265 99.12 270.452 99V96H271.912V98.98ZM270.452 100.72C269.945 100.813 269.545 101.007 269.252 101.3C268.972 101.593 268.832 101.973 268.832 102.44C268.832 102.867 268.945 103.227 269.172 103.52C269.398 103.8 269.825 104.073 270.452 104.34V100.72ZM271.912 111.44C273.058 111.2 273.632 110.48 273.632 109.28C273.632 108.773 273.505 108.347 273.252 108C272.998 107.64 272.552 107.313 271.912 107.02V111.44Z" fill="white"/>
<path d="M285.904 98.98C286.664 99.06 287.364 99.2467 288.004 99.54C288.644 99.82 289.197 100.167 289.664 100.58L288.464 101.84C287.704 101.187 286.85 100.807 285.904 100.7V104.84C287.17 105.253 288.15 105.793 288.844 106.46C289.537 107.113 289.884 108 289.884 109.12C289.884 110.173 289.537 111.08 288.844 111.84C288.15 112.587 287.17 113.04 285.904 113.2V116.14H284.444V113.26C283.55 113.207 282.737 113.007 282.004 112.66C281.284 112.313 280.664 111.887 280.144 111.38L281.344 110.02C282.304 110.94 283.337 111.433 284.444 111.5V106.5C283.15 106.073 282.19 105.547 281.564 104.92C280.95 104.293 280.644 103.513 280.644 102.58C280.644 101.647 280.977 100.847 281.644 100.18C282.324 99.5133 283.257 99.12 284.444 99V96H285.904V98.98ZM284.444 100.72C283.937 100.813 283.537 101.007 283.244 101.3C282.964 101.593 282.824 101.973 282.824 102.44C282.824 102.867 282.937 103.227 283.164 103.52C283.39 103.8 283.817 104.073 284.444 104.34V100.72ZM285.904 111.44C287.05 111.2 287.624 110.48 287.624 109.28C287.624 108.773 287.497 108.347 287.244 108C286.99 107.64 286.544 107.313 285.904 107.02V111.44Z" fill="white"/>
<path d="M313.968 115.08H311.908V96.86H313.968V115.08Z" fill="white"/>
<path d="M6.06 122.98C6.82 123.06 7.52 123.247 8.16 123.54C8.8 123.82 9.35333 124.167 9.82 124.58L8.62 125.84C7.86 125.187 7.00667 124.807 6.06 124.7V128.84C7.32667 129.253 8.30667 129.793 9 130.46C9.69333 131.113 10.04 132 10.04 133.12C10.04 134.173 9.69333 135.08 9 135.84C8.30667 136.587 7.32667 137.04 6.06 137.2V140.14H4.6V137.26C3.70667 137.207 2.89333 137.007 2.16 136.66C1.44 136.313 0.82 135.887 0.3 135.38L1.5 134.02C2.46 134.94 3.49333 135.433 4.6 135.5V130.5C3.30667 130.073 2.34667 129.547 1.72 128.92C1.10667 128.293 0.8 127.513 0.8 126.58C0.8 125.647 1.13333 124.847 1.8 124.18C2.48 123.513 3.41333 123.12 4.6 123V120H6.06V122.98ZM4.6 124.72C4.09333 124.813 3.69333 125.007 3.4 125.3C3.12 125.593 2.98 125.973 2.98 126.44C2.98 126.867 3.09333 127.227 3.32 127.52C3.54667 127.8 3.97333 128.073 4.6 128.34V124.72ZM6.06 135.44C7.20667 135.2 7.78 134.48 7.78 133.28C7.78 132.773 7.65333 132.347 7.4 132C7.14667 131.64 6.7 131.313 6.06 131.02V135.44Z" fill="white"/>
<path d="M20.0522 122.98C20.8122 123.06 21.5122 123.247 22.1522 123.54C22.7922 123.82 23.3455 124.167 23.8122 124.58L22.6122 125.84C21.8522 125.187 20.9989 124.807 20.0522 124.7V128.84C21.3189 129.253 22.2989 129.793 22.9922 130.46C23.6855 131.113 24.0322 132 24.0322 133.12C24.0322 134.173 23.6855 135.08 22.9922 135.84C22.2989 136.587 21.3189 137.04 20.0522 137.2V140.14H18.5922V137.26C17.6989 137.207 16.8855 137.007 16.1522 136.66C15.4322 136.313 14.8122 135.887 14.2922 135.38L15.4922 134.02C16.4522 134.94 17.4855 135.433 18.5922 135.5V130.5C17.2989 130.073 16.3389 129.547 15.7122 128.92C15.0989 128.293 14.7922 127.513 14.7922 126.58C14.7922 125.647 15.1255 124.847 15.7922 124.18C16.4722 123.513 17.4055 123.12 18.5922 123V120H20.0522V122.98ZM18.5922 124.72C18.0855 124.813 17.6855 125.007 17.3922 125.3C17.1122 125.593 16.9722 125.973 16.9722 126.44C16.9722 126.867 17.0855 127.227 17.3122 127.52C17.5389 127.8 17.9655 128.073 18.5922 128.34V124.72ZM20.0522 135.44C21.1989 135.2 21.7722 134.48 21.7722 133.28C21.7722 132.773 21.6455 132.347 21.3922 132C21.1389 131.64 20.6922 131.313 20.0522 131.02V135.44Z" fill="white"/>
<path d="M48.1166 139.08H46.0566V120.86H48.1166V139.08Z" fill="white"/>
<path d="M90.0131 122.98C90.7731 123.06 91.4731 123.247 92.1131 123.54C92.7531 123.82 93.3065 124.167 93.7731 124.58L92.5731 125.84C91.8131 125.187 90.9598 124.807 90.0131 124.7V128.84C91.2798 129.253 92.2598 129.793 92.9531 130.46C93.6465 131.113 93.9931 132 93.9931 133.12C93.9931 134.173 93.6465 135.08 92.9531 135.84C92.2598 136.587 91.2798 137.04 90.0131 137.2V140.14H88.5531V137.26C87.6598 137.207 86.8465 137.007 86.1131 136.66C85.3931 136.313 84.7731 135.887 84.2531 135.38L85.4531 134.02C86.4131 134.94 87.4465 135.433 88.5531 135.5V130.5C87.2598 130.073 86.2998 129.547 85.6731 128.92C85.0598 128.293 84.7531 127.513 84.7531 126.58C84.7531 125.647 85.0865 124.847 85.7531 124.18C86.4331 123.513 87.3665 123.12 88.5531 123V120H90.0131V122.98ZM88.5531 124.72C88.0465 124.813 87.6465 125.007 87.3531 125.3C87.0731 125.593 86.9331 125.973 86.9331 126.44C86.9331 126.867 87.0465 127.227 87.2731 127.52C87.4998 127.8 87.9265 128.073 88.5531 128.34V124.72ZM90.0131 135.44C91.1598 135.2 91.7331 134.48 91.7331 133.28C91.7331 132.773 91.6065 132.347 91.3531 132C91.0998 131.64 90.6531 131.313 90.0131 131.02V135.44Z" fill="white"/>
<path d="M104.005 122.98C104.765 123.06 105.465 123.247 106.105 123.54C106.745 123.82 107.299 124.167 107.765 124.58L106.565 125.84C105.805 125.187 104.952 124.807 104.005 124.7V128.84C105.272 129.253 106.252 129.793 106.945 130.46C107.639 131.113 107.985 132 107.985 133.12C107.985 134.173 107.639 135.08 106.945 135.84C106.252 136.587 105.272 137.04 104.005 137.2V140.14H102.545V137.26C101.652 137.207 100.839 137.007 100.105 136.66C99.3853 136.313 98.7653 135.887 98.2453 135.38L99.4453 134.02C100.405 134.94 101.439 135.433 102.545 135.5V130.5C101.252 130.073 100.292 129.547 99.6653 128.92C99.052 128.293 98.7453 127.513 98.7453 126.58C98.7453 125.647 99.0786 124.847 99.7453 124.18C100.425 123.513 101.359 123.12 102.545 123V120H104.005V122.98ZM102.545 124.72C102.039 124.813 101.639 125.007 101.345 125.3C101.065 125.593 100.925 125.973 100.925 126.44C100.925 126.867 101.039 127.227 101.265 127.52C101.492 127.8 101.919 128.073 102.545 128.34V124.72ZM104.005 135.44C105.152 135.2 105.725 134.48 105.725 133.28C105.725 132.773 105.599 132.347 105.345 132C105.092 131.64 104.645 131.313 104.005 131.02V135.44Z" fill="white"/>
<path d="M132.07 139.08H130.01V120.86H132.07V139.08Z" fill="white"/>
<path d="M145.982 122.98C146.742 123.06 147.442 123.247 148.082 123.54C148.722 123.82 149.275 124.167 149.742 124.58L148.542 125.84C147.782 125.187 146.929 124.807 145.982 124.7V128.84C147.249 129.253 148.229 129.793 148.922 130.46C149.615 131.113 149.962 132 149.962 133.12C149.962 134.173 149.615 135.08 148.922 135.84C148.229 136.587 147.249 137.04 145.982 137.2V140.14H144.522V137.26C143.629 137.207 142.815 137.007 142.082 136.66C141.362 136.313 140.742 135.887 140.222 135.38L141.422 134.02C142.382 134.94 143.415 135.433 144.522 135.5V130.5C143.229 130.073 142.269 129.547 141.642 128.92C141.029 128.293 140.722 127.513 140.722 126.58C140.722 125.647 141.055 124.847 141.722 124.18C142.402 123.513 143.335 123.12 144.522 123V120H145.982V122.98ZM144.522 124.72C144.015 124.813 143.615 125.007 143.322 125.3C143.042 125.593 142.902 125.973 142.902 126.44C142.902 126.867 143.015 127.227 143.242 127.52C143.469 127.8 143.895 128.073 144.522 128.34V124.72ZM145.982 135.44C147.129 135.2 147.702 134.48 147.702 133.28C147.702 132.773 147.575 132.347 147.322 132C147.069 131.64 146.622 131.313 145.982 131.02V135.44Z" fill="white"/>
<path d="M159.974 122.98C160.734 123.06 161.434 123.247 162.074 123.54C162.714 123.82 163.267 124.167 163.734 124.58L162.534 125.84C161.774 125.187 160.921 124.807 159.974 124.7V128.84C161.241 129.253 162.221 129.793 162.914 130.46C163.607 131.113 163.954 132 163.954 133.12C163.954 134.173 163.607 135.08 162.914 135.84C162.221 136.587 161.241 137.04 159.974 137.2V140.14H158.514V137.26C157.621 137.207 156.807 137.007 156.074 136.66C155.354 136.313 154.734 135.887 154.214 135.38L155.414 134.02C156.374 134.94 157.407 135.433 158.514 135.5V130.5C157.221 130.073 156.261 129.547 155.634 128.92C155.021 128.293 154.714 127.513 154.714 126.58C154.714 125.647 155.047 124.847 155.714 124.18C156.394 123.513 157.327 123.12 158.514 123V120H159.974V122.98ZM158.514 124.72C158.007 124.813 157.607 125.007 157.314 125.3C157.034 125.593 156.894 125.973 156.894 126.44C156.894 126.867 157.007 127.227 157.234 127.52C157.461 127.8 157.887 128.073 158.514 128.34V124.72ZM159.974 135.44C161.121 135.2 161.694 134.48 161.694 133.28C161.694 132.773 161.567 132.347 161.314 132C161.061 131.64 160.614 131.313 159.974 131.02V135.44Z" fill="white"/>
<path d="M188.038 139.08H185.978V120.86H188.038V139.08Z" fill="white"/>
<path d="M197.651 120.78L206.131 138.34L204.351 139.14L195.891 121.6L197.651 120.78Z" fill="white"/>
<path d="M215.943 122.98C216.703 123.06 217.403 123.247 218.043 123.54C218.683 123.82 219.236 124.167 219.703 124.58L218.503 125.84C217.743 125.187 216.889 124.807 215.943 124.7V128.84C217.209 129.253 218.189 129.793 218.883 130.46C219.576 131.113 219.923 132 219.923 133.12C219.923 134.173 219.576 135.08 218.883 135.84C218.189 136.587 217.209 137.04 215.943 137.2V140.14H214.483V137.26C213.589 137.207 212.776 137.007 212.043 136.66C211.323 136.313 210.703 135.887 210.183 135.38L211.383 134.02C212.343 134.94 213.376 135.433 214.483 135.5V130.5C213.189 130.073 212.229 129.547 211.603 128.92C210.989 128.293 210.683 127.513 210.683 126.58C210.683 125.647 211.016 124.847 211.683 124.18C212.363 123.513 213.296 123.12 214.483 123V120H215.943V122.98ZM214.483 124.72C213.976 124.813 213.576 125.007 213.283 125.3C213.003 125.593 212.863 125.973 212.863 126.44C212.863 126.867 212.976 127.227 213.203 127.52C213.429 127.8 213.856 128.073 214.483 128.34V124.72ZM215.943 135.44C217.089 135.2 217.663 134.48 217.663 133.28C217.663 132.773 217.536 132.347 217.283 132C217.029 131.64 216.583 131.313 215.943 131.02V135.44Z" fill="white"/>
<path d="M251.859 138.34L260.339 120.78L262.099 121.6L253.639 139.14L251.859 138.34Z" fill="white"/>
<path d="M271.912 122.98C272.672 123.06 273.372 123.247 274.012 123.54C274.652 123.82 275.205 124.167 275.672 124.58L274.472 125.84C273.712 125.187 272.858 124.807 271.912 124.7V128.84C273.178 129.253 274.158 129.793 274.852 130.46C275.545 131.113 275.892 132 275.892 133.12C275.892 134.173 275.545 135.08 274.852 135.84C274.158 136.587 273.178 137.04 271.912 137.2V140.14H270.452V137.26C269.558 137.207 268.745 137.007 268.012 136.66C267.292 136.313 266.672 135.887 266.152 135.38L267.352 134.02C268.312 134.94 269.345 135.433 270.452 135.5V130.5C269.158 130.073 268.198 129.547 267.572 128.92C266.958 128.293 266.652 127.513 266.652 126.58C266.652 125.647 266.985 124.847 267.652 124.18C268.332 123.513 269.265 123.12 270.452 123V120H271.912V122.98ZM270.452 124.72C269.945 124.813 269.545 125.007 269.252 125.3C268.972 125.593 268.832 125.973 268.832 126.44C268.832 126.867 268.945 127.227 269.172 127.52C269.398 127.8 269.825 128.073 270.452 128.34V124.72ZM271.912 135.44C273.058 135.2 273.632 134.48 273.632 133.28C273.632 132.773 273.505 132.347 273.252 132C272.998 131.64 272.552 131.313 271.912 131.02V135.44Z" fill="white"/>
<path d="M285.904 122.98C286.664 123.06 287.364 123.247 288.004 123.54C288.644 123.82 289.197 124.167 289.664 124.58L288.464 125.84C287.704 125.187 286.85 124.807 285.904 124.7V128.84C287.17 129.253 288.15 129.793 288.844 130.46C289.537 131.113 289.884 132 289.884 133.12C289.884 134.173 289.537 135.08 288.844 135.84C288.15 136.587 287.17 137.04 285.904 137.2V140.14H284.444V137.26C283.55 137.207 282.737 137.007 282.004 136.66C281.284 136.313 280.664 135.887 280.144 135.38L281.344 134.02C282.304 134.94 283.337 135.433 284.444 135.5V130.5C283.15 130.073 282.19 129.547 281.564 128.92C280.95 128.293 280.644 127.513 280.644 126.58C280.644 125.647 280.977 124.847 281.644 124.18C282.324 123.513 283.257 123.12 284.444 123V120H285.904V122.98ZM284.444 124.72C283.937 124.813 283.537 125.007 283.244 125.3C282.964 125.593 282.824 125.973 282.824 126.44C282.824 126.867 282.937 127.227 283.164 127.52C283.39 127.8 283.817 128.073 284.444 128.34V124.72ZM285.904 135.44C287.05 135.2 287.624 134.48 287.624 133.28C287.624 132.773 287.497 132.347 287.244 132C286.99 131.64 286.544 131.313 285.904 131.02V135.44Z" fill="white"/>
<path d="M313.968 139.08H311.908V120.86H313.968V139.08Z" fill="white"/>
<path d="M1.76 144.78L10.24 162.34L8.46 163.14L0 145.6L1.76 144.78Z" fill="white"/>
<path d="M20.0522 146.98C20.8122 147.06 21.5122 147.247 22.1522 147.54C22.7922 147.82 23.3455 148.167 23.8122 148.58L22.6122 149.84C21.8522 149.187 20.9989 148.807 20.0522 148.7V152.84C21.3189 153.253 22.2989 153.793 22.9922 154.46C23.6855 155.113 24.0322 156 24.0322 157.12C24.0322 158.173 23.6855 159.08 22.9922 159.84C22.2989 160.587 21.3189 161.04 20.0522 161.2V164.14H18.5922V161.26C17.6989 161.207 16.8855 161.007 16.1522 160.66C15.4322 160.313 14.8122 159.887 14.2922 159.38L15.4922 158.02C16.4522 158.94 17.4855 159.433 18.5922 159.5V154.5C17.2989 154.073 16.3389 153.547 15.7122 152.92C15.0989 152.293 14.7922 151.513 14.7922 150.58C14.7922 149.647 15.1255 148.847 15.7922 148.18C16.4722 147.513 17.4055 147.12 18.5922 147V144H20.0522V146.98ZM18.5922 148.72C18.0855 148.813 17.6855 149.007 17.3922 149.3C17.1122 149.593 16.9722 149.973 16.9722 150.44C16.9722 150.867 17.0855 151.227 17.3122 151.52C17.5389 151.8 17.9655 152.073 18.5922 152.34V148.72ZM20.0522 159.44C21.1989 159.2 21.7722 158.48 21.7722 157.28C21.7722 156.773 21.6455 156.347 21.3922 156C21.1389 155.64 20.6922 155.313 20.0522 155.02V159.44Z" fill="white"/>
<path d="M34.0444 146.98C34.8044 147.06 35.5044 147.247 36.1444 147.54C36.7844 147.82 37.3377 148.167 37.8044 148.58L36.6044 149.84C35.8444 149.187 34.991 148.807 34.0444 148.7V152.84C35.311 153.253 36.291 153.793 36.9844 154.46C37.6777 155.113 38.0244 156 38.0244 157.12C38.0244 158.173 37.6777 159.08 36.9844 159.84C36.291 160.587 35.311 161.04 34.0444 161.2V164.14H32.5844V161.26C31.691 161.207 30.8777 161.007 30.1444 160.66C29.4244 160.313 28.8044 159.887 28.2844 159.38L29.4844 158.02C30.4444 158.94 31.4777 159.433 32.5844 159.5V154.5C31.291 154.073 30.331 153.547 29.7044 152.92C29.091 152.293 28.7844 151.513 28.7844 150.58C28.7844 149.647 29.1177 148.847 29.7844 148.18C30.4644 147.513 31.3977 147.12 32.5844 147V144H34.0444V146.98ZM32.5844 148.72C32.0777 148.813 31.6777 149.007 31.3844 149.3C31.1044 149.593 30.9644 149.973 30.9644 150.44C30.9644 150.867 31.0777 151.227 31.3044 151.52C31.531 151.8 31.9577 152.073 32.5844 152.34V148.72ZM34.0444 159.44C35.191 159.2 35.7644 158.48 35.7644 157.28C35.7644 156.773 35.6377 156.347 35.3844 156C35.131 155.64 34.6844 155.313 34.0444 155.02V159.44Z" fill="white"/>
<path d="M48.0366 146.98C48.7966 147.06 49.4966 147.247 50.1366 147.54C50.7766 147.82 51.3299 148.167 51.7966 148.58L50.5966 149.84C49.8366 149.187 48.9832 148.807 48.0366 148.7V152.84C49.3032 153.253 50.2832 153.793 50.9766 154.46C51.6699 155.113 52.0166 156 52.0166 157.12C52.0166 158.173 51.6699 159.08 50.9766 159.84C50.2832 160.587 49.3032 161.04 48.0366 161.2V164.14H46.5766V161.26C45.6832 161.207 44.8699 161.007 44.1366 160.66C43.4166 160.313 42.7966 159.887 42.2766 159.38L43.4766 158.02C44.4366 158.94 45.4699 159.433 46.5766 159.5V154.5C45.2832 154.073 44.3232 153.547 43.6966 152.92C43.0832 152.293 42.7766 151.513 42.7766 150.58C42.7766 149.647 43.1099 148.847 43.7766 148.18C44.4566 147.513 45.3899 147.12 46.5766 147V144H48.0366V146.98ZM46.5766 148.72C46.0699 148.813 45.6699 149.007 45.3766 149.3C45.0966 149.593 44.9566 149.973 44.9566 150.44C44.9566 150.867 45.0699 151.227 45.2966 151.52C45.5232 151.8 45.9499 152.073 46.5766 152.34V148.72ZM48.0366 159.44C49.1832 159.2 49.7566 158.48 49.7566 157.28C49.7566 156.773 49.6299 156.347 49.3766 156C49.1232 155.64 48.6766 155.313 48.0366 155.02V159.44Z" fill="white"/>
<path d="M62.0287 146.98C62.7887 147.06 63.4888 147.247 64.1288 147.54C64.7688 147.82 65.3221 148.167 65.7887 148.58L64.5888 149.84C63.8288 149.187 62.9754 148.807 62.0287 148.7V152.84C63.2954 153.253 64.2754 153.793 64.9688 154.46C65.6621 155.113 66.0088 156 66.0088 157.12C66.0088 158.173 65.6621 159.08 64.9688 159.84C64.2754 160.587 63.2954 161.04 62.0287 161.2V164.14H60.5687V161.26C59.6754 161.207 58.8621 161.007 58.1287 160.66C57.4087 160.313 56.7887 159.887 56.2687 159.38L57.4688 158.02C58.4288 158.94 59.4621 159.433 60.5687 159.5V154.5C59.2754 154.073 58.3154 153.547 57.6887 152.92C57.0754 152.293 56.7687 151.513 56.7687 150.58C56.7687 149.647 57.1021 148.847 57.7687 148.18C58.4487 147.513 59.3821 147.12 60.5687 147V144H62.0287V146.98ZM60.5687 148.72C60.0621 148.813 59.6621 149.007 59.3687 149.3C59.0887 149.593 58.9487 149.973 58.9487 150.44C58.9487 150.867 59.0621 151.227 59.2887 151.52C59.5154 151.8 59.9421 152.073 60.5687 152.34V148.72ZM62.0287 159.44C63.1754 159.2 63.7488 158.48 63.7488 157.28C63.7488 156.773 63.6221 156.347 63.3687 156C63.1154 155.64 62.6687 155.313 62.0287 155.02V159.44Z" fill="white"/>
<path d="M76.0209 146.98C76.7809 147.06 77.4809 147.247 78.1209 147.54C78.7609 147.82 79.3143 148.167 79.7809 148.58L78.5809 149.84C77.8209 149.187 76.9676 148.807 76.0209 148.7V152.84C77.2876 153.253 78.2676 153.793 78.9609 154.46C79.6543 155.113 80.0009 156 80.0009 157.12C80.0009 158.173 79.6543 159.08 78.9609 159.84C78.2676 160.587 77.2876 161.04 76.0209 161.2V164.14H74.5609V161.26C73.6676 161.207 72.8543 161.007 72.1209 160.66C71.4009 160.313 70.7809 159.887 70.2609 159.38L71.4609 158.02C72.4209 158.94 73.4543 159.433 74.5609 159.5V154.5C73.2676 154.073 72.3076 153.547 71.6809 152.92C71.0676 152.293 70.7609 151.513 70.7609 150.58C70.7609 149.647 71.0943 148.847 71.7609 148.18C72.4409 147.513 73.3743 147.12 74.5609 147V144H76.0209V146.98ZM74.5609 148.72C74.0543 148.813 73.6543 149.007 73.3609 149.3C73.0809 149.593 72.9409 149.973 72.9409 150.44C72.9409 150.867 73.0543 151.227 73.2809 151.52C73.5076 151.8 73.9343 152.073 74.5609 152.34V148.72ZM76.0209 159.44C77.1676 159.2 77.7409 158.48 77.7409 157.28C77.7409 156.773 77.6143 156.347 77.3609 156C77.1076 155.64 76.6609 155.313 76.0209 155.02V159.44Z" fill="white"/>
<path d="M90.0131 146.98C90.7731 147.06 91.4731 147.247 92.1131 147.54C92.7531 147.82 93.3065 148.167 93.7731 148.58L92.5731 149.84C91.8131 149.187 90.9598 148.807 90.0131 148.7V152.84C91.2798 153.253 92.2598 153.793 92.9531 154.46C93.6465 155.113 93.9931 156 93.9931 157.12C93.9931 158.173 93.6465 159.08 92.9531 159.84C92.2598 160.587 91.2798 161.04 90.0131 161.2V164.14H88.5531V161.26C87.6598 161.207 86.8465 161.007 86.1131 160.66C85.3931 160.313 84.7731 159.887 84.2531 159.38L85.4531 158.02C86.4131 158.94 87.4465 159.433 88.5531 159.5V154.5C87.2598 154.073 86.2998 153.547 85.6731 152.92C85.0598 152.293 84.7531 151.513 84.7531 150.58C84.7531 149.647 85.0865 148.847 85.7531 148.18C86.4331 147.513 87.3665 147.12 88.5531 147V144H90.0131V146.98ZM88.5531 148.72C88.0465 148.813 87.6465 149.007 87.3531 149.3C87.0731 149.593 86.9331 149.973 86.9331 150.44C86.9331 150.867 87.0465 151.227 87.2731 151.52C87.4998 151.8 87.9265 152.073 88.5531 152.34V148.72ZM90.0131 159.44C91.1598 159.2 91.7331 158.48 91.7331 157.28C91.7331 156.773 91.6065 156.347 91.3531 156C91.0998 155.64 90.6531 155.313 90.0131 155.02V159.44Z" fill="white"/>
<path d="M132.07 163.08H130.01V144.86H132.07V163.08Z" fill="white"/>
<path d="M145.982 146.98C146.742 147.06 147.442 147.247 148.082 147.54C148.722 147.82 149.275 148.167 149.742 148.58L148.542 149.84C147.782 149.187 146.929 148.807 145.982 148.7V152.84C147.249 153.253 148.229 153.793 148.922 154.46C149.615 155.113 149.962 156 149.962 157.12C149.962 158.173 149.615 159.08 148.922 159.84C148.229 160.587 147.249 161.04 145.982 161.2V164.14H144.522V161.26C143.629 161.207 142.815 161.007 142.082 160.66C141.362 160.313 140.742 159.887 140.222 159.38L141.422 158.02C142.382 158.94 143.415 159.433 144.522 159.5V154.5C143.229 154.073 142.269 153.547 141.642 152.92C141.029 152.293 140.722 151.513 140.722 150.58C140.722 149.647 141.055 148.847 141.722 148.18C142.402 147.513 143.335 147.12 144.522 147V144H145.982V146.98ZM144.522 148.72C144.015 148.813 143.615 149.007 143.322 149.3C143.042 149.593 142.902 149.973 142.902 150.44C142.902 150.867 143.015 151.227 143.242 151.52C143.469 151.8 143.895 152.073 144.522 152.34V148.72ZM145.982 159.44C147.129 159.2 147.702 158.48 147.702 157.28C147.702 156.773 147.575 156.347 147.322 156C147.069 155.64 146.622 155.313 145.982 155.02V159.44Z" fill="white"/>
<path d="M159.974 146.98C160.734 147.06 161.434 147.247 162.074 147.54C162.714 147.82 163.267 148.167 163.734 148.58L162.534 149.84C161.774 149.187 160.921 148.807 159.974 148.7V152.84C161.241 153.253 162.221 153.793 162.914 154.46C163.607 155.113 163.954 156 163.954 157.12C163.954 158.173 163.607 159.08 162.914 159.84C162.221 160.587 161.241 161.04 159.974 161.2V164.14H158.514V161.26C157.621 161.207 156.807 161.007 156.074 160.66C155.354 160.313 154.734 159.887 154.214 159.38L155.414 158.02C156.374 158.94 157.407 159.433 158.514 159.5V154.5C157.221 154.073 156.261 153.547 155.634 152.92C155.021 152.293 154.714 151.513 154.714 150.58C154.714 149.647 155.047 148.847 155.714 148.18C156.394 147.513 157.327 147.12 158.514 147V144H159.974V146.98ZM158.514 148.72C158.007 148.813 157.607 149.007 157.314 149.3C157.034 149.593 156.894 149.973 156.894 150.44C156.894 150.867 157.007 151.227 157.234 151.52C157.461 151.8 157.887 152.073 158.514 152.34V148.72ZM159.974 159.44C161.121 159.2 161.694 158.48 161.694 157.28C161.694 156.773 161.567 156.347 161.314 156C161.061 155.64 160.614 155.313 159.974 155.02V159.44Z" fill="white"/>
<path d="M188.038 163.08H185.978V144.86H188.038V163.08Z" fill="white"/>
<path d="M211.643 144.78L220.123 162.34L218.343 163.14L209.883 145.6L211.643 144.78Z" fill="white"/>
<path d="M223.995 162.84H233.995V164.68H223.995V162.84Z" fill="white"/>
<path d="M237.867 162.34L246.347 144.78L248.107 145.6L239.647 163.14L237.867 162.34Z" fill="white"/>
<path d="M271.912 146.98C272.672 147.06 273.372 147.247 274.012 147.54C274.652 147.82 275.205 148.167 275.672 148.58L274.472 149.84C273.712 149.187 272.858 148.807 271.912 148.7V152.84C273.178 153.253 274.158 153.793 274.852 154.46C275.545 155.113 275.892 156 275.892 157.12C275.892 158.173 275.545 159.08 274.852 159.84C274.158 160.587 273.178 161.04 271.912 161.2V164.14H270.452V161.26C269.558 161.207 268.745 161.007 268.012 160.66C267.292 160.313 266.672 159.887 266.152 159.38L267.352 158.02C268.312 158.94 269.345 159.433 270.452 159.5V154.5C269.158 154.073 268.198 153.547 267.572 152.92C266.958 152.293 266.652 151.513 266.652 150.58C266.652 149.647 266.985 148.847 267.652 148.18C268.332 147.513 269.265 147.12 270.452 147V144H271.912V146.98ZM270.452 148.72C269.945 148.813 269.545 149.007 269.252 149.3C268.972 149.593 268.832 149.973 268.832 150.44C268.832 150.867 268.945 151.227 269.172 151.52C269.398 151.8 269.825 152.073 270.452 152.34V148.72ZM271.912 159.44C273.058 159.2 273.632 158.48 273.632 157.28C273.632 156.773 273.505 156.347 273.252 156C272.998 155.64 272.552 155.313 271.912 155.02V159.44Z" fill="white"/>
<path d="M285.904 146.98C286.664 147.06 287.364 147.247 288.004 147.54C288.644 147.82 289.197 148.167 289.664 148.58L288.464 149.84C287.704 149.187 286.85 148.807 285.904 148.7V152.84C287.17 153.253 288.15 153.793 288.844 154.46C289.537 155.113 289.884 156 289.884 157.12C289.884 158.173 289.537 159.08 288.844 159.84C288.15 160.587 287.17 161.04 285.904 161.2V164.14H284.444V161.26C283.55 161.207 282.737 161.007 282.004 160.66C281.284 160.313 280.664 159.887 280.144 159.38L281.344 158.02C282.304 158.94 283.337 159.433 284.444 159.5V154.5C283.15 154.073 282.19 153.547 281.564 152.92C280.95 152.293 280.644 151.513 280.644 150.58C280.644 149.647 280.977 148.847 281.644 148.18C282.324 147.513 283.257 147.12 284.444 147V144H285.904V146.98ZM284.444 148.72C283.937 148.813 283.537 149.007 283.244 149.3C282.964 149.593 282.824 149.973 282.824 150.44C282.824 150.867 282.937 151.227 283.164 151.52C283.39 151.8 283.817 152.073 284.444 152.34V148.72ZM285.904 159.44C287.05 159.2 287.624 158.48 287.624 157.28C287.624 156.773 287.497 156.347 287.244 156C286.99 155.64 286.544 155.313 285.904 155.02V159.44Z" fill="white"/>
<path d="M313.968 163.08H311.908V144.86H313.968V163.08Z" fill="white"/>
<path d="M15.7522 168.78L24.2322 186.34L22.4522 187.14L13.9922 169.6L15.7522 168.78Z" fill="white"/>
<path d="M28.1044 186.84H38.1044V188.68H28.1044V186.84Z" fill="white"/>
<path d="M42.0966 186.84H52.0966V188.68H42.0966V186.84Z" fill="white"/>
<path d="M56.0887 186.84H66.0888V188.68H56.0887V186.84Z" fill="white"/>
<path d="M70.0809 186.84H80.0809V188.68H70.0809V186.84Z" fill="white"/>
<path d="M84.0731 186.84H94.0731V188.68H84.0731V186.84Z" fill="white"/>
<path d="M98.0653 186.84H108.065V188.68H98.0653V186.84Z" fill="white"/>
<path d="M111.938 186.34L120.418 168.78L122.178 169.6L113.718 187.14L111.938 186.34Z" fill="white"/>
<path d="M141.682 168.78L150.162 186.34L148.382 187.14L139.922 169.6L141.682 168.78Z" fill="white"/>
<path d="M156.026 186.84H178.026V188.68H156.026V186.84Z" fill="white"/>
<path d="M188.038 187.08H185.978V168.86H188.038V187.08Z" fill="white"/>
<path d="M267.612 168.78L276.092 186.34L274.312 187.14L265.852 169.6L267.612 168.78Z" fill="white"/>
<path d="M281.956 186.84H303.956V188.68H281.956V186.84Z" fill="white"/>
<path d="M313.968 187.08H311.908V168.86H313.968V187.08Z" fill="white"/>
</svg>
