<svg width="24" height="24" viewBox="0 0 24 24" fill="none" xmlns="http://www.w3.org/2000/svg">
<path d="M20.4647 12.5C20.4647 13.1914 19.9412 13.75 19.2498 13.75H7.26934L11.3865 17.8672C11.8748 18.3555 11.8748 19.1465 11.3865 19.6348C11.1404 19.8789 10.8201 20 10.4998 20C10.1795 20 9.85996 19.8779 9.61621 19.6338L3.36621 13.3838C2.87793 12.8955 2.87793 12.1045 3.36621 11.6162L9.61621 5.36621C10.1045 4.87793 10.8955 4.87793 11.3838 5.36621C11.8721 5.85449 11.8721 6.64551 11.3838 7.13379L7.26934 11.25H19.2498C19.9412 11.25 20.4647 11.8086 20.4647 12.5Z" fill="black"/>
</svg>
