<svg width="24" height="24" viewBox="0 0 24 24" fill="none" xmlns="http://www.w3.org/2000/svg">
<path d="M11.8 20.4647C11.1363 20.4647 10.6 19.9412 10.6 19.2498L10.6 7.26934L6.6475 11.3865C6.17875 11.8748 5.41938 11.8748 4.95063 11.3865C4.71625 11.1404 4.6 10.8201 4.6 10.4998C4.6 10.1795 4.71719 9.85996 4.95156 9.61621L10.9516 3.36621C11.4203 2.87793 12.1797 2.87793 12.6484 3.36621L18.6484 9.61621C19.1172 10.1045 19.1172 10.8955 18.6484 11.3838C18.1797 11.8721 17.4203 11.8721 16.9516 11.3838L13 7.26934L13 19.2498C13 19.9412 12.4638 20.4647 11.8 20.4647Z" fill="black"/>
</svg>
