<svg width="24" height="24" viewBox="0 0 24 24" fill="none" xmlns="http://www.w3.org/2000/svg">
<g clip-path="url(#clip0_236_214823)">
<path d="M6.34733 19.0461C5.85843 18.5572 5.83357 17.7921 6.32247 17.3032L14.7939 8.83169L8.97136 8.83169C8.28082 8.83169 7.72149 8.27236 7.72149 7.58183C7.72287 7.23518 7.86374 6.92306 8.09023 6.69656C8.31673 6.47007 8.62899 6.33044 8.97398 6.33072L17.8128 6.33072C18.5033 6.33072 19.0627 6.89005 19.0627 7.58058L19.0627 16.4194C19.0627 17.11 18.5033 17.6693 17.8128 17.6693C17.1223 17.6693 16.5629 17.11 16.5629 16.4194L16.5617 10.5995L8.09023 19.0709C7.60134 19.5598 6.83622 19.535 6.34733 19.0461Z" fill="black"/>
</g>
<defs>
<clipPath id="clip0_236_214823">
<rect width="24" height="24" fill="white"/>
</clipPath>
</defs>
</svg>
