<svg width="24" height="24" viewBox="0 0 24 24" fill="none" xmlns="http://www.w3.org/2000/svg">
<path d="M2.99995 12.5C2.99995 11.8086 3.52339 11.25 4.21479 11.25L16.1953 11.25L12.0781 7.13281C11.5898 6.64453 11.5898 5.85352 12.0781 5.36523C12.3242 5.12109 12.6445 5 12.9648 5C13.2851 5 13.6046 5.12207 13.8484 5.36621L20.0984 11.6162C20.5867 12.1045 20.5867 12.8955 20.0984 13.3838L13.8484 19.6338C13.3601 20.1221 12.5691 20.1221 12.0808 19.6338C11.5925 19.1455 11.5925 18.3545 12.0808 17.8662L16.1953 13.75L4.21479 13.75C3.52339 13.75 2.99995 13.1914 2.99995 12.5Z" fill="black"/>
</svg>
