<svg width="24" height="24" viewBox="0 0 24 24" fill="none" xmlns="http://www.w3.org/2000/svg">
<path d="M3.54727 9.6875L4.92188 5.76133C5.44805 4.25703 6.86719 3.25 8.46094 3.25H15.5391C17.1328 3.25 18.5508 4.25703 19.0781 5.76133L20.4531 9.6875C21.3594 10.0625 22 10.957 22 12V19.5C22 20.1914 21.4414 20.75 20.75 20.75H19.5C18.8086 20.75 18.25 20.1914 18.25 19.5V17.625H5.75V19.5C5.75 20.1914 5.19023 20.75 4.5 20.75H3.25C2.55977 20.75 2 20.1914 2 19.5V12C2 10.957 2.63906 10.0625 3.54727 9.6875ZM6.26172 9.5H17.7383L16.7188 6.58594C16.543 6.08594 16.0703 5.75 15.5391 5.75H8.46094C7.92969 5.75 7.45703 6.08594 7.28125 6.58594L6.26172 9.5ZM5.75 12C5.05977 12 4.5 12.5586 4.5 13.25C4.5 13.9414 5.05977 14.5 5.75 14.5C6.44141 14.5 7 13.9414 7 13.25C7 12.5586 6.44141 12 5.75 12ZM18.25 14.5C18.9414 14.5 19.5 13.9414 19.5 13.25C19.5 12.5586 18.9414 12 18.25 12C17.5586 12 17 12.5586 17 13.25C17 13.9414 17.5586 14.5 18.25 14.5Z" fill="black"/>
</svg>
