<svg width="24" height="24" viewBox="0 0 24 24" fill="none" xmlns="http://www.w3.org/2000/svg">
<path d="M2.92836 10.6125L3.75313 8.2568C4.06883 7.35422 4.92031 6.75 5.87656 6.75H10.1234C11.0797 6.75 11.9305 7.35422 12.2469 8.2568L13.0719 10.6125C13.6156 10.8375 14 11.3742 14 12V16.5C14 16.9148 13.6648 17.25 13.25 17.25H12.5C12.0852 17.25 11.75 16.9148 11.75 16.5V15.375H4.25V16.5C4.25 16.9148 3.91414 17.25 3.5 17.25H2.75C2.33586 17.25 2 16.9148 2 16.5V12C2 11.3742 2.38344 10.8375 2.92836 10.6125ZM4.55703 10.5H11.443L10.8312 8.75156C10.7258 8.45156 10.4422 8.25 10.1234 8.25H5.87656C5.55781 8.25 5.27422 8.45156 5.16875 8.75156L4.55703 10.5ZM4.25 12C3.83586 12 3.5 12.3352 3.5 12.75C3.5 13.1648 3.83586 13.5 4.25 13.5C4.66484 13.5 5 13.1648 5 12.75C5 12.3352 4.66484 12 4.25 12ZM11.75 13.5C12.1648 13.5 12.5 13.1648 12.5 12.75C12.5 12.3352 12.1648 12 11.75 12C11.3352 12 11 12.3352 11 12.75C11 13.1648 11.3352 13.5 11.75 13.5Z" fill="black"/>
<g clip-path="url(#clip0_3244_249817)">
<path d="M22.1543 12.293L20.7762 10.1035C20.5469 9.7207 20.1504 9.5 19.7168 9.5H18.5332C18.0992 9.5 17.7025 9.71973 17.473 10.0877L16.0952 12.293C15.9121 12.5855 16.0012 12.9711 16.2936 13.1541C16.5866 13.3372 16.9723 13.2481 17.1547 12.9551L17.7188 12.0531L17.7012 16.375C17.7012 16.7201 17.9811 17 18.3262 17C18.6713 17 18.9336 16.7201 18.9336 16.375V13.5625H19.2461V16.375C19.2461 16.7201 19.526 17 19.8711 17C20.2162 17 20.4961 16.7201 20.4961 16.375V12.0547L21.0602 12.957C21.2129 13.1465 21.418 13.25 21.625 13.25C21.7379 13.25 21.8527 13.2195 21.9559 13.1551C22.2481 12.9727 22.3379 12.5859 22.1543 12.293ZM19.125 8.875C19.6426 8.875 20.0625 8.45508 20.0625 7.9375C20.0625 7.41992 19.6426 7 19.125 7C18.6074 7 18.1875 7.41992 18.1875 7.9375C18.1875 8.45508 18.6074 8.875 19.125 8.875Z" fill="black"/>
</g>
<defs>
<clipPath id="clip0_3244_249817">
<rect width="6.25" height="10" fill="white" transform="translate(16 7)"/>
</clipPath>
</defs>
</svg>
