<svg width="24" height="24" viewBox="0 0 24 24" fill="none" xmlns="http://www.w3.org/2000/svg">
<path d="M9.60156 3H14.3984C15.207 3 15.9219 3.51641 16.1758 4.28203L16.582 5.5H19.5C20.8789 5.5 22 6.62109 22 8V18C22 19.3789 20.8789 20.5 19.5 20.5H4.5C3.11914 20.5 2 19.3789 2 18V8C2 6.62109 3.11914 5.5 4.5 5.5H7.41797L7.82422 4.28203C8.07812 3.51641 8.79297 3 9.60156 3ZM12 16.75C14.0703 16.75 15.75 15.0703 15.75 13C15.75 10.8945 14.0703 9.25 12 9.25C9.89453 9.25 8.25 10.8945 8.25 13C8.25 15.0703 9.89453 16.75 12 16.75Z" fill="black"/>
</svg>
