<svg width="14" height="14" viewBox="0 0 14 14" fill="none" xmlns="http://www.w3.org/2000/svg">
<path d="M7.00004 0.333496C3.31775 0.333496 0.333374 3.31787 0.333374 7.00016C0.333374 10.6825 3.31775 13.6668 7.00004 13.6668C10.6823 13.6668 13.6667 10.6825 13.6667 7.00016C13.6667 3.31787 10.6823 0.333496 7.00004 0.333496ZM10.0157 5.84912L6.68233 9.18245C6.5391 9.32568 6.35421 9.396 6.16671 9.396C5.97921 9.396 5.79327 9.32519 5.65082 9.18277L3.98416 7.5161C3.70004 7.23121 3.70004 6.76897 3.98416 6.48407C4.26905 6.19917 4.73129 6.19917 5.01619 6.48407L6.16671 7.63558L8.98442 4.81787C9.26931 4.53298 9.73155 4.53298 10.0164 4.81787C10.2995 5.10173 10.2995 5.56527 10.0157 5.84912Z" fill="black"/>
</svg>
