<svg width="24" height="24" viewBox="0 0 24 24" fill="none" xmlns="http://www.w3.org/2000/svg">
<path d="M12 2C6.47656 2 2 6.47656 2 12C2 17.5234 6.47656 22 12 22C17.5234 22 22 17.5234 22 12C22 6.47656 17.5234 2 12 2ZM16.5234 10.2734L11.5234 15.2734C11.3086 15.4883 11.0312 15.5938 10.75 15.5938C10.4688 15.5938 10.1898 15.4875 9.97617 15.2739L7.47617 12.7739C7.05 12.3466 7.05 11.6532 7.47617 11.2259C7.90352 10.7985 8.59688 10.7985 9.02422 11.2259L10.75 12.9531L14.9766 8.72656C15.4039 8.29922 16.0973 8.29922 16.5246 8.72656C16.9492 9.15234 16.9492 9.84766 16.5234 10.2734Z" fill="black"/>
</svg>
