<svg width="14" height="14" viewBox="0 0 14 14" fill="none" xmlns="http://www.w3.org/2000/svg">
<path fill-rule="evenodd" clip-rule="evenodd" d="M7.00004 0.333496C10.682 0.333496 13.6667 3.31839 13.6667 7.00016C13.6667 10.6819 10.6818 13.6668 7.00004 13.6668C3.31827 13.6668 0.333374 10.6819 0.333374 7.00016C0.333374 3.31839 3.31827 0.333496 7.00004 0.333496ZM2.19987 7.00016C2.19987 9.65119 4.34902 11.8003 7.00004 11.8003C7.98815 11.8003 8.9064 11.5018 9.66967 10.99L3.01028 4.33067C2.49851 5.09394 2.2 6.01219 2.2 7.00029L2.19987 7.00016ZM7.00004 2.19999C6.01193 2.19999 5.09369 2.49849 4.33042 3.01028L10.9898 9.66966C11.5016 8.90639 11.8001 7.98814 11.8001 7.00004C11.8001 4.34901 9.65094 2.19986 6.99991 2.19986L7.00004 2.19999Z" fill="black"/>
</svg>
