<svg width="24" height="24" viewBox="0 0 24 24" fill="none" xmlns="http://www.w3.org/2000/svg">
<path d="M22 12C22 6.47656 17.5234 2 12 2C6.47656 2 2 6.47656 2 12C2 17.5234 6.47656 21.9648 11.9648 21.9648C17.4531 21.9648 22 17.5234 22 12ZM10.75 7.625C10.75 6.93477 11.3098 6.375 12 6.375C12.6902 6.375 13.25 6.93477 13.25 7.625C13.25 8.31523 12.6902 8.875 12 8.875C11.3086 8.875 10.75 8.31641 10.75 7.625ZM10.75 12C10.75 11.3098 11.3098 10.75 12 10.75C12.6902 10.75 13.25 11.3098 13.25 12C13.25 12.6902 12.6902 13.25 12 13.25C11.3086 13.25 10.75 12.6914 10.75 12ZM10.75 16.375C10.75 15.6848 11.3098 15.125 12 15.125C12.6902 15.125 13.25 15.6848 13.25 16.375C13.25 17.0652 12.6902 17.625 12 17.625C11.3086 17.625 10.75 17.0664 10.75 16.375Z" fill="black"/>
</svg>
