<svg width="24" height="24" viewBox="0 0 24 24" fill="none" xmlns="http://www.w3.org/2000/svg">
<path d="M22 12.0176C22 6.48445 17.5234 2 12 2C6.47656 2 2 6.48445 2 12.0176C2 17.5508 6.47656 22 11.9648 22C17.4531 22 22 17.5508 22 12.0176ZM10.75 7.6349C10.75 6.94346 11.3098 6.3827 12 6.3827C12.6902 6.3827 13.25 6.94346 13.25 7.6349C13.25 8.32635 12.6902 8.88711 12 8.88711C11.3086 8.88711 10.75 8.32753 10.75 7.6349ZM10.75 12.0176C10.75 11.3262 11.3098 10.7654 12 10.7654C12.6902 10.7654 13.25 11.3262 13.25 12.0176C13.25 12.7091 12.6902 13.2698 12 13.2698C11.3086 13.2698 10.75 12.7102 10.75 12.0176ZM10.75 16.4003C10.75 15.7089 11.3098 15.1481 12 15.1481C12.6902 15.1481 13.25 15.7089 13.25 16.4003C13.25 17.0918 12.6902 17.6525 12 17.6525C11.3086 17.6525 10.75 17.0929 10.75 16.4003Z" fill="black"/>
</svg>
