<svg width="24" height="24" viewBox="0 0 24 24" fill="none" xmlns="http://www.w3.org/2000/svg">
<path d="M6.16877 4.28191L6.29533 4.39385L12 10.0988L17.7047 4.39385C18.2297 3.86873 19.081 3.86873 19.6061 4.39385C20.0909 4.87857 20.1282 5.64119 19.7181 6.16877L19.6061 6.29533L13.9012 12L19.6061 17.7047C20.1313 18.2297 20.1313 19.081 19.6061 19.6061C19.1214 20.0909 18.3588 20.1282 17.8312 19.7181L17.7047 19.6061L12 13.9012L6.29534 19.6061C5.77033 20.1313 4.91897 20.1313 4.39385 19.6061C3.90913 19.1214 3.87184 18.3588 4.28191 17.8312L4.39385 17.7047L10.0988 12L4.39385 6.29534C3.86873 5.77033 3.86873 4.91897 4.39385 4.39385C4.87857 3.90913 5.64119 3.87184 6.16877 4.28191Z" fill="#EDEFEE"/>
</svg>
