<svg width="24" height="24" viewBox="0 0 24 24" fill="none" xmlns="http://www.w3.org/2000/svg">
<path d="M12.0003 13.7141C12.1831 13.7141 12.3659 13.7838 12.5052 13.9233L16.7907 18.2088C17.0698 18.4879 17.0698 18.9398 16.7907 19.2188C16.5117 19.4979 16.0598 19.4979 15.7807 19.2188L12.0003 15.4372L8.21925 19.2183C7.94025 19.4973 7.48826 19.4973 7.20925 19.2183C6.93025 18.9393 6.93025 18.4873 7.20925 18.2083L11.4948 13.9228C11.6343 13.7833 11.8173 13.7141 12.0003 13.7141Z" fill="black"/>
<path d="M11.9997 9.71403C11.8169 9.71403 11.6341 9.64428 11.4948 9.50478L7.20925 5.21925C6.93025 4.94025 6.93025 4.48826 7.20925 4.20925C7.48826 3.93025 7.94025 3.93025 8.21925 4.20925L11.9997 7.99089L15.7807 4.20981C16.0598 3.93081 16.5117 3.93081 16.7907 4.20981C17.0698 4.48882 17.0698 4.94081 16.7907 5.21981L12.5052 9.50534C12.3657 9.64484 12.1827 9.71403 11.9997 9.71403Z" fill="black"/>
</svg>
