<svg width="24" height="24" viewBox="0 0 24 24" fill="none" xmlns="http://www.w3.org/2000/svg">
<path d="M13.7549 6.54687C14.7222 6.54687 15.5283 5.76385 15.5283 4.77344C15.5283 3.78318 14.7221 3 13.7549 3C12.7646 3 11.9814 3.80617 11.9814 4.77344C11.9814 5.76385 12.7645 6.54687 13.7549 6.54687Z" fill="black"/>
<path d="M7.39862 5.99414L6.24707 5.83301L7.39862 5.99414Z" fill="#FA5A1F"/>
<path d="M22 17.5097L21.8618 17.4177L19.2824 15.4831L18.292 14.7231C18.292 14.7231 16.2883 13.4102 15.0216 14.5158C14.653 14.8382 14.3076 15.1836 14.0082 15.5292L10.2311 12.489L12.7646 7.60644L10.2079 3.92139H4.8417L4.12778 7.5142L3.09142 6.66209C2.86104 6.47782 2.53863 6.52392 2.35434 6.73117C2.17007 6.96154 2.21618 7.28395 2.42342 7.46824L4.4502 9.12648L3.18345 10.5084L3.2755 15.2989L2.03191 19.9508C1.89374 20.5036 2.21618 21.0793 2.76898 21.2175C2.86104 21.2405 2.95325 21.2636 3.04531 21.2636C3.50589 21.2636 3.92053 20.9642 4.05872 20.5036L5.37157 15.5519L5.57881 11.8209L8.22731 14.9531L5.73995 19.5133C5.46363 20.02 5.64789 20.6419 6.15443 20.9182C6.31572 21.0103 6.47685 21.0334 6.63816 21.0334C7.0067 21.0334 7.37524 20.8261 7.55932 20.4806L10.7145 14.6768L9.44779 13.1798L13.3173 16.3352C12.442 17.5098 11.7742 18.8226 11.4286 19.6286C11.1753 20.2273 11.0601 20.6188 11.0371 20.734V20.757L18.5913 20.78L22 17.5097ZM7.39829 5.99416L5.71706 7.72149L6.10857 5.80991L6.26987 5.83288L7.39829 5.99416ZM8.75725 11.2913L7.67479 10.4161L9.67845 9.54087L8.75725 11.2913Z" fill="black"/>
</svg>
