<svg width="24" height="24" viewBox="0 0 24 24" fill="none" xmlns="http://www.w3.org/2000/svg">
<path fill-rule="evenodd" clip-rule="evenodd" d="M19.8426 3.49551C20.1672 3.64699 20.4452 3.88287 20.6474 4.17851C23.1615 7.85296 24.4448 12.0802 23.8602 17.0497C23.7947 17.606 23.4989 18.1094 23.0448 18.4373C21.3264 19.6784 19.4626 20.6685 17.3667 21.2673C16.6055 21.4848 15.7876 21.2328 15.2808 20.6246C14.9935 20.2799 14.7233 19.9176 14.479 19.5233C12.7811 19.8368 11.0473 19.8292 9.33903 19.5033C9.12783 19.8373 8.92234 20.1455 8.72911 20.4354L8.71691 20.4537C8.23446 21.1773 7.33964 21.5063 6.50336 21.2673C4.40612 20.6681 2.50432 19.6664 0.811982 18.2727C0.400535 17.9338 0.141363 17.4448 0.0919938 16.914C-0.296317 12.7397 0.497172 8.52797 3.3835 4.19848C3.58674 3.89362 3.86982 3.65045 4.20183 3.49551C5.65209 2.81872 7.12677 2.32543 8.79762 2.03057C9.53996 1.89957 10.2929 2.19709 10.7452 2.80014C10.781 2.84789 10.8162 2.89623 10.8506 2.94516C11.6336 2.90559 12.4168 2.90569 13.1999 2.94546C13.6313 2.2495 14.4508 1.8812 15.2678 2.03439C16.818 2.32505 18.3742 2.81027 19.8426 3.49551ZM14.3761 5.04633C12.8069 4.87196 11.2376 4.87196 9.66828 5.04633C9.5811 4.6976 9.40674 4.34887 9.14519 4.00014C7.66308 4.26169 6.35534 4.6976 5.04761 5.30788C2.43213 9.23109 1.73467 12.9799 2.0834 16.7288C3.38857 17.8036 4.82895 18.6081 6.40456 19.142C6.61816 19.2144 6.83424 19.2818 7.05281 19.3443C7.1378 19.2168 7.22281 19.0893 7.3078 18.9605C7.44485 18.7529 7.58189 18.542 7.71893 18.3226C7.74827 18.2756 7.77761 18.2282 7.80695 18.1804C7.9043 18.0217 8.00165 17.8582 8.099 17.6878C7.92709 17.6305 7.75518 17.5638 7.58327 17.4877C7.45948 17.4328 7.33569 17.3731 7.2119 17.3085C7.20197 17.3034 7.19205 17.2981 7.18213 17.2929C7.02454 17.2097 6.86696 17.1186 6.70938 17.0195C6.64949 16.9819 6.5896 16.9431 6.52971 16.9032C6.55328 16.8796 6.57685 16.856 6.60214 16.8325C6.6704 16.7688 6.75121 16.7052 6.87844 16.6416C7.33802 16.8472 7.80263 17.0243 8.27065 17.1729C8.87503 17.3647 9.48509 17.509 10.0973 17.6057C11.3229 17.7993 12.5572 17.8023 13.772 17.6147C14.3636 17.5233 14.9506 17.3868 15.5297 17.205C16.0234 17.0501 16.5114 16.8623 16.9916 16.6416C17.0788 16.7288 17.166 16.816 17.3404 16.9032L15.7711 17.6878C15.7885 17.7285 15.8063 17.7688 15.8245 17.8087C15.901 17.9765 15.9844 18.1378 16.0745 18.2947C16.1317 18.3942 16.1915 18.4918 16.2542 18.5881C16.3406 18.7211 16.4324 18.8516 16.5293 18.9809C16.6207 19.1028 16.7166 19.2235 16.8173 19.3443C16.9104 19.3177 17.0031 19.2902 17.0953 19.2618C18.8164 18.7318 20.3844 17.8917 21.8738 16.816C22.3969 12.3697 21.2636 8.62082 18.9968 5.30788C17.6891 4.6976 16.2942 4.26169 14.8992 4.00014L14.3761 5.04633ZM8.80704 12.3579C8.80706 12.3579 8.80683 12.3583 8.80629 12.3592L8.80704 12.3579ZM15.5201 12.3579C15.5201 12.3579 15.5199 12.3583 15.5193 12.3592L15.5201 12.3579ZM6.79126 12.4569C6.79126 13.5902 7.66308 14.4621 8.62209 14.4621C9.66828 14.4621 10.4529 13.503 10.4529 12.4569C10.4529 11.4107 9.66828 10.4517 8.62209 10.4517C7.5759 10.4517 6.79126 11.3235 6.79126 12.4569ZM13.5043 12.4569C13.5043 13.5902 14.3761 14.4621 15.3352 14.4621C16.3813 14.4621 17.166 13.503 17.166 12.4569C17.166 11.4107 16.3813 10.4517 15.3352 10.4517C14.289 10.4517 13.5043 11.3235 13.5043 12.4569Z" fill="black"/>
<path d="M18.9969 5.30774C17.6892 4.69746 16.2943 4.26155 14.8994 4C14.725 4.34873 14.5506 4.69746 14.3763 5.04619C12.807 4.87183 11.2377 4.87183 9.6684 5.04619C9.58122 4.69746 9.40686 4.34873 9.14531 4C7.6632 4.26155 6.35546 4.69746 5.04773 5.30774C2.43225 9.23096 1.73479 12.9798 2.08352 16.7287C3.56562 17.9492 5.22209 18.821 7.05293 19.3441C7.40166 18.821 7.75039 18.2979 8.09912 17.6877C7.57602 17.5133 7.05293 17.2518 6.52983 16.903C6.61701 16.8158 6.7042 16.7287 6.87856 16.6415C10.1915 18.1236 13.766 18.1236 16.9917 16.6415C17.0789 16.7287 17.1661 16.8158 17.3405 16.903C16.8174 17.1646 16.2943 17.4261 15.7712 17.6877C16.0327 18.2979 16.3815 18.821 16.8174 19.3441C18.6482 18.821 20.3047 17.9492 21.874 16.8158C22.3971 12.3695 21.2637 8.62068 18.9969 5.30774ZM8.62221 14.4619C7.6632 14.4619 6.79138 13.5901 6.79138 12.4567C6.79138 11.3233 7.57602 10.4515 8.62221 10.4515C9.6684 10.4515 10.453 11.4105 10.453 12.4567C10.453 13.5029 9.6684 14.4619 8.62221 14.4619ZM15.3353 14.4619C14.3763 14.4619 13.5044 13.5901 13.5044 12.4567C13.5044 11.3233 14.2891 10.4515 15.3353 10.4515C16.3815 10.4515 17.1661 11.4105 17.1661 12.4567C17.1661 13.5029 16.3815 14.4619 15.3353 14.4619Z" fill="#EDEFEE"/>
</svg>
