<svg width="24" height="24" viewBox="0 0 24 24" fill="none" xmlns="http://www.w3.org/2000/svg">
<path d="M20.0123 4.48659C20.0059 4.47415 19.9953 4.4644 19.9823 4.45909C18.4852 3.77206 16.9054 3.28201 15.2823 3.0012C15.2676 2.99846 15.2523 3.00044 15.2388 3.00686C15.2252 3.01327 15.214 3.02381 15.2068 3.03695C14.9916 3.42757 14.7962 3.82879 14.6214 4.23909C12.8714 3.97347 11.0914 3.97347 9.34143 4.23909C9.16543 3.82774 8.96687 3.42642 8.74664 3.03695C8.73909 3.02409 8.72784 3.0138 8.71436 3.00743C8.70088 3.00105 8.68579 2.99888 8.67106 3.0012C7.04679 3.28115 5.46585 3.77123 3.96804 4.45909C3.95523 4.46453 3.94441 4.47381 3.93709 4.48565C0.941866 8.95967 0.121581 13.3204 0.523866 17.63C0.524999 17.6406 0.528243 17.6508 0.533405 17.6601C0.538568 17.6694 0.545545 17.6775 0.55392 17.684C2.29766 18.9742 4.24783 19.9589 6.32126 20.5961C6.33586 20.6005 6.35146 20.6003 6.36595 20.5955C6.38044 20.5908 6.39313 20.5817 6.40231 20.5695C6.8477 19.9637 7.24238 19.3222 7.58233 18.6514C7.587 18.6422 7.58967 18.6321 7.59015 18.6218C7.59064 18.6115 7.58894 18.6012 7.58516 18.5916C7.58137 18.582 7.5756 18.5733 7.56821 18.5661C7.56082 18.5589 7.55199 18.5533 7.5423 18.5498C6.9199 18.3117 6.31733 18.0247 5.74026 17.6914C5.72978 17.6852 5.72098 17.6766 5.71463 17.6662C5.70828 17.6558 5.70459 17.6441 5.70387 17.6319C5.70315 17.6198 5.70543 17.6077 5.71051 17.5966C5.71559 17.5856 5.72331 17.5759 5.73299 17.5686C5.85407 17.4779 5.97523 17.3835 6.09085 17.2882C6.10112 17.2797 6.11355 17.2743 6.12674 17.2725C6.13992 17.2708 6.15335 17.2727 6.16549 17.2781C9.94596 19.0036 14.0383 19.0036 17.7744 17.2781C17.7866 17.2724 17.8002 17.2701 17.8135 17.2718C17.8269 17.2734 17.8396 17.2788 17.85 17.2873C17.9657 17.3826 18.0868 17.4779 18.2088 17.5686C18.2185 17.5759 18.2263 17.5854 18.2314 17.5964C18.2366 17.6074 18.239 17.6195 18.2383 17.6317C18.2377 17.6438 18.2341 17.6556 18.2278 17.666C18.2216 17.6764 18.2128 17.6852 18.2024 17.6914C17.6267 18.0275 17.0236 18.3144 16.3996 18.549C16.3899 18.5527 16.3811 18.5584 16.3737 18.5657C16.3664 18.573 16.3607 18.5818 16.357 18.5915C16.3533 18.6012 16.3517 18.6115 16.3522 18.6219C16.3528 18.6322 16.3555 18.6424 16.3603 18.6516C16.7059 19.3187 17.0999 19.9596 17.5393 20.5691C17.5482 20.5816 17.5608 20.591 17.5753 20.5959C17.5899 20.6009 17.6056 20.6011 17.6203 20.5966C19.6983 19.9607 21.6526 18.9747 23.3988 17.6811C23.4073 17.6749 23.4143 17.6669 23.4195 17.6578C23.4247 17.6486 23.4279 17.6385 23.4288 17.628C23.9095 12.6486 22.6209 8.32324 20.0123 4.48659ZM8.14804 15.0057C7.00994 15.0057 6.07219 13.9611 6.07219 12.6784C6.07219 11.3958 6.99304 10.3504 8.14804 10.3504C9.31365 10.3504 10.2424 11.404 10.2239 12.6777C10.2223 13.9254 9.30304 15.0057 8.14804 15.0057ZM15.8245 15.0057C14.6864 15.0057 13.7486 13.9611 13.7486 12.6784C13.7486 11.3958 14.6655 10.3504 15.8245 10.3504C16.9901 10.3504 17.9188 11.404 17.9003 12.6777C17.8988 13.9254 16.9873 15.0057 15.8245 15.0057Z" fill="black"/>
</svg>
