<svg width="24" height="24" viewBox="0 0 24 24" fill="none" xmlns="http://www.w3.org/2000/svg">
<path fill-rule="evenodd" clip-rule="evenodd" d="M19.8426 3.49539C20.1672 3.64687 20.4452 3.88275 20.6474 4.17839C23.1615 7.85284 24.4448 12.0801 23.8602 17.0495C23.7947 17.6059 23.4989 18.1093 23.0448 18.4372C21.3264 19.6783 19.4626 20.6684 17.3667 21.2672C16.6055 21.4847 15.7876 21.2327 15.2808 20.6245C14.9935 20.2798 14.7233 19.9175 14.479 19.5231C12.7811 19.8367 11.0473 19.8291 9.33903 19.5032C9.12783 19.8372 8.92234 20.1454 8.72911 20.4352L8.71691 20.4536C8.23446 21.1772 7.33964 21.5061 6.50336 21.2672C4.40612 20.668 2.50432 19.6662 0.811982 18.2725C0.400535 17.9337 0.141363 17.4446 0.0919938 16.9139C-0.296317 12.7396 0.497172 8.52785 3.3835 4.19835C3.58674 3.8935 3.86982 3.65033 4.20183 3.49539C5.65209 2.8186 7.12677 2.3253 8.79762 2.03045C9.53996 1.89945 10.2929 2.19697 10.7452 2.80002C10.781 2.84776 10.8162 2.8961 10.8506 2.94504C11.6336 2.90546 12.4168 2.90556 13.1999 2.94534C13.6313 2.24938 14.4508 1.88108 15.2678 2.03427C16.818 2.32493 18.3742 2.81015 19.8426 3.49539ZM14.3761 5.04621C12.8069 4.87184 11.2376 4.87184 9.66828 5.04621C9.5811 4.69748 9.40674 4.34875 9.14519 4.00002C7.66308 4.26156 6.35534 4.69748 5.04761 5.30775C2.43213 9.23097 1.73467 12.9798 2.0834 16.7287C3.38857 17.8035 4.82895 18.6079 6.40456 19.1419C6.61816 19.2143 6.83424 19.2817 7.05281 19.3442C7.1378 19.2167 7.22281 19.0892 7.3078 18.9604C7.44485 18.7528 7.58189 18.5419 7.71893 18.3225C7.74827 18.2755 7.77761 18.2281 7.80695 18.1803C7.9043 18.0216 8.00165 17.858 8.099 17.6877C7.92709 17.6304 7.75518 17.5637 7.58327 17.4875C7.45948 17.4327 7.33569 17.373 7.2119 17.3084C7.20197 17.3032 7.19205 17.298 7.18213 17.2928C7.02454 17.2096 6.86696 17.1184 6.70938 17.0194C6.64949 16.9818 6.5896 16.943 6.52971 16.903C6.55328 16.8795 6.57685 16.8559 6.60214 16.8323C6.6704 16.7687 6.75121 16.7051 6.87844 16.6415C7.33802 16.8471 7.80263 17.0242 8.27065 17.1727C8.87503 17.3646 9.48509 17.5089 10.0973 17.6056C11.3229 17.7992 12.5572 17.8022 13.772 17.6146C14.3636 17.5232 14.9506 17.3867 15.5297 17.2049C16.0234 17.05 16.5114 16.8622 16.9916 16.6415C17.0788 16.7287 17.166 16.8159 17.3404 16.903L15.7711 17.6877C15.7885 17.7284 15.8063 17.7687 15.8245 17.8086C15.901 17.9763 15.9844 18.1377 16.0745 18.2946C16.1317 18.394 16.1915 18.4917 16.2542 18.588C16.3406 18.721 16.4324 18.8515 16.5293 18.9808C16.6207 19.1026 16.7166 19.2234 16.8173 19.3442C16.9104 19.3175 17.0031 19.29 17.0953 19.2616C18.8164 18.7317 20.3844 17.8916 21.8738 16.8159C22.3969 12.3695 21.2636 8.62069 18.9968 5.30775C17.6891 4.69748 16.2942 4.26156 14.8992 4.00002L14.3761 5.04621ZM8.80704 12.3577C8.80706 12.3578 8.80683 12.3582 8.80629 12.3591ZM15.5201 12.3577C15.5201 12.3578 15.5199 12.3582 15.5193 12.3591ZM6.79126 12.4567C6.79126 13.5901 7.66308 14.4619 8.62209 14.4619C9.66828 14.4619 10.4529 13.5029 10.4529 12.4567C10.4529 11.4105 9.66828 10.4515 8.62209 10.4515C7.5759 10.4515 6.79126 11.3234 6.79126 12.4567ZM13.5043 12.4567C13.5043 13.5901 14.3761 14.4619 15.3352 14.4619C16.3813 14.4619 17.166 13.5029 17.166 12.4567C17.166 11.4105 16.3813 10.4515 15.3352 10.4515C14.289 10.4515 13.5043 11.3234 13.5043 12.4567Z" fill="black"/>
<path d="M18.9969 5.30774C17.6892 4.69746 16.2943 4.26155 14.8994 4C14.725 4.34873 14.5506 4.69746 14.3763 5.04619C12.807 4.87183 11.2377 4.87183 9.6684 5.04619C9.58122 4.69746 9.40686 4.34873 9.14531 4C7.6632 4.26155 6.35546 4.69746 5.04773 5.30774C2.43225 9.23096 1.73479 12.9798 2.08352 16.7287C3.56562 17.9492 5.22209 18.821 7.05293 19.3441C7.40166 18.821 7.75039 18.2979 8.09912 17.6877C7.57602 17.5133 7.05293 17.2518 6.52983 16.903C6.61701 16.8158 6.70419 16.7287 6.87856 16.6415C10.1915 18.1236 13.766 18.1236 16.9917 16.6415C17.0789 16.7287 17.1661 16.8158 17.3405 16.903C16.8174 17.1646 16.2943 17.4261 15.7712 17.6877C16.0327 18.2979 16.3815 18.821 16.8174 19.3441C18.6482 18.821 20.3047 17.9492 21.874 16.8158C22.3971 12.3695 21.2637 8.62068 18.9969 5.30774ZM8.62221 14.4619C7.6632 14.4619 6.79138 13.5901 6.79138 12.4567C6.79138 11.3233 7.57602 10.4515 8.62221 10.4515C9.6684 10.4515 10.453 11.4105 10.453 12.4567C10.453 13.5029 9.6684 14.4619 8.62221 14.4619ZM15.3353 14.4619C14.3763 14.4619 13.5044 13.5901 13.5044 12.4567C13.5044 11.3233 14.2891 10.4515 15.3353 10.4515C16.3815 10.4515 17.1661 11.4105 17.1661 12.4567C17.1661 13.5029 16.3815 14.4619 15.3353 14.4619Z" fill="#EDEFEE"/>
</svg>
