<svg width="24" height="24" viewBox="0 0 24 24" fill="none" xmlns="http://www.w3.org/2000/svg">
<ellipse cx="12.0417" cy="12" rx="8.79167" ry="9.75" fill="white"/>
<path d="M13.4444 11.4185C13.712 11.8921 14.1005 11.9307 14.3596 11.5375C14.6994 11.0225 14.9875 10.4304 15.11 9.8315C15.1883 9.44796 15.1604 8.89906 14.7134 8.61729C14.4042 8.42124 13.9661 8.4423 13.8017 8.71372C13.5326 9.15726 13.1113 9.58009 13.2299 10.2379C13.3439 10.5854 13.2224 11.0261 13.4444 11.4185ZM10.5561 11.2303C10.8331 11.21 11.0407 11.1196 11.1711 10.8018C11.3895 10.2711 11.6668 9.77008 11.5371 9.14655C11.5668 8.77728 11.5982 8.39481 11.382 8.02804C11.0571 7.47665 10.6505 7.52343 10.2849 7.91127C9.62947 8.60622 9.52154 9.91436 9.9486 10.8011C10.084 11.0832 10.2502 11.2528 10.5561 11.2303ZM22.6462 9.76972C22.544 8.9662 22.2727 8.20232 22.113 7.41272C21.8221 5.97853 20.6632 4.93145 19.7494 3.81938C19.3856 3.3769 18.9432 2.86943 18.4511 2.62266C17.0066 1.89878 15.4352 1.40131 13.8432 1.21525C12.3465 1.04026 10.8231 1.3581 9.37431 1.82236C8.95333 1.95699 8.49412 1.88664 8.09565 2.20198C7.03213 3.04478 5.82459 3.69081 4.85219 4.66504C4.50178 5.01898 4.17662 5.39703 3.87909 5.7964C3.27371 6.59885 2.98924 7.632 2.30667 8.35052C2.20768 8.45445 2.15551 8.59372 2.11656 8.73157C1.96682 9.26725 1.93787 9.80294 1.72881 10.3236C1.51118 10.87 1.2696 11.3803 1.34893 11.9882C1.41433 12.4881 1.51332 12.9617 1.49867 13.4666C1.72703 14.7305 1.80851 16.0161 2.24449 17.2385C2.43318 17.7678 2.81628 18.1571 3.12075 18.5828C4.11781 19.9784 5.08627 21.4547 6.9553 21.8497C7.21975 21.9054 7.49134 21.98 7.72899 22.105C9.24208 22.9021 10.8917 22.8489 12.4998 22.7357C14.5265 22.5929 16.3412 21.7679 17.8693 20.4076C18.2123 20.1023 18.6991 20.0402 18.9696 19.6405C19.6175 18.6842 20.5016 17.8939 20.9658 16.8079C21.4251 15.7329 21.8403 14.643 22.3299 13.5831C22.5057 13.2027 22.549 12.8078 22.5572 12.4063C22.5618 12.176 22.5547 11.9421 22.554 11.71C22.5515 11.0639 22.7259 10.4104 22.6448 9.76651L22.6462 9.76972ZM19.9734 12.2789C19.5725 14.6587 18.6301 16.9036 16.4527 18.3656C15.3091 19.1334 14.232 19.9241 12.7418 19.9541C12.16 19.9659 11.5846 20.4276 10.9056 20.2884C9.49331 20.0544 8.24432 19.5484 6.96209 18.7674C5.36001 17.7914 5.09485 16.1579 4.20786 14.8416C4.13067 14.7273 4.07993 14.5201 4.13139 14.4062C4.58417 13.4224 4.02418 12.4396 4.13961 11.4282C4.24682 10.51 4.64885 9.77044 4.98442 9.00513C5.45114 7.94162 6.2352 7.04596 7.09288 6.23994C8.19714 5.20143 9.36109 4.21221 10.9431 4.10757C11.5693 4.0665 12.0535 3.66474 12.6849 3.70117C15.07 3.83902 16.9959 4.66254 18.5222 6.66349C19.8494 8.40088 20.3026 10.3133 19.972 12.2756L19.9734 12.2789Z" fill="#F00A19"/>
<path d="M8.31597 16.7254C8.42388 16.8287 8.66801 16.637 8.77087 16.4607C8.86867 16.2937 8.8525 16.1023 8.70895 15.9943C8.4676 15.8132 8.61544 15.6603 8.66801 15.4654C8.946 14.4248 9.73349 13.9654 10.6857 13.7528C11.3524 13.6035 12.0492 13.806 12.5713 14.1631C13.1374 14.5507 13.4811 15.2078 13.7907 15.8477C14.0141 16.3088 14.1976 16.6982 13.6125 17.0248C13.4194 17.1326 13.3034 17.3271 13.4028 17.5698C13.5051 17.8199 13.7356 17.833 13.9433 17.7952C14.2089 17.7429 14.4844 17.7858 14.7212 17.9164C14.891 18.0055 15.0872 18.0625 15.2504 17.8786C15.4137 17.6948 15.2939 17.5187 15.2479 17.3371C15.1794 17.0682 14.8895 16.9165 14.889 16.605C14.8878 15.7256 14.5585 15.0091 14.0103 14.29C13.3474 13.4201 12.5508 12.9885 11.5164 12.7701C11.1022 12.6827 10.7787 12.9152 10.2907 12.8034C9.51412 12.7762 8.95384 13.3987 8.40215 13.9148C7.85045 14.4308 7.8497 15.3674 7.10922 15.8016C6.87318 15.9401 6.88177 16.2094 6.98867 16.4358C7.29194 17.0747 7.91439 16.3421 8.31597 16.7254Z" fill="#F00A19"/>
</svg>
