<svg width="24" height="24" viewBox="0 0 24 24" fill="none" xmlns="http://www.w3.org/2000/svg">
<ellipse cx="12.0417" cy="12" rx="8.79167" ry="9.75" fill="white"/>
<path d="M13.4442 11.4186C13.7119 11.8922 14.1004 11.9307 14.3594 11.5375C14.6993 11.0226 14.9873 10.4305 15.1099 9.83157C15.1882 9.44802 15.1603 8.89912 14.7132 8.61736C14.4041 8.4213 13.966 8.44237 13.8016 8.71378C13.5325 9.15732 13.1112 9.58015 13.2298 10.238C13.3438 10.5854 13.2223 11.0261 13.4442 11.4186ZM10.556 11.2304C10.833 11.2101 11.0406 11.1197 11.171 10.8019C11.3894 10.2712 11.6667 9.77014 11.537 9.14661C11.5666 8.77735 11.5981 8.39487 11.3819 8.02811C11.057 7.47671 10.6503 7.52349 10.2848 7.91133C9.62934 8.60629 9.52142 9.91442 9.94847 10.8012C10.0839 11.0833 10.2501 11.2529 10.556 11.2304V11.2304ZM16.142 11.6982C15.9894 11.5518 15.6442 11.8236 15.4987 12.0736C15.3604 12.3103 15.3833 12.5818 15.5863 12.735C15.9276 12.9917 15.7185 13.2085 15.6442 13.4849C15.2511 14.9605 14.1375 15.6119 12.791 15.9133C11.8482 16.1251 10.863 15.838 10.1247 15.3316C9.32415 14.782 8.83813 13.8502 8.40036 12.9428C8.08445 12.2889 7.825 11.7368 8.6523 11.2736C8.92533 11.1208 9.08936 10.8451 8.94892 10.5008C8.80418 10.1462 8.47827 10.1276 8.18451 10.1812C7.80906 10.2554 7.41942 10.1946 7.08454 10.0094C6.84439 9.88299 6.56707 9.80228 6.33621 10.063C6.10535 10.3237 6.27475 10.5733 6.33979 10.8308C6.43663 11.2122 6.84653 11.4272 6.84725 11.8689C6.84903 13.116 7.31468 14.132 8.08981 15.1516C9.02718 16.3851 10.1536 16.9972 11.6163 17.3068C12.202 17.4307 12.6595 17.1011 13.3495 17.2597C14.4477 17.2983 15.24 16.4154 16.0201 15.6837C16.8003 14.952 16.8013 13.6238 17.8484 13.0082C18.1822 12.8117 18.17 12.43 18.0189 12.1089C17.59 11.2029 16.7098 12.2418 16.142 11.6982ZM22.646 9.76979C22.5438 8.96626 22.2726 8.20238 22.1129 7.41279C21.822 5.97859 20.663 4.93151 19.7492 3.81944C19.3854 3.37696 18.943 2.8695 18.4509 2.62272C17.0065 1.89884 15.4351 1.40137 13.843 1.21531C12.3464 1.04032 10.8229 1.35816 9.37418 1.82242C8.95321 1.95705 8.49399 1.8867 8.09553 2.20204C7.03201 3.04484 5.82446 3.69087 4.85207 4.6651C4.50166 5.01905 4.17649 5.39709 3.87896 5.79646C3.27358 6.59891 2.98912 7.63206 2.30655 8.35059C2.20756 8.45451 2.15539 8.59379 2.11643 8.73163C1.9667 9.26732 1.93775 9.803 1.72869 10.3237C1.51105 10.8701 1.26947 11.3804 1.34881 11.9882C1.41421 12.4882 1.5132 12.9617 1.49855 13.4667C1.7269 14.7306 1.80838 16.0162 2.24437 17.2386C2.43306 17.7679 2.81616 18.1571 3.12063 18.5828C4.11768 19.9784 5.08615 21.4548 6.95517 21.8498C7.21962 21.9055 7.49122 21.9801 7.72887 22.1051C9.24196 22.9022 10.8916 22.849 12.4997 22.7358C14.5263 22.5929 16.341 21.768 17.8691 20.4077C18.2122 20.1024 18.6989 20.0402 18.9695 19.6406C19.6174 18.6842 20.5015 17.8939 20.9657 16.8079C21.4249 15.733 21.8402 14.6431 22.3298 13.5831C22.5056 13.2028 22.5488 12.8078 22.5571 12.4064C22.5617 12.1761 22.5546 11.9422 22.5538 11.71C22.5513 11.064 22.7257 10.4105 22.6446 9.76657L22.646 9.76979ZM19.9733 12.2789C19.5723 14.6588 18.63 16.9036 16.4525 18.3657C15.309 19.1335 14.2319 19.9242 12.7416 19.9542C12.1599 19.9659 11.5845 20.4277 10.9055 20.2884C9.49319 20.0545 8.24419 19.5485 6.96196 18.7674C5.35989 17.7914 5.09472 16.158 4.20774 14.8416C4.13055 14.7273 4.0798 14.5202 4.13126 14.4063C4.58405 13.4224 4.02405 12.4396 4.13948 11.4283C4.24669 10.5101 4.64873 9.7705 4.9843 9.00519C5.45102 7.94168 6.23508 7.04602 7.09276 6.24C8.19702 5.20149 9.36096 4.21227 10.943 4.10763C11.5691 4.06657 12.0534 3.6648 12.6848 3.70123C15.0699 3.83908 16.9957 4.6626 18.522 6.66355C19.8493 8.40094 20.3024 10.3133 19.9719 12.2757L19.9733 12.2789Z" fill="black"/>
</svg>
