<svg width="24" height="24" viewBox="0 0 24 24" fill="none" xmlns="http://www.w3.org/2000/svg">
<ellipse cx="12.0417" cy="12" rx="8.79167" ry="9.75" fill="white"/>
<path d="M13.4442 11.4187C13.7119 11.8923 14.1004 11.9308 14.3594 11.5377C14.6993 11.0227 14.9873 10.4306 15.1099 9.83169C15.1882 9.44814 15.1603 8.89925 14.7132 8.61748C14.4041 8.42142 13.966 8.44249 13.8016 8.7139C13.5325 9.15744 13.1112 9.58027 13.2298 10.2381C13.3438 10.5856 13.2223 11.0263 13.4442 11.4187ZM10.556 11.2305C10.833 11.2102 11.0406 11.1198 11.171 10.802C11.3894 10.2713 11.6667 9.77026 11.537 9.14673C11.5666 8.77747 11.5981 8.39499 11.3819 8.02823C11.057 7.47683 10.6503 7.52362 10.2848 7.91145C9.62935 8.60641 9.52142 9.91454 9.94847 10.8013C10.0839 11.0834 10.2501 11.253 10.556 11.2305ZM22.6461 9.76991C22.5438 8.96638 22.2726 8.2025 22.1129 7.41291C21.822 5.97871 20.663 4.93163 19.7492 3.81956C19.3854 3.37709 18.943 2.86962 18.4509 2.62285C17.0065 1.89896 15.4351 1.40149 13.8431 1.21543C12.3464 1.04044 10.823 1.35828 9.37419 1.82254C8.95321 1.95717 8.49399 1.88682 8.09553 2.20216C7.03201 3.04496 5.82447 3.691 4.85207 4.66522C4.50166 5.01917 4.17649 5.39721 3.87896 5.79658C3.27358 6.59903 2.98912 7.63218 2.30655 8.35071C2.20756 8.45463 2.15539 8.59391 2.11643 8.73176C1.9667 9.26744 1.93775 9.80312 1.72869 10.3238C1.51105 10.8702 1.26947 11.3805 1.34881 11.9883C1.41421 12.4883 1.5132 12.9619 1.49855 13.4668C1.7269 14.7307 1.80838 16.0163 2.24437 17.2387C2.43306 17.768 2.81616 18.1572 3.12063 18.5829C4.11768 19.9786 5.08615 21.4549 6.95517 21.8499C7.21962 21.9056 7.49122 21.9802 7.72887 22.1052C9.24196 22.9023 10.8916 22.8491 12.4997 22.7359C14.5263 22.593 16.341 21.7681 17.8691 20.4078C18.2122 20.1025 18.6989 20.0403 18.9695 19.6407C19.6174 18.6844 20.5015 17.894 20.9657 16.808C21.4249 15.7331 21.8402 14.6432 22.3298 13.5832C22.5056 13.2029 22.5489 12.8079 22.5571 12.4065C22.5617 12.1762 22.5546 11.9423 22.5539 11.7101C22.5514 11.0641 22.7258 10.4106 22.6446 9.76669L22.6461 9.76991ZM19.9733 12.279C19.5723 14.6589 18.63 16.9038 16.4525 18.3658C15.309 19.1336 14.2319 19.9243 12.7416 19.9543C12.1599 19.9661 11.5845 20.4278 10.9055 20.2885C9.49319 20.0546 8.24419 19.5486 6.96196 18.7676C5.35989 17.7916 5.09472 16.1581 4.20774 14.8417C4.13055 14.7275 4.0798 14.5203 4.13126 14.4064C4.58405 13.4225 4.02405 12.4397 4.13948 11.4284C4.24669 10.5102 4.64873 9.77062 4.9843 9.00531C5.45102 7.9418 6.23508 7.04615 7.09276 6.24012C8.19702 5.20162 9.36096 4.21239 10.943 4.10776C11.5691 4.06669 12.0534 3.66493 12.6848 3.70135C15.0699 3.8392 16.9957 4.66272 18.5221 6.66367C19.8493 8.40106 20.3024 10.3134 19.9719 12.2758L19.9733 12.279Z" fill="#F00A19"/>
<path d="M8.31585 16.7254C8.42376 16.8287 8.66789 16.637 8.77075 16.4607C8.86855 16.2937 8.85238 16.1023 8.70883 15.9943C8.46748 15.8132 8.61532 15.6603 8.66789 15.4654C8.94588 14.4248 9.73336 13.9654 10.6856 13.7528C11.3523 13.6035 12.0491 13.806 12.5712 14.1631C13.1373 14.5507 13.481 15.2078 13.7906 15.8477C14.014 16.3088 14.1975 16.6982 13.6124 17.0248C13.4193 17.1326 13.3033 17.3271 13.4026 17.5698C13.505 17.8199 13.7355 17.833 13.9432 17.7952C14.2087 17.7429 14.4843 17.7858 14.7211 17.9164C14.8909 18.0055 15.087 18.0625 15.2503 17.8786C15.4136 17.6948 15.2938 17.5187 15.2478 17.3371C15.1793 17.0682 14.8894 16.9165 14.8889 16.605C14.8876 15.7256 14.5583 15.0091 14.0102 14.29C13.3473 13.4201 12.5507 12.9885 11.5163 12.7701C11.1021 12.6827 10.7786 12.9152 10.2906 12.8034C9.514 12.7762 8.95372 13.3987 8.40202 13.9148C7.85033 14.4308 7.84957 15.3674 7.1091 15.8016C6.87305 15.9401 6.88165 16.2094 6.98855 16.4358C7.29181 17.0747 7.91427 16.3421 8.31585 16.7254Z" fill="#F00A19"/>
</svg>
