<svg width="24" height="24" viewBox="0 0 24 24" fill="none" xmlns="http://www.w3.org/2000/svg">
<path d="M13.4981 11.4126C13.7757 11.9051 14.1786 11.9452 14.4473 11.5363C14.7998 11.0007 15.0985 10.3849 15.2256 9.762C15.3068 9.3631 15.2779 8.79222 14.8142 8.49917C14.4936 8.29526 14.0392 8.31717 13.8687 8.59945C13.5897 9.06076 13.1527 9.50052 13.2757 10.1847C13.394 10.5461 13.2679 11.0044 13.4981 11.4126ZM10.5026 11.2169C10.7899 11.1957 11.0052 11.1017 11.1405 10.7712C11.3669 10.2192 11.6546 9.69812 11.52 9.04962C11.5508 8.66557 11.5834 8.26777 11.3592 7.88632C11.0222 7.31285 10.6005 7.3615 10.2213 7.76487C9.54155 8.48765 9.42962 9.84818 9.87253 10.7704C10.013 11.0638 10.1853 11.2403 10.5026 11.2169ZM16.296 11.7034C16.1378 11.5511 15.7797 11.8338 15.6289 12.0938C15.4855 12.34 15.5092 12.6223 15.7197 12.7817C16.0737 13.0487 15.8568 13.2742 15.7797 13.5617C15.372 15.0964 14.2171 15.7738 12.8206 16.0873C11.8428 16.3076 10.821 16.009 10.0553 15.4823C9.22503 14.9107 8.72096 13.9416 8.26693 12.9978C7.93928 12.3178 7.6702 11.7435 8.52823 11.2618C8.81139 11.1028 8.98152 10.8161 8.83586 10.4581C8.68575 10.0892 8.34773 10.0699 8.04306 10.1256C7.65367 10.2028 7.24956 10.1396 6.90224 9.94697C6.65317 9.81549 6.36556 9.73155 6.12613 10.0027C5.88669 10.2738 6.06238 10.5334 6.12983 10.8012C6.23028 11.1979 6.6554 11.4215 6.65614 11.881C6.65799 13.178 7.14093 14.2347 7.94484 15.2951C8.91703 16.578 10.0853 17.2146 11.6023 17.5366C12.2098 17.6655 12.6842 17.3227 13.3999 17.4876C14.5389 17.5277 15.3606 16.6095 16.1697 15.8485C16.9788 15.0875 16.9799 13.7061 18.0658 13.0658C18.412 12.8615 18.3994 12.4645 18.2426 12.1306C17.7979 11.1883 16.885 12.2687 16.296 11.7034ZM23.0416 9.69775C22.9356 8.86205 22.6543 8.06758 22.4887 7.24636C22.187 5.75473 20.985 4.66572 20.0373 3.50911C19.66 3.04892 19.2011 2.52113 18.6907 2.26447C17.1926 1.5116 15.5629 0.99421 13.9117 0.800699C12.3595 0.618702 10.7795 0.949268 9.27692 1.43212C8.8403 1.57214 8.36404 1.49897 7.95078 1.82694C6.84776 2.7035 5.59537 3.3754 4.58687 4.38864C4.22344 4.75676 3.8862 5.14994 3.57762 5.5653C2.94976 6.39989 2.65473 7.47442 1.94682 8.22172C1.84415 8.3298 1.79004 8.47465 1.74964 8.61802C1.59434 9.17516 1.56432 9.73229 1.3475 10.2738C1.12178 10.8421 0.871228 11.3729 0.953509 12.005C1.02134 12.525 1.124 13.0175 1.10881 13.5427C1.34564 14.8572 1.43015 16.1943 1.88233 17.4657C2.07802 18.0161 2.47535 18.421 2.79113 18.8637C3.82521 20.3152 4.82964 21.8507 6.76807 22.2615C7.04234 22.3194 7.32403 22.397 7.5705 22.527C9.13978 23.3561 10.8506 23.3007 12.5185 23.183C14.6204 23.0344 16.5025 22.1764 18.0873 20.7617C18.4432 20.4441 18.948 20.3795 19.2285 19.9639C19.9005 18.9692 20.8175 18.1472 21.2989 17.0177C21.7752 15.8998 22.2059 14.7662 22.7136 13.6638C22.896 13.2682 22.9408 12.8574 22.9494 12.44C22.9542 12.2004 22.9468 11.9571 22.946 11.7157C22.9434 11.0438 23.1243 10.3641 23.0402 9.69441L23.0416 9.69775ZM20.2697 12.3074C19.8538 14.7825 18.8764 17.1173 16.6181 18.6379C15.4321 19.4364 14.315 20.2588 12.7694 20.29C12.166 20.3022 11.5693 20.7825 10.8651 20.6376C9.40034 20.3943 8.10496 19.868 6.77511 19.0557C5.11354 18.0406 4.83853 16.3418 3.91861 14.9727C3.83855 14.8538 3.78592 14.6384 3.83929 14.5199C4.30889 13.4967 3.7281 12.4745 3.84782 11.4226C3.95901 10.4677 4.37598 9.69849 4.724 8.90253C5.20806 7.79644 6.02124 6.86491 6.91077 6.02661C8.05604 4.94651 9.2632 3.91768 10.904 3.80885C11.5534 3.76613 12.0556 3.34828 12.7105 3.38617C15.1841 3.52954 17.1815 4.38604 18.7645 6.46712C20.141 8.27409 20.611 10.2631 20.2682 12.304L20.2697 12.3074Z" fill="white"/>
<ellipse cx="12.0417" cy="12" rx="8.79167" ry="9.75" fill="#FFFC3F"/>
<path d="M13.4443 11.4186C13.712 11.8921 14.1005 11.9307 14.3596 11.5375C14.6994 11.0225 14.9875 10.4304 15.11 9.83151C15.1883 9.44796 15.1604 8.89906 14.7134 8.6173C14.4042 8.42124 13.9661 8.44231 13.8017 8.71372C13.5326 9.15726 13.1113 9.58009 13.2299 10.2379C13.3439 10.5854 13.2224 11.0261 13.4443 11.4186ZM10.5561 11.2304C10.8331 11.21 11.0407 11.1196 11.1711 10.8018C11.3895 10.2711 11.6668 9.77008 11.5371 9.14655C11.5667 8.77728 11.5982 8.39481 11.382 8.02805C11.0571 7.47665 10.6505 7.52343 10.2849 7.91127C9.62947 8.60622 9.52154 9.91436 9.94859 10.8011C10.084 11.0832 10.2502 11.2528 10.5561 11.2304ZM16.1421 11.6982C15.9895 11.5518 15.6443 11.8235 15.4988 12.0735C15.3605 12.3103 15.3834 12.5817 15.5864 12.7349C15.9277 12.9917 15.7186 13.2084 15.6443 13.4849C15.2512 14.9605 14.1376 15.6119 12.7911 15.9133C11.8484 16.125 10.8631 15.8379 10.1248 15.3315C9.32427 14.7819 8.83826 13.8502 8.40048 12.9427C8.08457 12.2889 7.82512 11.7367 8.65243 11.2736C8.92545 11.1207 9.08948 10.845 8.94904 10.5008C8.80431 10.1461 8.47839 10.1276 8.18463 10.1811C7.80918 10.2554 7.41955 10.1945 7.08466 10.0094C6.84451 9.88293 6.56719 9.80222 6.33634 10.0629C6.10548 10.3236 6.27487 10.5732 6.33991 10.8307C6.43676 11.2121 6.84665 11.4271 6.84737 11.8689C6.84915 13.1159 7.3148 14.132 8.08993 15.1515C9.0273 16.385 10.1537 16.9971 11.6164 17.3068C12.2021 17.4307 12.6596 17.1011 13.3496 17.2596C14.4478 17.2982 15.2401 16.4154 16.0202 15.6836C16.8004 14.9519 16.8014 13.6238 17.8485 13.0081C18.1823 12.8117 18.1702 12.4299 18.019 12.1089C17.5902 11.2029 16.71 12.2417 16.1421 11.6982ZM22.6462 9.76972C22.544 8.9662 22.2727 8.20232 22.113 7.41273C21.8221 5.97853 20.6631 4.93145 19.7494 3.81938C19.3856 3.3769 18.9431 2.86943 18.451 2.62266C17.0066 1.89878 15.4352 1.40131 13.8432 1.21525C12.3465 1.04026 10.8231 1.3581 9.37431 1.82236C8.95333 1.95699 8.49411 1.88664 8.09565 2.20198C7.03213 3.04478 5.82459 3.69081 4.85219 4.66504C4.50178 5.01898 4.17661 5.39703 3.87908 5.7964C3.27371 6.59885 2.98924 7.632 2.30667 8.35053C2.20768 8.45445 2.15551 8.59372 2.11656 8.73157C1.96682 9.26725 1.93787 9.80294 1.72881 10.3236C1.51118 10.87 1.2696 11.3803 1.34893 11.9882C1.41433 12.4881 1.51332 12.9617 1.49867 13.4666C1.72703 14.7305 1.80851 16.0161 2.24449 17.2386C2.43318 17.7678 2.81628 18.1571 3.12075 18.5828C4.11781 19.9784 5.08627 21.4547 6.95529 21.8497C7.21974 21.9054 7.49134 21.98 7.72899 22.105C9.24208 22.9021 10.8917 22.8489 12.4998 22.7357C14.5265 22.5929 16.3412 21.7679 17.8693 20.4076C18.2123 20.1023 18.6991 20.0402 18.9696 19.6405C19.6175 18.6842 20.5016 17.8939 20.9658 16.8079C21.4251 15.7329 21.8403 14.643 22.3299 13.5831C22.5057 13.2027 22.549 12.8078 22.5572 12.4063C22.5618 12.176 22.5547 11.9421 22.554 11.71C22.5515 11.0639 22.7259 10.4104 22.6447 9.76651L22.6462 9.76972ZM19.9734 12.2789C19.5725 14.6587 18.6301 16.9036 16.4527 18.3656C15.3091 19.1334 14.232 19.9241 12.7418 19.9541C12.16 19.9659 11.5846 20.4276 10.9056 20.2884C9.49331 20.0544 8.24431 19.5484 6.96208 18.7674C5.36001 17.7914 5.09484 16.1579 4.20786 14.8416C4.13067 14.7273 4.07992 14.5201 4.13138 14.4062C4.58417 13.4224 4.02418 12.4396 4.1396 11.4282C4.24681 10.51 4.64885 9.77044 4.98442 9.00513C5.45114 7.94162 6.2352 7.04596 7.09288 6.23994C8.19714 5.20143 9.36108 4.21221 10.9431 4.10757C11.5692 4.0665 12.0535 3.66474 12.6849 3.70117C15.07 3.83902 16.9959 4.66254 18.5222 6.66349C19.8494 8.40088 20.3026 10.3133 19.972 12.2756L19.9734 12.2789Z" fill="black"/>
</svg>
