<svg width="24" height="24" viewBox="0 0 24 24" fill="none" xmlns="http://www.w3.org/2000/svg">
<ellipse cx="12.0417" cy="12" rx="8.79167" ry="9.75" fill="white"/>
<path d="M13.4443 11.4186C13.712 11.8921 14.1005 11.9307 14.3596 11.5375C14.6994 11.0225 14.9875 10.4304 15.11 9.83151C15.1883 9.44796 15.1604 8.89906 14.7134 8.6173C14.4042 8.42124 13.9661 8.44231 13.8017 8.71372C13.5326 9.15726 13.1113 9.58009 13.2299 10.2379C13.3439 10.5854 13.2224 11.0261 13.4443 11.4186ZM10.5561 11.2304C10.8331 11.21 11.0407 11.1196 11.1711 10.8018C11.3895 10.2711 11.6668 9.77008 11.5371 9.14655C11.5667 8.77728 11.5982 8.39481 11.382 8.02805C11.0571 7.47665 10.6505 7.52343 10.2849 7.91127C9.62946 8.60622 9.52154 9.91436 9.94859 10.8011C10.084 11.0832 10.2502 11.2528 10.5561 11.2304ZM16.1421 11.6982C15.9895 11.5518 15.6443 11.8235 15.4988 12.0735C15.3605 12.3103 15.3834 12.5817 15.5864 12.7349C15.9277 12.9917 15.7186 13.2084 15.6443 13.4849C15.2512 14.9605 14.1376 15.6119 12.7911 15.9133C11.8484 16.125 10.8631 15.8379 10.1248 15.3315C9.32427 14.7819 8.83826 13.8502 8.40048 12.9427C8.08457 12.2889 7.82512 11.7367 8.65243 11.2736C8.92545 11.1207 9.08948 10.845 8.94904 10.5008C8.80431 10.1461 8.47839 10.1276 8.18463 10.1811C7.80918 10.2554 7.41955 10.1945 7.08466 10.0094C6.84451 9.88293 6.56719 9.80222 6.33634 10.0629C6.10548 10.3236 6.27487 10.5732 6.33991 10.8307C6.43676 11.2121 6.84665 11.4271 6.84737 11.8689C6.84915 13.1159 7.3148 14.132 8.08993 15.1515C9.0273 16.385 10.1537 16.9971 11.6164 17.3068C12.2021 17.4307 12.6596 17.1011 13.3496 17.2596C14.4478 17.2982 15.2401 16.4154 16.0202 15.6836C16.8004 14.9519 16.8014 13.6238 17.8485 13.0081C18.1823 12.8117 18.1702 12.4299 18.019 12.1089C17.5902 11.2029 16.71 12.2417 16.1421 11.6982ZM22.6462 9.76972C22.544 8.9662 22.2727 8.20232 22.113 7.41273C21.8221 5.97853 20.6631 4.93145 19.7494 3.81938C19.3856 3.3769 18.9431 2.86943 18.451 2.62266C17.0066 1.89878 15.4352 1.40131 13.8432 1.21525C12.3465 1.04026 10.8231 1.3581 9.37431 1.82236C8.95333 1.95699 8.49411 1.88664 8.09565 2.20198C7.03213 3.04478 5.82459 3.69081 4.85219 4.66504C4.50178 5.01898 4.17661 5.39703 3.87908 5.7964C3.27371 6.59885 2.98924 7.632 2.30667 8.35053C2.20768 8.45445 2.15551 8.59372 2.11656 8.73157C1.96682 9.26725 1.93787 9.80294 1.72881 10.3236C1.51118 10.87 1.2696 11.3803 1.34893 11.9882C1.41433 12.4881 1.51332 12.9617 1.49867 13.4666C1.72703 14.7305 1.80851 16.0161 2.24449 17.2386C2.43318 17.7678 2.81628 18.1571 3.12075 18.5828C4.11781 19.9784 5.08627 21.4547 6.95529 21.8497C7.21974 21.9054 7.49134 21.98 7.72899 22.105C9.24208 22.9021 10.8917 22.8489 12.4998 22.7357C14.5265 22.5929 16.3412 21.7679 17.8693 20.4076C18.2123 20.1023 18.6991 20.0402 18.9696 19.6405C19.6175 18.6842 20.5016 17.8939 20.9658 16.8079C21.4251 15.7329 21.8403 14.643 22.3299 13.5831C22.5057 13.2027 22.549 12.8078 22.5572 12.4063C22.5618 12.176 22.5547 11.9421 22.554 11.71C22.5515 11.0639 22.7259 10.4104 22.6447 9.76651L22.6462 9.76972ZM19.9734 12.2789C19.5725 14.6587 18.6301 16.9036 16.4527 18.3656C15.3091 19.1334 14.232 19.9241 12.7418 19.9541C12.16 19.9659 11.5846 20.4276 10.9056 20.2884C9.49331 20.0544 8.24431 19.5484 6.96208 18.7674C5.36001 17.7914 5.09484 16.1579 4.20786 14.8416C4.13067 14.7273 4.07992 14.5201 4.13138 14.4062C4.58417 13.4224 4.02418 12.4396 4.1396 11.4282C4.24681 10.51 4.64885 9.77044 4.98442 9.00513C5.45114 7.94162 6.2352 7.04596 7.09288 6.23994C8.19714 5.20143 9.36108 4.21221 10.9431 4.10757C11.5692 4.0665 12.0535 3.66474 12.6849 3.70117C15.07 3.83902 16.9959 4.66254 18.5222 6.66349C19.8494 8.40088 20.3026 10.3133 19.972 12.2756L19.9734 12.2789Z" fill="black"/>
</svg>
