<svg width="24" height="24" viewBox="0 0 24 24" fill="none" xmlns="http://www.w3.org/2000/svg">
<path d="M13.4981 11.4126C13.7757 11.9051 14.1786 11.9452 14.4473 11.5363C14.7998 11.0007 15.0985 10.3849 15.2256 9.762C15.3068 9.3631 15.2779 8.79222 14.8142 8.49917C14.4936 8.29526 14.0392 8.31717 13.8687 8.59945C13.5897 9.06076 13.1527 9.50052 13.2757 10.1847C13.394 10.5461 13.2679 11.0044 13.4981 11.4126ZM10.5026 11.2169C10.7899 11.1957 11.0052 11.1017 11.1405 10.7712C11.3669 10.2192 11.6546 9.69812 11.52 9.04962C11.5508 8.66557 11.5834 8.26777 11.3592 7.88632C11.0222 7.31285 10.6005 7.3615 10.2213 7.76487C9.54155 8.48765 9.42962 9.84818 9.87253 10.7704C10.013 11.0638 10.1853 11.2403 10.5026 11.2169ZM16.296 11.7034C16.1378 11.5511 15.7797 11.8338 15.6289 12.0938C15.4855 12.34 15.5092 12.6223 15.7197 12.7817C16.0737 13.0487 15.8568 13.2742 15.7797 13.5617C15.372 15.0964 14.2171 15.7738 12.8206 16.0873C11.8428 16.3076 10.821 16.009 10.0553 15.4823C9.22503 14.9107 8.72096 13.9416 8.26693 12.9978C7.93928 12.3178 7.6702 11.7435 8.52823 11.2618C8.81139 11.1028 8.98152 10.8161 8.83586 10.4581C8.68575 10.0892 8.34773 10.0699 8.04306 10.1256C7.65367 10.2028 7.24956 10.1396 6.90224 9.94697C6.65317 9.81549 6.36556 9.73155 6.12613 10.0027C5.88669 10.2738 6.06238 10.5334 6.12983 10.8012C6.23028 11.1979 6.6554 11.4215 6.65614 11.881C6.65799 13.178 7.14093 14.2347 7.94484 15.2951C8.91703 16.578 10.0853 17.2146 11.6023 17.5366C12.2098 17.6655 12.6842 17.3227 13.3999 17.4876C14.5389 17.5277 15.3606 16.6095 16.1697 15.8485C16.9788 15.0875 16.9799 13.7061 18.0658 13.0658C18.412 12.8615 18.3994 12.4645 18.2426 12.1306C17.7979 11.1883 16.885 12.2687 16.296 11.7034ZM23.0416 9.69775C22.9356 8.86205 22.6543 8.06758 22.4887 7.24636C22.187 5.75473 20.985 4.66572 20.0373 3.50911C19.66 3.04892 19.2011 2.52113 18.6907 2.26447C17.1926 1.5116 15.5629 0.99421 13.9117 0.800699C12.3595 0.618702 10.7795 0.949268 9.27692 1.43212C8.8403 1.57214 8.36404 1.49897 7.95078 1.82694C6.84776 2.7035 5.59537 3.3754 4.58687 4.38864C4.22344 4.75676 3.8862 5.14994 3.57762 5.5653C2.94976 6.39989 2.65473 7.47442 1.94682 8.22172C1.84415 8.3298 1.79004 8.47465 1.74964 8.61802C1.59434 9.17516 1.56432 9.73229 1.3475 10.2738C1.12178 10.8421 0.871228 11.3729 0.953509 12.005C1.02134 12.525 1.124 13.0175 1.10881 13.5427C1.34564 14.8572 1.43015 16.1943 1.88233 17.4657C2.07802 18.0161 2.47535 18.421 2.79113 18.8637C3.82521 20.3152 4.82964 21.8507 6.76807 22.2615C7.04234 22.3194 7.32403 22.397 7.5705 22.527C9.13978 23.3561 10.8506 23.3007 12.5185 23.183C14.6204 23.0344 16.5025 22.1764 18.0873 20.7617C18.4432 20.4441 18.948 20.3795 19.2285 19.9639C19.9005 18.9692 20.8175 18.1472 21.2989 17.0177C21.7752 15.8998 22.2059 14.7662 22.7136 13.6638C22.896 13.2682 22.9408 12.8574 22.9494 12.44C22.9542 12.2004 22.9468 11.9571 22.946 11.7157C22.9434 11.0438 23.1243 10.3641 23.0402 9.69441L23.0416 9.69775ZM20.2697 12.3074C19.8538 14.7825 18.8764 17.1173 16.6181 18.6379C15.4321 19.4364 14.315 20.2588 12.7694 20.29C12.166 20.3022 11.5693 20.7825 10.8651 20.6376C9.40034 20.3943 8.10496 19.868 6.77511 19.0557C5.11354 18.0406 4.83853 16.3418 3.91861 14.9727C3.83855 14.8538 3.78592 14.6384 3.83929 14.5199C4.30889 13.4967 3.7281 12.4745 3.84782 11.4226C3.95901 10.4677 4.37598 9.69849 4.724 8.90253C5.20806 7.79644 6.02124 6.86491 6.91077 6.02661C8.05604 4.94651 9.2632 3.91768 10.904 3.80885C11.5534 3.76613 12.0556 3.34828 12.7105 3.38617C15.1841 3.52954 17.1815 4.38604 18.7645 6.46712C20.141 8.27409 20.611 10.2631 20.2682 12.304L20.2697 12.3074Z" fill="white"/>
<ellipse cx="12.0417" cy="12" rx="8.79167" ry="9.75" fill="#FFFC3F"/>
<path d="M13.4441 11.4187C13.7118 11.8923 14.1002 11.9308 14.3593 11.5377C14.6992 11.0227 14.9872 10.4306 15.1098 9.83169C15.1881 9.44814 15.1602 8.89925 14.7131 8.61748C14.404 8.42142 13.9659 8.44249 13.8015 8.7139C13.5324 9.15744 13.111 9.58028 13.2297 10.2381C13.3437 10.5856 13.2222 11.0263 13.4441 11.4187ZM10.5559 11.2305C10.8328 11.2102 11.0405 11.1198 11.1709 10.802C11.3892 10.2713 11.6666 9.77026 11.5368 9.14673C11.5665 8.77747 11.598 8.39499 11.3817 8.02823C11.0569 7.47683 10.6502 7.52362 10.2846 7.91145C9.62922 8.60641 9.5213 9.91454 9.94835 10.8013C10.0838 11.0834 10.25 11.253 10.5559 11.2305ZM16.1419 11.6984C15.9893 11.5519 15.6441 11.8237 15.4986 12.0737C15.3603 12.3105 15.3832 12.5819 15.5862 12.7351C15.9274 12.9919 15.7184 13.2086 15.6441 13.485C15.2509 14.9607 14.1374 15.6121 12.7908 15.9135C11.8481 16.1252 10.8628 15.8381 10.1245 15.3317C9.32403 14.7821 8.83801 13.8504 8.40024 12.9429C8.08433 12.289 7.82488 11.7369 8.65218 11.2737C8.92521 11.1209 9.08924 10.8452 8.9488 10.5009C8.80406 10.1463 8.47814 10.1277 8.18439 10.1813C7.80894 10.2556 7.4193 10.1947 7.08442 10.0095C6.84427 9.88311 6.56695 9.80241 6.33609 10.0631C6.10523 10.3238 6.27462 10.5734 6.33966 10.8309C6.43651 11.2123 6.84641 11.4273 6.84712 11.8691C6.84891 13.1161 7.31456 14.1321 8.08969 15.1517C9.02706 16.3852 10.1535 16.9973 11.6162 17.3069C12.2019 17.4309 12.6593 17.1012 13.3494 17.2598C14.4476 17.2984 15.2399 16.4156 16.02 15.6838C16.8001 14.9521 16.8012 13.624 17.8483 13.0083C18.1821 12.8119 18.1699 12.4301 18.0188 12.109C17.5899 11.203 16.7097 12.2419 16.1419 11.6984ZM22.6459 9.76991C22.5437 8.96639 22.2725 8.2025 22.1127 7.41291C21.8218 5.97871 20.6629 4.93163 19.7491 3.81956C19.3853 3.37709 18.9429 2.86962 18.4508 2.62285C17.0063 1.89896 15.435 1.40149 13.8429 1.21543C12.3463 1.04044 10.8228 1.35828 9.37406 1.82254C8.95308 1.95717 8.49387 1.88682 8.09541 2.20216C7.03188 3.04496 5.82434 3.691 4.85195 4.66522C4.50154 5.01917 4.17637 5.39721 3.87884 5.79658C3.27346 6.59903 2.989 7.63218 2.30643 8.35071C2.20744 8.45463 2.15526 8.59391 2.11631 8.73176C1.96657 9.26744 1.93763 9.80312 1.72857 10.3238C1.51093 10.8702 1.26935 11.3805 1.34869 11.9883C1.41409 12.4883 1.51308 12.9619 1.49842 13.4668C1.72678 14.7307 1.80826 16.0163 2.24425 17.2387C2.43294 17.768 2.81603 18.1572 3.12051 18.5829C4.11756 19.9786 5.08602 21.4549 6.95505 21.8499C7.2195 21.9056 7.4911 21.9802 7.72875 22.1052C9.24184 22.9023 10.8914 22.8491 12.4996 22.7359C14.5262 22.593 16.3409 21.7681 17.869 20.4078C18.2121 20.1025 18.6988 20.0403 18.9693 19.6407C19.6172 18.6844 20.5014 17.8941 20.9656 16.808C21.4248 15.7331 21.8401 14.6432 22.3297 13.5832C22.5055 13.2029 22.5487 12.8079 22.5569 12.4065C22.5616 12.1762 22.5544 11.9423 22.5537 11.7101C22.5512 11.0641 22.7256 10.4106 22.6445 9.76669L22.6459 9.76991ZM19.9732 12.279C19.5722 14.6589 18.6298 16.9038 16.4524 18.3658C15.3088 19.1336 14.2317 19.9243 12.7415 19.9543C12.1597 19.9661 11.5844 20.4278 10.9054 20.2885C9.49306 20.0546 8.24407 19.5486 6.96184 18.7676C5.35977 17.7916 5.0946 16.1581 4.20762 14.8417C4.13043 14.7275 4.07968 14.5203 4.13114 14.4064C4.58392 13.4225 4.02393 12.4397 4.13936 11.4284C4.24657 10.5102 4.64861 9.77062 4.98417 9.00531C5.45089 7.94181 6.23496 7.04615 7.09264 6.24012C8.1969 5.20162 9.36084 4.21239 10.9429 4.10776C11.569 4.06669 12.0532 3.66493 12.6847 3.70135C15.0698 3.8392 16.9956 4.66272 18.5219 6.66367C19.8492 8.40106 20.3023 10.3134 19.9718 12.2758L19.9732 12.279Z" fill="black"/>
</svg>
