<svg width="24" height="24" viewBox="0 0 24 24" fill="none" xmlns="http://www.w3.org/2000/svg">
<path d="M13.4981 11.4126C13.7757 11.9051 14.1786 11.9452 14.4473 11.5363C14.7998 11.0007 15.0985 10.3849 15.2256 9.762C15.3068 9.3631 15.2779 8.79222 14.8142 8.49917C14.4936 8.29526 14.0392 8.31717 13.8687 8.59945C13.5897 9.06076 13.1527 9.50052 13.2757 10.1847C13.394 10.5461 13.2679 11.0044 13.4981 11.4126ZM10.5026 11.2169C10.7899 11.1957 11.0052 11.1017 11.1405 10.7712C11.3669 10.2192 11.6546 9.69812 11.52 9.04962C11.5508 8.66556 11.5834 8.26777 11.3592 7.88632C11.0222 7.31285 10.6005 7.3615 10.2213 7.76487C9.54155 8.48765 9.42962 9.84818 9.87253 10.7704C10.013 11.0638 10.1853 11.2403 10.5026 11.2169V11.2169ZM16.296 11.7034C16.1378 11.5511 15.7797 11.8338 15.6289 12.0938C15.4855 12.34 15.5092 12.6223 15.7197 12.7817C16.0737 13.0487 15.8568 13.2742 15.7797 13.5617C15.372 15.0964 14.2171 15.7738 12.8206 16.0873C11.8428 16.3076 10.821 16.009 10.0553 15.4823C9.22503 14.9107 8.72096 13.9416 8.26693 12.9978C7.93928 12.3178 7.6702 11.7435 8.52823 11.2618C8.81139 11.1028 8.98152 10.8161 8.83586 10.4581C8.68575 10.0892 8.34773 10.0699 8.04306 10.1256C7.65367 10.2028 7.24956 10.1396 6.90224 9.94697C6.65317 9.81549 6.36556 9.73155 6.12613 10.0027C5.88669 10.2738 6.06238 10.5334 6.12983 10.8012C6.23028 11.1979 6.6554 11.4215 6.65614 11.881C6.65799 13.178 7.14093 14.2347 7.94484 15.2951C8.91703 16.578 10.0853 17.2146 11.6023 17.5366C12.2098 17.6655 12.6842 17.3227 13.3999 17.4876C14.5389 17.5277 15.3606 16.6095 16.1697 15.8485C16.9788 15.0875 16.9799 13.7061 18.0658 13.0658C18.412 12.8615 18.3994 12.4645 18.2426 12.1306C17.7979 11.1883 16.885 12.2687 16.296 11.7034ZM23.0416 9.69775C22.9356 8.86205 22.6543 8.06758 22.4887 7.24636C22.187 5.75473 20.985 4.66572 20.0373 3.50911C19.66 3.04892 19.2011 2.52113 18.6907 2.26447C17.1926 1.5116 15.5629 0.99421 13.9117 0.800699C12.3595 0.618702 10.7795 0.949268 9.27692 1.43212C8.8403 1.57214 8.36404 1.49897 7.95078 1.82694C6.84776 2.70349 5.59537 3.3754 4.58687 4.38864C4.22344 4.75676 3.8862 5.14994 3.57762 5.5653C2.94976 6.39989 2.65473 7.47442 1.94682 8.22172C1.84415 8.3298 1.79004 8.47465 1.74964 8.61802C1.59434 9.17516 1.56432 9.73229 1.3475 10.2738C1.12178 10.8421 0.871228 11.3729 0.953509 12.005C1.02134 12.525 1.124 13.0175 1.10881 13.5427C1.34564 14.8572 1.43015 16.1943 1.88233 17.4657C2.07802 18.0161 2.47535 18.421 2.79113 18.8637C3.82521 20.3152 4.82964 21.8507 6.76807 22.2615C7.04234 22.3194 7.32403 22.397 7.5705 22.527C9.13978 23.3561 10.8506 23.3007 12.5185 23.183C14.6204 23.0344 16.5025 22.1764 18.0873 20.7617C18.4432 20.4441 18.948 20.3795 19.2285 19.9639C19.9005 18.9692 20.8175 18.1472 21.2989 17.0177C21.7752 15.8998 22.2059 14.7662 22.7136 13.6638C22.896 13.2682 22.9408 12.8574 22.9494 12.44C22.9542 12.2004 22.9468 11.9571 22.946 11.7157C22.9434 11.0438 23.1243 10.3641 23.0402 9.69441L23.0416 9.69775ZM20.2697 12.3074C19.8538 14.7825 18.8764 17.1173 16.6181 18.6379C15.4321 19.4364 14.315 20.2588 12.7694 20.29C12.166 20.3022 11.5693 20.7825 10.8651 20.6376C9.40034 20.3943 8.10496 19.868 6.77511 19.0557C5.11354 18.0406 4.83853 16.3418 3.91861 14.9727C3.83855 14.8538 3.78592 14.6384 3.83929 14.5199C4.30889 13.4967 3.7281 12.4745 3.84782 11.4226C3.95901 10.4677 4.37598 9.69849 4.724 8.90253C5.20806 7.79644 6.02124 6.86491 6.91077 6.02661C8.05604 4.94651 9.2632 3.91768 10.904 3.80885C11.5534 3.76613 12.0556 3.34828 12.7105 3.38617C15.1841 3.52954 17.1815 4.38604 18.7645 6.46712C20.141 8.27409 20.611 10.2631 20.2682 12.304L20.2697 12.3074Z" fill="white"/>
<ellipse cx="12.0417" cy="12" rx="8.79167" ry="9.75" fill="#FDCE42"/>
<path d="M13.4442 11.4187C13.7119 11.8923 14.1004 11.9308 14.3594 11.5377C14.6993 11.0227 14.9873 10.4306 15.1099 9.83169C15.1882 9.44814 15.1603 8.89925 14.7132 8.61748C14.4041 8.42142 13.966 8.44249 13.8016 8.7139C13.5325 9.15745 13.1112 9.58028 13.2298 10.2381C13.3438 10.5856 13.2223 11.0263 13.4442 11.4187ZM10.556 11.2305C10.833 11.2102 11.0406 11.1198 11.171 10.802C11.3894 10.2713 11.6667 9.77026 11.537 9.14673C11.5666 8.77747 11.5981 8.39499 11.3819 8.02823C11.057 7.47683 10.6503 7.52362 10.2848 7.91145C9.62934 8.60641 9.52142 9.91454 9.94847 10.8013C10.0839 11.0834 10.2501 11.253 10.556 11.2305V11.2305ZM16.142 11.6984C15.9894 11.5519 15.6442 11.8237 15.4987 12.0737C15.3604 12.3105 15.3833 12.5819 15.5863 12.7351C15.9276 12.9919 15.7185 13.2086 15.6442 13.485C15.2511 14.9607 14.1375 15.6121 12.791 15.9135C11.8482 16.1252 10.863 15.8381 10.1247 15.3317C9.32415 14.7821 8.83813 13.8504 8.40036 12.9429C8.08445 12.289 7.825 11.7369 8.6523 11.2737C8.92533 11.1209 9.08936 10.8452 8.94892 10.5009C8.80418 10.1463 8.47827 10.1277 8.18451 10.1813C7.80906 10.2556 7.41942 10.1947 7.08454 10.0095C6.84439 9.88311 6.56707 9.80241 6.33621 10.0631C6.10535 10.3238 6.27475 10.5734 6.33979 10.8309C6.43663 11.2123 6.84653 11.4273 6.84725 11.8691C6.84903 13.1161 7.31468 14.1321 8.08981 15.1517C9.02718 16.3852 10.1536 16.9973 11.6163 17.3069C12.202 17.4309 12.6595 17.1012 13.3495 17.2598C14.4477 17.2984 15.24 16.4156 16.0201 15.6838C16.8003 14.9521 16.8013 13.624 17.8484 13.0083C18.1822 12.8119 18.17 12.4301 18.0189 12.109C17.59 11.203 16.7098 12.2419 16.142 11.6984ZM22.646 9.76991C22.5438 8.96639 22.2726 8.2025 22.1129 7.41291C21.822 5.97871 20.663 4.93163 19.7492 3.81956C19.3854 3.37709 18.943 2.86962 18.4509 2.62285C17.0065 1.89896 15.4351 1.40149 13.843 1.21543C12.3464 1.04044 10.8229 1.35828 9.37418 1.82254C8.95321 1.95717 8.49399 1.88682 8.09553 2.20216C7.03201 3.04496 5.82446 3.691 4.85207 4.66522C4.50166 5.01917 4.17649 5.39721 3.87896 5.79658C3.27358 6.59903 2.98912 7.63218 2.30655 8.35071C2.20756 8.45463 2.15539 8.59391 2.11643 8.73176C1.9667 9.26744 1.93775 9.80312 1.72869 10.3238C1.51105 10.8702 1.26947 11.3805 1.34881 11.9883C1.41421 12.4883 1.5132 12.9619 1.49855 13.4668C1.7269 14.7307 1.80838 16.0163 2.24437 17.2387C2.43306 17.768 2.81616 18.1573 3.12063 18.5829C4.11768 19.9786 5.08615 21.4549 6.95517 21.8499C7.21962 21.9056 7.49122 21.9802 7.72887 22.1052C9.24196 22.9023 10.8916 22.8491 12.4997 22.7359C14.5263 22.593 16.341 21.7681 17.8691 20.4078C18.2122 20.1025 18.6989 20.0403 18.9695 19.6407C19.6174 18.6844 20.5015 17.8941 20.9657 16.808C21.4249 15.7331 21.8402 14.6432 22.3298 13.5832C22.5056 13.2029 22.5488 12.8079 22.5571 12.4065C22.5617 12.1762 22.5546 11.9423 22.5538 11.7101C22.5513 11.0641 22.7257 10.4106 22.6446 9.76669L22.646 9.76991ZM19.9733 12.279C19.5723 14.6589 18.63 16.9038 16.4525 18.3658C15.309 19.1336 14.2319 19.9243 12.7416 19.9543C12.1599 19.9661 11.5845 20.4278 10.9055 20.2885C9.49319 20.0546 8.24419 19.5486 6.96196 18.7676C5.35989 17.7916 5.09472 16.1581 4.20774 14.8417C4.13055 14.7275 4.0798 14.5203 4.13126 14.4064C4.58405 13.4225 4.02405 12.4397 4.13948 11.4284C4.24669 10.5102 4.64873 9.77062 4.9843 9.00531C5.45102 7.94181 6.23508 7.04615 7.09276 6.24012C8.19702 5.20162 9.36096 4.21239 10.943 4.10776C11.5691 4.06669 12.0534 3.66493 12.6848 3.70135C15.0699 3.8392 16.9957 4.66272 18.522 6.66367C19.8493 8.40106 20.3024 10.3134 19.9719 12.2758L19.9733 12.279Z" fill="black"/>
</svg>
