<svg width="24" height="24" viewBox="0 0 24 24" fill="none" xmlns="http://www.w3.org/2000/svg">
<path d="M11.6381 2C11.2508 2 10.8794 2.15381 10.6054 2.42762C10.3316 2.70143 10.1778 3.07281 10.1778 3.46032V10.6038L7.96389 8.52727C7.68377 8.2502 7.30363 8.09802 6.90981 8.10536C6.51581 8.11269 6.14159 8.27893 5.87185 8.56618C5.60232 8.85364 5.46032 9.23766 5.47804 9.63127C5.49577 10.0249 5.67178 10.3946 5.96617 10.6564L10.6393 15.0373C10.6655 15.0636 10.6977 15.0811 10.7269 15.1046C10.7643 15.1367 10.8033 15.1669 10.8438 15.1952C10.8854 15.2207 10.9281 15.2441 10.9721 15.2653C11.01 15.2857 11.0481 15.3091 11.0889 15.3238L11.0891 15.3236C11.1406 15.3431 11.1932 15.3598 11.2468 15.3733C11.2847 15.3733 11.3197 15.3967 11.3578 15.4055C11.5428 15.4432 11.7335 15.4432 11.9185 15.4055C11.9563 15.4055 11.9914 15.3851 12.0295 15.3733C12.0831 15.3598 12.1356 15.3431 12.1872 15.3236C12.2281 15.306 12.266 15.2857 12.3039 15.2651L12.3041 15.2653C12.3481 15.2441 12.3909 15.2207 12.4324 15.1952C12.473 15.1669 12.5119 15.1367 12.5494 15.1046C12.5785 15.0811 12.6107 15.0636 12.637 15.0373L17.3101 10.6564C17.6045 10.3946 17.7805 10.0249 17.7982 9.63127C17.8159 9.23767 17.6739 8.85365 17.4044 8.56618C17.1347 8.27893 16.7604 8.11269 16.3664 8.10536C15.9726 8.09802 15.5925 8.2502 15.3124 8.52727L13.0985 10.6038V3.46032C13.0985 3.07283 12.9447 2.70143 12.6709 2.42762C12.3968 2.15381 12.0255 2 11.6382 2L11.6381 2Z" fill="black"/>
<path d="M19.8159 14.9902C19.4286 14.9902 19.0572 15.1441 18.7832 15.4181C18.5094 15.6919 18.3556 16.0633 18.3556 16.4506V18.7871C18.3556 18.8645 18.3248 18.9389 18.27 18.9937C18.2152 19.0483 18.1409 19.079 18.0635 19.079H5.21276C5.0514 19.079 4.92061 18.9484 4.92061 18.7871V16.4505C4.92061 15.9288 4.64233 15.4468 4.19046 15.1858C3.73859 14.925 3.18201 14.925 2.73015 15.1858C2.27829 15.4468 2 15.9288 2 16.4505V18.7871C2 19.6391 2.33859 20.4562 2.94101 21.0589C3.54344 21.6613 4.36059 21.9997 5.21278 21.9997H18.0635C18.9157 21.9997 19.7328 21.6613 20.3352 21.0589C20.9377 20.4562 21.2763 19.6391 21.2763 18.7871V16.4505C21.2763 16.0633 21.1224 15.6919 20.8484 15.4181C20.5746 15.144 20.2032 14.9902 19.8159 14.9902L19.8159 14.9902Z" fill="black"/>
</svg>
