<svg width="24" height="24" viewBox="0 0 24 24" fill="none" xmlns="http://www.w3.org/2000/svg">
<path d="M11.9997 19.4281C11.8169 19.4281 11.6341 19.3583 11.4948 19.2188L7.20925 14.9333C6.93025 14.6543 6.93025 14.2023 7.20925 13.9233C7.48826 13.6443 7.94025 13.6443 8.21925 13.9233L11.9997 17.7049L15.7807 13.9239C16.0598 13.6449 16.5117 13.6449 16.7907 13.9239C17.0698 14.2029 17.0698 14.6549 16.7907 14.9339L12.5052 19.2194C12.3657 19.3589 12.1827 19.4281 11.9997 19.4281Z" fill="black"/>
<path d="M12.0003 4.00002C12.1831 4.00002 12.3659 4.06977 12.5052 4.20927L16.7907 8.4948C17.0698 8.7738 17.0698 9.22579 16.7907 9.5048C16.5117 9.7838 16.0598 9.7838 15.7807 9.5048L12.0003 5.72316L8.21925 9.50424C7.94025 9.78324 7.48826 9.78324 7.20925 9.50424C6.93025 9.22523 6.93025 8.77324 7.20925 8.49424L11.4948 4.20872C11.6343 4.06921 11.8173 4.00002 12.0003 4.00002Z" fill="black"/>
</svg>
