<svg width="24" height="24" viewBox="0 0 24 24" fill="none" xmlns="http://www.w3.org/2000/svg">
<path d="M11.9996 21.5136C11.7803 21.5136 11.5609 21.4299 11.3937 21.2625L6.2511 16.1198C5.9163 15.785 5.9163 15.2426 6.2511 14.9078C6.58591 14.573 7.1283 14.573 7.4631 14.9078L11.9996 19.4458L16.5369 14.9085C16.8717 14.5737 17.4141 14.5737 17.7489 14.9085C18.0837 15.2433 18.0837 15.7857 17.7489 16.1205L12.6063 21.2631C12.4389 21.4305 12.2192 21.5136 11.9996 21.5136Z" fill="black"/>
<path d="M12.0004 3.0001C12.2197 3.0001 12.4391 3.0838 12.6063 3.2512L17.7489 8.39383C18.0837 8.72864 18.0837 9.27102 17.7489 9.60583C17.4141 9.94064 16.8717 9.94064 16.5369 9.60583L12.0004 5.06786L7.4631 9.60516C7.1283 9.93997 6.58591 9.93997 6.25111 9.60516C5.9163 9.27035 5.9163 8.72797 6.25111 8.39316L11.3937 3.25053C11.5611 3.08313 11.7808 3.0001 12.0004 3.0001Z" fill="black"/>
</svg>
