<svg width="13" height="12" viewBox="0 0 13 12" fill="none" xmlns="http://www.w3.org/2000/svg">
<path d="M11.7709 3.96991L8.38196 3.47708L6.86738 0.412269C6.73382 0.138218 6.46761 -4.62847e-05 6.18289 1.16225e-08C5.93984 1.16225e-08 5.67363 0.136551 5.53937 0.412037L4.02317 3.47685L0.635899 3.96991C0.0277975 4.05787 -0.215721 4.80556 0.22502 5.2338L2.67641 7.59722L2.09724 10.9861C2.01391 11.4653 2.39817 11.8519 2.82872 11.8519C2.94289 11.8519 3.06044 11.8247 3.17317 11.765L6.20372 10.1759L9.23382 11.7662C9.34643 11.8253 9.46358 11.8522 9.57757 11.8522C10.0084 11.8522 10.3926 11.4677 10.3102 10.9862L9.73034 7.61813L12.1817 5.2547C12.6227 4.80556 12.3797 4.05787 11.7709 3.96991ZM8.56946 7.4213L9.08798 10.4329L6.37502 9.00972C6.26727 8.95319 6.13868 8.95319 6.03081 9.00972L3.31946 10.4329L3.83798 7.4213C3.85882 7.30093 3.79863 7.17824 3.7315 7.09259L1.53937 4.96088L4.56946 4.52014C4.68983 4.50232 4.794 4.42593 4.84724 4.31713L6.20372 1.57384L7.55997 4.3169C7.61393 4.42609 7.71815 4.50176 7.83868 4.51931L10.8688 4.96005L8.67664 7.09176C8.58798 7.17824 8.54863 7.30093 8.56946 7.4213Z" fill="black"/>
</svg>
