<svg width="24" height="24" viewBox="0 0 24 24" fill="none" xmlns="http://www.w3.org/2000/svg">
<g clip-path="url(#clip0_1776_235791)">
<path d="M15.5 1.00488H4L3.5 2.00488V22.5049L4.5 23.5049H19L20.5 22.5049V6.00488L15.5 1.00488Z" fill="#9BFFCB"/>
<path d="M20.3391 4.59375L16.4062 0.660938C15.9844 0.239063 15.4125 0 14.8172 0H5.25C4.00781 0.0046875 3 1.0125 3 2.25469V21.7547C3 22.9969 4.00781 24.0047 5.25 24.0047H18.75C19.9922 24.0047 21 22.9969 21 21.7547V6.1875C21 5.59219 20.7609 5.01562 20.3391 4.59375ZM19.2797 5.65781C19.3781 5.75625 19.4438 5.87344 19.4766 6.00469H15V1.52812C15.1313 1.56094 15.2484 1.62656 15.3469 1.725L19.2797 5.65781ZM18.75 22.5047H5.25C4.8375 22.5047 4.5 22.1672 4.5 21.7547V2.25469C4.5 1.84219 4.8375 1.50469 5.25 1.50469H13.5V6.37969C13.5 7.00313 14.0016 7.50469 14.625 7.50469H19.5V21.7547C19.5 22.1672 19.1625 22.5047 18.75 22.5047Z" fill="black"/>
<path d="M9.1875 15.7549L8.8125 15.7549C8.50312 15.7549 8.25 16.008 8.25 16.3174L8.25 18.1924C8.25 18.5018 8.50313 18.7549 8.8125 18.7549L9.1875 18.7549C9.49688 18.7549 9.75 18.5018 9.75 18.1924L9.75 16.3174C9.75 16.008 9.49687 15.7549 9.1875 15.7549Z" fill="black"/>
<path d="M12.1875 12.7549L11.8125 12.7549C11.5031 12.7549 11.25 13.008 11.25 13.3174L11.25 18.1924C11.25 18.5018 11.5031 18.7549 11.8125 18.7549L12.1875 18.7549C12.4969 18.7549 12.75 18.5018 12.75 18.1924L12.75 13.3174C12.75 13.008 12.4969 12.7549 12.1875 12.7549Z" fill="black"/>
<path d="M15.1875 9.75488L14.8125 9.75488C14.5031 9.75488 14.25 10.008 14.25 10.3174L14.25 18.1924C14.25 18.5018 14.5031 18.7549 14.8125 18.7549L15.1875 18.7549C15.4969 18.7549 15.75 18.5018 15.75 18.1924L15.75 10.3174C15.75 10.008 15.4969 9.75488 15.1875 9.75488Z" fill="black"/>
</g>
<defs>
<clipPath id="clip0_1776_235791">
<rect width="24" height="24" fill="white"/>
</clipPath>
</defs>
</svg>
