<svg width="24" height="24" viewBox="0 0 24 24" fill="none" xmlns="http://www.w3.org/2000/svg">
<g clip-path="url(#clip0)">
<path d="M15.5 1.00464H4L3.5 2.00464V22.5046L4.5 23.5046H19L20.5 22.5046V6.00464L15.5 1.00464Z" fill="#9BFFCB"/>
<path d="M20.3391 4.59375L16.4062 0.660938C15.9844 0.239063 15.4125 0 14.8172 0H5.25C4.00781 0.0046875 3 1.0125 3 2.25469V21.7547C3 22.9969 4.00781 24.0047 5.25 24.0047H18.75C19.9922 24.0047 21 22.9969 21 21.7547V6.1875C21 5.59219 20.7609 5.01562 20.3391 4.59375ZM19.2797 5.65781C19.3781 5.75625 19.4438 5.87344 19.4766 6.00469H15V1.52812C15.1312 1.56094 15.2484 1.62656 15.3469 1.725L19.2797 5.65781ZM18.75 22.5047H5.25C4.8375 22.5047 4.5 22.1672 4.5 21.7547V2.25469C4.5 1.84219 4.8375 1.50469 5.25 1.50469H13.5V6.37969C13.5 7.00313 14.0016 7.50469 14.625 7.50469H19.5V21.7547C19.5 22.1672 19.1625 22.5047 18.75 22.5047Z" fill="black"/>
<path d="M9.1875 15.7547L8.8125 15.7547C8.50312 15.7547 8.25 16.0078 8.25 16.3172L8.25 18.1922C8.25 18.5016 8.50313 18.7547 8.8125 18.7547L9.1875 18.7547C9.49688 18.7547 9.75 18.5016 9.75 18.1922L9.75 16.3172C9.75 16.0078 9.49687 15.7547 9.1875 15.7547Z" fill="black"/>
<path d="M12.1875 12.7547L11.8125 12.7547C11.5031 12.7547 11.25 13.0078 11.25 13.3172L11.25 18.1922C11.25 18.5016 11.5031 18.7547 11.8125 18.7547L12.1875 18.7547C12.4969 18.7547 12.75 18.5016 12.75 18.1922L12.75 13.3172C12.75 13.0078 12.4969 12.7547 12.1875 12.7547Z" fill="black"/>
<path d="M15.1875 9.7547L14.8125 9.7547C14.5031 9.7547 14.25 10.0078 14.25 10.3172L14.25 18.1922C14.25 18.5016 14.5031 18.7547 14.8125 18.7547L15.1875 18.7547C15.4969 18.7547 15.75 18.5016 15.75 18.1922L15.75 10.3172C15.75 10.0078 15.4969 9.7547 15.1875 9.7547Z" fill="black"/>
</g>
<defs>
<clipPath id="clip0">
<rect width="24" height="24" fill="white"/>
</clipPath>
</defs>
</svg>
