<svg width="24" height="24" viewBox="0 0 24 24" fill="none" xmlns="http://www.w3.org/2000/svg">
<g clip-path="url(#clip0_1614_237693)">
<path d="M15.5 1.00488H4L3.5 2.00488V22.5049L4.5 23.5049H19L20.5 22.5049V6.00488L15.5 1.00488Z" fill="#9BFFCB"/>
<path d="M20.3391 4.59375L16.4062 0.660938C15.9844 0.239063 15.4125 0 14.8172 0H5.25C4.00781 0.0046875 3 1.0125 3 2.25469V21.7547C3 22.9969 4.00781 24.0047 5.25 24.0047H18.75C19.9922 24.0047 21 22.9969 21 21.7547V6.1875C21 5.59219 20.7609 5.01562 20.3391 4.59375ZM19.2797 5.65781C19.3781 5.75625 19.4438 5.87344 19.4766 6.00469H15V1.52812C15.1313 1.56094 15.2484 1.62656 15.3469 1.725L19.2797 5.65781ZM18.75 22.5047H5.25C4.8375 22.5047 4.5 22.1672 4.5 21.7547V2.25469C4.5 1.84219 4.8375 1.50469 5.25 1.50469H13.5V6.37969C13.5 7.00313 14.0016 7.50469 14.625 7.50469H19.5V21.7547C19.5 22.1672 19.1625 22.5047 18.75 22.5047ZM16.5 11.0672V11.4422C16.5 11.7516 16.2469 12.0047 15.9375 12.0047H8.0625C7.75313 12.0047 7.5 11.7516 7.5 11.4422V11.0672C7.5 10.7578 7.75313 10.5047 8.0625 10.5047H15.9375C16.2469 10.5047 16.5 10.7578 16.5 11.0672ZM16.5 14.0672V14.4422C16.5 14.7516 16.2469 15.0047 15.9375 15.0047H8.0625C7.75313 15.0047 7.5 14.7516 7.5 14.4422V14.0672C7.5 13.7578 7.75313 13.5047 8.0625 13.5047H15.9375C16.2469 13.5047 16.5 13.7578 16.5 14.0672ZM16.5 17.0672V17.4422C16.5 17.7516 16.2469 18.0047 15.9375 18.0047H8.0625C7.75313 18.0047 7.5 17.7516 7.5 17.4422V17.0672C7.5 16.7578 7.75313 16.5047 8.0625 16.5047H15.9375C16.2469 16.5047 16.5 16.7578 16.5 17.0672Z" fill="black"/>
</g>
<defs>
<clipPath id="clip0_1614_237693">
<rect width="24" height="24" fill="white"/>
</clipPath>
</defs>
</svg>
