<svg width="24" height="24" viewBox="0 0 24 24" fill="none" xmlns="http://www.w3.org/2000/svg">
<g clip-path="url(#clip0_3244_249819)">
<path d="M11.75 12C14.5117 12 16.75 9.76133 16.75 7C16.75 4.23867 14.5117 2 11.75 2C8.98828 2 6.75 4.23867 6.75 7C6.75 9.76133 8.98828 12 11.75 12ZM13.7305 13.875H9.76953C6.03164 13.875 3 16.9062 3 20.6445C3 21.3922 3.60625 21.9988 4.35391 21.9988H19.1469C19.8945 22 20.5 21.3945 20.5 20.6445C20.5 16.9062 17.4688 13.875 13.7305 13.875Z" fill="black"/>
</g>
<defs>
<clipPath id="clip0_3244_249819">
<rect width="17.5" height="20" fill="white" transform="translate(3 2)"/>
</clipPath>
</defs>
</svg>
