<svg width="24" height="24" viewBox="0 0 24 24" fill="none" xmlns="http://www.w3.org/2000/svg">
<path d="M20.0549 4.20776C19.1445 3.38961 17.9763 2.96686 16.7964 3.00203C15.3316 3.00203 13.8532 3.60372 12.7721 4.72037L12.0024 5.51233L11.2327 4.72037C10.1504 3.60372 8.67353 3.00203 7.20838 3.00203C6.02843 3.00203 4.86139 3.39 3.91626 4.20776C1.4884 6.30938 1.36689 10.0567 3.55564 12.3189L11.1041 20.1213C11.3538 20.3768 11.6742 20.5058 11.9985 20.5058C12.324 20.5058 12.6506 20.3781 12.8975 20.1227L20.4421 12.3203C22.6375 10.0543 22.5163 6.30743 20.0549 4.20776ZM19.0976 11.0155L12.0024 18.353L4.90476 11.0155C3.64511 9.71441 3.34661 7.14745 5.14387 5.62564C6.7028 4.27613 8.83958 4.9419 9.88707 6.02299L12.0035 8.20783L14.1196 6.02299C15.1519 4.95753 17.2945 4.2691 18.8628 5.62564C20.6409 7.16698 20.3831 9.68706 19.0976 11.0155Z" fill="black"/>
</svg>
