<svg width="17" height="12" viewBox="0 0 17 12" fill="none" xmlns="http://www.w3.org/2000/svg">
<path fill-rule="evenodd" clip-rule="evenodd" d="M2.85281 0H13.6741C14.9686 0 16.0269 1.05998 16.0269 2.35281V9.64719C16.0269 10.94 14.9686 12 13.6741 12H2.85281C1.55831 12 0.5 10.94 0.5 9.64719V2.35281C0.5 1.05998 1.55831 0 2.85281 0ZM11.5921 1.72695C12.2575 1.72695 12.7962 2.26561 12.7962 2.93105C12.7962 3.59649 12.2575 4.13679 11.5921 4.13679C10.9267 4.13679 10.3863 3.59646 10.3863 2.93105C10.3863 2.26561 10.9267 1.72695 11.5921 1.72695ZM3.83173 8.31487L6.59645 3.82626C6.82776 3.56013 7.35217 3.56013 7.58349 3.82626L9.37862 6.73841L10.09 5.58339C10.2548 5.3933 10.6271 5.3933 10.792 5.58339L12.755 8.77111C13.1257 9.37321 12.7344 10.1115 12.0785 10.1115H4.78242C3.84921 10.1115 3.309 9.16246 3.83173 8.31478V8.31487Z" fill="white"/>
</svg>
