<svg width="24" height="24" viewBox="0 0 24 24" fill="none" xmlns="http://www.w3.org/2000/svg">
<path d="M12 2C6.47754 2 2 6.47915 2 12C2 17.5241 6.47754 22 12 22C17.5225 22 22 17.5241 22 12C22 6.47915 17.5225 2 12 2ZM12 6.43548C12.9353 6.43548 13.6935 7.19371 13.6935 8.12903C13.6935 9.06435 12.9353 9.82258 12 9.82258C11.0647 9.82258 10.3065 9.06435 10.3065 8.12903C10.3065 7.19371 11.0647 6.43548 12 6.43548ZM14.2581 16.6774C14.2581 16.9446 14.0414 17.1613 13.7742 17.1613H10.2258C9.95859 17.1613 9.74194 16.9446 9.74194 16.6774V15.7097C9.74194 15.4425 9.95859 15.2258 10.2258 15.2258H10.7097V12.6452H10.2258C9.95859 12.6452 9.74194 12.4285 9.74194 12.1613V11.1935C9.74194 10.9263 9.95859 10.7097 10.2258 10.7097H12.8065C13.0737 10.7097 13.2903 10.9263 13.2903 11.1935V15.2258H13.7742C14.0414 15.2258 14.2581 15.4425 14.2581 15.7097V16.6774Z" fill="black"/>
</svg>
