<svg width="24" height="24" viewBox="0 0 24 24" fill="none" xmlns="http://www.w3.org/2000/svg">
<path d="M17.1836 4.20098C16.4414 3.47368 15.5598 2.90398 14.5918 2.52643C13.6237 2.14873 12.5891 1.97108 11.5506 2.00383C9.55178 2.0769 7.65648 2.91137 6.25295 4.33627C4.84937 5.76116 4.04377 7.66883 4.00099 9.66868C3.97364 11.3723 4.51572 13.0361 5.54112 14.3968C5.68308 14.6097 9.36089 19.7229 10.5848 21.4195C10.8468 21.7816 11.2658 21.9972 11.7128 22H11.7193H11.7192C12.1634 21.9994 12.5811 21.7882 12.8452 21.4309C13.4143 20.6571 17.8497 14.5941 17.9668 14.4466C17.9736 14.4384 17.9796 14.4304 17.9856 14.4216H17.9858C18.9851 13.0752 19.5279 11.4445 19.5347 9.76779C19.5383 8.72923 19.3318 7.70087 18.9276 6.74421C18.5237 5.78754 17.9303 4.92247 17.1834 4.20091L17.1836 4.20098ZM11.7673 13.3381C10.8496 13.3381 9.96951 12.9736 9.32055 12.3246C8.6716 11.6756 8.30702 10.7956 8.30702 9.87784C8.30702 8.96009 8.67159 8.08003 9.32055 7.43108C9.96951 6.78212 10.8496 6.41755 11.7673 6.41755C12.6851 6.41755 13.5651 6.78211 14.2141 7.43108C14.863 8.08004 15.2276 8.96009 15.2276 9.87784C15.2265 10.7953 14.8617 11.6747 14.2129 12.3234C13.5642 12.9722 12.6848 13.3371 11.7673 13.3381Z" fill="black"/>
</svg>
