<svg width="24" height="24" viewBox="0 0 24 24" fill="none" xmlns="http://www.w3.org/2000/svg">
<path d="M5 5.5V5H4.5H3.25C2.28393 5 1.5 5.78215 1.5 6.75V18C1.5 19.657 2.843 21 4.5 21H19.5C21.157 21 22.5 19.657 22.5 18V4.25C22.5 3.28393 21.7179 2.5 20.75 2.5H7C6.03215 2.5 5.25 3.28393 5.25 4.25V17.375C5.25 17.4434 5.19336 17.5 5.125 17.5C5.05664 17.5 5 17.4434 5 17.375V5.5ZM12.625 17.5H8.875C8.80739 17.5 8.75 17.4426 8.75 17.375C8.75 17.3074 8.80739 17.25 8.875 17.25H12.625C12.6941 17.25 12.75 17.3059 12.75 17.375C12.75 17.4426 12.6926 17.5 12.625 17.5ZM12.625 13.75H8.875C8.80739 13.75 8.75 13.6926 8.75 13.625C8.75 13.5574 8.80739 13.5 8.875 13.5H12.625C12.6926 13.5 12.75 13.5574 12.75 13.625C12.75 13.6926 12.6926 13.75 12.625 13.75ZM18.875 17.5H15.125C15.056 17.5 15 17.444 15 17.375C15 17.3059 15.0559 17.25 15.125 17.25H18.875C18.9441 17.25 19 17.3059 19 17.375C19 17.4426 18.9426 17.5 18.875 17.5ZM18.875 13.75H15.125C15.0574 13.75 15 13.6926 15 13.625C15 13.5574 15.0574 13.5 15.125 13.5H18.875C18.9426 13.5 19 13.5574 19 13.625C19 13.6926 18.9426 13.75 18.875 13.75ZM19 9.875C19 9.94261 18.9426 10 18.875 10H8.875C8.80739 10 8.75 9.94261 8.75 9.875V6.125C8.75 6.05739 8.80739 6 8.875 6H18.875C18.9426 6 19 6.05739 19 6.125V9.875Z" fill="white" stroke="black"/>
<path d="M5 5.5V5H4.5H3.25C2.28393 5 1.5 5.78215 1.5 6.75V18C1.5 19.657 2.843 21 4.5 21H19.5C21.157 21 22.5 19.657 22.5 18V4.25C22.5 3.28393 21.7179 2.5 20.75 2.5H7C6.03215 2.5 5.25 3.28393 5.25 4.25V17.375C5.25 17.4434 5.19336 17.5 5.125 17.5C5.05664 17.5 5 17.4434 5 17.375V5.5ZM12.625 17.5H8.875C8.80739 17.5 8.75 17.4426 8.75 17.375C8.75 17.3074 8.80739 17.25 8.875 17.25H12.625C12.6941 17.25 12.75 17.3059 12.75 17.375C12.75 17.4426 12.6926 17.5 12.625 17.5ZM12.625 13.75H8.875C8.80739 13.75 8.75 13.6926 8.75 13.625C8.75 13.5574 8.80739 13.5 8.875 13.5H12.625C12.6926 13.5 12.75 13.5574 12.75 13.625C12.75 13.6926 12.6926 13.75 12.625 13.75ZM18.875 17.5H15.125C15.056 17.5 15 17.444 15 17.375C15 17.3059 15.0559 17.25 15.125 17.25H18.875C18.9441 17.25 19 17.3059 19 17.375C19 17.4426 18.9426 17.5 18.875 17.5ZM18.875 13.75H15.125C15.0574 13.75 15 13.6926 15 13.625C15 13.5574 15.0574 13.5 15.125 13.5H18.875C18.9426 13.5 19 13.5574 19 13.625C19 13.6926 18.9426 13.75 18.875 13.75ZM19 9.875C19 9.94261 18.9426 10 18.875 10H8.875C8.80739 10 8.75 9.94261 8.75 9.875V6.125C8.75 6.05739 8.80739 6 8.875 6H18.875C18.9426 6 19 6.05739 19 6.125V9.875Z" fill="white" stroke="black"/>
</svg>
