<svg width="24" height="24" viewBox="0 0 24 24" fill="none" xmlns="http://www.w3.org/2000/svg">
<path fill-rule="evenodd" clip-rule="evenodd" d="M12 2C17.523 2 22 6.47734 22 12C22 17.5227 17.5227 22 12 22C6.47734 22 2 17.5227 2 12C2 6.47734 6.47734 2 12 2ZM4.79974 12C4.79974 15.9765 8.02347 19.2003 12 19.2003C13.4822 19.2003 14.8595 18.7525 16.0044 17.9848L6.01537 7.99576C5.2477 9.14066 4.79994 10.518 4.79994 12.0002L4.79974 12ZM12 4.79974C10.5178 4.79974 9.14047 5.2475 7.99556 6.01517L17.9846 16.0042C18.7523 14.8593 19.2001 13.482 19.2001 11.9998C19.2001 8.02327 15.9763 4.79955 11.9998 4.79955L12 4.79974Z" fill="black"/>
</svg>
