<svg width="24" height="24" viewBox="0 0 24 24" fill="none" xmlns="http://www.w3.org/2000/svg">
<path fill-rule="evenodd" clip-rule="evenodd" d="M23 12C23 18.0748 18.0748 23 12 23C5.92521 23 1 18.0748 1 12C1 5.92521 5.92521 1 12 1C18.0761 1 23 5.92521 23 12ZM6.42686 12.3696L6.47433 12.295L9.33587 7.81849C9.37767 7.75293 9.47601 7.75973 9.50764 7.83091C9.9857 8.90231 10.3982 10.2348 10.2049 11.0643C10.1224 11.4056 9.89643 11.8678 9.64213 12.295C9.60935 12.3572 9.5732 12.4182 9.53477 12.477C9.51669 12.5041 9.48618 12.5199 9.4534 12.5199H6.51048C6.43138 12.5199 6.38506 12.434 6.42686 12.3696ZM19.1818 13.91V13.2014C19.1818 13.1358 19.1185 13.0884 19.0564 13.1065L15.71 14.0739C15.6919 14.0784 15.6761 14.0886 15.6637 14.1021C15.3052 14.4981 15.0005 14.7638 14.9199 14.8342L14.9144 14.839C14.7064 15.0153 14.4488 15.1114 14.1775 15.1114H12.966V13.8761H13.9289C13.9538 13.8761 13.9775 13.8671 13.9956 13.8512L14.1199 13.7371C14.173 13.6885 14.2363 13.6297 14.312 13.554C14.3184 13.5476 14.3249 13.5412 14.3314 13.5347C14.3712 13.495 14.4138 13.4526 14.4555 13.406C14.5053 13.3574 14.5539 13.3031 14.5991 13.25C14.6748 13.1686 14.7471 13.0839 14.8228 12.9946C14.8771 12.9358 14.9268 12.8691 14.9754 12.8025C15.0297 12.7392 15.0828 12.668 15.1325 12.6002C15.1509 12.5731 15.1705 12.5458 15.1905 12.5178C15.2098 12.4909 15.2295 12.4634 15.2489 12.4351C15.2851 12.3809 15.3212 12.3233 15.3517 12.269C15.4467 12.1221 15.5269 11.965 15.5947 11.8079C15.6258 11.7408 15.6507 11.67 15.6748 11.6013C15.6779 11.5925 15.6809 11.5838 15.684 11.5751C15.7111 11.4949 15.7337 11.4192 15.7507 11.3389C15.7914 11.1502 15.8004 10.9626 15.7823 10.775C15.7778 10.7162 15.7733 10.6586 15.7597 10.6043V10.5953C15.7552 10.5569 15.7462 10.5139 15.7337 10.4744C15.6931 10.2913 15.6298 10.1082 15.5495 9.92849C15.5224 9.86181 15.4908 9.794 15.4602 9.73184C15.3879 9.59737 15.3122 9.46287 15.2263 9.3329C15.209 9.30542 15.19 9.27757 15.1709 9.24978C15.1563 9.22843 15.1417 9.2071 15.128 9.18599C15.0735 9.10201 15.0123 9.02106 14.9529 8.94252C14.9396 8.92486 14.9263 8.90732 14.9133 8.8899C14.8782 8.84388 14.8398 8.79785 14.8012 8.75153C14.7801 8.72618 14.7589 8.70074 14.7381 8.67515C14.6793 8.60395 14.6217 8.53614 14.5629 8.46948C14.3527 8.23215 14.1323 8.0174 13.9357 7.83434C13.8995 7.79816 13.8599 7.76201 13.8193 7.72695C13.6667 7.58796 13.5277 7.46704 13.4113 7.37322C13.3762 7.34624 13.3448 7.31967 13.3155 7.29494C13.2957 7.27823 13.2769 7.26236 13.2587 7.24777C13.2229 7.22107 13.1918 7.19742 13.1659 7.17764C13.1501 7.16562 13.1362 7.15503 13.1242 7.14606C13.1152 7.13928 13.105 7.13476 13.0948 7.13136L12.966 7.09521V6.02836C12.966 5.85431 12.8959 5.69836 12.784 5.5842C12.6722 5.47005 12.5162 5.39999 12.3444 5.39999C12.0009 5.39999 11.7228 5.68139 11.7228 6.02836V6.74712L11.6584 6.72903L11.4833 6.67931L11.3239 6.63524C11.3234 6.63524 11.323 6.63505 11.3224 6.63482C11.3216 6.6345 11.3207 6.63412 11.3194 6.63412H11.316L10.1067 6.30636C10.0536 6.29167 10.0084 6.34931 10.0355 6.39791L10.2288 6.75504C10.2398 6.78253 10.2537 6.81001 10.268 6.83826C10.2772 6.85647 10.2866 6.87499 10.2955 6.89403C10.3271 6.95734 10.3588 7.024 10.3893 7.09069C10.4164 7.14945 10.4435 7.20709 10.4752 7.27038C10.4885 7.30019 10.5021 7.33037 10.5159 7.36098C10.5663 7.47309 10.6194 7.59097 10.6718 7.71793L10.6722 7.71898C10.7173 7.82599 10.7623 7.93302 10.8018 8.04454C10.9103 8.32594 11.0131 8.62656 11.1024 8.93509C11.1246 9.00406 11.1423 9.07081 11.1603 9.13845C11.168 9.16724 11.1757 9.19619 11.1838 9.22554L11.1962 9.27979C11.2324 9.42332 11.264 9.56571 11.2866 9.70925C11.3047 9.80757 11.3216 9.90136 11.3307 9.9963C11.3442 10.1037 11.3578 10.211 11.3623 10.3184C11.3714 10.4167 11.3759 10.5196 11.3759 10.6179C11.3759 10.8688 11.3533 11.1106 11.3002 11.3389C11.2969 11.3511 11.2936 11.3635 11.2902 11.3759C11.2753 11.4315 11.2599 11.4892 11.2414 11.5446C11.2247 11.604 11.203 11.6635 11.1804 11.7252C11.1725 11.7468 11.1645 11.7687 11.1566 11.791L11.1527 11.8015C11.1359 11.8467 11.1188 11.8928 11.0979 11.9379C10.986 12.2069 10.847 12.4747 10.7035 12.7256C10.4932 13.0974 10.2819 13.424 10.1338 13.6342C10.1248 13.6478 10.1161 13.6606 10.1076 13.673C10.0969 13.6886 10.0868 13.7034 10.0774 13.7179C10.031 13.7834 10.0785 13.8761 10.1587 13.8761H11.7228V15.1114H10.1406C9.7157 15.1114 9.32242 14.8706 9.13253 14.4853C9.03421 14.292 8.99579 14.0795 9.0184 13.8716C9.02405 13.8094 8.9777 13.7507 8.91441 13.7507H5.71838C5.66411 13.7507 5.62004 13.7947 5.62004 13.849V13.9145C5.62004 15.9533 7.26666 17.6056 9.29868 17.6056H15.0319C16.1066 17.6056 16.7168 16.6262 17.3166 15.6637C17.4838 15.3953 17.6502 15.1283 17.8256 14.8842C18.1409 14.4457 18.8993 14.0976 19.1208 14.0027C19.157 13.9869 19.1818 13.9507 19.1818 13.91Z" fill="black"/>
</svg>
