<svg width="24" height="24" viewBox="0 0 24 24" fill="none" xmlns="http://www.w3.org/2000/svg">
<mask id="path-1-outside-1_1518_232958" maskUnits="userSpaceOnUse" x="0" y="0" width="24" height="24" fill="black">
<rect fill="white" width="24" height="24"/>
<path d="M12 2C6.478 2 2 6.478 2 12C2 17.522 6.478 22 12 22C17.522 22 22 17.522 22 12C22 6.478 17.524 2 12 2ZM6.934 12.336L6.976 12.268L9.578 8.198C9.616 8.14 9.706 8.146 9.734 8.21C10.168 9.184 10.544 10.396 10.368 11.15C10.294 11.46 10.088 11.88 9.856 12.268C9.826 12.324 9.794 12.38 9.758 12.434C9.742 12.458 9.714 12.472 9.684 12.472H7.01C6.938 12.472 6.896 12.394 6.934 12.336ZM18.528 13.736C18.528 13.774 18.506 13.806 18.474 13.82C18.272 13.906 17.582 14.224 17.296 14.622C16.564 15.64 16.006 17.096 14.756 17.096H9.544C7.696 17.096 6.2 15.594 6.2 13.74V13.68C6.2 13.632 6.24 13.592 6.29 13.592H9.194C9.252 13.592 9.294 13.644 9.29 13.702C9.268 13.89 9.304 14.084 9.394 14.26C9.566 14.61 9.924 14.828 10.31 14.828H11.748V13.706H10.326C10.254 13.706 10.21 13.622 10.252 13.562C10.268 13.538 10.284 13.514 10.304 13.486C10.438 13.294 10.63 12.998 10.822 12.66C10.952 12.432 11.078 12.188 11.18 11.944C11.2 11.9 11.216 11.854 11.234 11.81C11.262 11.732 11.29 11.658 11.31 11.586C11.33 11.524 11.348 11.46 11.364 11.4C11.412 11.192 11.432 10.972 11.432 10.744C11.432 10.654 11.428 10.56 11.42 10.472C11.416 10.374 11.404 10.276 11.392 10.178C11.384 10.092 11.368 10.006 11.352 9.918C11.33 9.788 11.302 9.658 11.27 9.528L11.258 9.478C11.234 9.388 11.212 9.304 11.184 9.214C11.102 8.934 11.01 8.66 10.91 8.404C10.874 8.302 10.834 8.204 10.792 8.108C10.732 7.96 10.67 7.826 10.614 7.7C10.584 7.642 10.56 7.59 10.536 7.536C10.508 7.476 10.48 7.416 10.45 7.358C10.43 7.314 10.406 7.272 10.39 7.232L10.214 6.908C10.19 6.864 10.23 6.81 10.278 6.824L11.378 7.122H11.382C11.384 7.122 11.384 7.122 11.386 7.122L11.53 7.164L11.69 7.208L11.748 7.224V6.572C11.748 6.256 12 6 12.314 6C12.47 6 12.612 6.064 12.712 6.168C12.814 6.272 12.878 6.414 12.878 6.572V7.542L12.996 7.574C13.004 7.578 13.014 7.582 13.022 7.588C13.05 7.608 13.092 7.64 13.144 7.68C13.186 7.712 13.23 7.752 13.282 7.794C13.388 7.88 13.516 7.99 13.654 8.116C13.69 8.148 13.726 8.18 13.76 8.214C13.938 8.38 14.138 8.574 14.33 8.79C14.384 8.852 14.436 8.912 14.49 8.978C14.542 9.044 14.6 9.108 14.648 9.172C14.714 9.258 14.782 9.348 14.844 9.442C14.872 9.486 14.906 9.532 14.932 9.576C15.012 9.694 15.08 9.816 15.146 9.938C15.174 9.994 15.202 10.056 15.226 10.116C15.3 10.28 15.358 10.446 15.394 10.614C15.406 10.65 15.414 10.688 15.418 10.724V10.732C15.43 10.78 15.434 10.832 15.438 10.886C15.454 11.056 15.446 11.228 15.41 11.4C15.394 11.472 15.374 11.54 15.35 11.614C15.324 11.684 15.3 11.756 15.268 11.826C15.206 11.968 15.134 12.112 15.048 12.244C15.02 12.294 14.986 12.346 14.954 12.396C14.918 12.448 14.88 12.498 14.848 12.546C14.802 12.608 14.754 12.672 14.704 12.73C14.66 12.79 14.616 12.85 14.566 12.904C14.498 12.986 14.432 13.062 14.362 13.136C14.322 13.184 14.278 13.234 14.232 13.278C14.188 13.328 14.142 13.372 14.102 13.412C14.032 13.482 13.976 13.534 13.928 13.58L13.814 13.682C13.798 13.698 13.776 13.706 13.754 13.706H12.878V14.828H13.98C14.226 14.828 14.46 14.742 14.65 14.58C14.714 14.524 14.996 14.28 15.33 13.912C15.342 13.898 15.356 13.89 15.372 13.886L18.414 13.006C18.472 12.99 18.528 13.032 18.528 13.092V13.736Z"/>
</mask>
<path d="M12 2C6.478 2 2 6.478 2 12C2 17.522 6.478 22 12 22C17.522 22 22 17.522 22 12C22 6.478 17.524 2 12 2ZM6.934 12.336L6.976 12.268L9.578 8.198C9.616 8.14 9.706 8.146 9.734 8.21C10.168 9.184 10.544 10.396 10.368 11.15C10.294 11.46 10.088 11.88 9.856 12.268C9.826 12.324 9.794 12.38 9.758 12.434C9.742 12.458 9.714 12.472 9.684 12.472H7.01C6.938 12.472 6.896 12.394 6.934 12.336ZM18.528 13.736C18.528 13.774 18.506 13.806 18.474 13.82C18.272 13.906 17.582 14.224 17.296 14.622C16.564 15.64 16.006 17.096 14.756 17.096H9.544C7.696 17.096 6.2 15.594 6.2 13.74V13.68C6.2 13.632 6.24 13.592 6.29 13.592H9.194C9.252 13.592 9.294 13.644 9.29 13.702C9.268 13.89 9.304 14.084 9.394 14.26C9.566 14.61 9.924 14.828 10.31 14.828H11.748V13.706H10.326C10.254 13.706 10.21 13.622 10.252 13.562C10.268 13.538 10.284 13.514 10.304 13.486C10.438 13.294 10.63 12.998 10.822 12.66C10.952 12.432 11.078 12.188 11.18 11.944C11.2 11.9 11.216 11.854 11.234 11.81C11.262 11.732 11.29 11.658 11.31 11.586C11.33 11.524 11.348 11.46 11.364 11.4C11.412 11.192 11.432 10.972 11.432 10.744C11.432 10.654 11.428 10.56 11.42 10.472C11.416 10.374 11.404 10.276 11.392 10.178C11.384 10.092 11.368 10.006 11.352 9.918C11.33 9.788 11.302 9.658 11.27 9.528L11.258 9.478C11.234 9.388 11.212 9.304 11.184 9.214C11.102 8.934 11.01 8.66 10.91 8.404C10.874 8.302 10.834 8.204 10.792 8.108C10.732 7.96 10.67 7.826 10.614 7.7C10.584 7.642 10.56 7.59 10.536 7.536C10.508 7.476 10.48 7.416 10.45 7.358C10.43 7.314 10.406 7.272 10.39 7.232L10.214 6.908C10.19 6.864 10.23 6.81 10.278 6.824L11.378 7.122H11.382C11.384 7.122 11.384 7.122 11.386 7.122L11.53 7.164L11.69 7.208L11.748 7.224V6.572C11.748 6.256 12 6 12.314 6C12.47 6 12.612 6.064 12.712 6.168C12.814 6.272 12.878 6.414 12.878 6.572V7.542L12.996 7.574C13.004 7.578 13.014 7.582 13.022 7.588C13.05 7.608 13.092 7.64 13.144 7.68C13.186 7.712 13.23 7.752 13.282 7.794C13.388 7.88 13.516 7.99 13.654 8.116C13.69 8.148 13.726 8.18 13.76 8.214C13.938 8.38 14.138 8.574 14.33 8.79C14.384 8.852 14.436 8.912 14.49 8.978C14.542 9.044 14.6 9.108 14.648 9.172C14.714 9.258 14.782 9.348 14.844 9.442C14.872 9.486 14.906 9.532 14.932 9.576C15.012 9.694 15.08 9.816 15.146 9.938C15.174 9.994 15.202 10.056 15.226 10.116C15.3 10.28 15.358 10.446 15.394 10.614C15.406 10.65 15.414 10.688 15.418 10.724V10.732C15.43 10.78 15.434 10.832 15.438 10.886C15.454 11.056 15.446 11.228 15.41 11.4C15.394 11.472 15.374 11.54 15.35 11.614C15.324 11.684 15.3 11.756 15.268 11.826C15.206 11.968 15.134 12.112 15.048 12.244C15.02 12.294 14.986 12.346 14.954 12.396C14.918 12.448 14.88 12.498 14.848 12.546C14.802 12.608 14.754 12.672 14.704 12.73C14.66 12.79 14.616 12.85 14.566 12.904C14.498 12.986 14.432 13.062 14.362 13.136C14.322 13.184 14.278 13.234 14.232 13.278C14.188 13.328 14.142 13.372 14.102 13.412C14.032 13.482 13.976 13.534 13.928 13.58L13.814 13.682C13.798 13.698 13.776 13.706 13.754 13.706H12.878V14.828H13.98C14.226 14.828 14.46 14.742 14.65 14.58C14.714 14.524 14.996 14.28 15.33 13.912C15.342 13.898 15.356 13.89 15.372 13.886L18.414 13.006C18.472 12.99 18.528 13.032 18.528 13.092V13.736Z" fill="#EDEFEE"/>
<path d="M12 2C6.478 2 2 6.478 2 12C2 17.522 6.478 22 12 22C17.522 22 22 17.522 22 12C22 6.478 17.524 2 12 2ZM6.934 12.336L6.976 12.268L9.578 8.198C9.616 8.14 9.706 8.146 9.734 8.21C10.168 9.184 10.544 10.396 10.368 11.15C10.294 11.46 10.088 11.88 9.856 12.268C9.826 12.324 9.794 12.38 9.758 12.434C9.742 12.458 9.714 12.472 9.684 12.472H7.01C6.938 12.472 6.896 12.394 6.934 12.336ZM18.528 13.736C18.528 13.774 18.506 13.806 18.474 13.82C18.272 13.906 17.582 14.224 17.296 14.622C16.564 15.64 16.006 17.096 14.756 17.096H9.544C7.696 17.096 6.2 15.594 6.2 13.74V13.68C6.2 13.632 6.24 13.592 6.29 13.592H9.194C9.252 13.592 9.294 13.644 9.29 13.702C9.268 13.89 9.304 14.084 9.394 14.26C9.566 14.61 9.924 14.828 10.31 14.828H11.748V13.706H10.326C10.254 13.706 10.21 13.622 10.252 13.562C10.268 13.538 10.284 13.514 10.304 13.486C10.438 13.294 10.63 12.998 10.822 12.66C10.952 12.432 11.078 12.188 11.18 11.944C11.2 11.9 11.216 11.854 11.234 11.81C11.262 11.732 11.29 11.658 11.31 11.586C11.33 11.524 11.348 11.46 11.364 11.4C11.412 11.192 11.432 10.972 11.432 10.744C11.432 10.654 11.428 10.56 11.42 10.472C11.416 10.374 11.404 10.276 11.392 10.178C11.384 10.092 11.368 10.006 11.352 9.918C11.33 9.788 11.302 9.658 11.27 9.528L11.258 9.478C11.234 9.388 11.212 9.304 11.184 9.214C11.102 8.934 11.01 8.66 10.91 8.404C10.874 8.302 10.834 8.204 10.792 8.108C10.732 7.96 10.67 7.826 10.614 7.7C10.584 7.642 10.56 7.59 10.536 7.536C10.508 7.476 10.48 7.416 10.45 7.358C10.43 7.314 10.406 7.272 10.39 7.232L10.214 6.908C10.19 6.864 10.23 6.81 10.278 6.824L11.378 7.122H11.382C11.384 7.122 11.384 7.122 11.386 7.122L11.53 7.164L11.69 7.208L11.748 7.224V6.572C11.748 6.256 12 6 12.314 6C12.47 6 12.612 6.064 12.712 6.168C12.814 6.272 12.878 6.414 12.878 6.572V7.542L12.996 7.574C13.004 7.578 13.014 7.582 13.022 7.588C13.05 7.608 13.092 7.64 13.144 7.68C13.186 7.712 13.23 7.752 13.282 7.794C13.388 7.88 13.516 7.99 13.654 8.116C13.69 8.148 13.726 8.18 13.76 8.214C13.938 8.38 14.138 8.574 14.33 8.79C14.384 8.852 14.436 8.912 14.49 8.978C14.542 9.044 14.6 9.108 14.648 9.172C14.714 9.258 14.782 9.348 14.844 9.442C14.872 9.486 14.906 9.532 14.932 9.576C15.012 9.694 15.08 9.816 15.146 9.938C15.174 9.994 15.202 10.056 15.226 10.116C15.3 10.28 15.358 10.446 15.394 10.614C15.406 10.65 15.414 10.688 15.418 10.724V10.732C15.43 10.78 15.434 10.832 15.438 10.886C15.454 11.056 15.446 11.228 15.41 11.4C15.394 11.472 15.374 11.54 15.35 11.614C15.324 11.684 15.3 11.756 15.268 11.826C15.206 11.968 15.134 12.112 15.048 12.244C15.02 12.294 14.986 12.346 14.954 12.396C14.918 12.448 14.88 12.498 14.848 12.546C14.802 12.608 14.754 12.672 14.704 12.73C14.66 12.79 14.616 12.85 14.566 12.904C14.498 12.986 14.432 13.062 14.362 13.136C14.322 13.184 14.278 13.234 14.232 13.278C14.188 13.328 14.142 13.372 14.102 13.412C14.032 13.482 13.976 13.534 13.928 13.58L13.814 13.682C13.798 13.698 13.776 13.706 13.754 13.706H12.878V14.828H13.98C14.226 14.828 14.46 14.742 14.65 14.58C14.714 14.524 14.996 14.28 15.33 13.912C15.342 13.898 15.356 13.89 15.372 13.886L18.414 13.006C18.472 12.99 18.528 13.032 18.528 13.092V13.736Z" stroke="black" stroke-width="4" mask="url(#path-1-outside-1_1518_232958)"/>
</svg>
