<svg width="24" height="24" viewBox="0 0 24 24" fill="none" xmlns="http://www.w3.org/2000/svg">
<mask id="path-1-outside-1" maskUnits="userSpaceOnUse" x="0" y="0" width="24" height="24" fill="black">
<rect fill="white" width="24" height="24"/>
<path fill-rule="evenodd" clip-rule="evenodd" d="M22 12C22 17.5225 17.5225 22 12 22C6.47747 22 2 17.5225 2 12C2 6.47747 6.47747 2 12 2C17.5237 2 22 6.47747 22 12ZM6.93349 12.336L6.97665 12.2682L9.57805 8.19865C9.61605 8.13905 9.70545 8.14523 9.7342 8.20994C10.1688 9.18394 10.5438 10.3953 10.3681 11.1494C10.2931 11.4596 10.0876 11.8799 9.85647 12.2682C9.82667 12.3247 9.7938 12.3802 9.75887 12.4336C9.74242 12.4583 9.71469 12.4727 9.68489 12.4727H7.00951C6.9376 12.4727 6.89549 12.3946 6.93349 12.336ZM18.529 13.7363V13.0922C18.529 13.0326 18.4715 12.9894 18.415 13.0059L15.3728 13.8853C15.3564 13.8894 15.342 13.8987 15.3307 13.911C15.0048 14.271 14.7279 14.5125 14.6546 14.5765L14.6495 14.5809C14.4605 14.7411 14.2262 14.8285 13.9796 14.8285H12.8783V13.7055H13.7536C13.7762 13.7055 13.7978 13.6973 13.8142 13.6829L13.9272 13.5791C13.9755 13.535 14.0331 13.4815 14.1019 13.4127C14.1077 13.4069 14.1136 13.4011 14.1195 13.3951C14.1557 13.3591 14.1944 13.3205 14.2324 13.2781C14.2776 13.2339 14.3218 13.1846 14.3629 13.1363C14.4317 13.0624 14.4975 12.9853 14.5663 12.9041C14.6156 12.8507 14.6608 12.7901 14.705 12.7295C14.7543 12.6719 14.8026 12.6072 14.8478 12.5456C14.8645 12.521 14.8824 12.4961 14.9005 12.4707C14.9181 12.4463 14.936 12.4213 14.9536 12.3956C14.9865 12.3463 15.0194 12.2939 15.0471 12.2445C15.1334 12.111 15.2064 11.9682 15.268 11.8254C15.2963 11.7643 15.3188 11.7 15.3408 11.6375C15.3436 11.6295 15.3464 11.6216 15.3492 11.6137C15.3738 11.5408 15.3944 11.4719 15.4098 11.399C15.4468 11.2274 15.455 11.0569 15.4386 10.8863C15.4344 10.8329 15.4303 10.7805 15.418 10.7312V10.723C15.4139 10.688 15.4057 10.649 15.3944 10.613C15.3574 10.4466 15.2999 10.2801 15.2269 10.1168C15.2023 10.0562 15.1735 9.99452 15.1458 9.93801C15.08 9.81577 15.0112 9.6935 14.9331 9.57534C14.9174 9.55036 14.9001 9.52505 14.8828 9.49978C14.8695 9.48037 14.8562 9.46098 14.8437 9.44179C14.7942 9.36544 14.7385 9.29185 14.6846 9.22045C14.6724 9.20439 14.6604 9.18845 14.6485 9.17261C14.6166 9.13078 14.5817 9.08894 14.5466 9.04683C14.5274 9.02378 14.5081 9.00065 14.4892 8.97739C14.4358 8.91265 14.3834 8.85101 14.33 8.79041C14.1389 8.57466 13.9386 8.37943 13.7598 8.21301C13.7269 8.18012 13.6909 8.14725 13.654 8.11539C13.5152 7.98903 13.3889 7.8791 13.2831 7.79381C13.2512 7.76929 13.2226 7.74513 13.196 7.72265C13.178 7.70746 13.1609 7.69303 13.1444 7.67977C13.1118 7.6555 13.0835 7.634 13.06 7.61602C13.0456 7.60509 13.033 7.59546 13.0221 7.5873C13.0139 7.58114 13.0046 7.57703 12.9954 7.57394L12.8783 7.54108V6.57121C12.8783 6.41299 12.8146 6.27121 12.7128 6.16743C12.6111 6.06366 12.4694 5.99997 12.3132 5.99997C12.0009 5.99997 11.7481 6.25579 11.7481 6.57121V7.22463L11.6896 7.20819L11.5303 7.16299L11.3854 7.12292C11.3844 7.12292 11.3834 7.1219 11.3813 7.1219H11.3782L10.2789 6.82394C10.2306 6.81059 10.1895 6.86299 10.2142 6.90717L10.3899 7.23183C10.3999 7.25682 10.4125 7.28181 10.4255 7.30749C10.4339 7.32404 10.4425 7.34088 10.4505 7.35819C10.4793 7.41574 10.508 7.47634 10.5358 7.53697C10.5604 7.59039 10.5851 7.64279 10.6139 7.70032C10.626 7.72742 10.6383 7.75485 10.6508 7.78266C10.6967 7.88459 10.745 7.99176 10.7926 8.10719L10.793 8.10812C10.834 8.20541 10.8749 8.30271 10.9108 8.4041C11.0094 8.65992 11.1029 8.93321 11.1841 9.2137C11.2042 9.27639 11.2204 9.33707 11.2367 9.39857C11.2437 9.42474 11.2507 9.45106 11.258 9.47774L11.2693 9.52705C11.3022 9.65754 11.331 9.78699 11.3515 9.91748C11.368 10.0069 11.3834 10.0921 11.3916 10.1784L11.3916 10.1785C11.4039 10.2761 11.4163 10.3736 11.4204 10.4712C11.4286 10.5606 11.4327 10.6541 11.4327 10.7435C11.4327 10.9716 11.4122 11.1915 11.3639 11.399C11.3609 11.4101 11.3578 11.4213 11.3548 11.4327C11.3413 11.4832 11.3272 11.5356 11.3104 11.586C11.2952 11.64 11.2755 11.6941 11.255 11.7502C11.2478 11.7698 11.2406 11.7897 11.2334 11.8099L11.2298 11.8195C11.2146 11.8606 11.199 11.9025 11.18 11.9435C11.0782 12.188 10.9519 12.4315 10.8214 12.6596C10.6303 12.9976 10.4382 13.2946 10.3036 13.4857C10.2954 13.4979 10.2874 13.5096 10.2797 13.5209C10.27 13.535 10.2608 13.5485 10.2522 13.5617C10.2101 13.6213 10.2532 13.7055 10.3262 13.7055H11.7481V14.8285H10.3098C9.92344 14.8285 9.56591 14.6096 9.39328 14.2593C9.30391 14.0836 9.26897 13.8905 9.28953 13.7014C9.29466 13.6449 9.25253 13.5915 9.195 13.5915H6.28951C6.24017 13.5915 6.20011 13.6315 6.20011 13.6809V13.7405C6.20011 15.5939 7.69704 17.096 9.54433 17.096H14.7564C15.7333 17.096 16.2881 16.2057 16.8334 15.3306C16.9854 15.0867 17.1366 14.8439 17.2961 14.622C17.5828 14.2233 18.2722 13.9069 18.4735 13.8206C18.5064 13.8062 18.529 13.7733 18.529 13.7363Z"/>
</mask>
<path fill-rule="evenodd" clip-rule="evenodd" d="M22 12C22 17.5225 17.5225 22 12 22C6.47747 22 2 17.5225 2 12C2 6.47747 6.47747 2 12 2C17.5237 2 22 6.47747 22 12ZM6.93349 12.336L6.97665 12.2682L9.57805 8.19865C9.61605 8.13905 9.70545 8.14523 9.7342 8.20994C10.1688 9.18394 10.5438 10.3953 10.3681 11.1494C10.2931 11.4596 10.0876 11.8799 9.85647 12.2682C9.82667 12.3247 9.7938 12.3802 9.75887 12.4336C9.74242 12.4583 9.71469 12.4727 9.68489 12.4727H7.00951C6.9376 12.4727 6.89549 12.3946 6.93349 12.336ZM18.529 13.7363V13.0922C18.529 13.0326 18.4715 12.9894 18.415 13.0059L15.3728 13.8853C15.3564 13.8894 15.342 13.8987 15.3307 13.911C15.0048 14.271 14.7279 14.5125 14.6546 14.5765L14.6495 14.5809C14.4605 14.7411 14.2262 14.8285 13.9796 14.8285H12.8783V13.7055H13.7536C13.7762 13.7055 13.7978 13.6973 13.8142 13.6829L13.9272 13.5791C13.9755 13.535 14.0331 13.4815 14.1019 13.4127C14.1077 13.4069 14.1136 13.4011 14.1195 13.3951C14.1557 13.3591 14.1944 13.3205 14.2324 13.2781C14.2776 13.2339 14.3218 13.1846 14.3629 13.1363C14.4317 13.0624 14.4975 12.9853 14.5663 12.9041C14.6156 12.8507 14.6608 12.7901 14.705 12.7295C14.7543 12.6719 14.8026 12.6072 14.8478 12.5456C14.8645 12.521 14.8824 12.4961 14.9005 12.4707C14.9181 12.4463 14.936 12.4213 14.9536 12.3956C14.9865 12.3463 15.0194 12.2939 15.0471 12.2445C15.1334 12.111 15.2064 11.9682 15.268 11.8254C15.2963 11.7643 15.3188 11.7 15.3408 11.6375C15.3436 11.6295 15.3464 11.6216 15.3492 11.6137C15.3738 11.5408 15.3944 11.4719 15.4098 11.399C15.4468 11.2274 15.455 11.0569 15.4386 10.8863C15.4344 10.8329 15.4303 10.7805 15.418 10.7312V10.723C15.4139 10.688 15.4057 10.649 15.3944 10.613C15.3574 10.4466 15.2999 10.2801 15.2269 10.1168C15.2023 10.0562 15.1735 9.99452 15.1458 9.93801C15.08 9.81577 15.0112 9.6935 14.9331 9.57534C14.9174 9.55036 14.9001 9.52505 14.8828 9.49978C14.8695 9.48037 14.8562 9.46098 14.8437 9.44179C14.7942 9.36544 14.7385 9.29185 14.6846 9.22045C14.6724 9.20439 14.6604 9.18845 14.6485 9.17261C14.6166 9.13078 14.5817 9.08894 14.5466 9.04683C14.5274 9.02378 14.5081 9.00065 14.4892 8.97739C14.4358 8.91265 14.3834 8.85101 14.33 8.79041C14.1389 8.57466 13.9386 8.37943 13.7598 8.21301C13.7269 8.18012 13.6909 8.14725 13.654 8.11539C13.5152 7.98903 13.3889 7.8791 13.2831 7.79381C13.2512 7.76929 13.2226 7.74513 13.196 7.72265C13.178 7.70746 13.1609 7.69303 13.1444 7.67977C13.1118 7.6555 13.0835 7.634 13.06 7.61602C13.0456 7.60509 13.033 7.59546 13.0221 7.5873C13.0139 7.58114 13.0046 7.57703 12.9954 7.57394L12.8783 7.54108V6.57121C12.8783 6.41299 12.8146 6.27121 12.7128 6.16743C12.6111 6.06366 12.4694 5.99997 12.3132 5.99997C12.0009 5.99997 11.7481 6.25579 11.7481 6.57121V7.22463L11.6896 7.20819L11.5303 7.16299L11.3854 7.12292C11.3844 7.12292 11.3834 7.1219 11.3813 7.1219H11.3782L10.2789 6.82394C10.2306 6.81059 10.1895 6.86299 10.2142 6.90717L10.3899 7.23183C10.3999 7.25682 10.4125 7.28181 10.4255 7.30749C10.4339 7.32404 10.4425 7.34088 10.4505 7.35819C10.4793 7.41574 10.508 7.47634 10.5358 7.53697C10.5604 7.59039 10.5851 7.64279 10.6139 7.70032C10.626 7.72742 10.6383 7.75485 10.6508 7.78266C10.6967 7.88459 10.745 7.99176 10.7926 8.10719L10.793 8.10812C10.834 8.20541 10.8749 8.30271 10.9108 8.4041C11.0094 8.65992 11.1029 8.93321 11.1841 9.2137C11.2042 9.27639 11.2204 9.33707 11.2367 9.39857C11.2437 9.42474 11.2507 9.45106 11.258 9.47774L11.2693 9.52705C11.3022 9.65754 11.331 9.78699 11.3515 9.91748C11.368 10.0069 11.3834 10.0921 11.3916 10.1784L11.3916 10.1785C11.4039 10.2761 11.4163 10.3736 11.4204 10.4712C11.4286 10.5606 11.4327 10.6541 11.4327 10.7435C11.4327 10.9716 11.4122 11.1915 11.3639 11.399C11.3609 11.4101 11.3578 11.4213 11.3548 11.4327C11.3413 11.4832 11.3272 11.5356 11.3104 11.586C11.2952 11.64 11.2755 11.6941 11.255 11.7502C11.2478 11.7698 11.2406 11.7897 11.2334 11.8099L11.2298 11.8195C11.2146 11.8606 11.199 11.9025 11.18 11.9435C11.0782 12.188 10.9519 12.4315 10.8214 12.6596C10.6303 12.9976 10.4382 13.2946 10.3036 13.4857C10.2954 13.4979 10.2874 13.5096 10.2797 13.5209C10.27 13.535 10.2608 13.5485 10.2522 13.5617C10.2101 13.6213 10.2532 13.7055 10.3262 13.7055H11.7481V14.8285H10.3098C9.92344 14.8285 9.56591 14.6096 9.39328 14.2593C9.30391 14.0836 9.26897 13.8905 9.28953 13.7014C9.29466 13.6449 9.25253 13.5915 9.195 13.5915H6.28951C6.24017 13.5915 6.20011 13.6315 6.20011 13.6809V13.7405C6.20011 15.5939 7.69704 17.096 9.54433 17.096H14.7564C15.7333 17.096 16.2881 16.2057 16.8334 15.3306C16.9854 15.0867 17.1366 14.8439 17.2961 14.622C17.5828 14.2233 18.2722 13.9069 18.4735 13.8206C18.5064 13.8062 18.529 13.7733 18.529 13.7363Z" fill="#EDEFEE"/>
<path d="M6.97665 12.2682L5.29151 11.191L5.28944 11.1943L6.97665 12.2682ZM6.93349 12.336L8.61136 13.4245L8.61606 13.4172L8.62069 13.4099L6.93349 12.336ZM9.57805 8.19865L11.2632 9.27584L11.2644 9.27386L9.57805 8.19865ZM9.7342 8.20994L7.90653 9.0221L7.90777 9.02489L9.7342 8.20994ZM10.3681 11.1494L12.3121 11.6193L12.3141 11.6112L12.3159 11.6032L10.3681 11.1494ZM9.85647 12.2682L8.13791 11.2452L8.11148 11.2896L8.08738 11.3353L9.85647 12.2682ZM9.75887 12.4336L11.4225 13.5437L11.4277 13.536L11.4328 13.5282L9.75887 12.4336ZM18.415 13.0059L18.9704 14.9272L18.9738 14.9262L18.415 13.0059ZM15.3728 13.8853L15.8584 15.8255L15.8935 15.8167L15.9282 15.8066L15.3728 13.8853ZM15.3307 13.911L13.8553 12.5607L13.848 12.5687L15.3307 13.911ZM14.6546 14.5765L13.3399 13.0693L13.3397 13.0694L14.6546 14.5765ZM14.6495 14.5809L15.9428 16.1064L15.9536 16.0973L15.9643 16.0879L14.6495 14.5809ZM12.8783 14.8285H10.8783V16.8285H12.8783V14.8285ZM12.8783 13.7055V11.7055H10.8783V13.7055H12.8783ZM13.8142 13.6829L15.1316 15.1877L15.1495 15.1721L15.1669 15.1561L13.8142 13.6829ZM13.9272 13.5791L12.5772 12.1035L12.5746 12.106L13.9272 13.5791ZM14.1019 13.4127L12.6877 11.9985L12.6877 11.9985L14.1019 13.4127ZM14.1195 13.3951L15.5312 14.8118L15.5313 14.8118L14.1195 13.3951ZM14.2324 13.2781L12.8348 11.8475L12.7872 11.894L12.7428 11.9436L14.2324 13.2781ZM14.3629 13.1363L12.8988 11.7738L12.8685 11.8064L12.8397 11.8403L14.3629 13.1363ZM14.5663 12.9041L13.0966 11.5476L13.0681 11.5785L13.0409 11.6106L14.5663 12.9041ZM14.705 12.7295L13.1864 11.4279L13.1351 11.4878L13.0887 11.5516L14.705 12.7295ZM14.8478 12.5456L16.4607 13.7282L16.4812 13.7002L16.5008 13.6714L14.8478 12.5456ZM14.9005 12.4707L13.2747 11.3061L13.2746 11.3061L14.9005 12.4707ZM14.9536 12.3956L16.6027 13.5272L16.6102 13.5163L16.6175 13.5053L14.9536 12.3956ZM15.0471 12.2445L13.3674 11.159L13.334 11.2106L13.3039 11.2641L15.0471 12.2445ZM15.268 11.8254L13.4528 10.9857L13.442 11.0091L13.4318 11.0327L15.268 11.8254ZM15.3408 11.6375L17.2278 12.3004L17.2278 12.3003L15.3408 11.6375ZM15.3492 11.6137L17.2351 12.2795L17.2395 12.2669L17.2438 12.2543L15.3492 11.6137ZM15.4098 11.399L13.4547 10.9776L13.453 10.9853L15.4098 11.399ZM15.4386 10.8863L13.4444 11.0398L13.4459 11.0591L13.4478 11.0783L15.4386 10.8863ZM15.418 10.7312H13.418V10.9769L13.4775 11.2154L15.418 10.7312ZM15.418 10.723H17.418V10.6057L17.4043 10.4892L15.418 10.723ZM15.3944 10.613L13.442 11.0468L13.4607 11.131L13.4866 11.2132L15.3944 10.613ZM15.2269 10.1168L13.3741 10.87L13.3869 10.9014L13.4008 10.9324L15.2269 10.1168ZM15.1458 9.93801L16.9412 9.0569L16.9248 9.02342L16.9071 8.99057L15.1458 9.93801ZM14.9331 9.57534L13.2396 10.6393L13.2518 10.6587L13.2644 10.6779L14.9331 9.57534ZM14.8828 9.49978L13.2325 10.6297L13.2325 10.6297L14.8828 9.49978ZM14.8437 9.44179L13.1655 10.5297L13.1679 10.5334L14.8437 9.44179ZM14.6846 9.22045L16.2799 8.01423L16.2798 8.01419L14.6846 9.22045ZM14.6485 9.17261L16.2483 7.97243L16.2439 7.96654L16.2395 7.96068L14.6485 9.17261ZM14.5466 9.04683L16.0829 7.76619L16.0828 7.76616L14.5466 9.04683ZM14.4892 8.97739L16.0415 7.71628L16.0367 7.71031L16.0318 7.70437L14.4892 8.97739ZM14.33 8.79041L15.8303 7.46784L15.8271 7.46429L14.33 8.79041ZM13.7598 8.21301L12.3451 9.62674L12.3706 9.65229L12.397 9.6769L13.7598 8.21301ZM13.654 8.11539L12.3071 9.59392L12.3275 9.61246L12.3483 9.63043L13.654 8.11539ZM13.2831 7.79381L14.5381 6.23661L14.5204 6.22235L14.5024 6.2085L13.2831 7.79381ZM13.196 7.72265L14.4868 6.195L14.4868 6.19498L13.196 7.72265ZM13.1444 7.67977L14.3937 6.118L14.3667 6.09637L14.3389 6.07569L13.1444 7.67977ZM13.06 7.61602L14.2722 6.02529L14.2722 6.02528L13.06 7.61602ZM13.0221 7.5873L14.2225 5.9876L14.2208 5.9863L13.0221 7.5873ZM12.9954 7.57394L13.6278 5.67658L13.5821 5.66135L13.5358 5.64834L12.9954 7.57394ZM12.8783 7.54108H10.8783V9.05706L12.3379 9.46668L12.8783 7.54108ZM12.7128 6.16743L14.1412 4.76752L14.1412 4.76751L12.7128 6.16743ZM11.7481 7.22463L11.2073 9.15014L13.7481 9.86368V7.22463H11.7481ZM11.6896 7.20819L11.1434 9.13219L11.1488 9.1337L11.6896 7.20819ZM11.5303 7.16299L12.0764 5.23895L12.0634 5.23536L11.5303 7.16299ZM11.3854 7.12292L11.9186 5.19529L11.6569 5.12292H11.3854V7.12292ZM11.3782 7.1219L10.855 9.05226L11.112 9.1219H11.3782V7.1219ZM10.2789 6.82394L9.74553 8.75154L9.75572 8.7543L10.2789 6.82394ZM10.2142 6.90717L11.9732 5.95532L11.9669 5.9437L11.9604 5.93215L10.2142 6.90717ZM10.3899 7.23183L12.2471 6.48959L12.204 6.38194L12.1489 6.27999L10.3899 7.23183ZM10.4255 7.30749L8.64139 8.21126L8.6414 8.21128L10.4255 7.30749ZM10.4505 7.35819L8.63719 8.20191L8.64894 8.22716L8.66138 8.25208L10.4505 7.35819ZM10.5358 7.53697L8.71704 8.36898L8.7197 8.37476L10.5358 7.53697ZM10.6139 7.70032L12.4398 6.8842L12.422 6.8445L12.4026 6.80562L10.6139 7.70032ZM10.6508 7.78266L12.4745 6.96157L12.4745 6.96153L10.6508 7.78266ZM10.7926 8.10719L8.94379 8.86998L8.9467 8.87703L8.94967 8.88406L10.7926 8.10719ZM10.793 8.10812L12.6363 7.3321L12.636 7.33124L10.793 8.10812ZM10.9108 8.4041L9.02513 9.07068L9.03451 9.09724L9.04464 9.12351L10.9108 8.4041ZM11.1841 9.2137L9.26286 9.76957L9.27116 9.79826L9.28032 9.82668L11.1841 9.2137ZM11.2367 9.39857L13.1696 8.8848L13.1696 8.88479L11.2367 9.39857ZM11.258 9.47774L13.2076 9.03147L13.1977 8.98833L13.186 8.94568L11.258 9.47774ZM11.2693 9.52705L9.31975 9.97333L9.32464 9.99465L9.32998 10.0159L11.2693 9.52705ZM11.3515 9.91748L9.37589 10.2287L9.37989 10.2541L9.38455 10.2794L11.3515 9.91748ZM11.3916 10.1784L9.40059 10.3681L9.40152 10.3774L11.3916 10.1784ZM11.3916 10.1785L9.40152 10.3775L9.40411 10.4034L9.40738 10.4292L11.3916 10.1785ZM11.4204 10.4712L9.42215 10.5554L9.42423 10.605L9.42878 10.6544L11.4204 10.4712ZM11.3639 11.399L13.2941 11.9226L13.3036 11.8876L13.3118 11.8522L11.3639 11.399ZM11.3548 11.4327L13.2867 11.9503L13.2867 11.9503L11.3548 11.4327ZM11.3104 11.586L9.41294 10.9539L9.39814 10.9984L9.38544 11.0434L11.3104 11.586ZM11.255 11.7502L13.1337 12.4361L13.1337 12.436L11.255 11.7502ZM11.2334 11.8099L13.1084 12.5058L13.1132 12.4929L13.1178 12.4799L11.2334 11.8099ZM11.2298 11.8195L9.3548 11.1236L9.3547 11.1239L11.2298 11.8195ZM11.18 11.9435L9.36663 11.0998L9.34921 11.1372L9.33334 11.1754L11.18 11.9435ZM10.8214 12.6596L9.08536 11.6665L9.08039 11.6753L10.8214 12.6596ZM10.3036 13.4857L8.66848 12.3339L8.65371 12.3549L8.63947 12.3763L10.3036 13.4857ZM10.2797 13.5209L11.9306 14.6499L11.9306 14.6498L10.2797 13.5209ZM10.2522 13.5617L11.8854 14.7162L11.9071 14.6855L11.9276 14.654L10.2522 13.5617ZM11.7481 13.7055H13.7481V11.7055H11.7481V13.7055ZM11.7481 14.8285V16.8285H13.7481V14.8285H11.7481ZM9.39328 14.2593L11.1873 13.3753L11.1817 13.3638L11.1759 13.3525L9.39328 14.2593ZM9.28953 13.7014L11.2778 13.9176L11.2797 13.9L11.2813 13.8823L9.28953 13.7014ZM16.8334 15.3306L18.5308 16.3883L18.5308 16.3883L16.8334 15.3306ZM17.2961 14.622L15.6723 13.4543L15.6719 13.455L17.2961 14.622ZM18.4735 13.8206L19.2614 15.6589L19.2683 15.6559L19.2751 15.6529L18.4735 13.8206ZM12 24C18.6271 24 24 18.6271 24 12H20C20 16.418 16.418 20 12 20V24ZM0 12C0 18.6271 5.3729 24 12 24V20C7.58204 20 4 16.418 4 12H0ZM12 0C5.3729 0 0 5.3729 0 12H4C4 7.58204 7.58204 4 12 4V0ZM24 12C24 5.37305 18.6284 0 12 0V4C16.419 4 20 7.58189 20 12H24ZM5.28944 11.1943L5.24629 11.2621L8.62069 13.4099L8.66385 13.3421L5.28944 11.1943ZM7.89292 7.12146L5.29152 11.191L8.66177 13.3454L11.2632 9.27584L7.89292 7.12146ZM11.5619 7.39778C10.8771 5.8567 8.77574 5.73681 7.89165 7.12344L11.2644 9.27386C10.4564 10.5413 8.53382 10.4338 7.90653 9.0221L11.5619 7.39778ZM12.3159 11.6032C12.5113 10.7648 12.3728 9.9041 12.2234 9.28973C12.0609 8.62104 11.8115 7.95714 11.5606 7.39498L7.90777 9.02489C8.09154 9.43674 8.24691 9.8655 8.3366 10.2345C8.38102 10.4172 8.4025 10.5577 8.40967 10.6553C8.41737 10.7603 8.40458 10.7629 8.42028 10.6956L12.3159 11.6032ZM11.575 13.2912C11.8301 12.8627 12.1641 12.2317 12.3121 11.6193L8.4241 10.6794C8.43023 10.6541 8.41961 10.7026 8.35798 10.8348C8.30233 10.9543 8.22656 11.0963 8.13791 11.2452L11.575 13.2912ZM11.4328 13.5282C11.5001 13.4253 11.565 13.3159 11.6256 13.2011L8.08738 11.3353C8.08833 11.3335 8.08755 11.3351 8.08498 11.3391L11.4328 13.5282ZM9.68489 14.4727C10.3606 14.4727 11.0228 14.1428 11.4225 13.5437L8.09523 11.3235C8.46209 10.7737 9.06876 10.4727 9.68489 10.4727V14.4727ZM7.00951 14.4727H9.68489V10.4727H7.00951V14.4727ZM5.25562 11.2475C4.33851 12.6613 5.38089 14.4727 7.00951 14.4727V10.4727C8.49432 10.4727 9.45247 12.1279 8.61136 13.4245L5.25562 11.2475ZM16.529 13.0922V13.7363H20.529V13.0922H16.529ZM18.9738 14.9262C17.7394 15.2854 16.529 14.3538 16.529 13.0922H20.529C20.529 11.7113 19.2035 10.6934 17.8561 11.0855L18.9738 14.9262ZM15.9282 15.8066L18.9704 14.9272L17.8595 11.0845L14.8174 11.964L15.9282 15.8066ZM16.806 15.2613C16.5838 15.5041 16.2653 15.7236 15.8584 15.8255L14.8872 11.9452C14.4474 12.0552 14.1002 12.2932 13.8553 12.5607L16.806 15.2613ZM15.9692 16.0837C16.0664 15.9989 16.4106 15.6981 16.8133 15.2533L13.848 12.5687C13.599 12.8438 13.3893 13.0261 13.3399 13.0693L15.9692 16.0837ZM15.9643 16.0879L15.9694 16.0835L13.3397 13.0694L13.3347 13.0738L15.9643 16.0879ZM13.9796 16.8285C14.7089 16.8285 15.3994 16.5671 15.9428 16.1064L13.3562 13.0553C13.5215 12.9151 13.7435 12.8285 13.9796 12.8285V16.8285ZM12.8783 16.8285H13.9796V12.8285H12.8783V16.8285ZM10.8783 13.7055V14.8285H14.8783V13.7055H10.8783ZM13.7536 11.7055H12.8783V15.7055H13.7536V11.7055ZM12.4968 12.1781C12.8466 11.8719 13.2937 11.7055 13.7536 11.7055V15.7055C14.2587 15.7055 14.749 15.5227 15.1316 15.1877L12.4968 12.1781ZM12.5746 12.106L12.4615 12.2097L15.1669 15.1561L15.2799 15.0523L12.5746 12.106ZM12.6877 11.9985C12.6482 12.0379 12.6148 12.0692 12.5772 12.1035L15.2772 15.0548C15.3363 15.0007 15.4179 14.9252 15.5161 14.8269L12.6877 11.9985ZM12.7078 11.9784C12.702 11.9842 12.6949 11.9913 12.6877 11.9985L15.5161 14.8269C15.5205 14.8226 15.5251 14.8179 15.5312 14.8118L12.7078 11.9784ZM12.7428 11.9436C12.7476 11.9382 12.7486 11.9373 12.7427 11.9434C12.7398 11.9463 12.7358 11.9504 12.7299 11.9563C12.7238 11.9625 12.7172 11.969 12.7078 11.9785L15.5313 14.8118C15.5627 14.7805 15.6406 14.7035 15.722 14.6127L12.7428 11.9436ZM12.8397 11.8403C12.8303 11.8513 12.825 11.8572 12.8229 11.8594C12.8221 11.8604 12.8226 11.8598 12.8243 11.858C12.8261 11.8562 12.8296 11.8526 12.8348 11.8475L15.63 14.7088C15.7369 14.6043 15.8255 14.5036 15.8861 14.4324L12.8397 11.8403ZM13.0409 11.6106C12.9705 11.6937 12.9322 11.7379 12.8988 11.7738L15.827 14.4988C15.9312 14.3868 16.0244 14.2769 16.0916 14.1977L13.0409 11.6106ZM13.0887 11.5516C13.0795 11.5641 13.0734 11.5725 13.0686 11.5789C13.0663 11.582 13.0646 11.5842 13.0635 11.5857C13.0623 11.5872 13.0618 11.5878 13.0619 11.5877C13.0619 11.5877 13.0648 11.584 13.0703 11.5775C13.0757 11.571 13.0846 11.5607 13.0966 11.5476L16.0359 14.2607C16.1721 14.1132 16.2775 13.9676 16.3213 13.9074L13.0887 11.5516ZM13.2349 11.363C13.2149 11.3902 13.2022 11.4073 13.1922 11.4202C13.1823 11.4331 13.181 11.4342 13.1864 11.4279L16.2235 14.031C16.327 13.9103 16.4146 13.7911 16.4607 13.7282L13.2349 11.363ZM13.2746 11.3061C13.2591 11.3278 13.2272 11.3721 13.1948 11.4197L16.5008 13.6714C16.5003 13.6722 16.5016 13.6702 16.5062 13.6637C16.5111 13.6568 16.5167 13.6489 16.5264 13.6354L13.2746 11.3061ZM13.3045 11.264C13.3001 11.2704 13.2939 11.2792 13.2747 11.3061L16.5264 13.6354C16.5422 13.6133 16.5718 13.5722 16.6027 13.5272L13.3045 11.264ZM13.3039 11.2641C13.3067 11.2592 13.3067 11.2594 13.3034 11.2648C13.3002 11.2698 13.2956 11.277 13.2897 11.2858L16.6175 13.5053C16.6696 13.4272 16.731 13.3303 16.7903 13.2249L13.3039 11.2641ZM13.4318 11.0327C13.4042 11.0966 13.3813 11.1374 13.3674 11.159L16.7269 13.3301C16.8855 13.0846 17.0085 12.8398 17.1042 12.618L13.4318 11.0327ZM13.4538 10.9746C13.451 10.9827 13.4488 10.9891 13.4466 10.9953C13.4444 11.0014 13.4427 11.0063 13.4412 11.0105C13.4381 11.0191 13.4366 11.0232 13.4361 11.0244C13.4357 11.0256 13.4368 11.0225 13.4394 11.0163C13.442 11.01 13.4464 10.9995 13.4528 10.9857L17.0832 12.665C17.1583 12.5027 17.2112 12.3475 17.2278 12.3004L13.4538 10.9746ZM13.4632 10.9479C13.4599 10.9575 13.4566 10.9669 13.4538 10.9747L17.2278 12.3003C17.2306 12.2922 17.2329 12.2857 17.2351 12.2795L13.4632 10.9479ZM13.453 10.9853C13.4563 10.9701 13.4591 10.9596 13.4602 10.956C13.461 10.9532 13.4598 10.9574 13.4545 10.9731L17.2438 12.2543C17.2827 12.1392 17.3291 11.9897 17.3666 11.8126L13.453 10.9853ZM13.4478 11.0783C13.4468 11.068 13.4461 11.0529 13.4471 11.0342C13.4482 11.0153 13.4507 10.996 13.4547 10.9776L17.3649 11.8203C17.4475 11.437 17.4645 11.0591 17.4293 10.6944L13.4478 11.0783ZM13.4775 11.2154C13.4567 11.1321 13.4484 11.0687 13.4453 11.043C13.4427 11.0213 13.4419 11.0071 13.4444 11.0398L17.4327 10.7329C17.4309 10.7099 17.4185 10.4872 17.3585 10.2469L13.4775 11.2154ZM13.418 10.723V10.7312H17.418V10.723H13.418ZM13.4866 11.2132C13.4721 11.1673 13.4613 11.1251 13.4531 11.0867C13.445 11.0485 13.4374 11.0053 13.4317 10.9567L17.4043 10.4892C17.3856 10.3306 17.3513 10.1689 17.3022 10.0129L13.4866 11.2132ZM13.4008 10.9324C13.428 10.9933 13.4386 11.0316 13.442 11.0468L17.3468 10.1793C17.2762 9.86156 17.1717 9.56695 17.0531 9.30121L13.4008 10.9324ZM13.3503 10.8191C13.3582 10.8352 13.3642 10.8478 13.3686 10.8575C13.3732 10.8675 13.3747 10.8714 13.3741 10.87L17.0797 9.36361C17.0305 9.24275 16.9795 9.13491 16.9412 9.0569L13.3503 10.8191ZM13.2644 10.6779C13.2932 10.7214 13.3288 10.7822 13.3844 10.8854L16.9071 8.99057C16.8312 8.84937 16.7291 8.6656 16.6018 8.47283L13.2644 10.6779ZM13.2325 10.6297C13.2371 10.6364 13.2401 10.6407 13.2428 10.6448C13.2454 10.6486 13.2468 10.6507 13.2476 10.6518C13.2483 10.6528 13.2478 10.6522 13.2466 10.6502C13.2453 10.6483 13.2429 10.6446 13.2396 10.6393L16.6266 8.51135C16.5862 8.44708 16.5459 8.38872 16.533 8.36982L13.2325 10.6297ZM13.1679 10.5334C13.1951 10.5753 13.2217 10.6139 13.2325 10.6297L16.533 8.36988C16.5295 8.36482 16.527 8.36112 16.5246 8.35761C16.5223 8.35424 16.5207 8.35186 16.5195 8.35008C16.5169 8.34632 16.5174 8.34689 16.5195 8.35013L13.1679 10.5334ZM13.0892 10.4267C13.118 10.4647 13.1345 10.4867 13.149 10.5066C13.1625 10.5251 13.1666 10.5314 13.1655 10.5297L16.5219 8.35383C16.4265 8.20669 16.3264 8.07581 16.2799 8.01423L13.0892 10.4267ZM13.0486 10.3728C13.0632 10.3922 13.0775 10.4111 13.0893 10.4267L16.2798 8.01419C16.2673 7.99765 16.2576 7.98472 16.2483 7.97243L13.0486 10.3728ZM13.0104 10.3275C13.0292 10.35 13.0398 10.3627 13.049 10.374C13.0575 10.3845 13.0594 10.387 13.0575 10.3845L16.2395 7.96068C16.1763 7.87775 16.1125 7.80173 16.0829 7.76619L13.0104 10.3275ZM12.9369 10.2385C12.9652 10.2732 12.9926 10.3061 13.0104 10.3275L16.0828 7.76616C16.0623 7.74148 16.0511 7.72807 16.0415 7.71628L12.9369 10.2385ZM12.8297 10.113C12.8671 10.1553 12.9053 10.2003 12.9467 10.2504L16.0318 7.70437C15.9663 7.62505 15.8998 7.5467 15.8303 7.46784L12.8297 10.113ZM12.397 9.6769C12.5528 9.82193 12.7016 9.96834 12.8329 10.1165L15.8271 7.46429C15.5762 7.18097 15.3243 6.93693 15.1225 6.74912L12.397 9.6769ZM12.3483 9.63043C12.3524 9.63392 12.3542 9.63562 12.3541 9.63551C12.3541 9.63547 12.3509 9.63253 12.3451 9.62674L15.1745 6.79928C15.0983 6.72307 15.0242 6.65604 14.9596 6.60035L12.3483 9.63043ZM12.028 9.35101C12.091 9.40176 12.1848 9.48254 12.3071 9.59392L15.0008 6.63686C14.8456 6.49553 14.6868 6.35644 14.5381 6.23661L12.028 9.35101ZM11.9051 9.2503C11.9284 9.26998 11.9903 9.32263 12.0637 9.37912L14.5024 6.2085C14.5089 6.21348 14.5119 6.21599 14.5095 6.21403C14.5083 6.21304 14.5061 6.21123 14.5023 6.20804C14.4982 6.20462 14.4938 6.20093 14.4868 6.195L11.9051 9.2503ZM11.895 9.24153C11.889 9.23676 11.8862 9.23437 11.8886 9.23633C11.8896 9.2372 11.8913 9.23864 11.8942 9.24107C11.8972 9.24359 11.9004 9.24634 11.9052 9.25032L14.4868 6.19498C14.4733 6.18359 14.4351 6.15111 14.3937 6.118L11.895 9.24153ZM11.8477 9.20675C11.8711 9.2246 11.9073 9.25221 11.9498 9.28384L14.3389 6.07569C14.3162 6.05879 14.296 6.04339 14.2722 6.02529L11.8477 9.20675ZM11.8217 9.187C11.8254 9.18975 11.8315 9.1944 11.8477 9.20676L14.2722 6.02528C14.2597 6.01578 14.2406 6.00116 14.2225 5.9876L11.8217 9.187ZM12.3629 9.47131C12.2535 9.43484 12.0461 9.35502 11.8234 9.1883L14.2208 5.9863C13.9816 5.80727 13.7558 5.71923 13.6278 5.67658L12.3629 9.47131ZM12.3379 9.46668L12.455 9.49955L13.5358 5.64834L13.4187 5.61547L12.3379 9.46668ZM10.8783 6.57121V7.54108H14.8783V6.57121H10.8783ZM11.2845 7.56735C11.0401 7.31801 10.8783 6.96478 10.8783 6.57121H14.8783C14.8783 5.86119 14.589 5.22441 14.1412 4.76752L11.2845 7.56735ZM12.3132 7.99997C11.9153 7.99997 11.5471 7.83534 11.2845 7.56735L14.1412 4.76751C13.6751 4.29197 13.0234 3.99997 12.3132 3.99997V7.99997ZM13.7481 6.57121C13.7481 7.33916 13.1265 7.99997 12.3132 7.99997V3.99997C10.8752 3.99997 9.74811 5.17242 9.74811 6.57121H13.7481ZM13.7481 7.22463V6.57121H9.74811V7.22463H13.7481ZM11.1488 9.1337L11.2073 9.15014L12.2889 5.29913L12.2303 5.28268L11.1488 9.1337ZM10.9842 9.08699L11.1434 9.13219L12.2357 5.28419L12.0764 5.23899L10.9842 9.08699ZM10.8523 9.05056L10.9972 9.09062L12.0634 5.23536L11.9186 5.19529L10.8523 9.05056ZM11.3813 9.1219C11.2976 9.1219 11.216 9.11663 11.1368 9.10685C11.0577 9.09708 10.9847 9.08324 10.9183 9.0674C10.7869 9.03604 10.6879 8.99797 10.6466 8.98159C10.6365 8.97761 10.6288 8.97443 10.6262 8.97338C10.6252 8.97298 10.6237 8.97236 10.6248 8.9728C10.6252 8.97295 10.6272 8.97378 10.6297 8.97483C10.6346 8.9768 10.646 8.98144 10.6606 8.98712C10.6755 8.99288 10.6971 9.00107 10.7234 9.01028C10.7497 9.01951 10.7835 9.03074 10.8232 9.04235C10.863 9.05399 10.9109 9.06666 10.9656 9.0784C11.0751 9.10189 11.2179 9.12292 11.3854 9.12292V5.12292C11.5527 5.12292 11.6952 5.14392 11.8045 5.16736C11.8591 5.17907 11.9068 5.19171 11.9465 5.2033C11.986 5.21488 12.0197 5.22606 12.0459 5.23525C12.0721 5.24441 12.0935 5.25254 12.1082 5.25825C12.1227 5.26388 12.134 5.26846 12.1387 5.27037C12.1412 5.27139 12.1432 5.27219 12.1434 5.27231C12.1444 5.27271 12.1429 5.27207 12.1418 5.27163C12.1391 5.27053 12.1312 5.26728 12.121 5.26324C12.079 5.2466 11.9792 5.20827 11.8471 5.17672C11.7803 5.16079 11.7068 5.14687 11.6273 5.13704C11.5477 5.1272 11.4655 5.1219 11.3813 5.1219V9.1219ZM11.3782 9.1219H11.3813V5.1219H11.3782V9.1219ZM9.75572 8.7543L10.855 9.05226L11.9014 5.19154L10.8021 4.89359L9.75572 8.7543ZM11.9604 5.93215C12.7908 7.41934 11.4299 9.21758 9.74553 8.75151L10.8123 4.89638C9.0314 4.40359 7.58825 6.30664 8.46796 7.88218L11.9604 5.93215ZM12.1489 6.27999L11.9732 5.95532L8.45522 7.85901L8.63091 8.18368L12.1489 6.27999ZM12.2097 6.40372C12.206 6.39648 12.2052 6.39481 12.2048 6.39395C12.2046 6.3936 12.2065 6.39747 12.2096 6.40391C12.2153 6.41581 12.2299 6.44667 12.2471 6.48959L8.53272 7.97408C8.58151 8.09617 8.63658 8.20177 8.64139 8.21126L12.2097 6.40372ZM12.2638 6.51446C12.2394 6.46197 12.2158 6.41569 12.2097 6.4037L8.6414 8.21128C8.64365 8.21573 8.64479 8.21799 8.64578 8.21994C8.64666 8.22169 8.64677 8.22191 8.64642 8.22122C8.64582 8.22 8.64226 8.21282 8.63719 8.20191L12.2638 6.51446ZM12.3545 6.70495C12.3191 6.62757 12.2804 6.54592 12.2396 6.4643L8.66138 8.25208C8.67811 8.28556 8.69699 8.32512 8.71705 8.36898L12.3545 6.70495ZM12.4026 6.80562C12.387 6.7744 12.3721 6.74301 12.3518 6.69918L8.7197 8.37476C8.74877 8.43777 8.78321 8.51118 8.82515 8.59503L12.4026 6.80562ZM12.4745 6.96153C12.4618 6.93329 12.4506 6.90837 12.4398 6.8842L8.78796 8.51645C8.80137 8.54647 8.81486 8.57641 8.82719 8.6038L12.4745 6.96153ZM12.6414 7.3444C12.5799 7.19531 12.519 7.06033 12.4745 6.96157L8.82717 8.60376C8.87448 8.70885 8.91006 8.78821 8.94379 8.86998L12.6414 7.3444ZM12.636 7.33124L12.6356 7.33031L8.94967 8.88406L8.95006 8.88499L12.636 7.33124ZM12.7964 7.73752C12.7378 7.57182 12.6738 7.4211 12.6363 7.3321L8.9497 8.88414C8.99415 8.98972 9.01202 9.0336 9.02513 9.07068L12.7964 7.73752ZM13.1053 8.65783C13.0068 8.31755 12.8945 7.98964 12.7769 7.68469L9.04464 9.12351C9.12432 9.3302 9.19901 9.54887 9.26286 9.76957L13.1053 8.65783ZM13.1696 8.88479C13.155 8.83002 13.1263 8.7203 13.0878 8.60072L9.28032 9.82668C9.28041 9.82697 9.28207 9.83215 9.28598 9.84611C9.29038 9.86183 9.29511 9.8795 9.30384 9.91234L13.1696 8.88479ZM13.186 8.94568C13.1815 8.92961 13.1769 8.91236 13.1696 8.8848L9.30384 9.91234C9.31043 9.93712 9.31982 9.97251 9.33011 10.0098L13.186 8.94568ZM13.2189 9.08078L13.2076 9.03147L9.30847 9.92402L9.31975 9.97333L13.2189 9.08078ZM13.3272 9.60626C13.2939 9.39531 13.2501 9.20266 13.2087 9.03825L9.32998 10.0159C9.35432 10.1124 9.36801 10.1787 9.37589 10.2287L13.3272 9.60626ZM13.3826 9.98876C13.3649 9.80324 13.3333 9.63595 13.3185 9.55556L9.38455 10.2794C9.39296 10.3251 9.397 10.3478 9.39983 10.3655C9.40231 10.381 9.40171 10.3796 9.40061 10.3681L13.3826 9.98876ZM13.3817 9.97945L13.3817 9.97943L9.40152 10.3774L9.40152 10.3775L13.3817 9.97945ZM13.4186 10.3871C13.4104 10.1918 13.3863 10.011 13.3758 9.92773L9.40738 10.4292C9.41398 10.4815 9.41747 10.5096 9.42007 10.5343C9.42243 10.5567 9.4224 10.5614 9.42215 10.5554L13.4186 10.3871ZM13.4327 10.7435C13.4327 10.5955 13.426 10.4408 13.412 10.2881L9.42878 10.6544C9.43118 10.6805 9.43271 10.7128 9.43271 10.7435H13.4327ZM13.3118 11.8522C13.4019 11.4651 13.4327 11.0887 13.4327 10.7435H9.43271C9.43271 10.8545 9.4224 10.9178 9.4159 10.9457L13.3118 11.8522ZM13.2867 11.9503C13.2898 11.9384 13.292 11.9302 13.2941 11.9226L9.43363 10.8754C9.42966 10.89 9.42584 10.9042 9.42294 10.9151L13.2867 11.9503ZM13.2079 12.218C13.2468 12.1014 13.2758 11.9907 13.2867 11.9503L9.42295 10.915C9.41941 10.9282 9.41695 10.9374 9.41461 10.946C9.41237 10.9543 9.41088 10.9596 9.40986 10.9632C9.40763 10.9711 9.40884 10.9662 9.41294 10.9539L13.2079 12.218ZM13.1337 12.436C13.1492 12.3937 13.1962 12.2678 13.2354 12.1285L9.38544 11.0434C9.38857 11.0323 9.39108 11.0242 9.39248 11.0198C9.39387 11.0155 9.39445 11.0139 9.39372 11.016C9.39296 11.0182 9.39138 11.0227 9.38836 11.0311C9.38517 11.04 9.38165 11.0496 9.37625 11.0644L13.1337 12.436ZM13.1178 12.4799C13.1217 12.4689 13.1261 12.4568 13.1337 12.4361L9.37627 11.0643C9.36952 11.0828 9.3594 11.1105 9.34893 11.14L13.1178 12.4799ZM13.1049 12.5154L13.1084 12.5058L9.35835 11.114L9.3548 11.1236L13.1049 12.5154ZM12.9933 12.7873C13.0517 12.6616 13.094 12.5447 13.105 12.5151L9.3547 11.1239C9.35059 11.1349 9.34853 11.1405 9.34674 11.1452C9.34514 11.1495 9.34497 11.1499 9.34573 11.1479C9.34707 11.1445 9.3543 11.1263 9.36663 11.0998L12.9933 12.7873ZM12.5574 13.6527C12.7135 13.3798 12.8824 13.0582 13.0266 12.7117L9.33334 11.1754C9.27406 11.3179 9.1902 11.4833 9.08538 11.6665L12.5574 13.6527ZM11.9387 14.6374C12.1119 14.3915 12.3393 14.0386 12.5624 13.6439L9.08039 11.6753C8.92131 11.9566 8.76447 12.1977 8.66848 12.3339L11.9387 14.6374ZM11.9306 14.6498C11.9374 14.6398 11.9519 14.6186 11.9677 14.5951L8.63947 12.3763C8.63951 12.3762 8.63888 12.3771 8.63709 12.3798C8.6351 12.3827 8.63289 12.3859 8.62876 12.392L11.9306 14.6498ZM11.9276 14.654C11.9238 14.6598 11.9216 14.663 11.9224 14.6619C11.9227 14.6614 11.9234 14.6603 11.9249 14.6582C11.9264 14.656 11.928 14.6536 11.9306 14.6499L8.62884 12.3919C8.62172 12.4023 8.59963 12.4344 8.57683 12.4694L11.9276 14.654ZM10.3262 11.7055C11.895 11.7055 12.7684 13.467 11.8854 14.7162L8.61908 12.4072C7.65177 13.7755 8.61146 15.7055 10.3262 15.7055V11.7055ZM11.7481 11.7055H10.3262V15.7055H11.7481V11.7055ZM13.7481 14.8285V13.7055H9.74811V14.8285H13.7481ZM10.3098 16.8285H11.7481V12.8285H10.3098V16.8285ZM7.59925 15.1433C8.11209 16.1841 9.16971 16.8285 10.3098 16.8285V12.8285C10.6772 12.8285 11.0197 13.0352 11.1873 13.3753L7.59925 15.1433ZM7.30125 13.4852C7.23824 14.0647 7.34693 14.6477 7.6107 15.1661L11.1759 13.3525C11.2609 13.5195 11.2997 13.7162 11.2778 13.9176L7.30125 13.4852ZM9.195 15.5915C7.90824 15.5915 7.21232 14.4608 7.29773 13.5205L11.2813 13.8823C11.377 12.829 10.5968 11.5915 9.195 11.5915V15.5915ZM6.28951 15.5915H9.195V11.5915H6.28951V15.5915ZM8.20011 13.6809C8.20011 14.7364 7.34443 15.5915 6.28951 15.5915V11.5915C5.13592 11.5915 4.20011 12.5267 4.20011 13.6809H8.20011ZM8.20011 13.7405V13.6809H4.20011V13.7405H8.20011ZM9.54433 15.096C8.80799 15.096 8.20011 14.4957 8.20011 13.7405H4.20011C4.20011 16.6921 6.58609 19.096 9.54433 19.096V15.096ZM14.7564 15.096H9.54433V19.096H14.7564V15.096ZM15.136 14.2729C14.9946 14.4998 14.8849 14.675 14.7755 14.8319C14.6675 14.9868 14.5901 15.0792 14.5362 15.1336C14.4843 15.1859 14.4834 15.1732 14.5352 15.1478C14.5992 15.1164 14.6816 15.096 14.7564 15.096V19.096C15.9424 19.096 16.8066 18.5252 17.3774 17.9492C17.8947 17.4272 18.2878 16.7783 18.5308 16.3883L15.136 14.2729ZM15.6719 13.455C15.4672 13.7399 15.2809 14.0402 15.136 14.2729L18.5308 16.3883C18.6899 16.1331 18.8061 15.9479 18.9204 15.7889L15.6719 13.455ZM17.6856 11.9823C17.541 12.0443 17.2288 12.185 16.8893 12.3883C16.5985 12.5624 16.0623 12.912 15.6723 13.4543L18.9199 15.7896C18.8827 15.8412 18.8526 15.873 18.8394 15.8864C18.8256 15.9003 18.8203 15.9039 18.8274 15.8982C18.8439 15.8849 18.882 15.8573 18.9442 15.8201C19.0715 15.7439 19.2047 15.6832 19.2614 15.6589L17.6856 11.9823ZM16.529 13.7363C16.529 12.9513 17.0023 12.2812 17.6719 11.9883L19.2751 15.6529C20.0105 15.3312 20.529 14.5954 20.529 13.7363H16.529Z" fill="black" mask="url(#path-1-outside-1)"/>
</svg>
