<svg width="24" height="24" viewBox="0 0 24 24" fill="none" xmlns="http://www.w3.org/2000/svg">
<path d="M13.2361 12.7778H12.8333V9.31945C12.8333 9.08333 12.6389 8.88889 12.4028 8.88889H11.1667C11.0047 8.88889 10.8856 8.98344 10.8115 9.12517L10.3795 9.9276C10.312 10.0626 10.3188 10.2247 10.3996 10.353C10.4722 10.4757 10.6146 10.5556 10.7639 10.5556H11.1667V12.7778H10.7639C10.5278 12.7778 10.3333 12.9722 10.3333 13.2083V14.0108C10.3333 14.25 10.5278 14.4444 10.7639 14.4444H13.233C13.4722 14.4444 13.6667 14.25 13.6667 14.0139V13.2083C13.6667 12.9722 13.4722 12.7778 13.2361 12.7778ZM20.3333 5H3.66667C2.74618 5 2 5.74618 2 6.66667V16.6667C2 17.5868 2.74618 18.3333 3.66667 18.3333H20.3333C21.2538 18.3333 22 17.5872 22 16.6667V6.66667C22 5.74618 21.2535 5 20.3333 5ZM3.66667 16.6667V14.4444C4.89514 14.4444 5.88889 15.4382 5.88889 16.6667H3.66667ZM3.66667 8.88889V6.66667H5.88889C5.88889 7.89583 4.89514 8.88889 3.66667 8.88889ZM12 16.1111C9.95451 16.1111 8.29514 14.1212 8.29514 11.6667C8.29514 9.21215 9.95313 7.22222 12 7.22222C14.0469 7.22222 15.7049 9.21215 15.7049 11.6667C15.7049 14.1215 14.0451 16.1111 12 16.1111ZM20.3333 16.6667H18.1111C18.1111 15.4382 19.1049 14.4444 20.3333 14.4444V16.6667ZM20.3333 8.88889C19.1049 8.88889 18.1111 7.89514 18.1111 6.66667H20.3333V8.88889Z" fill="black"/>
</svg>
