<svg width="24" height="24" viewBox="0 0 24 24" fill="none" xmlns="http://www.w3.org/2000/svg">
<rect x="1" y="5" width="22" height="14" fill="#FF99FF"/>
<path d="M13.4833 13.3333H13V9.18333C13 8.9 12.7667 8.66667 12.4833 8.66667H11C10.8057 8.66667 10.6628 8.78013 10.5738 8.95021L10.0554 9.91313C9.97438 10.0751 9.9825 10.2696 10.0795 10.4235C10.1667 10.5708 10.3375 10.6667 10.5167 10.6667H11V13.3333H10.5167C10.2333 13.3333 10 13.5667 10 13.85V14.8129C10 15.1 10.2333 15.3333 10.5167 15.3333H13.4796C13.7667 15.3333 14 15.1 14 14.8167V13.85C14 13.5667 13.7667 13.3333 13.4833 13.3333ZM22 4H2C0.895417 4 0 4.89542 0 6V18C0 19.1042 0.895417 20 2 20H22C23.1046 20 24 19.1046 24 18V6C24 4.89542 23.1042 4 22 4ZM2 18V15.3333C3.47417 15.3333 4.66667 16.5258 4.66667 18H2ZM2 8.66667V6H4.66667C4.66667 7.475 3.47417 8.66667 2 8.66667ZM12 17.3333C9.54542 17.3333 7.55417 14.9454 7.55417 12C7.55417 9.05458 9.54375 6.66667 12 6.66667C14.4563 6.66667 16.4458 9.05458 16.4458 12C16.4458 14.9458 14.4542 17.3333 12 17.3333ZM22 18H19.3333C19.3333 16.5258 20.5258 15.3333 22 15.3333V18ZM22 8.66667C20.5258 8.66667 19.3333 7.47417 19.3333 6H22V8.66667Z" fill="black"/>
</svg>
