<svg width="24" height="24" viewBox="0 0 24 24" fill="none" xmlns="http://www.w3.org/2000/svg">
<path d="M13.2361 13.7778H12.8333V10.3194C12.8333 10.0833 12.6389 9.88889 12.4028 9.88889H11.1667C11.0047 9.88889 10.8856 9.98344 10.8115 10.1252L10.3795 10.9276C10.312 11.0626 10.3188 11.2247 10.3996 11.353C10.4722 11.4757 10.6146 11.5556 10.7639 11.5556H11.1667V13.7778H10.7639C10.5278 13.7778 10.3333 13.9722 10.3333 14.2083V15.0108C10.3333 15.25 10.5278 15.4444 10.7639 15.4444H13.233C13.4722 15.4444 13.6667 15.25 13.6667 15.0139V14.2083C13.6667 13.9722 13.4722 13.7778 13.2361 13.7778ZM20.3333 6H3.66667C2.74618 6 2 6.74618 2 7.66667V17.6667C2 18.5868 2.74618 19.3333 3.66667 19.3333H20.3333C21.2538 19.3333 22 18.5872 22 17.6667V7.66667C22 6.74618 21.2535 6 20.3333 6ZM3.66667 17.6667V15.4444C4.89514 15.4444 5.88889 16.4382 5.88889 17.6667H3.66667ZM3.66667 9.88889V7.66667H5.88889C5.88889 8.89583 4.89514 9.88889 3.66667 9.88889ZM12 17.1111C9.95451 17.1111 8.29514 15.1212 8.29514 12.6667C8.29514 10.2122 9.95313 8.22222 12 8.22222C14.0469 8.22222 15.7049 10.2122 15.7049 12.6667C15.7049 15.1215 14.0451 17.1111 12 17.1111ZM20.3333 17.6667H18.1111C18.1111 16.4382 19.1049 15.4444 20.3333 15.4444V17.6667ZM20.3333 9.88889C19.1049 9.88889 18.1111 8.89514 18.1111 7.66667H20.3333V9.88889Z" fill="black"/>
</svg>
