<svg width="24" height="24" viewBox="0 0 24 24" fill="none" xmlns="http://www.w3.org/2000/svg">
<path d="M12.7361 12.7778H12.3333V9.31945C12.3333 9.08333 12.1389 8.88889 11.9028 8.88889H10.6667C10.5047 8.88889 10.3856 8.98344 10.3115 9.12517L9.87951 9.9276C9.81198 10.0626 9.81875 10.2247 9.89959 10.353C9.97222 10.4757 10.1146 10.5556 10.2639 10.5556H10.6667V12.7778H10.2639C10.0278 12.7778 9.83333 12.9722 9.83333 13.2083V14.0108C9.83333 14.25 10.0278 14.4444 10.2639 14.4444H12.733C12.9722 14.4444 13.1667 14.25 13.1667 14.0139V13.2083C13.1667 12.9722 12.9722 12.7778 12.7361 12.7778ZM19.8333 5H3.16667C2.24618 5 1.5 5.74618 1.5 6.66667V16.6667C1.5 17.5868 2.24618 18.3333 3.16667 18.3333H19.8333C20.7538 18.3333 21.5 17.5872 21.5 16.6667V6.66667C21.5 5.74618 20.7535 5 19.8333 5ZM3.16667 16.6667V14.4444C4.39514 14.4444 5.38889 15.4382 5.38889 16.6667H3.16667ZM3.16667 8.88889V6.66667H5.38889C5.38889 7.89583 4.39514 8.88889 3.16667 8.88889ZM11.5 16.1111C9.45451 16.1111 7.79514 14.1212 7.79514 11.6667C7.79514 9.21215 9.45313 7.22222 11.5 7.22222C13.5469 7.22222 15.2049 9.21215 15.2049 11.6667C15.2049 14.1215 13.5451 16.1111 11.5 16.1111ZM19.8333 16.6667H17.6111C17.6111 15.4382 18.6049 14.4444 19.8333 14.4444V16.6667ZM19.8333 8.88889C18.6049 8.88889 17.6111 7.89514 17.6111 6.66667H19.8333V8.88889Z" fill="black"/>
</svg>
