<svg width="24" height="24" viewBox="0 0 24 24" fill="none" xmlns="http://www.w3.org/2000/svg">
<path d="M21.4531 4.89757L19.1054 2.54943C18.3728 1.81686 17.1835 1.81686 16.4513 2.54943L14.2446 4.75887L19.2105 9.75991L21.4203 7.55046C22.1877 6.8175 22.1877 5.63015 21.4531 4.89757ZM3.21266 15.7568C3.12537 15.8441 3.06591 15.9552 3.04164 16.0763L2.01252 21.2219C1.93337 21.6174 2.24042 22.0042 2.62308 22.0042C2.66407 22.0042 2.70579 22.0002 2.74807 21.9917L7.89366 20.9626C8.0147 20.9384 8.12578 20.879 8.2131 20.7917L18.3597 10.6451L13.3587 5.64408L3.21266 15.7568ZM7.15331 19.199L4.21755 19.7862L4.80478 16.85L5.75068 15.9053V18.2535H8.0996L7.15331 19.199Z" fill="black"/>
</svg>
