<svg width="24" height="24" viewBox="0 0 24 24" fill="none" xmlns="http://www.w3.org/2000/svg">
<path fill-rule="evenodd" clip-rule="evenodd" d="M5.03061 5H18.9694C20.6368 5 22 6.36534 22 8.03061V17.4264C22 19.0917 20.6368 20.457 18.9694 20.457H5.03061C3.36319 20.457 2 19.0917 2 17.4264V8.03061C2 6.36534 3.36319 5 5.03061 5ZM16.2875 7.22445C17.1447 7.22445 17.8385 7.91829 17.8385 8.77544C17.8385 9.63258 17.1447 10.3285 16.2875 10.3285C15.4304 10.3285 14.7344 9.63254 14.7344 8.77544C14.7344 7.91829 15.4304 7.22445 16.2875 7.22445ZM6.29154 15.7102L9.85273 9.92853C10.1507 9.58574 10.8262 9.58574 11.1241 9.92853L13.4364 13.6796L14.3528 12.1919C14.565 11.947 15.0446 11.947 15.2569 12.1919L17.7854 16.2979C18.263 17.0735 17.7589 18.0244 16.9141 18.0244H7.51611C6.31407 18.0244 5.61822 16.802 6.29154 15.7101V15.7102Z" fill="black"/>
</svg>
