<svg width="24" height="24" viewBox="0 0 24 24" fill="none" xmlns="http://www.w3.org/2000/svg">
<path d="M4.88914 12.8889H11.1113V19.1111C11.1113 19.6019 11.5091 20 12.0002 20C12.4911 20 12.8891 19.6021 12.8891 19.1111L12.8889 12.8889H19.1111C19.6019 12.8889 20 12.4911 20 12C20 11.5091 19.6021 11.1111 19.1111 11.1111H12.8889V4.88893C12.8889 4.39807 12.4911 4 12 4C11.5091 4 11.1111 4.39785 11.1111 4.88893V11.1111L4.88893 11.1109C4.39807 11.1109 4 11.5087 4 11.9998C4 12.4906 4.39785 12.8887 4.88893 12.8887L4.88914 12.8889Z" fill="black"/>
</svg>
