<svg width="24" height="24" viewBox="0 0 24 24" fill="none" xmlns="http://www.w3.org/2000/svg">
<g clip-path="url(#clip0_3244_249820)">
<path d="M18.3086 12.5859L15.5523 8.20703C15.0938 7.44141 14.3008 7 13.4336 7H11.0664C10.1984 7 9.40508 7.43945 8.94609 8.17539L6.19035 12.5859C5.82414 13.1711 6.00238 13.9422 6.58723 14.3082C7.17316 14.6744 7.94465 14.4962 8.30949 13.9102L9.43762 12.1062L9.40235 20.75C9.40235 21.4402 9.96211 22 10.6523 22C11.3426 22 11.8672 21.4402 11.8672 20.75V15.125H12.4922V20.75C12.4922 21.4402 13.052 22 13.7422 22C14.4324 22 14.9922 21.4402 14.9922 20.75V12.1094L16.1203 13.9141C16.4258 14.293 16.8359 14.5 17.25 14.5C17.4758 14.5 17.7055 14.439 17.9117 14.3102C18.4961 13.9453 18.6758 13.1719 18.3086 12.5859ZM12.25 5.75C13.2852 5.75 14.125 4.91016 14.125 3.875C14.125 2.83984 13.2852 2 12.25 2C11.2148 2 10.375 2.83984 10.375 3.875C10.375 4.91016 11.2148 5.75 12.25 5.75Z" fill="black"/>
</g>
<defs>
<clipPath id="clip0_3244_249820">
<rect width="12.5" height="20" fill="white" transform="translate(6 2)"/>
</clipPath>
</defs>
</svg>
