<svg width="24" height="24" viewBox="0 0 24 24" fill="none" xmlns="http://www.w3.org/2000/svg">
<path d="M21.543 19.3321L16.8672 14.6563C17.9305 13.0778 18.4551 11.1055 18.1742 9.00393C17.6953 5.4293 14.7656 2.5203 11.1875 2.06729C5.86755 1.39412 1.39409 5.86758 2.0673 11.1875C2.52043 14.7672 5.42981 17.6993 9.00482 18.1758C11.1064 18.4567 13.0791 17.9323 14.6572 16.8688L19.333 21.5446C19.9431 22.1548 20.9326 22.1548 21.5428 21.5446C22.1524 20.9337 22.1524 19.9415 21.543 19.3321ZM5.08981 10.125C5.08981 7.36798 7.33279 5.125 10.0898 5.125C12.8469 5.125 15.0898 7.36798 15.0898 10.125C15.0898 12.8821 12.8469 15.1251 10.0898 15.1251C7.33279 15.1251 5.08981 12.8829 5.08981 10.125Z" fill="black"/>
</svg>
