<svg width="24" height="24" viewBox="0 0 24 24" fill="none" xmlns="http://www.w3.org/2000/svg">
<path d="M17.7981 3.39644C17.9835 2.96698 17.8465 2.46634 17.4681 2.19122C17.0898 1.91611 16.5713 1.94004 16.2199 2.24884L4.33989 12.6888C4.02724 12.9636 3.91746 13.4033 4.06427 13.7927C4.21109 14.1822 4.58378 14.44 5 14.44H10.042L6.98557 20.5528C6.77496 20.974 6.88679 21.4851 7.25406 21.7799C7.62133 22.0747 8.1445 22.0732 8.51017 21.7765L20.9302 11.6965C21.2589 11.4296 21.384 10.9847 21.2425 10.5857C21.1009 10.1866 20.7234 9.92 20.3 9.92H14.9811L17.7981 3.39644Z" fill="#EDEFEE" stroke="black" stroke-width="2" stroke-linejoin="round"/>
</svg>
