<svg width="24" height="24" viewBox="0 0 24 24" fill="none" xmlns="http://www.w3.org/2000/svg">
<path d="M20.6563 8.95486L15.5729 8.21563L13.3011 3.6184C13.1007 3.20733 12.7014 2.99993 12.2743 3C11.9098 3 11.5104 3.20483 11.3091 3.61806L9.03475 8.21528L3.95385 8.95486C3.0417 9.08681 2.67642 10.2083 3.33753 10.8507L7.01461 14.3958L6.14586 19.4792C6.02086 20.1979 6.59725 20.7778 7.24309 20.7778C7.41434 20.7778 7.59066 20.7371 7.75975 20.6476L12.3056 18.2639L16.8507 20.6493C17.0196 20.738 17.1954 20.7782 17.3664 20.7782C18.0125 20.7782 18.5889 20.2015 18.4653 19.4793L17.5955 14.4272L21.2726 10.882C21.9341 10.2083 21.5695 9.08681 20.6563 8.95486ZM15.8542 14.1319L16.632 18.6493L12.5625 16.5146C12.4009 16.4298 12.208 16.4298 12.0462 16.5146L7.9792 18.6493L8.75698 14.1319C8.78823 13.9514 8.69795 13.7674 8.59725 13.6389L5.30906 10.4413L9.8542 9.78021C10.0348 9.75347 10.191 9.63889 10.2709 9.47569L12.3056 5.36076L14.34 9.47535C14.4209 9.63913 14.5772 9.75264 14.758 9.77896L19.3032 10.4401L16.015 13.6376C15.882 13.7674 15.8229 13.9514 15.8542 14.1319Z" fill="black"/>
</svg>
