<svg width="24" height="24" viewBox="0 0 24 24" fill="none" xmlns="http://www.w3.org/2000/svg">
<path d="M16.8 0H7.2L0 7.40736V16.5924L7.40736 24H16.8L24 16.5926V7.40736L16.8 0ZM22.8 8.30928C22.6738 8.14776 22.3716 8.19432 22.3538 8.46048C22.3594 8.72712 22.6721 8.78712 22.8 8.62296V9.48768C22.6738 9.32616 22.3716 9.37296 22.3538 9.63888C22.3594 9.90576 22.6721 9.96552 22.8 9.80136V10.6661C22.6738 10.5046 22.3716 10.5511 22.3538 10.817C22.3594 11.0839 22.6721 11.1437 22.8 10.9795V11.8442C22.6738 11.6827 22.3716 11.7293 22.3538 11.9954C22.3594 12.2621 22.6721 12.3221 22.8 12.1579V13.0226C22.6738 12.8611 22.3716 12.9077 22.3538 13.1738C22.3594 13.4407 22.6721 13.5005 22.8 13.3363V14.2013C22.6738 14.0395 22.3716 14.0863 22.3538 14.3522C22.3594 14.6191 22.6721 14.6789 22.8 14.515V15.3797C22.6738 15.2182 22.3716 15.2647 22.3538 15.5309C22.3594 15.7975 22.6721 15.8575 22.8 15.6934V16.1059L16.2926 22.8H15.6931C15.7459 22.7578 15.7829 22.6915 15.7848 22.5982C15.7642 22.2768 15.3065 22.2708 15.2846 22.5998C15.2866 22.6915 15.3252 22.7578 15.3797 22.8H14.5147C14.5675 22.7578 14.6047 22.6915 14.6066 22.5982C14.5855 22.2768 14.1281 22.2708 14.106 22.5998C14.1079 22.6915 14.1468 22.7578 14.201 22.8H13.3363C13.3891 22.7578 13.4261 22.6915 13.428 22.5982C13.4071 22.2768 12.9497 22.2708 12.9278 22.5998C12.9298 22.6915 12.9684 22.7578 13.0229 22.8H12.1584C12.2112 22.7578 12.2484 22.6915 12.2503 22.5982C12.2292 22.2768 11.7718 22.2708 11.7497 22.5998C11.7516 22.6915 11.7905 22.7578 11.8447 22.8H10.98C11.0328 22.7578 11.0698 22.6915 11.0717 22.5982C11.0508 22.2768 10.5934 22.2708 10.5713 22.5998C10.5734 22.6915 10.6121 22.7578 10.6666 22.8H9.8016C9.85416 22.7578 9.89136 22.6915 9.89328 22.5982C9.8724 22.2768 9.41496 22.2708 9.39288 22.5998C9.3948 22.6915 9.43368 22.7578 9.48792 22.8H8.62296C8.676 22.7578 8.71296 22.6915 8.71488 22.5982C8.694 22.2768 8.23656 22.2708 8.21472 22.5998C8.21664 22.6915 8.25528 22.7578 8.30976 22.8H7.90368L1.2 16.0956V15.69C1.32792 15.8532 1.64064 15.8057 1.64616 15.5285C1.62936 15.2686 1.32648 15.215 1.2 15.3785V14.5118C1.32792 14.675 1.64064 14.6275 1.64616 14.3503C1.62936 14.0902 1.32648 14.0366 1.2 14.2003V13.3337C1.32792 13.4969 1.64064 13.4494 1.64616 13.1719C1.62936 12.912 1.32648 12.8585 1.2 13.0222V12.1553C1.32792 12.3185 1.64064 12.271 1.64616 11.9938C1.62936 11.7336 1.32648 11.6803 1.2 11.8438V10.9769C1.32792 11.1401 1.64064 11.0926 1.64616 10.8154C1.62936 10.5554 1.32648 10.5022 1.2 10.6654V9.79848C1.32792 9.96168 1.64064 9.9144 1.64616 9.6372C1.62936 9.37704 1.32648 9.32376 1.2 9.4872V8.62032C1.32792 8.78352 1.64064 8.73624 1.64616 8.45904C1.62936 8.19888 1.32648 8.14536 1.2 8.30904V7.89504L7.70736 1.2H8.30856C8.25792 1.24032 8.22096 1.30344 8.2152 1.3908C8.22192 1.72392 8.70864 1.73544 8.71536 1.38912C8.70984 1.3032 8.6724 1.24032 8.62104 1.2H9.48696C9.43584 1.24032 9.39912 1.30344 9.39312 1.3908C9.40008 1.72392 9.8868 1.73544 9.89352 1.38912C9.888 1.3032 9.8508 1.24032 9.7992 1.2H10.6651C10.6142 1.24032 10.5773 1.30344 10.5713 1.3908C10.5782 1.72392 11.065 1.73544 11.0717 1.38912C11.0662 1.3032 11.029 1.24032 10.9774 1.2H11.8433C11.7924 1.24032 11.7554 1.30344 11.7494 1.3908C11.7564 1.72392 12.2431 1.73544 12.2501 1.38912C12.2448 1.3032 12.2071 1.24032 12.1555 1.2H13.0214C12.9706 1.24032 12.9336 1.30344 12.9278 1.3908C12.9346 1.72392 13.4213 1.73544 13.428 1.38912C13.4227 1.3032 13.3853 1.24032 13.3339 1.2H14.1998C14.149 1.24032 14.1122 1.30344 14.106 1.3908C14.113 1.72392 14.5997 1.73544 14.6066 1.38912C14.6011 1.3032 14.5637 1.24032 14.5121 1.2H15.378C15.3271 1.24032 15.2902 1.30344 15.2844 1.3908C15.2911 1.72392 15.7781 1.73544 15.7846 1.38912C15.779 1.3032 15.7418 1.24032 15.6902 1.2H16.2926L22.8 7.89504V8.30928ZM7.626 1.97976C7.64784 1.65096 8.10552 1.65696 8.12616 1.97832C8.11968 2.3244 7.6332 2.31312 7.626 1.97976ZM8.8044 1.97976C8.82624 1.65096 9.28368 1.65696 9.3048 1.97832C9.2976 2.3244 8.81112 2.31312 8.8044 1.97976ZM9.98256 1.97976C10.0046 1.65096 10.4621 1.65696 10.483 1.97832C10.476 2.3244 9.98952 2.31312 9.98256 1.97976ZM11.1607 1.97976C11.1826 1.65096 11.6402 1.65696 11.6611 1.97832C11.6544 2.3244 11.1677 2.31312 11.1607 1.97976ZM12.3389 1.97976C12.361 1.65096 12.8184 1.65696 12.839 1.97832C12.8326 2.3244 12.3458 2.31312 12.3389 1.97976ZM13.517 1.97976C13.5391 1.65096 13.9966 1.65696 14.0174 1.97832C14.0107 2.3244 13.5242 2.31312 13.517 1.97976ZM14.6952 1.97976C14.7173 1.65096 15.1747 1.65696 15.1954 1.97832C15.1889 2.3244 14.7024 2.31312 14.6952 1.97976ZM16.374 1.97832C16.3673 2.3244 15.8806 2.31312 15.8736 1.97976C15.8954 1.65096 16.3531 1.65696 16.374 1.97832ZM7.0368 2.56896C7.05888 2.23992 7.51632 2.24616 7.5372 2.56752C7.53048 2.9136 7.044 2.90232 7.0368 2.56896ZM8.2152 2.56896C8.23704 2.23992 8.69448 2.24616 8.71536 2.56752C8.70864 2.9136 8.22216 2.90232 8.2152 2.56896ZM9.39336 2.56896C9.41544 2.23992 9.87288 2.24616 9.89376 2.56752C9.8868 2.9136 9.40032 2.90232 9.39336 2.56896ZM10.5715 2.56896C10.5936 2.23992 11.051 2.24616 11.0719 2.56752C11.065 2.9136 10.5785 2.90232 10.5715 2.56896ZM14.106 2.56896C14.1281 2.23992 14.5855 2.24616 14.6066 2.56752C14.5997 2.9136 14.1132 2.90232 14.106 2.56896ZM15.2846 2.56896C15.3065 2.23992 15.7642 2.24616 15.7848 2.56752C15.7781 2.9136 15.2914 2.90232 15.2846 2.56896ZM16.4626 2.56896C16.4846 2.23992 16.9421 2.24616 16.9632 2.56752C16.956 2.9136 16.4695 2.90232 16.4626 2.56896ZM6.44784 3.15816C6.46968 2.82912 6.92712 2.83512 6.94824 3.15648C6.94128 3.5028 6.4548 3.49128 6.44784 3.15816ZM7.626 3.15816C7.64784 2.82912 8.10552 2.83512 8.12616 3.15648C8.11968 3.5028 7.6332 3.49128 7.626 3.15816ZM8.8044 3.15816C8.82624 2.82912 9.28368 2.83512 9.3048 3.15648C9.2976 3.5028 8.81112 3.49128 8.8044 3.15816ZM9.98256 3.15816C10.0046 2.82912 10.4621 2.83512 10.483 3.15648C10.476 3.5028 9.98952 3.49128 9.98256 3.15816ZM14.6952 3.15816C14.7173 2.82912 15.1747 2.83512 15.1954 3.15648C15.1889 3.5028 14.7024 3.49128 14.6952 3.15816ZM15.8736 3.15816C15.8957 2.82912 16.3531 2.83512 16.374 3.15648C16.367 3.5028 15.8806 3.49128 15.8736 3.15816ZM17.0518 3.15816C17.0738 2.82912 17.5313 2.83512 17.5522 3.15648C17.5452 3.5028 17.0587 3.49128 17.0518 3.15816ZM5.85864 3.74712C5.88048 3.41832 6.33816 3.42432 6.35904 3.74568C6.35232 4.092 5.8656 4.08048 5.85864 3.74712ZM7.0368 3.74712C7.05888 3.41832 7.51632 3.42432 7.5372 3.74568C7.53048 4.092 7.044 4.08048 7.0368 3.74712ZM8.2152 3.74712C8.23704 3.41832 8.69448 3.42432 8.71536 3.74568C8.70864 4.092 8.22216 4.08048 8.2152 3.74712ZM16.4626 3.74712C16.4846 3.41832 16.9421 3.42432 16.9632 3.74568C16.956 4.092 16.4695 4.08048 16.4626 3.74712ZM17.641 3.74712C17.6628 3.41832 18.1205 3.42432 18.1411 3.74568C18.1346 4.092 17.6479 4.08048 17.641 3.74712ZM5.76984 4.33488C5.76336 4.68096 5.27664 4.66968 5.26968 4.33656C5.29176 4.00728 5.7492 4.01352 5.76984 4.33488ZM6.44784 4.33632C6.46968 4.00728 6.92712 4.01352 6.94824 4.33464C6.94128 4.68096 6.4548 4.66968 6.44784 4.33632ZM7.626 4.33632C7.64784 4.00728 8.10552 4.01352 8.12616 4.33464C8.11968 4.68096 7.6332 4.66968 7.626 4.33632ZM17.0518 4.33632C17.0738 4.00728 17.5313 4.01352 17.5522 4.33464C17.5452 4.68096 17.0587 4.66968 17.0518 4.33632ZM18.2302 4.33632C18.252 4.00728 18.7094 4.01352 18.7303 4.33464C18.7236 4.68096 18.2369 4.66968 18.2302 4.33632ZM5.18088 4.92408C5.17416 5.27016 4.68744 5.25888 4.68048 4.92552C4.70256 4.59648 5.16 4.60272 5.18088 4.92408ZM5.85864 4.92552C5.88048 4.59648 6.33816 4.60272 6.35904 4.92408C6.35232 5.27016 5.8656 5.25888 5.85864 4.92552ZM7.0368 4.92552C7.05888 4.59648 7.51632 4.60272 7.5372 4.92408C7.53048 5.27016 7.044 5.25888 7.0368 4.92552ZM17.641 4.92552C17.6628 4.59648 18.1205 4.60272 18.1411 4.92408C18.1346 5.27016 17.6479 5.25888 17.641 4.92552ZM18.8191 4.92552C18.841 4.59648 19.2984 4.60272 19.3195 4.92408C19.3126 5.27016 18.8258 5.25888 18.8191 4.92552ZM4.59168 5.51328C4.58496 5.85936 4.09824 5.84808 4.09152 5.51472C4.11336 5.18568 4.5708 5.19192 4.59168 5.51328ZM5.76984 5.51328C5.76336 5.85936 5.27664 5.84808 5.26968 5.51472C5.29176 5.18568 5.7492 5.19192 5.76984 5.51328ZM6.44784 5.51472C6.46968 5.18568 6.92712 5.19192 6.94824 5.51328C6.94128 5.85936 6.4548 5.84784 6.44784 5.51472ZM7.626 5.51472C7.64784 5.18568 8.10552 5.19192 8.12616 5.51328C8.11968 5.85936 7.6332 5.84784 7.626 5.51472ZM17.0518 5.51472C17.0738 5.18568 17.5313 5.19192 17.5522 5.51328C17.5452 5.85936 17.0587 5.84784 17.0518 5.51472ZM18.2302 5.51472C18.252 5.18568 18.7094 5.19192 18.7303 5.51328C18.7236 5.85936 18.2369 5.84784 18.2302 5.51472ZM19.4081 5.51472C19.4302 5.18568 19.8876 5.19192 19.9085 5.51328C19.9018 5.85936 19.415 5.84784 19.4081 5.51472ZM4.00272 6.10224C3.996 6.44856 3.50928 6.43728 3.50232 6.10392C3.52416 5.77488 3.98184 5.78088 4.00272 6.10224ZM5.18088 6.10224C5.17416 6.44856 4.68744 6.43728 4.68048 6.10392C4.70256 5.77488 5.16 5.78088 5.18088 6.10224ZM5.85864 6.10392C5.88048 5.77488 6.33816 5.78112 6.35904 6.10224C6.35232 6.44856 5.8656 6.43704 5.85864 6.10392ZM17.641 6.10392C17.6628 5.77488 18.1205 5.78112 18.1411 6.10224C18.1346 6.44856 17.6479 6.43704 17.641 6.10392ZM18.8191 6.10392C18.841 5.77488 19.2984 5.78112 19.3195 6.10224C19.3126 6.44856 18.8258 6.43704 18.8191 6.10392ZM19.9973 6.10392C20.0194 5.77488 20.4768 5.78112 20.4974 6.10224C20.491 6.44856 20.0045 6.43704 19.9973 6.10392ZM3.41352 6.69144C3.40704 7.03752 2.92032 7.02624 2.91336 6.69312C2.9352 6.36408 3.39288 6.37008 3.41352 6.69144ZM4.59168 6.69144C4.58496 7.03752 4.09824 7.02624 4.09152 6.69312C4.11336 6.36408 4.5708 6.37008 4.59168 6.69144ZM5.76984 6.69144C5.76336 7.03752 5.27664 7.02624 5.26968 6.69312C5.29176 6.36408 5.7492 6.37008 5.76984 6.69144ZM17.0518 6.69312C17.0738 6.36408 17.5313 6.37008 17.5522 6.69144C17.5452 7.03752 17.0587 7.02624 17.0518 6.69312ZM18.2302 6.69312C18.252 6.36408 18.7094 6.37008 18.7303 6.69144C18.7236 7.03752 18.2369 7.02624 18.2302 6.69312ZM19.4081 6.69312C19.4302 6.36408 19.8876 6.37008 19.9085 6.69144C19.9018 7.03752 19.415 7.02624 19.4081 6.69312ZM20.5865 6.69312C20.6083 6.36408 21.066 6.37008 21.0866 6.69144C21.0802 7.03752 20.5934 7.02624 20.5865 6.69312ZM2.82432 7.28064C2.81784 7.62672 2.33112 7.61544 2.32416 7.28208C2.34576 6.95328 2.80368 6.95928 2.82432 7.28064ZM4.00272 7.28064C3.996 7.62672 3.50928 7.61544 3.50232 7.28208C3.52416 6.95328 3.98184 6.95928 4.00272 7.28064ZM5.18088 7.28064C5.17416 7.62672 4.68744 7.61544 4.68048 7.28208C4.70256 6.95328 5.16 6.95928 5.18088 7.28064ZM17.641 7.28208C17.6628 6.95304 18.1205 6.95928 18.1411 7.28064C18.1346 7.62672 17.6479 7.6152 17.641 7.28208ZM18.8191 7.28208C18.841 6.95304 19.2984 6.95928 19.3195 7.28064C19.3126 7.62672 18.8258 7.6152 18.8191 7.28208ZM19.9973 7.28208C20.0194 6.95304 20.4768 6.95928 20.4974 7.28064C20.491 7.62672 20.0045 7.6152 19.9973 7.28208ZM21.1757 7.28208C21.1973 6.95304 21.6547 6.95928 21.6758 7.28064C21.6689 7.62672 21.1826 7.6152 21.1757 7.28208ZM2.23512 7.86984C2.2284 8.21592 1.74168 8.20464 1.73472 7.87128C1.7568 7.54224 2.21448 7.54848 2.23512 7.86984ZM3.41352 7.86984C3.40704 8.21592 2.92032 8.20464 2.91336 7.87128C2.9352 7.54224 3.39288 7.54848 3.41352 7.86984ZM4.59168 7.86984C4.58496 8.21592 4.09824 8.20464 4.09152 7.87128C4.11336 7.54224 4.5708 7.54848 4.59168 7.86984ZM5.76984 7.86984C5.76336 8.21592 5.27664 8.20464 5.26968 7.87128C5.29176 7.54224 5.7492 7.54848 5.76984 7.86984ZM17.0518 7.87128C17.0738 7.54224 17.5313 7.54848 17.5522 7.86984C17.5452 8.21592 17.0587 8.20464 17.0518 7.87128ZM18.2302 7.87128C18.252 7.54224 18.7094 7.54848 18.7303 7.86984C18.7236 8.21592 18.2369 8.20464 18.2302 7.87128ZM19.4081 7.87128C19.4302 7.54224 19.8876 7.54848 19.9085 7.86984C19.9018 8.21592 19.415 8.20464 19.4081 7.87128ZM20.5865 7.87128C20.6083 7.54224 21.066 7.54848 21.0866 7.86984C21.0802 8.21592 20.5934 8.20464 20.5865 7.87128ZM21.7649 7.87128C21.7867 7.54224 22.2442 7.54848 22.2653 7.86984C22.2581 8.21592 21.7716 8.20464 21.7649 7.87128ZM2.82432 8.45904C2.81784 8.80512 2.33112 8.79384 2.32416 8.46048C2.34576 8.13144 2.80368 8.13768 2.82432 8.45904ZM4.00272 8.45904C3.996 8.80512 3.50928 8.79384 3.50232 8.46048C3.52416 8.13144 3.98184 8.13768 4.00272 8.45904ZM5.18088 8.45904C5.17416 8.80512 4.68744 8.79384 4.68048 8.46048C4.70256 8.13144 5.16 8.13768 5.18088 8.45904ZM17.641 8.46048C17.6628 8.13144 18.1205 8.13768 18.1411 8.45904C18.1346 8.80512 17.6479 8.7936 17.641 8.46048ZM18.8191 8.46048C18.841 8.13144 19.2984 8.13768 19.3195 8.45904C19.3126 8.80512 18.8258 8.7936 18.8191 8.46048ZM19.9973 8.46048C20.0194 8.13144 20.4768 8.13768 20.4974 8.45904C20.491 8.80512 20.0045 8.7936 19.9973 8.46048ZM21.1757 8.46048C21.1973 8.13144 21.6547 8.13768 21.6758 8.45904C21.6689 8.80512 21.1826 8.7936 21.1757 8.46048ZM2.23512 9.048C2.2284 9.39408 1.74168 9.3828 1.73472 9.04944C1.7568 8.72064 2.21448 8.72664 2.23512 9.048ZM3.41352 9.048C3.40704 9.39408 2.92032 9.3828 2.91336 9.04944C2.9352 8.72064 3.39288 8.72664 3.41352 9.048ZM4.59168 9.048C4.58496 9.39408 4.09824 9.3828 4.09152 9.04944C4.11336 8.72064 4.5708 8.72664 4.59168 9.048ZM5.76984 9.048C5.76336 9.39408 5.27664 9.3828 5.26968 9.04944C5.29176 8.72064 5.7492 8.72664 5.76984 9.048ZM17.0518 9.04944C17.0738 8.72064 17.5313 8.72664 17.5522 9.048C17.5452 9.39432 17.0587 9.3828 17.0518 9.04944ZM18.2302 9.04944C18.252 8.72064 18.7094 8.72664 18.7303 9.048C18.7236 9.39432 18.2369 9.3828 18.2302 9.04944ZM19.4081 9.04944C19.4302 8.72064 19.8876 8.72664 19.9085 9.048C19.9018 9.39432 19.415 9.3828 19.4081 9.04944ZM20.5865 9.04944C20.6083 8.72064 21.066 8.72664 21.0866 9.048C21.0802 9.39432 20.5934 9.3828 20.5865 9.04944ZM21.7649 9.04944C21.7867 8.72064 22.2442 8.72664 22.2653 9.048C22.2581 9.39432 21.7716 9.3828 21.7649 9.04944ZM2.82432 9.6372C2.81784 9.98328 2.33112 9.972 2.32416 9.63864C2.34576 9.30984 2.80368 9.31584 2.82432 9.6372ZM4.00272 9.6372C3.996 9.98328 3.50928 9.972 3.50232 9.63864C3.52416 9.30984 3.98184 9.31584 4.00272 9.6372ZM5.18088 9.6372C5.17416 9.98328 4.68744 9.972 4.68048 9.63864C4.70256 9.30984 5.16 9.31584 5.18088 9.6372ZM17.641 9.63864C17.6628 9.3096 18.1205 9.31584 18.1411 9.6372C18.1346 9.98352 17.6479 9.972 17.641 9.63864ZM18.8191 9.63864C18.841 9.3096 19.2984 9.31584 19.3195 9.6372C19.3126 9.98352 18.8258 9.972 18.8191 9.63864ZM19.9973 9.63864C20.0194 9.3096 20.4768 9.31584 20.4974 9.6372C20.491 9.98352 20.0045 9.972 19.9973 9.63864ZM21.1757 9.63864C21.1973 9.3096 21.6547 9.31584 21.6758 9.6372C21.6689 9.98352 21.1826 9.972 21.1757 9.63864ZM2.23512 10.2262C2.2284 10.5722 1.74168 10.561 1.73472 10.2278C1.7568 9.8988 2.21448 9.90504 2.23512 10.2262ZM3.41352 10.2262C3.40704 10.5722 2.92032 10.561 2.91336 10.2278C2.9352 9.8988 3.39288 9.90504 3.41352 10.2262ZM4.59168 10.2262C4.58496 10.5722 4.09824 10.561 4.09152 10.2278C4.11336 9.8988 4.5708 9.90504 4.59168 10.2262ZM5.76984 10.2262C5.76336 10.5722 5.27664 10.561 5.26968 10.2278C5.29176 9.8988 5.7492 9.90504 5.76984 10.2262ZM17.0518 10.2278C17.0738 9.8988 17.5313 9.90504 17.5522 10.2262C17.5452 10.5725 17.0587 10.561 17.0518 10.2278ZM18.2302 10.2278C18.252 9.8988 18.7094 9.90504 18.7303 10.2262C18.7236 10.5725 18.2369 10.561 18.2302 10.2278ZM19.4081 10.2278C19.4302 9.8988 19.8876 9.90504 19.9085 10.2262C19.9018 10.5725 19.415 10.561 19.4081 10.2278ZM20.5865 10.2278C20.6083 9.8988 21.066 9.90504 21.0866 10.2262C21.0802 10.5725 20.5934 10.561 20.5865 10.2278ZM21.7649 10.2278C21.7867 9.8988 22.2442 9.90504 22.2653 10.2262C22.2581 10.5725 21.7716 10.561 21.7649 10.2278ZM2.82432 10.8154C2.81784 11.1614 2.33112 11.1502 2.32416 10.8168C2.34576 10.488 2.80368 10.4942 2.82432 10.8154ZM4.00272 10.8154C3.996 11.1614 3.50928 11.1502 3.50232 10.8168C3.52416 10.488 3.98184 10.4942 4.00272 10.8154ZM5.18088 10.8154C5.17416 11.1614 4.68744 11.1502 4.68048 10.8168C4.70256 10.488 5.16 10.4942 5.18088 10.8154ZM19.9973 10.817C20.0194 10.488 20.4768 10.4942 20.4974 10.8156C20.491 11.1617 20.0045 11.1502 19.9973 10.817ZM21.1757 10.817C21.1973 10.488 21.6547 10.4942 21.6758 10.8156C21.6689 11.1617 21.1826 11.1502 21.1757 10.817ZM2.23512 11.4048C2.2284 11.7509 1.74168 11.7396 1.73472 11.4062C1.7568 11.0772 2.21448 11.0834 2.23512 11.4048ZM3.41352 11.4048C3.40704 11.7509 2.92032 11.7396 2.91336 11.4062C2.9352 11.0772 3.39288 11.0834 3.41352 11.4048ZM4.59168 11.4048C4.58496 11.7509 4.09824 11.7396 4.09152 11.4062C4.11336 11.0772 4.5708 11.0834 4.59168 11.4048ZM5.76984 11.4048C5.76336 11.7509 5.27664 11.7396 5.26968 11.4062C5.29176 11.0772 5.7492 11.0834 5.76984 11.4048ZM20.5865 11.406C20.6083 11.077 21.066 11.0832 21.0866 11.4046C21.0802 11.7509 20.5934 11.7394 20.5865 11.406ZM21.7649 11.406C21.7867 11.077 22.2442 11.0832 22.2653 11.4046C22.2581 11.7509 21.7716 11.7394 21.7649 11.406ZM2.82432 11.9938C2.81784 12.3398 2.33112 12.3288 2.32416 11.9954C2.34576 11.6662 2.80368 11.6724 2.82432 11.9938ZM4.00272 11.9938C3.996 12.3398 3.50928 12.3288 3.50232 11.9954C3.52416 11.6662 3.98184 11.6724 4.00272 11.9938ZM5.18088 11.9938C5.17416 12.3398 4.68744 12.3288 4.68048 11.9954C4.70256 11.6662 5.16 11.6724 5.18088 11.9938ZM16.8 11.1247V11.0568C16.8886 11.0266 16.9603 10.9469 16.9632 10.8154C16.9553 10.6942 16.8854 10.6181 16.8 10.5876V9.87864C16.8886 9.8484 16.9603 9.76872 16.9632 9.6372C16.9553 9.516 16.8854 9.43968 16.8 9.4092V8.7C16.8886 8.67 16.9603 8.59032 16.9632 8.4588C16.9553 8.33784 16.8854 8.26152 16.8 8.2308V7.52184C16.8886 7.4916 16.9603 7.41192 16.9632 7.2804C16.9553 7.1592 16.8854 7.08312 16.8 7.05264V6.34344C16.8886 6.3132 16.9603 6.23352 16.9632 6.102C16.9553 5.98104 16.8854 5.90472 16.8 5.87424V5.4C16.8 5.32416 16.7938 5.24712 16.7827 5.16984C16.8787 5.1444 16.9603 5.064 16.9632 4.92408C16.9505 4.7328 16.7837 4.65408 16.6459 4.69032C16.4801 4.31112 16.1849 3.97032 15.7814 3.7776C15.7824 3.76704 15.7848 3.7572 15.7848 3.74592C15.7668 3.46728 15.4205 3.426 15.3146 3.63456C15.0931 3.59976 14.85 3.60504 14.5879 3.66168C14.5351 3.52128 14.3806 3.47328 14.2601 3.52152C14.195 3.3612 14.1072 3.2124 14.0014 3.07872C13.9781 3.01224 13.933 2.96568 13.8785 2.93952C13.7462 2.8044 13.5934 2.69016 13.4246 2.60184C13.4261 2.59056 13.4285 2.57976 13.4285 2.56728C13.4112 2.29704 13.0853 2.25072 12.9691 2.43816C12.8498 2.41344 12.7265 2.4 12.6 2.4C12.4663 2.4 12.3365 2.41488 12.2119 2.44248C12.0979 2.25312 11.7684 2.2908 11.7497 2.56896C11.7502 2.58432 11.7526 2.59848 11.7547 2.61264C11.5999 2.69616 11.459 2.80152 11.3357 2.92488C11.2546 2.94936 11.1859 3.0144 11.1665 3.12096C11.0731 3.246 10.9954 3.38352 10.9363 3.5304C10.8182 3.47112 10.6577 3.50808 10.5962 3.64536C10.3435 3.58584 10.0944 3.5832 9.86016 3.62832C9.75072 3.42984 9.41208 3.46464 9.39336 3.74688C9.39384 3.76128 9.39624 3.774 9.39816 3.7872C9.22752 3.8736 9.07128 3.98616 8.93592 4.1208C8.88984 4.14504 8.85096 4.18416 8.82768 4.23888C8.71272 4.37496 8.6172 4.52832 8.54592 4.69416C8.406 4.64856 8.22864 4.72368 8.21544 4.92528C8.21832 5.06856 8.31024 5.15208 8.41416 5.17344C8.4048 5.24784 8.4 5.32344 8.4 5.4V5.86824C8.31648 5.8896 8.244 5.9532 8.22192 6.06C7.97304 5.99976 7.73712 5.9892 7.51872 6.01944C7.4316 5.78376 7.05648 5.80632 7.0368 6.10392C7.03728 6.12312 7.03968 6.14064 7.0428 6.15792C6.648 6.3396 6.3444 6.66504 6.16896 7.04568C6.03264 7.01304 5.87136 7.09008 5.8584 7.28232C5.86104 7.40952 5.93376 7.48944 6.02304 7.52088C6.00816 7.61328 6 7.7064 6 7.8V8.2404C5.92512 8.2752 5.86608 8.34768 5.85864 8.46048C5.86128 8.57616 5.922 8.65224 6 8.68872V9.4188C5.92512 9.4536 5.86608 9.52608 5.85864 9.63888C5.86128 9.75456 5.922 9.83088 6 9.86736V10.5972C5.92512 10.6322 5.86608 10.7045 5.85864 10.8173C5.86128 10.9332 5.922 11.009 6 11.0458V11.7756C5.92512 11.8106 5.86608 11.8829 5.85864 11.9957C5.86128 12.1114 5.922 12.1874 6 12.2239V12.954C5.92512 12.9888 5.86608 13.061 5.85864 13.1738C5.86128 13.2895 5.922 13.3658 6 13.4023V14.1322C5.92512 14.167 5.86608 14.2394 5.85864 14.352C5.86128 14.4679 5.922 14.544 6 14.5805V15.3103C5.92512 15.3454 5.86608 15.4176 5.85864 15.5304C5.86128 15.6461 5.922 15.7222 6 15.7586V16.4887C5.92512 16.5238 5.86608 16.5958 5.85864 16.7088C5.86128 16.8259 5.92368 16.9027 6.00312 16.9385C6.01368 17.2032 6.05472 17.4367 6.11856 17.6431C5.99568 17.6383 5.86992 17.7182 5.85864 17.8872C5.86392 18.1483 6.16368 18.211 6.29616 18.0595C6.35448 18.1632 6.42 18.2573 6.49032 18.3432C6.46728 18.379 6.45144 18.4229 6.44784 18.4764C6.45288 18.7147 6.70248 18.7874 6.84696 18.6835C6.942 18.7546 7.04016 18.816 7.1388 18.8686C7.08384 18.9086 7.04304 18.9737 7.0368 19.0654C7.04376 19.3987 7.53048 19.41 7.5372 19.0639C7.53648 19.055 7.53456 19.0476 7.53312 19.0392C8.004 19.2 8.4 19.2 8.4 19.2V20.0076C8.3052 20.0321 8.22432 20.1094 8.2152 20.243C8.22072 20.5133 8.54136 20.5718 8.6664 20.3998H9.44448C9.5412 20.5277 9.74952 20.5306 9.84456 20.3998H10.6226C10.7194 20.5277 10.9277 20.5306 11.0227 20.3998H11.8008C11.8975 20.5277 12.1058 20.5306 12.2009 20.3998H12.979C13.0754 20.5277 13.284 20.5306 13.379 20.3998H14.1574C14.2538 20.5277 14.4622 20.5306 14.5572 20.3998H15.3353C15.4618 20.5668 15.779 20.5207 15.7843 20.2416C15.7759 20.1103 15.6943 20.0328 15.5995 20.0078V19.3104C15.6974 19.2862 15.7814 19.2055 15.7843 19.0637C15.7834 19.0457 15.7802 19.0289 15.7766 19.013C15.8676 18.9118 15.9509 18.8105 16.0262 18.7099C16.1717 18.7692 16.3694 18.6943 16.3735 18.4745C16.3687 18.3994 16.3392 18.3418 16.2977 18.3014C16.3654 18.1853 16.4237 18.0715 16.4743 17.9616C16.547 18.2186 16.9565 18.203 16.9627 17.8853C16.9486 17.6698 16.7381 17.5968 16.5943 17.671C16.7021 17.3777 16.7532 17.1281 16.7774 16.9541C16.8756 16.9301 16.9601 16.8492 16.9627 16.7071C16.9603 16.6704 16.9514 16.6385 16.9392 16.6102L17.347 16.3699C17.4055 16.3606 17.4605 16.3306 17.4989 16.2806L18.8234 15.5004C18.8218 15.5105 18.8194 15.5196 18.8186 15.5304C18.8254 15.8638 19.3121 15.875 19.319 15.5287C19.3111 15.4094 19.2432 15.3336 19.1597 15.3026L19.2168 15.2686C19.3034 15.2174 19.385 15.1615 19.4623 15.102C19.5907 15.2642 19.9025 15.2167 19.9078 14.9398C19.9027 14.8596 19.8701 14.7991 19.824 14.7583C19.8996 14.6698 19.9682 14.5762 20.0292 14.479C20.1389 14.6798 20.491 14.6448 20.4965 14.3506C20.4852 14.1775 20.3474 14.0966 20.219 14.1096C20.3138 13.8785 20.3714 13.6337 20.3911 13.3846C20.4511 13.3435 20.4948 13.2737 20.4965 13.1722C20.4905 13.0783 20.4466 13.0121 20.3878 12.9727C20.3642 12.7265 20.3023 12.4807 20.1996 12.245C20.3364 12.2705 20.4929 12.1894 20.4965 11.994C20.478 11.7067 20.1108 11.6722 20.0174 11.9038C19.9517 11.8003 19.8799 11.7046 19.8031 11.616C19.8624 11.575 19.9054 11.5056 19.9075 11.405C19.89 11.1324 19.5586 11.0875 19.445 11.281C19.3378 11.1998 19.2247 11.1286 19.1081 11.0683C19.2168 11.0532 19.3152 10.9704 19.3186 10.8158C19.2974 10.4945 18.84 10.4885 18.8182 10.8173C18.8194 10.8739 18.8352 10.9205 18.8594 10.9584C18.6271 10.871 18.3838 10.8211 18.1392 10.8079C18.1111 10.4947 17.6616 10.4911 17.64 10.8173C17.64 10.8223 17.6412 10.8266 17.6414 10.8317C17.3474 10.8756 17.0604 10.9738 16.8 11.1247ZM12 4.20096C12 3.846 12.277 3.6 12.6 3.6C12.9482 3.6 13.2 3.89664 13.2 4.20096V10.2H12C12 10.2 12 4.55568 12 4.20096ZM9.6 5.4C9.6 5.034 9.88512 4.8 10.2 4.8C10.5492 4.8 10.8 5.11632 10.8 5.4C10.8 5.71368 10.8 10.2 10.8 10.2H9.6V5.4ZM7.2 7.8C7.2 7.46952 7.46952 7.2 7.8 7.2C8.1384 7.2 8.4 7.46232 8.4 7.8C8.4 8.13768 8.4 10.2 8.4 10.2C7.97904 10.2 7.57032 10.3106 7.2 10.469V7.8ZM19.0337 12.5906C19.3687 13.1602 19.1789 13.8984 18.6082 14.2349L15.6 16.0066V16.7436C15.5986 16.7753 15.6324 17.5906 14.4 18.703V19.2H11.4V15.6036C11.4034 15.3024 11.5063 13.8 13.2 13.8V12.6C10.8266 12.6 10.2 14.563 10.2 15.6V19.2H9.58368V18H8.41416C7.86096 17.9858 7.2 17.7667 7.2 16.8V11.8236C7.56768 11.5951 8.00208 11.4 8.4 11.4H14.4C14.4 11.4 14.4 6.144 14.4 5.4C14.4 5.02392 14.7122 4.8 15 4.8C15.3223 4.8 15.6 5.06952 15.6 5.4V13.2048L17.4 12.1642C18.3122 11.6364 18.9545 12.4567 19.0337 12.5906ZM21.1757 11.9952C21.1973 11.6662 21.6547 11.6724 21.6758 11.9935C21.6689 12.3398 21.1826 12.3286 21.1757 11.9952ZM2.23512 12.583C2.2284 12.929 1.74168 12.9178 1.73472 12.5846C1.7568 12.2554 2.21448 12.2616 2.23512 12.583ZM3.41352 12.583C3.40704 12.929 2.92032 12.9178 2.91336 12.5846C2.9352 12.2554 3.39288 12.2616 3.41352 12.583ZM4.59168 12.583C4.58496 12.929 4.09824 12.9178 4.09152 12.5846C4.11336 12.2554 4.5708 12.2616 4.59168 12.583ZM5.76984 12.583C5.76336 12.929 5.27664 12.9178 5.26968 12.5846C5.29176 12.2554 5.7492 12.2616 5.76984 12.583ZM20.5865 12.5846C20.6083 12.2556 21.066 12.2616 21.0866 12.583C21.0802 12.929 20.5934 12.9175 20.5865 12.5846ZM21.7649 12.5846C21.7867 12.2556 22.2442 12.2616 22.2653 12.583C22.2581 12.929 21.7716 12.9175 21.7649 12.5846ZM2.82432 13.1719C2.81784 13.5182 2.33112 13.507 2.32416 13.1736C2.34576 12.8448 2.80368 12.8508 2.82432 13.1719ZM4.00272 13.1719C3.996 13.5182 3.50928 13.507 3.50232 13.1736C3.52416 12.8448 3.98184 12.8508 4.00272 13.1719ZM5.18088 13.1719C5.17416 13.5182 4.68744 13.507 4.68048 13.1736C4.70256 12.8448 5.16 12.8508 5.18088 13.1719ZM21.1757 13.1736C21.1973 12.8448 21.6547 12.8508 21.6758 13.1719C21.6689 13.5182 21.1826 13.5067 21.1757 13.1736ZM2.23512 13.7611C2.2284 14.1074 1.74168 14.0959 1.73472 13.7628C1.7568 13.4338 2.21448 13.44 2.23512 13.7611ZM3.41352 13.7611C3.40704 14.1074 2.92032 14.0959 2.91336 13.7628C2.9352 13.4338 3.39288 13.44 3.41352 13.7611ZM4.59168 13.7611C4.58496 14.1074 4.09824 14.0959 4.09152 13.7628C4.11336 13.4338 4.5708 13.44 4.59168 13.7611ZM5.76984 13.7611C5.76336 14.1074 5.27664 14.0959 5.26968 13.7628C5.29176 13.4338 5.7492 13.44 5.76984 13.7611ZM20.5865 13.7628C20.6083 13.4338 21.066 13.44 21.0866 13.7611C21.0802 14.1074 20.5934 14.0957 20.5865 13.7628ZM21.7649 13.7628C21.7867 13.4338 22.2442 13.44 22.2653 13.7611C22.2581 14.1074 21.7716 14.0957 21.7649 13.7628ZM2.82432 14.3503C2.81784 14.6964 2.33112 14.6851 2.32416 14.3518C2.34576 14.023 2.80368 14.029 2.82432 14.3503ZM4.00272 14.3503C3.996 14.6964 3.50928 14.6851 3.50232 14.3518C3.52416 14.023 3.98184 14.029 4.00272 14.3503ZM5.18088 14.3503C5.17416 14.6964 4.68744 14.6851 4.68048 14.3518C4.70256 14.023 5.16 14.029 5.18088 14.3503ZM21.1757 14.3518C21.1973 14.023 21.6547 14.029 21.6758 14.3503C21.6689 14.6964 21.1826 14.6851 21.1757 14.3518ZM2.23512 14.9395C2.2284 15.2856 1.74168 15.2743 1.73472 14.941C1.7568 14.6122 2.21448 14.6182 2.23512 14.9395ZM3.41352 14.9395C3.40704 15.2856 2.92032 15.2743 2.91336 14.941C2.9352 14.6122 3.39288 14.6182 3.41352 14.9395ZM4.59168 14.9395C4.58496 15.2856 4.09824 15.2743 4.09152 14.941C4.11336 14.6122 4.5708 14.6182 4.59168 14.9395ZM5.76984 14.9395C5.76336 15.2856 5.27664 15.2743 5.26968 14.941C5.29176 14.6122 5.7492 14.6182 5.76984 14.9395ZM20.5865 14.941C20.6083 14.6122 21.066 14.6182 21.0866 14.9395C21.0802 15.2856 20.5934 15.2743 20.5865 14.941ZM21.7649 14.941C21.7867 14.6122 22.2442 14.6182 22.2653 14.9395C22.2581 15.2856 21.7716 15.2743 21.7649 14.941ZM2.82432 15.5285C2.81784 15.8746 2.33112 15.8635 2.32416 15.5302C2.34576 15.2011 2.80368 15.2071 2.82432 15.5285ZM4.00272 15.5285C3.996 15.8746 3.50928 15.8635 3.50232 15.5302C3.52416 15.2011 3.98184 15.2071 4.00272 15.5285ZM5.18088 15.5285C5.17416 15.8746 4.68744 15.8635 4.68048 15.5302C4.70256 15.2011 5.16 15.2071 5.18088 15.5285ZM20.4974 15.5285C20.491 15.8746 20.0042 15.8635 19.9973 15.5302C20.0194 15.2011 20.4768 15.2071 20.4974 15.5285ZM21.1757 15.5302C21.1973 15.2011 21.6547 15.2071 21.6758 15.5285C21.6689 15.8748 21.1826 15.8635 21.1757 15.5302ZM2.23512 16.1177C2.2284 16.4638 1.74168 16.4525 1.73472 16.1194C1.7568 15.7903 2.21448 15.7963 2.23512 16.1177ZM3.41352 16.1177C3.40704 16.4638 2.92032 16.4525 2.91336 16.1194C2.9352 15.7903 3.39288 15.7963 3.41352 16.1177ZM4.59168 16.1177C4.58496 16.4638 4.09824 16.4525 4.09152 16.1194C4.11336 15.7903 4.5708 15.7963 4.59168 16.1177ZM5.76984 16.1177C5.76336 16.4638 5.27664 16.4525 5.26968 16.1194C5.29176 15.7903 5.7492 15.7963 5.76984 16.1177ZM18.7303 16.1177C18.7236 16.4638 18.2369 16.4525 18.2302 16.1194C18.252 15.7903 18.7094 15.7963 18.7303 16.1177ZM19.9085 16.1177C19.9018 16.4638 19.415 16.4525 19.4081 16.1194C19.4302 15.7903 19.8876 15.7963 19.9085 16.1177ZM20.5865 16.1194C20.6083 15.7903 21.066 15.7963 21.0866 16.1177C21.0802 16.464 20.5934 16.4525 20.5865 16.1194ZM21.7649 16.1194C21.7867 15.7903 22.2442 15.7963 22.2653 16.1177C22.2581 16.464 21.7716 16.4525 21.7649 16.1194ZM2.82432 16.7069C2.81784 17.053 2.33112 17.0417 2.32416 16.7086C2.34576 16.3795 2.80368 16.3855 2.82432 16.7069ZM4.00272 16.7069C3.996 17.053 3.50928 17.0417 3.50232 16.7086C3.52416 16.3795 3.98184 16.3855 4.00272 16.7069ZM5.18088 16.7069C5.17416 17.053 4.68744 17.0417 4.68048 16.7086C4.70256 16.3795 5.16 16.3855 5.18088 16.7069ZM18.1411 16.7069C18.1346 17.053 17.6479 17.0417 17.641 16.7086C17.6628 16.3795 18.1205 16.3855 18.1411 16.7069ZM19.3195 16.7069C19.3126 17.053 18.8258 17.0417 18.8191 16.7086C18.841 16.3795 19.2984 16.3855 19.3195 16.7069ZM20.4974 16.7069C20.491 17.053 20.0042 17.0417 19.9973 16.7086C20.0194 16.3795 20.4768 16.3855 20.4974 16.7069ZM21.1757 16.7086C21.1973 16.3795 21.6547 16.3855 21.6758 16.7069C21.6689 17.0532 21.1826 17.0417 21.1757 16.7086ZM3.41352 17.2958C3.40704 17.6422 2.92032 17.6309 2.91336 17.2975C2.9352 16.9687 3.39288 16.975 3.41352 17.2958ZM4.59168 17.2958C4.58496 17.6422 4.09824 17.6309 4.09152 17.2975C4.11336 16.9687 4.5708 16.975 4.59168 17.2958ZM5.76984 17.2958C5.76336 17.6422 5.27664 17.6309 5.26968 17.2975C5.29176 16.9687 5.7492 16.975 5.76984 17.2958ZM17.5522 17.2958C17.5454 17.6422 17.0587 17.6309 17.0518 17.2975C17.0738 16.9687 17.5313 16.975 17.5522 17.2958ZM18.7303 17.2958C18.7236 17.6422 18.2369 17.6309 18.2302 17.2975C18.252 16.9687 18.7094 16.975 18.7303 17.2958ZM19.9085 17.2958C19.9018 17.6422 19.415 17.6309 19.4081 17.2975C19.4302 16.9687 19.8876 16.975 19.9085 17.2958ZM20.5865 17.2975C20.6083 16.9687 21.066 16.9747 21.0866 17.2958C21.0802 17.6424 20.5934 17.6309 20.5865 17.2975ZM4.00272 17.885C3.996 18.2311 3.50928 18.2198 3.50232 17.8867C3.52416 17.5577 3.98184 17.5639 4.00272 17.885ZM5.18088 17.885C5.17416 18.2311 4.68744 18.2198 4.68048 17.8867C4.70256 17.5577 5.16 17.5639 5.18088 17.885ZM18.1411 17.885C18.1346 18.2311 17.6479 18.2198 17.641 17.8867C17.6628 17.5577 18.1205 17.5639 18.1411 17.885ZM19.3195 17.885C19.3126 18.2311 18.8258 18.2198 18.8191 17.8867C18.841 17.5577 19.2984 17.5639 19.3195 17.885ZM20.4974 17.885C20.491 18.2311 20.0042 18.2198 19.9973 17.8867C20.0194 17.5577 20.4768 17.5639 20.4974 17.885ZM4.59168 18.4745C4.58496 18.8206 4.09824 18.8093 4.09152 18.4759C4.11336 18.1469 4.5708 18.1531 4.59168 18.4745ZM5.76984 18.4745C5.76336 18.8206 5.27664 18.8093 5.26968 18.4759C5.29176 18.1469 5.7492 18.1531 5.76984 18.4745ZM17.5522 18.4745C17.5454 18.8206 17.0587 18.8093 17.0518 18.4759C17.0738 18.1469 17.5313 18.1531 17.5522 18.4745ZM18.7303 18.4745C18.7236 18.8206 18.2369 18.8093 18.2302 18.4759C18.252 18.1469 18.7094 18.1531 18.7303 18.4745ZM19.9085 18.4745C19.9018 18.8206 19.415 18.8093 19.4081 18.4759C19.4302 18.1469 19.8876 18.1531 19.9085 18.4745ZM5.18088 19.0637C5.17416 19.4095 4.68744 19.3985 4.68048 19.0651C4.70256 18.7358 5.16 18.7423 5.18088 19.0637ZM6.35904 19.0637C6.35232 19.4095 5.8656 19.3985 5.85864 19.0651C5.88048 18.7358 6.33816 18.7423 6.35904 19.0637ZM16.9632 19.0637C16.9562 19.4095 16.4695 19.3985 16.4626 19.0651C16.4846 18.7358 16.9421 18.7423 16.9632 19.0637ZM18.1411 19.0637C18.1346 19.4095 17.6479 19.3985 17.641 19.0651C17.6628 18.7358 18.1205 18.7423 18.1411 19.0637ZM19.3195 19.0637C19.3126 19.4095 18.8258 19.3985 18.8191 19.0651C18.841 18.7358 19.2984 18.7423 19.3195 19.0637ZM5.76984 19.6526C5.76336 19.9987 5.27664 19.9874 5.26968 19.6543C5.29176 19.325 5.7492 19.3313 5.76984 19.6526ZM6.94824 19.6526C6.94128 19.9987 6.45456 19.9874 6.44784 19.6543C6.46968 19.325 6.92712 19.3313 6.94824 19.6526ZM8.12616 19.6526C8.11968 19.9987 7.63296 19.9874 7.626 19.6543C7.64784 19.325 8.10552 19.3313 8.12616 19.6526ZM16.374 19.6526C16.3673 19.9987 15.8806 19.9874 15.8736 19.6543C15.8954 19.325 16.3531 19.3313 16.374 19.6526ZM17.5522 19.6526C17.5454 19.9987 17.0587 19.9874 17.0518 19.6543C17.0738 19.325 17.5313 19.3313 17.5522 19.6526ZM18.7303 19.6526C18.7236 19.9987 18.2369 19.9874 18.2302 19.6543C18.252 19.325 18.7094 19.3313 18.7303 19.6526ZM6.35904 20.2418C6.35232 20.5879 5.8656 20.5766 5.85864 20.2433C5.88048 19.9145 6.33816 19.9205 6.35904 20.2418ZM7.5372 20.2418C7.53048 20.5879 7.04376 20.5766 7.0368 20.2433C7.05888 19.9145 7.51632 19.9205 7.5372 20.2418ZM16.9632 20.2418C16.9562 20.5879 16.4695 20.5766 16.4626 20.2433C16.4846 19.9145 16.9421 19.9205 16.9632 20.2418ZM18.1411 20.2418C18.1346 20.5879 17.6479 20.5766 17.641 20.2433C17.6628 19.9145 18.1205 19.9205 18.1411 20.2418ZM6.94824 20.8308C6.94128 21.1771 6.45456 21.1658 6.44784 20.8325C6.46968 20.5037 6.92712 20.5097 6.94824 20.8308ZM8.12616 20.8308C8.11968 21.1771 7.63296 21.1658 7.626 20.8325C7.64784 20.5037 8.10552 20.5097 8.12616 20.8308ZM9.3048 20.8308C9.29784 21.1771 8.81112 21.1658 8.8044 20.8325C8.826 20.5037 9.28368 20.5097 9.3048 20.8308ZM10.483 20.8308C10.4762 21.1771 9.98952 21.1658 9.98256 20.8325C10.0046 20.5037 10.4621 20.5097 10.483 20.8308ZM11.6611 20.8308C11.6544 21.1771 11.1677 21.1658 11.1607 20.8325C11.1826 20.5037 11.6402 20.5097 11.6611 20.8308ZM12.839 20.8308C12.8326 21.1771 12.3458 21.1658 12.3389 20.8325C12.361 20.5037 12.8184 20.5097 12.839 20.8308ZM14.0174 20.8308C14.0107 21.1771 13.524 21.1658 13.517 20.8325C13.5391 20.5037 13.9966 20.5097 14.0174 20.8308ZM15.1954 20.8308C15.1889 21.1771 14.7022 21.1658 14.6952 20.8325C14.7173 20.5037 15.175 20.5097 15.1954 20.8308ZM16.374 20.8308C16.3673 21.1771 15.8806 21.1658 15.8736 20.8325C15.8954 20.5037 16.3531 20.5097 16.374 20.8308ZM17.5522 20.8308C17.5454 21.1771 17.0587 21.1658 17.0518 20.8325C17.0738 20.5037 17.5313 20.5097 17.5522 20.8308ZM7.5372 21.42C7.53048 21.7661 7.04376 21.7548 7.0368 21.4217C7.05888 21.0926 7.51632 21.0986 7.5372 21.42ZM8.71536 21.42C8.70864 21.7661 8.22192 21.7548 8.2152 21.4217C8.23704 21.0926 8.69472 21.0986 8.71536 21.42ZM9.89376 21.42C9.88704 21.7661 9.40032 21.7548 9.39336 21.4217C9.4152 21.0926 9.87288 21.0986 9.89376 21.42ZM11.0719 21.42C11.0652 21.7661 10.5785 21.7548 10.5715 21.4217C10.5936 21.0926 11.051 21.0986 11.0719 21.42ZM12.2503 21.42C12.2434 21.7661 11.7566 21.7548 11.7497 21.4217C11.7718 21.0926 12.2292 21.0986 12.2503 21.42ZM13.4282 21.42C13.4215 21.7661 12.9348 21.7548 12.9281 21.4217C12.9499 21.0926 13.4074 21.0986 13.4282 21.42ZM14.6066 21.42C14.5997 21.7661 14.113 21.7548 14.106 21.4217C14.1281 21.0926 14.5855 21.0986 14.6066 21.42ZM15.7848 21.42C15.7783 21.7661 15.2914 21.7548 15.2846 21.4217C15.3062 21.0926 15.7642 21.0986 15.7848 21.42ZM16.9632 21.42C16.9562 21.7661 16.4695 21.7548 16.4626 21.4217C16.4846 21.0926 16.9421 21.0986 16.9632 21.42ZM8.12616 22.0092C8.11968 22.3553 7.63296 22.344 7.626 22.0106C7.64784 21.6818 8.10552 21.6878 8.12616 22.0092ZM9.3048 22.0092C9.29784 22.3553 8.81112 22.344 8.8044 22.0106C8.826 21.6818 9.28368 21.6878 9.3048 22.0092ZM10.483 22.0092C10.4762 22.3553 9.98952 22.344 9.98256 22.0106C10.0046 21.6818 10.4621 21.6878 10.483 22.0092ZM11.6611 22.0092C11.6544 22.3553 11.1677 22.344 11.1607 22.0106C11.1826 21.6818 11.6402 21.6878 11.6611 22.0092ZM12.839 22.0092C12.8326 22.3553 12.3458 22.344 12.3389 22.0106C12.361 21.6818 12.8184 21.6878 12.839 22.0092ZM14.0174 22.0092C14.0107 22.3553 13.524 22.344 13.517 22.0106C13.5391 21.6818 13.9966 21.6878 14.0174 22.0092ZM15.1954 22.0092C15.1889 22.3553 14.7022 22.344 14.6952 22.0106C14.7173 21.6818 15.175 21.6878 15.1954 22.0092ZM16.374 22.0092C16.3673 22.3553 15.8806 22.344 15.8736 22.0106C15.8954 21.6818 16.3531 21.6878 16.374 22.0092Z" fill="black"/>
</svg>
