<svg width="24" height="24" viewBox="0 0 24 24" fill="none" xmlns="http://www.w3.org/2000/svg">
<path d="M18.667 8.99891V8.41563L18.1593 8.12848L9.32092 3.12958L7.82861 2.28554V4V7.58478V8.16804L8.33628 8.45519L10.6588 9.76885V16.5711V17.1542L11.1662 17.4414L14.3443 19.2402L15.8368 20.0851V18.37V12.6974L17.1747 13.4541L18.667 14.2982V12.5837V8.99891Z" fill="#2A21A3" stroke="black" stroke-width="2"/>
<path d="M17.2518 9.81383V9.23061L16.7441 8.94344L7.90741 3.94456L6.41504 3.10033V4.81494V8.39972V8.98281L6.92249 9.27001L9.24352 10.5836V17.386V17.9692L9.75113 18.2564L12.9309 20.0553L14.4233 20.8996V19.1849V13.5128L15.7592 14.2689L17.2518 15.1136V13.3986V9.81383Z" fill="#725BFF" stroke="black" stroke-width="2"/>
<path d="M15.8367 10.6288V10.0456L15.3291 9.7584L6.49237 4.7595L5 3.91527V5.62988V9.21466V9.79792L5.50767 10.0851L7.83014 11.3987V18.201V18.784L8.33755 19.0712L11.5157 20.8701L13.0083 21.715V19.9999V14.3278L14.3442 15.0839L15.8367 15.9286V14.2136V10.6288Z" fill="#00E6CD" stroke="black" stroke-width="2"/>
<path d="M17.667 8.99891V12.5837L14.8368 10.9829V18.37L11.6588 16.5711V9.18559L8.82861 7.58478V4L17.667 8.99891Z" fill="#767674"/>
<path d="M16.2518 9.81383V13.3986L13.4233 11.7978V19.1849L10.2435 17.386V10.0006L7.41504 8.39972V4.81494L16.2518 9.81383Z" fill="#BFB9BD"/>
<path d="M14.8367 10.6288V14.2136L12.0083 12.6128V19.9999L8.83014 18.201V10.8155L6 9.21466V5.62988L14.8367 10.6288Z" fill="white"/>
</svg>
