<svg width="24" height="24" viewBox="0 0 24 24" fill="none" xmlns="http://www.w3.org/2000/svg">
<path d="M18.667 8.99891V8.41563L18.1593 8.12848L9.32092 3.12958L7.82861 2.28554V4V7.58478V8.16804L8.33628 8.45519L10.6588 9.76885V16.5711V17.1542L11.1662 17.4414L14.3443 19.2402L15.8368 20.0851V18.37V12.6974L17.1747 13.4541L18.667 14.2982V12.5837V8.99891Z" fill="#2A21A3" stroke="black" stroke-width="2"/>
<path d="M17.2519 9.81389V9.23067L16.7443 8.94351L7.90753 3.94462L6.41516 3.10039V4.815V8.39978V8.98287L6.92261 9.27007L9.24364 10.5837V17.3861V17.9693L9.75125 18.2565L12.931 20.0553L14.4234 20.8996V19.185V13.5129L15.7593 14.269L17.2519 15.1137V13.3987V9.81389Z" fill="#725BFF" stroke="black" stroke-width="2"/>
<path d="M15.8367 10.6289V10.0457L15.3291 9.75852L6.49237 4.75962L5 3.91539V5.63V9.21478V9.79804L5.50767 10.0852L7.83014 11.3988V18.2011V18.7842L8.33755 19.0714L11.5157 20.8702L13.0083 21.7151V20V14.3279L14.3442 15.084L15.8367 15.9287V14.2137V10.6289Z" fill="#00E6CD" stroke="black" stroke-width="2"/>
<path d="M17.667 8.99891V12.5837L14.8368 10.9829V18.37L11.6588 16.5711V9.18559L8.82861 7.58478V4L17.667 8.99891Z" fill="#767674"/>
<path d="M16.2519 9.81389V13.3987L13.4234 11.7979V19.185L10.2436 17.3861V10.0006L7.41516 8.39978V4.815L16.2519 9.81389Z" fill="#BFB9BD"/>
<path d="M14.8367 10.6289V14.2137L12.0083 12.6129V20L8.83014 18.2011V10.8156L6 9.21478V5.63L14.8367 10.6289Z" fill="white"/>
</svg>
