<svg width="24" height="24" fill="none"
  xmlns="http://www.w3.org/2000/svg">
  <path d="M12 23c6.075 0 11-4.925 11-11S18.075 1 12 1 1 5.925 1 12s4.925 11 11 11Z" fill="#EDEFEE" stroke="#000" stroke-width="2"/>
  <path fill-rule="evenodd" clip-rule="evenodd" d="M6.526 11.895c2.916-1.27 4.86-2.108 5.832-2.513 2.777-1.155 3.354-1.355 3.73-1.362.083-.001.268.02.388.116a.422.422 0 0 1 .142.271c.014.078.03.255.017.394-.15 1.581-.802 5.418-1.133 7.19-.14.749-.416 1-.683 1.024-.581.054-1.022-.383-1.584-.752-.88-.577-1.378-.936-2.232-1.499-.987-.65-.347-1.008.215-1.593.148-.153 2.706-2.48 2.756-2.691.006-.026.012-.125-.047-.177-.058-.052-.145-.034-.207-.02-.088.02-1.494.95-4.218 2.788-.399.274-.76.408-1.084.4-.357-.007-1.044-.201-1.555-.367-.626-.204-1.124-.311-1.08-.657.022-.18.27-.364.743-.552Z" fill="#000"/>
</svg>