<svg width="24" height="24" viewBox="0 0 24 24" fill="none" xmlns="http://www.w3.org/2000/svg">
<path d="M13.5002 0H11.5002V1.00008H13.5002V0Z" fill="black"/>
<path d="M6.5 12V13.0001H7.50008V13.9999H8.50016V12.9943V12V9H7.50008V12H6.5Z" fill="black"/>
<path d="M6.49992 10.9999H4.5V12H6.49992V10.9999Z" fill="black"/>
<path d="M4.50008 12H3.5V13.9999H4.50008V12Z" fill="black"/>
<path d="M5.50008 13.9999H4.5V15H5.50008V13.9999Z" fill="black"/>
<path d="M6.50032 15H5.50024V16.9999H6.50032V15Z" fill="black"/>
<path d="M7.50008 16.9999H6.5V19H7.50008V16.9999Z" fill="black"/>
<path d="M8.50008 19.0001H7.5V21H8.50008V19.0001Z" fill="black"/>
<path d="M9.50032 21H8.50024V22.9999H9.50032V21Z" fill="black"/>
<path d="M17.4999 22.9999H9.5V24H17.4999V22.9999Z" fill="black"/>
<path d="M18.5001 21H17.5002V22.9999H18.5001V21Z" fill="black"/>
<path d="M19.5001 18H18.5V21H19.5001V18Z" fill="black"/>
<path d="M20.5001 10.9999H19.5V18H20.5001V10.9999Z" fill="black"/>
<path d="M19.5001 10.0001H18.5V11.0002H19.5001V10.0001Z" fill="black"/>
<path d="M18.4999 10.0001V9H17.4682H16.5V10.0111V13.0001H17.5001V10.0001H18.4999Z" fill="black"/>
<path d="M13.5 9.01684V11.9996V12H14.5001V11.9996V9.00004H16.5V7.99996H14.5001V1.00012H13.5V8.02276V9.01684Z" fill="black"/>
<path d="M10.5002 11H11.5002V1.00012H10.5002V7.99996H8.50024V9.00004H10.5002V11Z" fill="black"/>
</svg>
