<svg width="24" height="24" viewBox="0 0 24 24" fill="none" xmlns="http://www.w3.org/2000/svg">
<path d="M15.0972 4.54129C15.1329 4.68415 15.2799 4.80003 15.4266 4.80003H18.2665C18.7819 4.80003 19.1999 5.21781 19.1999 5.73327C19.1999 6.15905 18.9149 6.51803 18.5254 6.63022L18.0381 20.034C17.9983 21.1256 17.0915 22 15.9983 22H7.20162C6.1101 22 5.20143 21.1235 5.16181 20.034L4.67448 6.63022C4.28497 6.51806 4 6.15906 4 5.73327C4 5.21784 4.41797 4.80003 4.93343 4.80003H7.77329C7.91949 4.80003 8.06738 4.68285 8.10272 4.54129L8.30249 3.74238C8.54933 2.75524 9.51531 2 10.5324 2H12.6678C13.6849 2 14.6509 2.75486 14.8977 3.74238L15.0972 4.54129ZM10.9331 9.06658V18.1333C10.9331 18.5014 11.2317 18.7999 11.5998 18.7999C11.9679 18.7999 12.2665 18.5014 12.2665 18.1333V9.06658C12.2665 8.69846 11.9679 8.39991 11.5998 8.39991C11.2317 8.39991 10.9331 8.69846 10.9331 9.06658ZM7.86672 9.0863L8.13346 18.153C8.14425 18.5211 8.45136 18.8105 8.81946 18.7997C9.1874 18.7889 9.47703 18.4818 9.46622 18.1137L9.19948 9.04706C9.18869 8.67912 8.88159 8.38949 8.51348 8.4003C8.14555 8.41108 7.85591 8.71819 7.86672 9.0863ZM14.0001 9.04705L13.7333 18.1137C13.7225 18.4818 14.0121 18.789 14.3801 18.7997C14.7482 18.8105 15.0553 18.5211 15.0661 18.153L15.3328 9.08628C15.3436 8.71816 15.054 8.41105 14.6861 8.40028C14.3179 8.3895 14.0108 8.67912 14.0001 9.04705ZM10.0943 4.8H13.1052C13.1781 4.8 13.2233 4.74252 13.2056 4.67165L13.0866 4.19508C13.0473 4.03808 12.8278 3.86658 12.6675 3.86658H10.532C10.3721 3.86658 10.1522 4.03846 10.1129 4.19508L9.9939 4.67165C9.97567 4.74419 10.0211 4.8 10.0943 4.8H10.0943Z" fill="black"/>
</svg>
