<svg width="24" height="24" viewBox="0 0 24 24" fill="none" xmlns="http://www.w3.org/2000/svg">
<path d="M6.04283 11.8958H2V15.2499H6.04283V11.8958Z" fill="#00254D"/>
<path d="M9.52581 11.8958H5.57141V15.2499H9.52581V11.8958Z" fill="white"/>
<path d="M12.9793 11.8958H9.1427V15.2499H12.9793V11.8958Z" fill="#4B00A0"/>
<path d="M16.4625 11.8958H12.7142V15.2499H16.4625V11.8958Z" fill="#090909"/>
<path d="M17.4739 11.8958H16.2858V15.2499H17.4739V11.8958Z" fill="black"/>
<path d="M18.4262 11.8958H17.238V15.25H18.4262V11.8958Z" fill="#0F0F0F"/>
<path d="M19.4668 11.8958H18.1904V15.2499H19.4668V11.8958Z" fill="#1B1B1B"/>
<path d="M22 11.8959H19.1428V15.2501H22V11.8959Z" fill="#090909"/>
<path d="M7.71439 4H4.8573V11.75H7.71439V4Z" fill="#F7F700"/>
<path d="M10.5714 4H7.71423V11.75H10.5714V4Z" fill="#00F5F5"/>
<path d="M13.4284 4H10.5713V11.75H13.4284V4Z" fill="#00F000"/>
<path d="M16.2857 4H13.4286V11.75H16.2857V4Z" fill="#C000F2"/>
<path d="M19.1429 4H16.2858V11.75H19.1429V4Z" fill="#EE0000"/>
<path d="M22 4H19.1428V11.75H22V4Z" fill="#0000E8"/>
<path d="M4.85714 4H2V11.75H4.85714V4Z" fill="#C5C5C5"/>
<path d="M4.85714 11.5H2V12.4375H4.85714V11.5Z" fill="#0000E8"/>
<path d="M7.71439 11.5H4.8573V12.4375H7.71439V11.5Z" fill="#090909"/>
<path d="M10.5714 11.5H7.71423V12.4375H10.5714V11.5Z" fill="#C000F2"/>
<path d="M13.4284 11.5H10.5713V12.4375H13.4284V11.5Z" fill="#090909"/>
<path d="M16.2857 11.5H13.4286V12.4375H16.2857V11.5Z" fill="#00F5F5"/>
<path d="M19.1429 11.5H16.2858V12.4375H19.1429V11.5Z" fill="#090909"/>
<path d="M22 11.5H19.1428V12.4375H22V11.5Z" fill="#C5C5C5"/>
<g clip-path="url(#clip0)">
<path d="M22.2 2H1.8C1.32261 2 0.864773 2.18964 0.527208 2.52721C0.189642 2.86477 0 3.32261 0 3.8L0 15.8C0 16.2774 0.189642 16.7352 0.527208 17.0728C0.864773 17.4104 1.32261 17.6 1.8 17.6H10.8V18.8H4.2C4.04087 18.8 3.88826 18.8632 3.77574 18.9757C3.66321 19.0883 3.6 19.2409 3.6 19.4V20.6C3.6 20.7591 3.66321 20.9117 3.77574 21.0243C3.88826 21.1368 4.04087 21.2 4.2 21.2H19.8C19.9591 21.2 20.1117 21.1368 20.2243 21.0243C20.3368 20.9117 20.4 20.7591 20.4 20.6V19.4C20.4 19.2409 20.3368 19.0883 20.2243 18.9757C20.1117 18.8632 19.9591 18.8 19.8 18.8H13.2V17.6H22.2C22.6774 17.6 23.1352 17.4104 23.4728 17.0728C23.8104 16.7352 24 16.2774 24 15.8V3.8C24 3.32261 23.8104 2.86477 23.4728 2.52721C23.1352 2.18964 22.6774 2 22.2 2V2ZM21.6 15.2H2.4V4.4H21.6V15.2Z" fill="black"/>
</g>
<defs>
<clipPath id="clip0">
<rect width="24" height="19.2" fill="white" transform="translate(0 2)"/>
</clipPath>
</defs>
</svg>
