<svg width="24" height="24" viewBox="0 0 24 24" fill="none" xmlns="http://www.w3.org/2000/svg">
<path d="M20.6786 7.45398C20.6927 7.65128 20.6927 7.84863 20.6927 8.04615C20.6927 14.0632 16.1116 21 7.73883 21C5.15978 21 2.76292 20.253 0.75 18.9563C1.11645 18.9985 1.46884 19.0126 1.8493 19.0126C3.97762 19.0126 5.93631 18.2938 7.50197 17.0678C5.50076 17.0255 3.82361 15.7147 3.24576 13.9109C3.52766 13.9532 3.8093 13.9814 4.10559 13.9814C4.5143 13.9814 4.92291 13.925 5.30337 13.8264C3.21757 13.4035 1.65321 11.5714 1.65321 9.39706V9.34071C2.25926 9.67896 2.96378 9.89036 3.71082 9.91856C2.48484 9.10124 1.68141 7.70564 1.68141 6.12741C1.68141 5.28189 1.90687 4.50666 2.30134 3.83033C4.54202 6.59246 7.91063 8.39845 11.6892 8.59367C11.6187 8.25542 11.5764 7.90303 11.5764 7.55077C11.5764 5.04199 13.6059 3 16.1272 3C17.4378 3 18.6217 3.54965 19.4533 4.43768C20.4823 4.24038 21.4688 3.85983 22.3425 3.33838C22.0043 4.3956 21.2853 5.28319 20.3413 5.84716C21.2576 5.74855 22.1452 5.49481 22.9629 5.14263C22.343 6.04455 21.5677 6.84798 20.6797 7.49611L20.6786 7.45398Z" fill="black"/>
</svg>
