<svg width="24" height="24" viewBox="0 0 24 24" fill="none" xmlns="http://www.w3.org/2000/svg">
<path fill-rule="evenodd" clip-rule="evenodd" d="M19.9561 8.54045C19.9561 8.37701 19.9561 8.21371 19.9461 8.05045C19.9461 8.04968 19.946 8.04892 19.946 8.04815C19.9459 8.04782 19.9459 8.04748 19.9459 8.04714C19.9633 8.03443 19.9807 8.02165 19.998 8.0088C19.9992 8.00791 20.0004 8.00701 20.0016 8.00611C20.1174 7.92011 20.231 7.83118 20.3423 7.73946C20.735 7.41589 21.0992 7.05767 21.4296 6.67174C21.4802 6.61265 21.53 6.55291 21.579 6.49254C21.7269 6.31022 21.8675 6.1222 22.0002 5.92918C21.6704 6.07122 21.3279 6.19547 20.9762 6.29736C20.5428 6.42292 20.0952 6.5145 19.6398 6.56352C19.8881 6.41519 20.1191 6.24199 20.3293 6.04739C20.5866 5.80914 20.8128 5.5388 21.0015 5.24271C21.1524 5.00591 21.2792 4.75265 21.3787 4.48616C21.4011 4.42632 21.4221 4.36581 21.4416 4.30467C21.4043 4.32694 21.3668 4.34893 21.329 4.37063C21.0313 4.54167 20.7198 4.69471 20.3978 4.82776C20.3664 4.84073 20.335 4.8535 20.3034 4.86608C20.0374 4.97209 19.7646 5.0645 19.4868 5.14221C19.286 5.19838 19.0826 5.24686 18.8773 5.28725C18.865 5.28968 18.8526 5.29208 18.8402 5.29445C18.7234 5.16969 18.5988 5.05235 18.4673 4.94315C17.756 4.3525 16.8414 4 15.8455 4C13.9443 4 12.3537 5.28951 11.8869 7.03545C11.7964 7.37428 11.7481 7.73029 11.7481 8.09741C11.7481 8.41458 11.7862 8.73186 11.8496 9.03641C11.1426 8.99989 10.4515 8.90072 9.7821 8.7442C7.95478 8.31691 6.28952 7.46222 4.90438 6.28777C4.35548 5.82237 3.85057 5.30675 3.39699 4.74761C3.04182 5.35656 2.83882 6.05456 2.83882 6.81585C2.83882 6.91694 2.84248 7.0172 2.84968 7.1165C2.86441 7.31968 2.89395 7.51883 2.93724 7.71286C3.02102 8.08834 3.15629 8.44464 3.3354 8.77381C3.52285 9.11831 3.75831 9.43309 4.03299 9.70903C4.04998 9.72609 4.06711 9.74301 4.0844 9.75977C4.26322 9.93321 4.45787 10.0905 4.66605 10.2293C4.03161 10.2054 3.43123 10.0347 2.90718 9.75977C2.87565 9.74323 2.8444 9.72631 2.81343 9.70903V9.75977C2.81343 10.4755 3.00169 11.15 3.33233 11.7365C3.37858 11.8185 3.42763 11.8988 3.47933 11.9773C3.50695 12.0192 3.53533 12.0606 3.56445 12.1014C3.79308 12.422 4.06735 12.7089 4.37797 12.9524C4.5782 13.1094 4.79354 13.2483 5.0215 13.3668C5.10736 13.4114 5.195 13.4531 5.28431 13.4917C5.54332 13.6038 5.81628 13.6903 6.09995 13.7478C5.75739 13.8366 5.38949 13.8874 5.0215 13.8874C4.75472 13.8874 4.50114 13.862 4.24733 13.8239C4.41278 14.3404 4.67832 14.812 5.0215 15.2162C5.15341 15.3716 5.29678 15.517 5.45036 15.6512C5.51864 15.7109 5.58895 15.7683 5.66116 15.8235C5.67285 15.8324 5.6846 15.8413 5.6964 15.8501C6.36181 16.3468 7.18468 16.6474 8.07952 16.6663C7.4149 17.1868 6.6716 17.6057 5.87073 17.9032C5.73664 17.953 5.60093 17.9994 5.4637 18.0423C4.68218 18.2866 3.85152 18.4174 2.98998 18.4174C2.64743 18.4174 2.33014 18.4047 2.0002 18.3667C2.31972 18.5725 2.64998 18.7629 2.98998 18.937C3.91875 19.4126 4.92027 19.7661 5.97424 19.9777C6.72304 20.1281 7.49831 20.2068 8.29279 20.2068C15.1415 20.2068 19.1726 15.0519 19.8531 10.0461C19.9216 9.54191 19.9561 9.0392 19.9561 8.54344C19.9561 8.54244 19.9561 8.54144 19.9561 8.54045ZM21.9479 8.99624C21.7244 15.1708 16.9529 22.2068 8.29279 22.2068C5.57856 22.2068 3.04567 21.4192 0.91711 20.048C0.1354 19.5445 -0.196135 18.5686 0.117061 17.693C0.430257 16.8175 1.30555 16.2733 2.2293 16.3798C2.46139 16.4066 2.69835 16.4174 2.98998 16.4174C3.13069 16.4174 3.27023 16.4128 3.40848 16.4038C2.93993 15.8259 2.57525 15.1601 2.34267 14.4341C2.26244 14.1836 2.23358 13.9242 2.25327 13.6698C1.35594 12.6143 0.813431 11.2508 0.813431 9.75977V9.70903C0.813431 9.3269 0.922468 8.96018 1.1187 8.64701C0.936855 8.06862 0.838821 7.45338 0.838821 6.81585C0.838821 5.68814 1.14214 4.64392 1.66938 3.73997C2.0003 3.17259 2.58872 2.80387 3.24362 2.7535C3.89851 2.70313 4.5364 2.97753 4.95019 3.48763C6.20319 5.03223 7.92997 6.17632 9.90596 6.71289C10.5318 4.01685 12.9458 2 15.8455 2C17.1393 2 18.3451 2.40254 19.3363 3.09336C19.716 2.9592 20.0795 2.78852 20.4167 2.58728C21.1308 2.16105 22.0342 2.22127 22.6855 2.73852C23.2325 3.17294 23.5057 3.85357 23.429 4.52968C23.4695 4.57103 23.5084 4.6144 23.5457 4.65976C24.1112 5.34826 24.1531 6.32782 23.6484 7.06207C23.1632 7.76791 22.5914 8.41995 21.9479 8.99624Z" fill="black"/>
<path d="M19.9432 8.01027C19.9559 8.18791 19.9559 8.3656 19.9559 8.54344C19.9559 13.9611 15.8312 20.2068 8.29259 20.2068C5.97046 20.2068 3.81239 19.5342 2 18.3667C2.32994 18.4047 2.64723 18.4174 2.98978 18.4174C4.90607 18.4174 6.66964 17.7702 8.07932 16.6663C6.27747 16.6283 4.76741 15.4481 4.24713 13.8239C4.50094 13.862 4.75452 13.8874 5.0213 13.8874C5.38929 13.8874 5.75719 13.8366 6.09975 13.7478C4.22174 13.3671 2.81323 11.7175 2.81323 9.75977V9.70903C3.3589 10.0136 3.99324 10.2039 4.66585 10.2293C3.56201 9.49342 2.83862 8.23685 2.83862 6.81585C2.83862 6.05456 3.04162 5.35656 3.39679 4.74761C5.41425 7.23457 8.44727 8.86064 11.8494 9.03641C11.786 8.73186 11.7479 8.41458 11.7479 8.09741C11.7479 5.83856 13.5751 4 15.8453 4C17.0253 4 18.0913 4.49489 18.84 5.29445C19.7665 5.11681 20.6548 4.77417 21.4414 4.30467C21.1369 5.25656 20.4895 6.05574 19.6396 6.56352C20.4645 6.47473 21.2637 6.24627 22 5.92918C21.4418 6.74124 20.7438 7.46463 19.9443 8.04819L19.9432 8.01027Z" fill="#EDEFEE"/>
</svg>
