<svg width="24" height="24" viewBox="0 0 24 24" fill="none" xmlns="http://www.w3.org/2000/svg">
<path fill-rule="evenodd" clip-rule="evenodd" d="M19.9559 8.54045C19.9559 8.37701 19.9558 8.21371 19.9459 8.05045C19.9458 8.04968 19.9458 8.04892 19.9457 8.04815C19.9457 8.04782 19.9457 8.04748 19.9457 8.04714C19.9631 8.03443 19.9804 8.02165 19.9978 8.0088C19.999 8.00791 20.0002 8.00701 20.0014 8.00611C20.1172 7.92011 20.2308 7.83118 20.3421 7.73946C20.7348 7.41589 21.0989 7.05767 21.4294 6.67174C21.4799 6.61265 21.5297 6.55291 21.5787 6.49254C21.7267 6.31022 21.8673 6.1222 22 5.92918C21.6701 6.07122 21.3277 6.19547 20.976 6.29736C20.5425 6.42292 20.095 6.5145 19.6396 6.56352C19.8878 6.41519 20.1188 6.24199 20.329 6.04739C20.5864 5.80914 20.8126 5.5388 21.0012 5.24271C21.1521 5.00591 21.279 4.75265 21.3785 4.48616C21.4009 4.42632 21.4218 4.36581 21.4414 4.30467C21.4041 4.32694 21.3665 4.34893 21.3287 4.37063C21.031 4.54167 20.7195 4.69471 20.3975 4.82776C20.3662 4.84073 20.3347 4.8535 20.3031 4.86608C20.0372 4.97209 19.7644 5.0645 19.4866 5.14221C19.2858 5.19838 19.0824 5.24686 18.8771 5.28725C18.8647 5.28968 18.8524 5.29208 18.84 5.29445C18.7232 5.16969 18.5986 5.05235 18.4671 4.94315C17.7558 4.3525 16.8411 4 15.8453 4C13.944 4 12.3535 5.28951 11.8867 7.03545C11.7961 7.37428 11.7478 7.73029 11.7478 8.09741C11.7478 8.41458 11.7859 8.73186 11.8494 9.03641C11.1423 8.99989 10.4512 8.90072 9.78186 8.7442C7.95454 8.31691 6.28928 7.46222 4.90413 6.28777C4.35524 5.82237 3.85032 5.30675 3.39675 4.74761C3.04157 5.35656 2.83858 6.05456 2.83858 6.81585C2.83858 6.91694 2.84224 7.0172 2.84944 7.1165C2.86417 7.31968 2.89371 7.51883 2.937 7.71286C3.02077 8.08834 3.15605 8.44464 3.33516 8.77381C3.5226 9.11831 3.75806 9.43309 4.03275 9.70903C4.04973 9.72609 4.06687 9.74301 4.08415 9.75977C4.26297 9.93321 4.45762 10.0905 4.66581 10.2293C4.03137 10.2054 3.43098 10.0347 2.90694 9.75977C2.87541 9.74323 2.84416 9.72631 2.81319 9.70903V9.75977C2.81319 10.4755 3.00145 11.15 3.33208 11.7365C3.37834 11.8185 3.42738 11.8988 3.47909 11.9773C3.50671 12.0192 3.53509 12.0606 3.56421 12.1014C3.79284 12.422 4.0671 12.7089 4.37772 12.9524C4.57795 13.1094 4.79329 13.2483 5.02126 13.3668C5.10711 13.4114 5.19476 13.4531 5.28406 13.4917C5.54308 13.6038 5.81603 13.6903 6.09971 13.7478C5.75715 13.8366 5.38924 13.8874 5.02126 13.8874C4.75448 13.8874 4.5009 13.862 4.24708 13.8239C4.41253 14.3404 4.67807 14.812 5.02126 15.2162C5.15316 15.3716 5.29654 15.517 5.45011 15.6512C5.5184 15.7109 5.58871 15.7683 5.66091 15.8235C5.67261 15.8324 5.68436 15.8413 5.69615 15.8501C6.36157 16.3468 7.18444 16.6474 8.07927 16.6663C7.41465 17.1868 6.67136 17.6057 5.87049 17.9032C5.73639 17.953 5.60068 17.9994 5.46346 18.0423C4.68194 18.2866 3.85128 18.4174 2.98974 18.4174C2.64718 18.4174 2.3299 18.4047 1.99996 18.3667C2.31947 18.5725 2.64973 18.7629 2.98974 18.937C3.91851 19.4126 4.92003 19.7661 5.974 19.9777C6.7228 20.1281 7.49806 20.2068 8.29254 20.2068C15.1413 20.2068 19.1724 15.0519 19.8528 10.0461C19.9214 9.54191 19.9559 9.0392 19.9559 8.54344C19.9559 8.54244 19.9559 8.54144 19.9559 8.54045ZM21.9477 8.99624C21.7241 15.1708 16.9527 22.2068 8.29254 22.2068C5.57831 22.2068 3.04543 21.4192 0.916866 20.048C0.135156 19.5445 -0.196379 18.5686 0.116817 17.693C0.430013 16.8175 1.30531 16.2733 2.22905 16.3798C2.46114 16.4066 2.6981 16.4174 2.98974 16.4174C3.13044 16.4174 3.26998 16.4128 3.40824 16.4038C2.93969 15.8259 2.57501 15.1601 2.34243 14.4341C2.26219 14.1836 2.23333 13.9242 2.25302 13.6698C1.35569 12.6143 0.813187 11.2508 0.813187 9.75977V9.70903C0.813187 9.3269 0.922224 8.96018 1.11845 8.64701C0.936611 8.06862 0.838576 7.45338 0.838576 6.81585C0.838576 5.68814 1.14189 4.64392 1.66913 3.73997C2.00006 3.17259 2.58848 2.80387 3.24337 2.7535C3.89827 2.70313 4.53615 2.97753 4.94995 3.48763C6.20295 5.03223 7.92973 6.17633 9.90571 6.71289C10.5315 4.01685 12.9455 2 15.8453 2C17.1391 2 18.3448 2.40254 19.3361 3.09336C19.7157 2.9592 20.0792 2.78852 20.4164 2.58728C21.1306 2.16105 22.034 2.22127 22.6853 2.73852C23.2322 3.17294 23.5055 3.85357 23.4288 4.52968C23.4693 4.57103 23.5082 4.6144 23.5455 4.65976C24.111 5.34826 24.1528 6.32782 23.6482 7.06207C23.163 7.76791 22.5912 8.41995 21.9477 8.99624Z" fill="black"/>
<path d="M19.9432 8.01027C19.9559 8.18791 19.9559 8.3656 19.9559 8.54344C19.9559 13.9611 15.8312 20.2068 8.29259 20.2068C5.97046 20.2068 3.81239 19.5342 2 18.3667C2.32994 18.4047 2.64723 18.4174 2.98978 18.4174C4.90607 18.4174 6.66964 17.7702 8.07932 16.6663C6.27747 16.6283 4.76741 15.4481 4.24713 13.8239C4.50094 13.862 4.75452 13.8874 5.0213 13.8874C5.38929 13.8874 5.75719 13.8366 6.09975 13.7478C4.22174 13.3671 2.81323 11.7175 2.81323 9.75977V9.70903C3.3589 10.0136 3.99324 10.2039 4.66585 10.2293C3.56201 9.49342 2.83862 8.23685 2.83862 6.81585C2.83862 6.05456 3.04162 5.35656 3.39679 4.74761C5.41425 7.23457 8.44727 8.86064 11.8494 9.03641C11.786 8.73186 11.7479 8.41458 11.7479 8.09741C11.7479 5.83856 13.5751 4 15.8453 4C17.0253 4 18.0913 4.49489 18.84 5.29445C19.7665 5.11681 20.6548 4.77417 21.4414 4.30467C21.1368 5.25656 20.4895 6.05574 19.6396 6.56352C20.4645 6.47473 21.2637 6.24627 22 5.92918C21.4418 6.74124 20.7438 7.46464 19.9443 8.04819L19.9432 8.01027Z" fill="#EDEFEE"/>
</svg>
