<?xml version="1.0" encoding="UTF-8" standalone="no"?>
<svg
   xmlns:dc="http://purl.org/dc/elements/1.1/"
   xmlns:cc="http://creativecommons.org/ns#"
   xmlns:rdf="http://www.w3.org/1999/02/22-rdf-syntax-ns#"
   xmlns:svg="http://www.w3.org/2000/svg"
   xmlns="http://www.w3.org/2000/svg"
   viewBox="0 0 86.666664 85.333336"
   height="85.333336"
   width="86.666664"
   xml:space="preserve"
   id="svg2"
   version="1.1"><metadata
     id="metadata8"><rdf:RDF><cc:Work
         rdf:about=""><dc:format>image/svg+xml</dc:format><dc:type
           rdf:resource="http://purl.org/dc/dcmitype/StillImage" /></cc:Work></rdf:RDF></metadata><defs
     id="defs6"><linearGradient
       id="linearGradient30"
       spreadMethod="pad"
       gradientTransform="matrix(-42.578323,-42.578323,-42.578323,42.578323,53.789162,53.289162)"
       gradientUnits="userSpaceOnUse"
       y2="0"
       x2="1"
       y1="0"
       x1="0"><stop
         id="stop24"
         offset="0"
         style="stop-opacity:1;stop-color:#ffa2c9" /><stop
         id="stop26"
         offset="0.71760206"
         style="stop-opacity:1;stop-color:#ffffff" /><stop
         id="stop28"
         offset="1"
         style="stop-opacity:1;stop-color:#ffffff" /></linearGradient><clipPath
       id="clipPath40"
       clipPathUnits="userSpaceOnUse"><path
         id="path38"
         d="M 0,64 H 65 V 0 H 0 Z" /></clipPath></defs><g
     transform="matrix(1.3333333,0,0,-1.3333333,0,85.333333)"
     id="g10"><g
       id="g12"><g
         id="g14"><g
           id="g20"><g
             id="g22"><path
               id="path32"
               style="fill:url(#linearGradient30);stroke:none"
               d="M 2.392,32 C 2.392,15.372 15.872,1.893 32.5,1.893 v 0 c 16.628,0 30.108,13.479 30.108,30.107 v 0 c 0,16.628 -13.48,30.107 -30.108,30.107 v 0 C 15.872,62.107 2.392,48.628 2.392,32" /></g></g></g></g><g
       id="g34"><g
         clip-path="url(#clipPath40)"
         id="g36"><g
           transform="translate(25.4814,49.1553)"
           id="g42"><path
             id="path44"
             style="fill:#ff007a;fill-opacity:1;fill-rule:nonzero;stroke:none"
             d="M 0,0 C -0.523,0.081 -0.545,0.09 -0.299,0.127 0.173,0.2 1.287,0.102 2.055,-0.08 3.849,-0.504 5.48,-1.589 7.222,-3.516 l 0.463,-0.512 0.661,0.106 c 2.789,0.445 5.626,0.091 7.998,-0.998 0.653,-0.3 1.682,-0.897 1.81,-1.05 0.041,-0.049 0.117,-0.363 0.167,-0.699 0.177,-1.161 0.088,-2.051 -0.268,-2.716 -0.196,-0.362 -0.206,-0.476 -0.075,-0.786 0.104,-0.247 0.395,-0.43 0.683,-0.429 0.59,0 1.224,0.948 1.519,2.266 l 0.116,0.523 0.231,-0.26 c 1.27,-1.429 2.267,-3.378 2.438,-4.765 l 0.045,-0.362 -0.214,0.328 c -0.367,0.566 -0.735,0.952 -1.208,1.262 -0.852,0.56 -1.752,0.751 -4.137,0.876 -2.153,0.112 -3.373,0.295 -4.581,0.687 -2.057,0.667 -3.093,1.554 -5.536,4.739 C 6.249,-3.891 5.579,-3.108 4.912,-2.478 3.396,-1.045 1.906,-0.294 0,0" /></g><g
           transform="translate(44.1221,45.9961)"
           id="g46"><path
             id="path48"
             style="fill:#ff007a;fill-opacity:1;fill-rule:nonzero;stroke:none"
             d="M 0,0 C 0.054,0.948 0.183,1.573 0.443,2.145 0.546,2.371 0.643,2.556 0.657,2.556 0.672,2.556 0.628,2.389 0.558,2.185 0.369,1.63 0.338,0.873 0.468,-0.009 0.634,-1.128 0.728,-1.29 1.918,-2.499 2.476,-3.066 3.125,-3.781 3.36,-4.088 L 3.788,-4.646 3.36,-4.247 C 2.837,-3.759 1.634,-2.808 1.367,-2.672 1.189,-2.581 1.163,-2.582 1.053,-2.691 0.951,-2.791 0.93,-2.942 0.916,-3.654 0.895,-4.764 0.742,-5.476 0.375,-6.188 0.176,-6.573 0.145,-6.491 0.324,-6.056 c 0.135,0.325 0.149,0.467 0.148,1.541 -0.003,2.159 -0.261,2.678 -1.773,3.567 -0.383,0.225 -1.013,0.55 -1.402,0.721 -0.389,0.172 -0.696,0.322 -0.686,0.333 0.043,0.042 1.518,-0.385 2.112,-0.612 0.882,-0.338 1.028,-0.382 1.135,-0.341 C -0.07,-0.819 -0.035,-0.611 0,0" /></g><g
           transform="translate(26.498,42.3037)"
           id="g50"><path
             id="path52"
             style="fill:#ff007a;fill-opacity:1;fill-rule:nonzero;stroke:none"
             d="m 0,0 c -1.062,1.454 -1.72,3.683 -1.578,5.35 l 0.044,0.515 0.242,-0.044 C -0.837,5.739 -0.055,5.449 0.312,5.228 1.318,4.621 1.754,3.821 2.197,1.767 2.327,1.166 2.498,0.485 2.576,0.254 2.702,-0.117 3.179,-0.983 3.566,-1.545 3.846,-1.951 3.66,-2.143 3.043,-2.087 2.101,-2.003 0.824,-1.127 0,0" /></g><g
           transform="translate(42.833,31.4824)"
           id="g54"><path
             id="path56"
             style="fill:#ff007a;fill-opacity:1;fill-rule:nonzero;stroke:none"
             d="m 0,0 c -4.966,1.987 -6.715,3.712 -6.715,6.623 0,0.428 0.015,0.778 0.033,0.778 0.018,0 0.21,-0.141 0.427,-0.314 C -5.248,6.284 -4.12,5.941 -0.999,5.489 0.838,5.223 1.872,5.007 2.825,4.693 5.856,3.694 7.731,1.667 8.179,-1.095 8.309,-1.897 8.232,-3.401 8.021,-4.194 7.855,-4.821 7.348,-5.95 7.213,-5.993 7.176,-6.006 7.139,-5.863 7.13,-5.67 7.078,-4.633 6.552,-3.624 5.666,-2.867 4.659,-2.008 3.307,-1.323 0,0" /></g><g
           transform="translate(39.3467,30.6572)"
           id="g58"><path
             id="path60"
             style="fill:#ff007a;fill-opacity:1;fill-rule:nonzero;stroke:none"
             d="M 0,0 C -0.062,0.368 -0.17,0.838 -0.239,1.044 L -0.366,1.419 -0.131,1.157 C 0.194,0.793 0.452,0.329 0.67,-0.291 0.837,-0.764 0.855,-0.903 0.854,-1.672 0.853,-2.426 0.832,-2.584 0.679,-3.009 0.436,-3.68 0.135,-4.155 -0.37,-4.666 -1.276,-5.584 -2.443,-6.092 -4.126,-6.303 -4.418,-6.339 -5.271,-6.4 -6.021,-6.439 c -1.889,-0.098 -3.132,-0.3 -4.249,-0.69 -0.161,-0.056 -0.304,-0.09 -0.318,-0.075 -0.046,0.045 0.715,0.495 1.343,0.796 0.886,0.424 1.768,0.655 3.743,0.982 0.977,0.162 1.984,0.358 2.24,0.436 C -0.845,-4.254 0.397,-2.353 0,0" /></g><g
           transform="translate(41.623,26.6387)"
           id="g62"><path
             id="path64"
             style="fill:#ff007a;fill-opacity:1;fill-rule:nonzero;stroke:none"
             d="m 0,0 c -0.66,1.41 -0.812,2.771 -0.45,4.04 0.039,0.136 0.101,0.247 0.138,0.247 0.038,0 0.194,-0.084 0.346,-0.185 C 0.339,3.897 0.948,3.555 2.572,2.675 4.6,1.576 5.756,0.726 6.542,-0.246 c 0.687,-0.851 1.114,-1.82 1.319,-3.002 0.116,-0.67 0.048,-2.281 -0.125,-2.955 -0.545,-2.126 -1.812,-3.795 -3.618,-4.77 -0.265,-0.143 -0.503,-0.26 -0.528,-0.26 -0.027,-10e-4 0.07,0.243 0.214,0.542 0.607,1.262 0.676,2.49 0.217,3.857 C 3.74,-5.996 3.166,-4.975 2.008,-3.248 0.661,-1.241 0.331,-0.707 0,0" /></g><g
           transform="translate(22.9717,19.0332)"
           id="g66"><path
             id="path68"
             style="fill:#ff007a;fill-opacity:1;fill-rule:nonzero;stroke:none"
             d="m 0,0 c 1.843,1.547 4.135,2.646 6.224,2.982 0.9,0.146 2.4,0.088 3.233,-0.124 1.336,-0.339 2.531,-1.101 3.152,-2.007 0.608,-0.887 0.869,-1.66 1.14,-3.377 0.107,-0.679 0.224,-1.359 0.259,-1.513 0.203,-0.891 0.599,-1.603 1.092,-1.96 0.78,-0.568 2.124,-0.604 3.446,-0.091 0.224,0.087 0.419,0.148 0.433,0.134 0.047,-0.048 -0.619,-0.49 -1.088,-0.724 -0.632,-0.313 -1.134,-0.434 -1.802,-0.434 -1.211,0 -2.216,0.611 -3.055,1.86 -0.165,0.245 -0.536,0.982 -0.824,1.635 C 11.324,-1.611 10.887,-1 9.858,-0.331 8.964,0.252 7.81,0.356 6.941,-0.067 5.801,-0.623 5.483,-2.071 6.3,-2.989 c 0.325,-0.365 0.93,-0.68 1.425,-0.74 0.926,-0.116 1.722,0.584 1.722,1.514 0,0.604 -0.234,0.947 -0.821,1.211 -0.802,0.36 -1.665,-0.06 -1.661,-0.809 0.002,-0.32 0.142,-0.521 0.464,-0.666 0.207,-0.092 0.212,-0.1 0.043,-0.065 -0.736,0.151 -0.909,1.034 -0.317,1.619 0.711,0.703 2.18,0.393 2.685,-0.566 0.212,-0.404 0.237,-1.206 0.052,-1.691 -0.413,-1.085 -1.62,-1.655 -2.843,-1.344 -0.833,0.211 -1.173,0.44 -2.177,1.467 -1.745,1.788 -2.423,2.134 -4.938,2.524 l -0.483,0.075 z" /></g><g
           transform="translate(17.4976,23.6943)"
           id="g70"><path
             id="path72"
             style="fill:#ff007a;fill-opacity:1;fill-rule:nonzero;stroke:none"
             d="m 0,0 c 0.265,0.467 0.124,1.066 -0.319,1.36 -0.42,0.277 -1.071,0.147 -1.071,-0.214 0,-0.111 0.061,-0.191 0.2,-0.261 0.232,-0.119 0.249,-0.253 0.066,-0.527 -0.186,-0.276 -0.17,-0.52 0.042,-0.685 C -0.739,-0.594 -0.254,-0.447 0,0 M -2.714,27.318 C 3.114,20.288 7.127,17.387 7.574,16.774 7.942,16.269 7.803,15.813 7.172,15.457 6.822,15.259 6.1,15.058 5.739,15.058 5.331,15.058 5.19,15.214 5.19,15.214 4.953,15.438 4.82,15.398 3.604,17.544 1.915,20.149 0.501,22.31 0.463,22.346 0.374,22.429 0.375,22.427 3.431,16.992 3.925,15.859 3.53,15.443 3.53,15.282 3.53,14.954 3.439,14.781 3.032,14.33 2.353,13.577 2.05,12.731 1.831,10.98 1.585,9.018 0.894,7.631 -1.02,5.258 -2.141,3.869 -2.324,3.614 -2.607,3.055 -2.963,2.35 -3.061,1.955 -3.101,1.064 c -0.042,-0.94 0.04,-1.548 0.33,-2.449 0.253,-0.787 0.517,-1.307 1.193,-2.347 0.583,-0.899 0.919,-1.566 0.919,-1.828 0,-0.207 0.04,-0.208 0.944,-0.004 2.163,0.485 3.92,1.339 4.907,2.385 0.612,0.648 0.755,1.006 0.76,1.893 C 5.955,-0.705 5.935,-0.584 5.776,-0.25 5.52,0.294 5.052,0.746 4.021,1.446 2.669,2.364 2.092,3.104 1.933,4.12 1.802,4.954 1.954,5.543 2.701,7.1 c 0.774,1.611 0.966,2.298 1.095,3.923 0.084,1.05 0.2,1.463 0.503,1.796 0.317,0.347 0.602,0.464 1.385,0.57 1.276,0.174 2.089,0.502 2.758,1.113 0.579,0.532 0.822,1.043 0.859,1.813 L 9.33,16.899 9.006,17.274 C 7.833,18.634 -3.5,28.387 -3.572,28.387 c -0.016,0 0.37,-0.481 0.858,-1.069" /></g><g
           transform="translate(29.2285,35.5371)"
           id="g74"><path
             id="path76"
             style="fill:#ff007a;fill-opacity:1;fill-rule:nonzero;stroke:none"
             d="m 0,0 c 0.21,0.297 0.119,0.618 -0.239,0.835 -0.682,0.415 -1.713,0.072 -1.713,-0.568 0,-0.319 0.537,-0.666 1.03,-0.666 0.328,0 0.777,0.194 0.922,0.399 m -1.596,1.24 c -0.599,-0.183 -1.181,-0.814 -1.362,-1.476 -0.11,-0.404 -0.047,-1.113 0.117,-1.331 0.267,-0.354 0.524,-0.447 1.221,-0.442 1.365,0.009 2.552,0.591 2.69,1.319 0.113,0.596 -0.408,1.422 -1.126,1.785 -0.371,0.187 -1.158,0.261 -1.54,0.145" /></g></g></g></g></svg>