<svg width="24" height="24" viewBox="0 0 24 24" fill="none" xmlns="http://www.w3.org/2000/svg">
<path d="M19.1875 6.75H6.6875C6.17188 6.75 5.75 7.17188 5.75 7.6875C5.75 8.20312 6.17188 8.625 6.6875 8.625H19.1875C19.7043 8.625 20.125 9.0457 20.125 9.5625V17.6875C20.125 18.2043 19.7043 18.625 19.1875 18.625H5.4375C4.57578 18.625 3.875 17.9242 3.875 17.0625V6.4375C3.875 5.57578 4.57578 4.875 5.4375 4.875H19.8125C20.332 4.875 20.75 4.45508 20.75 3.9375C20.75 3.41992 20.332 3 19.8125 3H5.4375C3.5418 3 2 4.5418 2 6.4375V17.0625C2 18.957 3.5418 20.5 5.4375 20.5H19.1875C20.7383 20.5 22 19.2383 22 17.6875V9.5625C22 8.01172 20.7383 6.75 19.1875 6.75ZM18.25 13.625C18.25 12.9348 17.6902 12.375 17 12.375C16.3098 12.375 15.75 12.9348 15.75 13.625C15.75 14.3152 16.3098 14.875 17 14.875C17.6902 14.875 18.25 14.3164 18.25 13.625Z" fill="black"/>
</svg>
