<svg width="24" height="24" viewBox="0 0 24 24" fill="none" xmlns="http://www.w3.org/2000/svg">
<path fill-rule="evenodd" clip-rule="evenodd" d="M22.0581 12.0003L12.0002 22.0578L1.94238 11.9999L11.9998 1.94238L22.0581 12.0003Z" fill="white"/>
<path d="M22.4142 12.3567L12.3564 22.4143L11.9998 22.7708L11.6434 22.4143L1.58548 12.3563L1.229 12L1.58548 11.6435L11.643 1.58596L11.9995 1.22949L12.3559 1.58596L22.4142 11.6439L22.7707 12.0003L22.4142 12.3567ZM11.9998 21.3448L21.3444 12.0002L11.9995 2.65538L2.65501 11.9998L11.9998 21.3448Z" fill="black"/>
<path fill-rule="evenodd" clip-rule="evenodd" d="M3.87939 20.8689L16.8228 12.6068L16.8187 10.2759L15.0773 9.66605L19.1844 5.51589V3.78906L6.80572 10.8709V13.2215H9.17139L3.88251 18.5641L3.87939 20.8748V20.8689Z" fill="#E6B337"/>
<path d="M4.72028 19.3363L15.9839 12.1465L15.9814 10.8684L14.8022 10.4554L14.4846 9.07635L18.2104 5.31153L7.64451 11.3564V12.3829H9.17163L9.76454 13.8114L4.7209 18.9061L4.72028 19.3363ZM17.2752 13.3143L4.33181 21.5767C4.24988 21.629 3.04114 21.5843 3.04114 20.8749V20.869L3.04263 19.7165L3.04425 18.5641C3.04542 18.4547 3.06814 18.3467 3.11111 18.2462C3.15285 18.145 3.21359 18.0528 3.29004 17.9745L7.16503 14.06H6.80619C6.27428 13.997 6.05079 13.6692 5.96762 13.2216V10.8709C5.96762 10.5907 6.14679 10.283 6.3902 10.1438L18.7691 3.06187C19.7912 2.95903 19.9677 3.33953 20.0234 3.78901C20.099 4.01114 20.1834 4.33151 20.2012 4.68761C20.2241 5.14556 20.1364 5.66252 19.7779 6.10553L16.6021 9.31417L17.0941 9.48649C17.3992 9.59332 17.657 9.95266 17.6575 10.2759L17.6618 12.6069C17.6623 12.8755 17.5018 13.1698 17.2752 13.3143ZM3.04102 20.8749H3.88332H3.04102Z" fill="black"/>
<path fill-rule="evenodd" clip-rule="evenodd" d="M3.88623 20.8567L16.83 12.5945L16.8261 10.2632L15.0846 9.65372L19.1916 5.50344V3.77637L6.8127 10.8585V13.2089H9.17801L3.88947 18.5511L3.88623 20.8618V20.8567Z" fill="#E6B337"/>
<path fill-rule="evenodd" clip-rule="evenodd" d="M3.99072 18.5616L16.8192 10.2757L12.1029 12.9605L3.99072 18.5616ZM11.4355 10.8921H7.03859L10.1436 11.1318L11.4355 10.8921ZM13.4028 8.98729L19.1214 3.89551L16.7465 6.401L13.4028 8.98729Z" fill="#D17239"/>
<path fill-rule="evenodd" clip-rule="evenodd" d="M3.94727 18.5475L11.5514 10.8491L6.95119 10.842L12.4078 10.4643L3.94727 18.5475ZM13.3363 8.9839L14.2364 7.86668L19.054 3.90527L13.3363 8.9839Z" fill="#F4F1C3"/>
</svg>
