<svg width="24" height="24" viewBox="0 0 24 24" fill="none" xmlns="http://www.w3.org/2000/svg">
<path fill-rule="evenodd" clip-rule="evenodd" d="M22.0578 12L11.9999 22.0576L1.94214 11.9997L11.9995 1.94214L22.0578 12Z" fill="white"/>
<path d="M22.4143 12.3566L12.3566 22.4142L12 22.7707L11.6435 22.4142L1.5856 12.3562L1.22913 11.9998L1.5856 11.6434L11.6431 1.58584L11.9996 1.22937L12.3561 1.58584L22.4143 11.6437L22.7708 12.0002L22.4143 12.3566V12.3566ZM12 21.3447L21.3445 12.0001L11.9996 2.65526L2.65514 11.9997L12 21.3447Z" fill="black"/>
<path fill-rule="evenodd" clip-rule="evenodd" d="M3.87952 20.8691L16.8229 12.607L16.8188 10.276L15.0775 9.66617L19.1845 5.51601V3.78918L6.80585 10.8711V13.2217H9.17151L3.88263 18.5643L3.87952 20.8749V20.8691V20.8691Z" fill="#E6B337"/>
<path d="M4.7204 19.3363L15.984 12.1465L15.9816 10.8684L14.8023 10.4554L14.4847 9.07635L18.2105 5.31153L7.64464 11.3564V12.3829H9.17175L9.76466 13.8114L4.72102 18.9061L4.7204 19.3363V19.3363ZM17.2753 13.3143L4.33193 21.5767C4.25 21.629 3.04126 21.5843 3.04126 20.8749V20.869L3.04276 19.7165L3.04438 18.5641C3.04554 18.4547 3.06826 18.3467 3.11124 18.2462C3.15298 18.145 3.21371 18.0528 3.29016 17.9745L7.16515 14.06H6.80631C6.27441 13.997 6.05091 13.6692 5.96774 13.2216V10.8709C5.96774 10.5907 6.14691 10.283 6.39033 10.1438L18.7692 3.06187C19.7913 2.95903 19.9679 3.33953 20.0235 3.78901C20.0991 4.01114 20.1835 4.33151 20.2013 4.68761C20.2242 5.14556 20.1366 5.66252 19.778 6.10553L16.6022 9.31417L17.0942 9.48649C17.3994 9.59332 17.6571 9.95266 17.6576 10.2759L17.6619 12.6069C17.6624 12.8755 17.5019 13.1698 17.2753 13.3143V13.3143ZM3.04114 20.8749H3.88345H3.04114Z" fill="black"/>
<path fill-rule="evenodd" clip-rule="evenodd" d="M3.88635 20.8566L16.8301 12.5943L16.8263 10.263L15.0847 9.65354L19.1917 5.50326V3.77618L6.81282 10.8583V13.2087H9.17813L3.88959 18.5509L3.88635 20.8617V20.8566Z" fill="#E6B337"/>
<path fill-rule="evenodd" clip-rule="evenodd" d="M3.9906 18.5617L16.8191 10.2758L12.1028 12.9605L3.9906 18.5617ZM11.4354 10.8922H7.03847L10.1435 11.1319L11.4354 10.8922ZM13.4026 8.98735L19.1212 3.89557L16.7463 6.40106L13.4026 8.98735V8.98735Z" fill="#D17239"/>
<path fill-rule="evenodd" clip-rule="evenodd" d="M3.94714 18.5477L11.5513 10.8492L6.95107 10.8421L12.4077 10.4645L3.94714 18.5477V18.5477ZM13.3362 8.98408L14.2363 7.86686L19.0539 3.90546L13.3362 8.98408V8.98408Z" fill="#F4F1C3"/>
</svg>
