<svg width="24" height="24" viewBox="0 0 24 24" fill="none" xmlns="http://www.w3.org/2000/svg">
<path d="M20.125 2H7.625C6.58984 2 5.75 2.83984 5.75 3.875V5.75H3.875C2.83984 5.75 2 6.58984 2 7.625V20.125C2 21.1602 2.83984 22 3.875 22H16.375C17.4102 22 18.25 21.1602 18.25 20.125V18.25H20.125C21.1602 18.25 22 17.4102 22 16.375V3.875C22 2.83984 21.1602 2 20.125 2ZM16.375 20.125H3.875V12H16.375V20.125ZM20.125 16.375H18.25V7.625C18.25 6.58984 17.4102 5.75 16.375 5.75H7.625V3.875H20.125V16.375Z" fill="#EDEFEE"/>
</svg>
