<svg width="12" height="11" viewBox="0 0 12 11" fill="none" xmlns="http://www.w3.org/2000/svg">
<path d="M11.6431 5.33325C11.6431 5.79419 11.2941 6.16658 10.8332 6.16658H2.84622L5.59102 8.91138C5.91654 9.2369 5.91654 9.76424 5.59102 10.0898C5.42695 10.2525 5.21341 10.3333 4.99987 10.3333C4.78633 10.3333 4.57331 10.2519 4.41081 10.0891L0.244141 5.92244C-0.0813802 5.59692 -0.0813802 5.06958 0.244141 4.74406L4.41081 0.577393C4.73633 0.251872 5.26367 0.251872 5.58919 0.577393C5.91471 0.902913 5.91471 1.43026 5.58919 1.75578L2.84622 4.49992H10.8332C11.2941 4.49992 11.6431 4.87231 11.6431 5.33325Z" fill="black"/>
</svg>
