<svg width="16" height="16" viewBox="0 0 16 16" fill="none" xmlns="http://www.w3.org/2000/svg">
<path d="M6.40169 2H9.59961C10.1387 2 10.6152 2.34427 10.7845 2.85469L11.0553 3.66667H13.0007C13.9199 3.66667 14.6673 4.41406 14.6673 5.33333V12C14.6673 12.9193 13.9199 13.6667 13.0007 13.6667H3.00065C2.08008 13.6667 1.33398 12.9193 1.33398 12V5.33333C1.33398 4.41406 2.08008 3.66667 3.00065 3.66667H4.94596L5.2168 2.85469C5.38607 2.34427 5.86263 2 6.40169 2ZM8.00065 11.1667C9.38086 11.1667 10.5007 10.0469 10.5007 8.66667C10.5007 7.26302 9.38086 6.16667 8.00065 6.16667C6.59701 6.16667 5.50065 7.26302 5.50065 8.66667C5.50065 10.0469 6.59701 11.1667 8.00065 11.1667Z" fill="black"/>
</svg>
