<svg width="14" height="14" viewBox="0 0 14 14" fill="none" xmlns="http://www.w3.org/2000/svg">
<path d="M6.76003 0.333252C6.50184 0.333252 6.25424 0.435793 6.07156 0.618332C5.88902 0.80087 5.78648 1.04846 5.78648 1.3068V6.06914L4.31056 4.68477C4.12381 4.50005 3.87039 4.3986 3.60784 4.40349C3.34517 4.40838 3.09569 4.51921 2.91587 4.71071C2.73618 4.90234 2.64152 5.15836 2.65333 5.42076C2.66515 5.68316 2.78249 5.92968 2.97875 6.10419L6.09414 9.0248C6.11166 9.04232 6.13312 9.054 6.15254 9.06962C6.17753 9.09108 6.20347 9.11118 6.2305 9.13006C6.25821 9.14704 6.28673 9.16266 6.31607 9.17679C6.34133 9.19037 6.36672 9.20599 6.39389 9.21576L6.39403 9.21563C6.42839 9.22867 6.46343 9.23981 6.49915 9.24877C6.52441 9.24877 6.54777 9.26439 6.57317 9.27023C6.69649 9.29535 6.82361 9.29535 6.94694 9.27023C6.9722 9.27023 6.99556 9.25665 7.02096 9.24877C7.05667 9.23981 7.09172 9.22867 7.12608 9.21563C7.15338 9.20395 7.17864 9.19037 7.2039 9.17665L7.20404 9.17679C7.23337 9.16266 7.2619 9.14704 7.2896 9.13006C7.31663 9.11118 7.34257 9.09108 7.36756 9.06962C7.38698 9.054 7.40844 9.04232 7.42596 9.0248L10.5414 6.10419C10.7376 5.92966 10.855 5.68317 10.8668 5.42076C10.8786 5.15836 10.7839 4.90235 10.6042 4.71071C10.4244 4.51921 10.1749 4.40838 9.91226 4.40349C9.64972 4.3986 9.39628 4.50005 9.20954 4.68477L7.73362 6.06914V1.3068C7.73362 1.04847 7.63108 0.80087 7.44854 0.618332C7.26587 0.435793 7.01827 0.333252 6.76008 0.333252L6.76003 0.333252Z" fill="black"/>
<path d="M12.2113 8.99366C11.9531 8.99366 11.7055 9.0962 11.5228 9.27887C11.3403 9.46141 11.2377 9.709 11.2377 9.9672V11.5249C11.2377 11.5765 11.2172 11.6261 11.1807 11.6626C11.1441 11.699 11.0946 11.7195 11.043 11.7195H2.47582C2.36825 11.7195 2.28106 11.6325 2.28106 11.5249V9.96719C2.28106 9.61936 2.09554 9.29803 1.79429 9.12404C1.49305 8.95019 1.12199 8.95019 0.820753 9.12404C0.519509 9.29802 0.333984 9.61936 0.333984 9.96719V11.5249C0.333984 12.0929 0.559713 12.6376 0.961325 13.0394C1.36294 13.441 1.90771 13.6666 2.47584 13.6666H11.043C11.6111 13.6666 12.1559 13.441 12.5575 13.0394C12.9591 12.6376 13.1848 12.0929 13.1848 11.5249V9.96719C13.1848 9.709 13.0823 9.46141 12.8996 9.27887C12.7171 9.09619 12.4695 8.99365 12.2113 8.99365L12.2113 8.99366Z" fill="black"/>
</svg>
