<svg width="16" height="16" viewBox="0 0 16 16" fill="none" xmlns="http://www.w3.org/2000/svg">
<path d="M14.3027 3.26497L12.7376 1.69954C12.2492 1.21116 11.4563 1.21116 10.9682 1.69954L9.49706 3.1725L12.8076 6.50652L14.2809 5.03356C14.7924 4.54492 14.7924 3.75335 14.3027 3.26497ZM2.14242 10.5045C2.08423 10.5627 2.04459 10.6368 2.02841 10.7174L1.34233 14.1478C1.28956 14.4115 1.49427 14.6694 1.74937 14.6694C1.77669 14.6694 1.80451 14.6667 1.8327 14.6611L5.26309 13.975C5.34379 13.9589 5.41784 13.9192 5.47605 13.8611L12.2405 7.09666L8.90645 3.76264L2.14242 10.5045ZM4.76953 12.7992L2.81235 13.1907L3.20384 11.2333L3.83444 10.6035V12.1689H5.40039L4.76953 12.7992Z" fill="black"/>
</svg>
