<svg width="8" height="13" viewBox="0 0 8 13" fill="none" xmlns="http://www.w3.org/2000/svg">
<path d="M4.00027 7.7713C4.14648 7.7713 4.29275 7.82711 4.40418 7.93871L7.8326 11.3671C8.0558 11.5903 8.0558 11.9519 7.8326 12.1751C7.60939 12.3983 7.2478 12.3983 7.0246 12.1751L4.00027 9.14981L0.975403 12.1747C0.752198 12.3979 0.390607 12.3979 0.167403 12.1747C-0.0558014 11.9515 -0.0558014 11.5899 0.167403 11.3667L3.59582 7.93826C3.70742 7.82666 3.85385 7.7713 4.00027 7.7713Z" fill="black"/>
<path d="M3.99973 4.57123C3.85352 4.57123 3.70725 4.51542 3.59582 4.40382L0.167403 0.975403C-0.0558011 0.752199 -0.0558011 0.390608 0.167403 0.167403C0.390608 -0.0558011 0.752199 -0.0558011 0.975403 0.167403L3.99973 3.19271L7.0246 0.16785C7.2478 -0.0553548 7.60939 -0.0553548 7.8326 0.16785C8.0558 0.391054 8.0558 0.752645 7.8326 0.975849L4.40418 4.40427C4.29258 4.51587 4.14615 4.57123 3.99973 4.57123Z" fill="black"/>
</svg>
