<svg width="8" height="13" viewBox="0 0 8 13" fill="none" xmlns="http://www.w3.org/2000/svg">
<path d="M3.99973 12.3425C3.85352 12.3425 3.70725 12.2867 3.59582 12.1751L0.167403 8.74664C-0.0558011 8.52344 -0.0558011 8.16185 0.167403 7.93864C0.390608 7.71544 0.752199 7.71544 0.975403 7.93864L3.99973 10.964L7.0246 7.93909C7.2478 7.71589 7.60939 7.71589 7.8326 7.93909C8.0558 8.16229 8.0558 8.52389 7.8326 8.74709L4.40418 12.1755C4.29258 12.2871 4.14615 12.3425 3.99973 12.3425Z" fill="black"/>
<path d="M4.00027 6.4373e-05C4.14648 6.4373e-05 4.29275 0.0558653 4.40418 0.167468L7.8326 3.59589C8.0558 3.81909 8.0558 4.18068 7.8326 4.40389C7.60939 4.62709 7.2478 4.62709 7.0246 4.40389L4.00027 1.37857L0.975403 4.40344C0.752198 4.62664 0.390607 4.62664 0.167403 4.40344C-0.0558014 4.18024 -0.0558014 3.81864 0.167403 3.59544L3.59582 0.167021C3.70742 0.055419 3.85385 6.4373e-05 4.00027 6.4373e-05Z" fill="black"/>
</svg>
