<svg width="16" height="16" viewBox="0 0 16 16" fill="none" xmlns="http://www.w3.org/2000/svg">
<path d="M8.00065 1.33325C4.31786 1.33325 1.33398 4.31712 1.33398 7.99992C1.33398 11.6827 4.31786 14.6666 8.00065 14.6666C11.6834 14.6666 14.6673 11.6827 14.6673 7.99992C14.6673 4.31712 11.6834 1.33325 8.00065 1.33325ZM8.00065 13.3763C5.03022 13.3763 2.62431 10.9703 2.62431 7.99992C2.62431 5.02949 5.03022 2.62357 8.00065 2.62357C10.9711 2.62357 13.377 5.02949 13.377 7.99992C13.377 10.9703 10.9711 13.3763 8.00065 13.3763ZM9.66194 10.5698L7.37968 8.91121C7.29635 8.84938 7.24796 8.75261 7.24796 8.65046V4.23648C7.24796 4.05906 7.39312 3.9139 7.57054 3.9139H8.43076C8.60818 3.9139 8.75334 4.05906 8.75334 4.23648V8.04562L10.549 9.35207C10.6942 9.45691 10.7238 9.65852 10.6189 9.80368L10.1136 10.4999C10.0087 10.6424 9.8071 10.6747 9.66194 10.5698Z" fill="black"/>
</svg>
