<svg width="16" height="16" viewBox="0 0 16 16" fill="none" xmlns="http://www.w3.org/2000/svg">
<path d="M12.7923 4.5H4.45898C4.11523 4.5 3.83398 4.78125 3.83398 5.125C3.83398 5.46875 4.11523 5.75 4.45898 5.75H12.7923C13.1368 5.75 13.4173 6.03047 13.4173 6.375V11.7917C13.4173 12.1362 13.1368 12.4167 12.7923 12.4167H3.62565C3.05117 12.4167 2.58398 11.9495 2.58398 11.375V4.29167C2.58398 3.71719 3.05117 3.25 3.62565 3.25H13.209C13.5553 3.25 13.834 2.97005 13.834 2.625C13.834 2.27995 13.5553 2 13.209 2H3.62565C2.36185 2 1.33398 3.02786 1.33398 4.29167V11.375C1.33398 12.638 2.36185 13.6667 3.62565 13.6667H12.7923C13.8262 13.6667 14.6673 12.8255 14.6673 11.7917V6.375C14.6673 5.34115 13.8262 4.5 12.7923 4.5ZM12.1673 9.08333C12.1673 8.62318 11.7941 8.25 11.334 8.25C10.8738 8.25 10.5007 8.62318 10.5007 9.08333C10.5007 9.54349 10.8738 9.91667 11.334 9.91667C11.7941 9.91667 12.1673 9.54427 12.1673 9.08333Z" fill="black"/>
</svg>
