<svg width="16" height="16" viewBox="0 0 16 16" fill="none" xmlns="http://www.w3.org/2000/svg">
<path d="M14.5312 5.67179C14.6171 5.89575 14.5442 6.14836 14.3671 6.31242L13.2395 7.33846C13.2682 7.55461 13.2838 7.77596 13.2838 7.99992C13.2838 8.22388 13.2682 8.44523 13.2395 8.66138L14.3671 9.68742C14.5442 9.85148 14.6171 10.1041 14.5312 10.328C14.4166 10.6379 14.2786 10.9374 14.1224 11.2213L14 11.4322C13.8281 11.7187 13.6354 11.9895 13.4244 12.2473C13.2682 12.4322 13.0156 12.4973 12.7864 12.4244L11.3359 11.9609C10.9869 12.2291 10.5781 12.453 10.1901 12.6249L9.86454 14.1119C9.81246 14.3463 9.63016 14.5129 9.39058 14.5754C9.03121 14.6353 8.66141 14.6666 8.26037 14.6666C7.90621 14.6666 7.53641 14.6353 7.17704 14.5754C6.93745 14.5129 6.75516 14.3463 6.70308 14.1119L6.37756 12.6249C5.9661 12.453 5.58068 12.2291 5.23172 11.9609L3.78224 12.4244C3.55203 12.4973 3.29813 12.4322 3.14396 12.2473C2.93276 11.9895 2.74005 11.7187 2.56818 11.4322L2.4463 11.2213C2.28823 10.9374 2.15073 10.6379 2.03537 10.328C1.95099 10.1041 2.02209 9.85148 2.20073 9.68742L3.32729 8.66138C3.29865 8.44523 3.28381 8.22388 3.28381 7.99992C3.28381 7.77596 3.29865 7.55461 3.32729 7.33846L2.20073 6.31242C2.02209 6.14836 1.95099 5.89836 2.03537 5.67179C2.15073 5.3619 2.28849 5.06242 2.4463 4.77856L2.56792 4.56763C2.74005 4.28117 2.93276 4.01034 3.14396 3.75382C3.29813 3.56763 3.55203 3.50304 3.78224 3.57648L5.23172 4.03898C5.58068 3.76971 5.9661 3.54575 6.37756 3.3757L6.70308 1.88872C6.75516 1.65226 6.93745 1.4645 7.17704 1.42466C7.53641 1.36453 7.90621 1.33325 8.28381 1.33325C8.66141 1.33325 9.03121 1.36453 9.39058 1.42466C9.63016 1.4645 9.81246 1.65226 9.86454 1.88872L10.1901 3.3757C10.5781 3.54575 10.9869 3.76971 11.3359 4.03898L12.7864 3.57648C13.0156 3.50304 13.2682 3.56763 13.4244 3.75382C13.6354 4.01034 13.8281 4.28117 14 4.56763L14.1224 4.77856C14.2786 5.06242 14.4166 5.3619 14.5312 5.67179ZM8.28381 10.0833C9.43485 10.0833 10.3671 9.15096 10.3671 7.97648C10.3671 6.84888 9.43485 5.89315 8.28381 5.89315C7.13277 5.89315 6.20047 6.84888 6.20047 7.97648C6.20047 9.15096 7.13277 10.0833 8.28381 10.0833Z" fill="black"/>
</svg>
