<svg width="16" height="16" viewBox="0 0 16 16" fill="none" xmlns="http://www.w3.org/2000/svg">
<path d="M14.5023 5.32172L11.0094 2.1228C10.7039 1.84335 10.2224 2.07047 10.2224 2.50566V4.22224C6.91705 4.25997 4.29681 4.91897 4.29681 8.03224C4.29681 9.28913 5.11158 10.5344 6.01154 11.1849C6.29254 11.3881 6.69252 11.1331 6.58883 10.8039C5.65554 7.83781 7.25963 7.18506 10.2224 7.16423V8.88174C10.2224 9.31737 10.7048 9.54351 11.0099 9.2639L14.5028 6.06498C14.7222 5.8842 14.7222 5.5231 14.5023 5.32172ZM10.9632 10.8886C10.5541 10.8886 10.2224 11.2203 10.2224 11.6293V12.3492L2.8154 12.3491V4.96295H3.5561C3.96511 4.96295 4.29681 4.63148 4.29681 4.22224C4.29681 3.813 3.9658 3.48153 3.5561 3.48153H2.8154C1.99715 3.48153 1.33398 4.1447 1.33398 4.96295V12.3492C1.33398 13.1672 1.99715 13.8306 2.8154 13.8306L10.2224 13.8305C11.0407 13.8305 11.7039 13.1672 11.7039 12.3491V11.6293C11.7039 11.2196 11.3729 10.8886 10.9632 10.8886Z" fill="black"/>
</svg>
