<svg width="16" height="16" viewBox="0 0 16 16" fill="none" xmlns="http://www.w3.org/2000/svg">
<path d="M1.33398 5.79174V5.37508C1.33398 5.02989 1.6138 4.75008 1.95898 4.75008H11.9061L11.1127 4.02799C10.8571 3.78609 10.8515 3.38096 11.1004 3.13211L11.3827 2.84981C11.6267 2.60573 12.0224 2.60573 12.2665 2.84981L14.4232 4.99416C14.7487 5.31961 14.7487 5.84724 14.4232 6.17268L12.2665 8.31703C12.0224 8.56112 11.6267 8.56112 11.3827 8.31703L11.1004 8.03474C10.8515 7.78588 10.8571 7.38073 11.1127 7.13885L11.9061 6.41674H1.95898C1.6138 6.41674 1.33398 6.13692 1.33398 5.79174ZM14.0423 9.75008H4.09518L4.88859 9.02799C5.14419 8.78609 5.14979 8.38096 4.90094 8.13211L4.61865 7.84982C4.37456 7.60573 3.97885 7.60573 3.73477 7.84982L1.57807 9.99416C1.25263 10.3196 1.25263 10.8472 1.57807 11.1727L3.73477 13.317C3.97885 13.5611 4.37458 13.5611 4.61865 13.317L4.90094 13.0347C5.14979 12.7859 5.14419 12.3808 4.88859 12.1389L4.09518 11.4167H14.0423C14.3875 11.4167 14.6673 11.1369 14.6673 10.7917V10.3751C14.6673 10.0299 14.3875 9.75008 14.0423 9.75008Z" fill="black"/>
</svg>
